<?xml version="1.0" encoding="utf-8"?>
<!-- Generator: Adobe Illustrator 19.2.0, SVG Export Plug-In . SVG Version: 6.00 Build 0)  -->
<svg version="1.1" id="Layer_1" xmlns="http://www.w3.org/2000/svg" xmlns:xlink="http://www.w3.org/1999/xlink" x="0px" y="0px"
	 viewBox="0 0 100 91.1" style="enable-background:new 0 0 100 91.1;" xml:space="preserve">
<style type="text/css">
	.st0{fill:#FFFFFF;}
</style>
<path class="st0" d="M39.1,20c-0.5-0.7-1.5-0.8-2.1-0.3c-1.5,1.2-2.8,2.5-3.9,4.1c-0.5,0.7-0.3,1.6,0.4,2.1c0.7,0.5,1.6,0.3,2.1-0.4
	v0c0.9-1.3,2-2.5,3.3-3.5C39.5,21.6,39.6,20.7,39.1,20z"/>
<path class="st0" d="M85,49.1c-2.5,0-4.8,0.9-6.6,2.5l-2.8-1.9c2.1-4,3.3-8.6,3.3-13.5c0-16-13-29-29-29s-29,13-29,29
	c0,5.1,1.3,9.8,3.6,14L22,52c-1.8-1.8-4.3-2.8-7-2.8c-5.5,0-10,4.5-10,10s4.5,10,10,10s10-4.5,10-10c0-1-0.1-2-0.4-2.9l2.8-2
	c4.8,6,12,10,20.1,10.7v3.4c-4.3,1.1-7.5,5-7.5,9.7c0,5.5,4.5,10,10,10s10-4.5,10-10c0-4.7-3.2-8.6-7.5-9.7V65
	c8.3-0.7,15.6-4.9,20.4-11.2l2.7,1.8c-0.4,1.1-0.6,2.2-0.6,3.4c0,5.5,4.5,10,10,10s10-4.5,10-10S90.5,49.1,85,49.1z M15,64.1
	c-2.8,0-5-2.2-5-5s2.2-5,5-5s5,2.2,5,5C20,61.9,17.8,64.1,15,64.1z M26,36.1c0-13.2,10.8-24,24-24s24,10.8,24,24
	c0,1.6-0.2,3.1-0.5,4.6l-0.6-0.3c-0.4-0.2-0.8,0-1,0.4c-0.2,0.4,0,0.8,0.4,1l0.9,0.4c-0.3,1.2-0.7,2.3-1.2,3.5l-2.2-1.5
	c-0.3-0.2-0.8-0.2-1,0.2s-0.2,0.8,0.2,1l2.4,1.7c-0.5,1-1.1,1.9-1.7,2.8l-1.8-1.4c-0.3-0.3-0.8-0.2-1.1,0.1
	c-0.3,0.3-0.2,0.8,0.1,1.1l1.8,1.5c-0.7,0.9-1.6,1.8-2.4,2.6l-2.1-2.3c-0.3-0.3-0.8-0.3-1.1,0c-0.3,0.3-0.3,0.8,0,1.1l2.1,2.2
	c-0.9,0.8-1.9,1.5-3,2.1l-1.2-2c-0.2-0.4-0.7-0.5-1-0.2s-0.5,0.7-0.2,1l1.2,1.9c-1.1,0.5-2.2,1-3.3,1.4l-1.1-3
	c-0.1-0.4-0.6-0.6-1-0.4c-0.4,0.1-0.6,0.6-0.4,1l1.1,2.9c-1.2,0.3-2.5,0.5-3.7,0.7l-0.2-0.7c-0.1-0.4-0.5-0.6-0.9-0.5
	c-0.4,0.1-0.6,0.5-0.5,0.9l0.1,0.5c-0.3,0-0.6,0-0.8,0C36.8,60.1,26,49.4,26,36.1z M55,78.1c0,2.8-2.2,5-5,5s-5-2.2-5-5s2.2-5,5-5
	S55,75.4,55,78.1z M85,64.1c-2.8,0-5-2.2-5-5s2.2-5,5-5s5,2.2,5,5C90,61.9,87.8,64.1,85,64.1z"/>
<path class="st0" d="M55.9,48.8l0-6.6c0-0.4,0.1-0.6,0.1-0.9c0.2-0.4,0.5-0.8,1-1.3c0.7-0.7,1.8-1.6,2.8-2.9c1-1.3,1.7-3.1,1.7-5.5
	c0-2.9-1.3-5.6-3.3-7.6s-4.9-3.3-8.2-3.3S43.9,22,41.8,24s-3.3,4.7-3.3,7.6c0,1.8,0.4,3.3,1,4.5c1,1.8,2.3,2.8,3.2,3.7
	c0.4,0.4,0.8,0.8,1,1.2c0.2,0.4,0.3,0.7,0.3,1.3v6.6c0,2,1.6,3.6,3.6,3.6h4.7C54.3,52.4,55.9,50.8,55.9,48.8z M42.6,35.4
	c-0.6-0.9-1.1-1.9-1.1-3.8c0-2,0.9-4,2.4-5.4s3.7-2.5,6.1-2.5s4.5,1,6.1,2.5s2.4,3.5,2.4,5.4c0,1.4-0.3,2.3-0.7,3.1
	c-0.6,1.1-1.6,2-2.7,3c-0.5,0.5-1.1,1.1-1.5,1.9c-0.4,0.8-0.7,1.7-0.7,2.7v0.9H47v-0.9c0-0.7-0.1-1.3-0.3-1.9c-0.4-1-1-1.8-1.6-2.4
	C44.2,37,43.2,36.3,42.6,35.4z M47.2,49.2C47.1,49.1,47,49,47,48.8v-2.7h5.9l0,2.7c0,0.2-0.1,0.3-0.2,0.4c-0.1,0.1-0.3,0.2-0.4,0.2
	h-4.7C47.4,49.4,47.3,49.3,47.2,49.2z"/>
</svg>
