<?xml version="1.0" encoding="utf-8"?>
<!-- Generator: Adobe Illustrator 19.0.0, SVG Export Plug-In . SVG Version: 6.00 Build 0)  -->
<svg version="1.1" xmlns="http://www.w3.org/2000/svg" xmlns:xlink="http://www.w3.org/1999/xlink" x="0px" y="0px"
	 viewBox="0 0 1033 509.4" style="enable-background:new 0 0 1033 509.4;" xml:space="preserve">
<style type="text/css">
	.st0{fill:#EFEFEF;stroke:#231F20;stroke-width:3;stroke-linejoin:round;stroke-miterlimit:10;}
	.st1{fill:#FFFFFF;stroke:#231F20;stroke-width:2;stroke-linejoin:round;stroke-miterlimit:10;}
	.st2{fill:none;stroke:#231F20;stroke-width:3;stroke-linejoin:round;stroke-miterlimit:10;}
	.st3{fill:#D3D3D3;}
	.st4{fill:none;stroke:#231F20;stroke-width:2;stroke-linecap:round;stroke-miterlimit:10;}
	.st5{fill:none;stroke:#231F20;stroke-width:2;stroke-linecap:round;stroke-linejoin:round;stroke-miterlimit:10;}
	.st6{fill:#F7F7F7;}
	.st7{fill:#DDDDDD;}
	.st8{fill:#EAEAEA;}
	.st9{fill:#E5E5E5;}
	.st10{fill:#FFFFFF;}
	.st11{fill:#D8D8D8;}
	.st12{fill:none;stroke:#D8D8D8;stroke-miterlimit:10;}
	.st13{fill:none;stroke:#EAEAEA;stroke-width:4;stroke-linecap:round;stroke-linejoin:round;stroke-miterlimit:10;}
	.st14{fill:#7B00DB;}
</style>
<g id="laptop">
	<path id="XMLID_28_" class="st0" d="M905,467.6H119v-450c0-5.5,4.5-10,10-10h769c3.9,0,7,3.1,7,7V467.6z"/>
	<path id="XMLID_33_" class="st1" d="M896,467.6H128.5V21.1c0-3.9,3.1-7,7-7c0,0,265,0.6,287.8,0.6c0,7.9,3.7,15.4,11.2,15.4
		s113.5,0,121,0c16.8,0,18.5-5.5,18.5-15.1c20,0,313,0.6,313,0.6c5,0,9,4,9,9V467.6z"/>
	<path id="XMLID_29_" class="st0" d="M27,467.6c17.4,0,963.8,0,975,0c0,13.3-6,28-28,28s-898,0-915,0S27,483,27,467.6z"/>
	<path id="XMLID_32_" class="st2" d="M602.7,467.6c0,12-5.7,11-14.3,11c-8.7,0-138.3,0-149,0c-10.7,0-15.3-1.7-15.3-11
		C436.7,467.6,602.7,467.6,602.7,467.6z"/>
	<circle id="XMLID_34_" class="st3" cx="540.3" cy="20" r="4.7"/>
	<path id="XMLID_35_" class="st3" d="M457.9,23.6h55.3c2,0,3.6-1.6,3.6-3.6v0c0-2-1.6-3.6-3.6-3.6h-55.3c-2,0-3.6,1.6-3.6,3.6v0
		C454.3,22,455.9,23.6,457.9,23.6z"/>
	<path id="XMLID_36_" class="st4" d="M136.7,28.8c0-6.5,3.9-8.5,8.7-8.5"/>
	<line id="XMLID_37_" class="st5" x1="136.7" y1="33.5" x2="136.7" y2="31.9"/>
</g>
<g id="card_widget">
	<g id="videocard">
		<rect id="XMLID_64_" x="208.1" y="79.7" class="st6" width="128.2" height="159.8"/>
		<path id="XMLID_63_" class="st7" d="M238.6,115.2L238.6,115.2c-5.3,0-9.7-4.4-9.7-9.7v0c0-5.3,4.4-9.7,9.7-9.7h0
			c5.3,0,9.7,4.4,9.7,9.7v0C248.3,110.9,243.9,115.2,238.6,115.2z"/>
		<path id="XMLID_62_" class="st7" d="M288.6,104.5h-32c-2.2,0-4-1.8-4-4v0c0-2.2,1.8-4,4-4h32c2.2,0,4,1.8,4,4v0
			C292.7,102.7,290.9,104.5,288.6,104.5z"/>
		<path id="XMLID_61_" class="st8" d="M304.3,115.2h-47.7c-2.2,0-4-1.8-4-4v0c0-2.2,1.8-4,4-4h47.7c2.2,0,4,1.8,4,4v0
			C308.4,113.4,306.6,115.2,304.3,115.2z"/>
		<rect id="XMLID_60_" x="208.1" y="133.4" class="st9" width="128.2" height="73.5"/>
		<path id="XMLID_59_" class="st10" d="M262.4,161.5v17.5c0,1,1.1,1.6,1.9,1l12.7-8.8c0.7-0.5,0.7-1.5,0-2l-12.7-8.7
			C263.5,159.9,262.4,160.5,262.4,161.5z"/>
	</g>
	<g id="podcastcard">
		<g id="XMLID_156_">
			<rect id="XMLID_167_" x="359.9" y="80.3" class="st11" width="128.2" height="159.8"/>
			<path id="XMLID_166_" class="st11" d="M374.2,202.1v17.5c0,1,1.1,1.6,1.9,1l12.7-8.8c0.7-0.5,0.7-1.5,0-2l-12.7-8.7
				C375.3,200.6,374.2,201.1,374.2,202.1z"/>
			<path id="XMLID_165_" class="st11" d="M416.5,171.7h-41.3c-0.7,0-1.3-0.6-1.3-1.3v-35.1c0-0.7,0.6-1.3,1.3-1.3h41.3
				c0.7,0,1.3,0.6,1.3,1.3v35.1C417.7,171.1,417.2,171.7,416.5,171.7z"/>
			<path id="XMLID_164_" class="st11" d="M456.1,115.9h-47.7c-2.2,0-4-1.8-4-4v0c0-2.2,1.8-4,4-4h47.7c2.2,0,4,1.8,4,4v0
				C460.1,114.1,458.3,115.9,456.1,115.9z"/>
			<path id="XMLID_163_" class="st11" d="M440.4,105.2h-32c-2.2,0-4-1.8-4-4v0c0-2.2,1.8-4,4-4h32c2.2,0,4,1.8,4,4v0
				C444.4,103.4,442.6,105.2,440.4,105.2z"/>
			<path id="XMLID_162_" class="st11" d="M390.3,115.9L390.3,115.9c-5.3,0-9.7-4.4-9.7-9.7v0c0-5.3,4.4-9.7,9.7-9.7h0
				c5.3,0,9.7,4.4,9.7,9.7v0C400,111.5,395.7,115.9,390.3,115.9z"/>
			<line id="XMLID_161_" class="st11" x1="402" y1="210.8" x2="470.7" y2="210.8"/>
			<circle id="XMLID_160_" class="st11" cx="421.6" cy="210.8" r="3.9"/>
			<path id="XMLID_159_" class="st11" d="M469.6,159.7H428c-2.2,0-4-1.8-4-4v0c0-2.2,1.8-4,4-4h41.6c2.2,0,4,1.8,4,4v0
				C473.7,157.9,471.8,159.7,469.6,159.7z"/>
			<path id="XMLID_158_" class="st11" d="M469.6,171.7H428c-2.2,0-4-1.8-4-4l0,0c0-2.2,1.8-4,4-4h41.6c2.2,0,4,1.8,4,4l0,0
				C473.7,169.9,471.8,171.7,469.6,171.7z"/>
			<path id="XMLID_157_" class="st11" d="M469.6,184.2h-90.3c-2.2,0-4-1.8-4-4l0,0c0-2.2,1.8-4,4-4h90.3c2.2,0,4,1.8,4,4l0,0
				C473.7,182.4,471.8,184.2,469.6,184.2z"/>
		</g>
		<g id="XMLID_144_">
			<rect id="XMLID_155_" x="359.9" y="80.3" class="st6" width="128.2" height="159.8"/>
			<path id="XMLID_154_" class="st11" d="M374.2,202.1v17.5c0,1,1.1,1.6,1.9,1l12.7-8.8c0.7-0.5,0.7-1.5,0-2l-12.7-8.7
				C375.3,200.6,374.2,201.1,374.2,202.1z"/>
			<path id="XMLID_153_" class="st9" d="M416.5,171.7h-41.3c-0.7,0-1.3-0.6-1.3-1.3v-35.1c0-0.7,0.6-1.3,1.3-1.3h41.3
				c0.7,0,1.3,0.6,1.3,1.3v35.1C417.7,171.1,417.2,171.7,416.5,171.7z"/>
			<path id="XMLID_152_" class="st8" d="M456.1,115.9h-47.7c-2.2,0-4-1.8-4-4v0c0-2.2,1.8-4,4-4h47.7c2.2,0,4,1.8,4,4v0
				C460.1,114.1,458.3,115.9,456.1,115.9z"/>
			<path id="XMLID_151_" class="st7" d="M440.4,105.2h-32c-2.2,0-4-1.8-4-4v0c0-2.2,1.8-4,4-4h32c2.2,0,4,1.8,4,4v0
				C444.4,103.4,442.6,105.2,440.4,105.2z"/>
			<path id="XMLID_150_" class="st7" d="M390.3,115.9L390.3,115.9c-5.3,0-9.7-4.4-9.7-9.7v0c0-5.3,4.4-9.7,9.7-9.7h0
				c5.3,0,9.7,4.4,9.7,9.7v0C400,111.5,395.7,115.9,390.3,115.9z"/>
			<line id="XMLID_149_" class="st12" x1="402" y1="210.8" x2="470.7" y2="210.8"/>
			<circle id="XMLID_148_" class="st11" cx="421.6" cy="210.8" r="3.9"/>
			<path id="XMLID_147_" class="st8" d="M469.6,159.7H428c-2.2,0-4-1.8-4-4v0c0-2.2,1.8-4,4-4h41.6c2.2,0,4,1.8,4,4v0
				C473.7,157.9,471.8,159.7,469.6,159.7z"/>
			<path id="XMLID_146_" class="st8" d="M469.6,171.7H428c-2.2,0-4-1.8-4-4l0,0c0-2.2,1.8-4,4-4h41.6c2.2,0,4,1.8,4,4l0,0
				C473.7,169.9,471.8,171.7,469.6,171.7z"/>
			<path id="XMLID_145_" class="st8" d="M469.6,184.2h-90.3c-2.2,0-4-1.8-4-4l0,0c0-2.2,1.8-4,4-4h90.3c2.2,0,4,1.8,4,4l0,0
				C473.7,182.4,471.8,184.2,469.6,184.2z"/>
		</g>
	</g>
	<g id="articleCard">
		<rect id="XMLID_47_" x="203.9" y="268.2" class="st6" width="128.2" height="159.8"/>
		<path id="XMLID_46_" class="st8" d="M315.2,374.1h-93.9c-2.2,0-4-1.8-4-4l0,0c0-2.2,1.8-4,4-4h93.9c2.2,0,4,1.8,4,4l0,0
			C319.2,372.3,317.4,374.1,315.2,374.1z"/>
		<path id="XMLID_45_" class="st8" d="M242.3,361.2h-21.1c-2.2,0-4-1.8-4-4v0c0-2.2,1.8-4,4-4h21.1c2.2,0,4,1.8,4,4v0
			C246.4,359.4,244.6,361.2,242.3,361.2z"/>
		<path id="XMLID_44_" class="st8" d="M240.9,349.2h-19.7c-2.2,0-4-1.8-4-4v0c0-2.2,1.8-4,4-4h19.7c2.2,0,4,1.8,4,4v0
			C245,347.3,243.2,349.2,240.9,349.2z"/>
		<path id="XMLID_43_" class="st7" d="M234.3,303.8L234.3,303.8c-5.3,0-9.7-4.4-9.7-9.7v0c0-5.3,4.4-9.7,9.7-9.7h0
			c5.3,0,9.7,4.4,9.7,9.7v0C244,299.4,239.7,303.8,234.3,303.8z"/>
		<path id="XMLID_42_" class="st7" d="M284.4,293.1h-32c-2.2,0-4-1.8-4-4v0c0-2.2,1.8-4,4-4h32c2.2,0,4,1.8,4,4v0
			C288.4,291.3,286.6,293.1,284.4,293.1z"/>
		<path id="XMLID_41_" class="st8" d="M300.1,303.8h-47.7c-2.2,0-4-1.8-4-4v0c0-2.2,1.8-4,4-4h47.7c2.2,0,4,1.8,4,4v0
			C304.1,302,302.3,303.8,300.1,303.8z"/>
		<path id="XMLID_40_" class="st9" d="M317.9,360.2h-66.3c-0.7,0-1.3-0.6-1.3-1.3v-46.2c0-0.7,0.6-1.3,1.3-1.3h66.3
			c0.7,0,1.3,0.6,1.3,1.3v46.2C319.2,359.6,318.6,360.2,317.9,360.2z"/>
		<path id="XMLID_39_" class="st8" d="M315.3,387.2h-93.9c-2.2,0-4-1.8-4-4l0,0c0-2.2,1.8-4,4-4h93.9c2.2,0,4,1.8,4,4l0,0
			C319.4,385.4,317.6,387.2,315.3,387.2z"/>
		<path id="XMLID_38_" class="st8" d="M315.2,401.1h-93.9c-2.2,0-4-1.8-4-4l0,0c0-2.2,1.8-4,4-4h93.9c2.2,0,4,1.8,4,4l0,0
			C319.2,399.3,317.4,401.1,315.2,401.1z"/>
		<path id="XMLID_31_" class="st8" d="M315.2,414.1h-93.9c-2.2,0-4-1.8-4-4l0,0c0-2.2,1.8-4,4-4h93.9c2.2,0,4,1.8,4,4l0,0
			C319.2,412.3,317.4,414.1,315.2,414.1z"/>
	</g>
	<g id="quizcard">
		<rect id="XMLID_129_" x="667.8" y="81.3" class="st6" width="128.2" height="159.8"/>
		<path id="XMLID_128_" class="st8" d="M780.3,143h-93.9c-2.2,0-4-1.8-4-4l0,0c0-2.2,1.8-4,4-4h93.9c2.2,0,4,1.8,4,4l0,0
			C784.3,141.1,782.5,143,780.3,143z"/>
		<path id="XMLID_127_" class="st8" d="M726.9,175.6h-21.1c-2.2,0-4-1.8-4-4l0,0c0-2.2,1.8-4,4-4h21.1c2.2,0,4,1.8,4,4l0,0
			C730.9,173.8,729.1,175.6,726.9,175.6z"/>
		<path id="XMLID_126_" class="st8" d="M782.1,175.3h-19.7c-2.2,0-4-1.8-4-4l0,0c0-2.2,1.8-4,4-4h19.7c2.2,0,4,1.8,4,4l0,0
			C786.1,173.5,784.3,175.3,782.1,175.3z"/>
		<path id="XMLID_125_" class="st7" d="M698.2,116.9L698.2,116.9c-5.3,0-9.7-4.4-9.7-9.7v0c0-5.3,4.4-9.7,9.7-9.7l0,0
			c5.3,0,9.7,4.4,9.7,9.7v0C707.9,112.5,703.5,116.9,698.2,116.9z"/>
		<path id="XMLID_124_" class="st7" d="M748.3,106.2h-32c-2.2,0-4-1.8-4-4v0c0-2.2,1.8-4,4-4h32c2.2,0,4,1.8,4,4v0
			C752.3,104.4,750.5,106.2,748.3,106.2z"/>
		<path id="XMLID_123_" class="st8" d="M764,116.9h-47.7c-2.2,0-4-1.8-4-4v0c0-2.2,1.8-4,4-4H764c2.2,0,4,1.8,4,4v0
			C768,115.1,766.2,116.9,764,116.9z"/>
		<path id="XMLID_122_" class="st13" d="M750.3,178.1h-10.4c-0.7,0-1.3-0.6-1.3-1.3v-10.4c0-0.7,0.6-1.3,1.3-1.3h10.4
			c0.7,0,1.3,0.6,1.3,1.3v10.4C751.6,177.5,751,178.1,750.3,178.1z"/>
		<path id="XMLID_115_" class="st13" d="M693.7,177.7h-10.4c-0.7,0-1.3-0.6-1.3-1.3V166c0-0.7,0.6-1.3,1.3-1.3h10.4
			c0.7,0,1.3,0.6,1.3,1.3v10.4C695,177.1,694.4,177.7,693.7,177.7z"/>
		<path id="XMLID_114_" class="st7" d="M727.1,213.9H706c-2.2,0-4-1.8-4-4v0c0-2.2,1.8-4,4-4h21.1c2.2,0,4,1.8,4,4v0
			C731.2,212.1,729.4,213.9,727.1,213.9z"/>
		<path id="XMLID_113_" class="st8" d="M782.3,213.5h-19.7c-2.2,0-4-1.8-4-4l0,0c0-2.2,1.8-4,4-4h19.7c2.2,0,4,1.8,4,4l0,0
			C786.4,211.7,784.6,213.5,782.3,213.5z"/>
		<path id="XMLID_112_" class="st13" d="M750.6,216.3h-10.4c-0.7,0-1.3-0.6-1.3-1.3v-10.4c0-0.7,0.6-1.3,1.3-1.3h10.4
			c0.7,0,1.3,0.6,1.3,1.3V215C751.8,215.7,751.3,216.3,750.6,216.3z"/>
		<path id="XMLID_111_" class="st7" d="M694,215.9h-10.4c-0.7,0-1.3-0.6-1.3-1.3v-10.4c0-0.7,0.6-1.3,1.3-1.3H694
			c0.7,0,1.3,0.6,1.3,1.3v10.4C695.3,215.3,694.7,215.9,694,215.9z"/>
	</g>
	<g id="articlecard2">
		<rect id="XMLID_53_" x="511.6" y="270.2" class="st6" width="128.2" height="159.8"/>
		<path id="XMLID_52_" class="st8" d="M622.9,376H529c-2.2,0-4-1.8-4-4l0,0c0-2.2,1.8-4,4-4h93.9c2.2,0,4,1.8,4,4l0,0
			C626.9,374.2,625.1,376,622.9,376z"/>
		<path id="XMLID_51_" class="st8" d="M550.1,363.2h-21.1c-2.2,0-4-1.8-4-4l0,0c0-2.2,1.8-4,4-4h21.1c2.2,0,4,1.8,4,4l0,0
			C554.1,361.4,552.3,363.2,550.1,363.2z"/>
		<path id="XMLID_50_" class="st8" d="M548.7,351.1h-19.7c-2.2,0-4-1.8-4-4v0c0-2.2,1.8-4,4-4h19.7c2.2,0,4,1.8,4,4v0
			C552.7,349.3,550.9,351.1,548.7,351.1z"/>
		<path id="XMLID_49_" class="st7" d="M542.1,305.7L542.1,305.7c-5.3,0-9.7-4.4-9.7-9.7l0,0c0-5.3,4.4-9.7,9.7-9.7l0,0
			c5.3,0,9.7,4.4,9.7,9.7l0,0C551.8,301.4,547.4,305.7,542.1,305.7z"/>
		<path id="XMLID_48_" class="st7" d="M592.1,295h-32c-2.2,0-4-1.8-4-4l0,0c0-2.2,1.8-4,4-4h32c2.2,0,4,1.8,4,4l0,0
			C596.2,293.2,594.3,295,592.1,295z"/>
		<path id="XMLID_30_" class="st8" d="M607.8,305.7h-47.7c-2.2,0-4-1.8-4-4v0c0-2.2,1.8-4,4-4h47.7c2.2,0,4,1.8,4,4v0
			C611.9,303.9,610.1,305.7,607.8,305.7z"/>
		<path id="XMLID_27_" class="st9" d="M625.7,362.2h-66.3c-0.7,0-1.3-0.6-1.3-1.3v-46.2c0-0.7,0.6-1.3,1.3-1.3h66.3
			c0.7,0,1.3,0.6,1.3,1.3v46.2C626.9,361.6,626.4,362.2,625.7,362.2z"/>
		<path id="XMLID_26_" class="st8" d="M623,389.2h-93.9c-2.2,0-4-1.8-4-4l0,0c0-2.2,1.8-4,4-4H623c2.2,0,4,1.8,4,4l0,0
			C627.1,387.4,625.3,389.2,623,389.2z"/>
		<path id="XMLID_25_" class="st8" d="M622.9,403H529c-2.2,0-4-1.8-4-4l0,0c0-2.2,1.8-4,4-4h93.9c2.2,0,4,1.8,4,4l0,0
			C626.9,401.2,625.1,403,622.9,403z"/>
		<path id="XMLID_24_" class="st8" d="M622.9,416H529c-2.2,0-4-1.8-4-4l0,0c0-2.2,1.8-4,4-4h93.9c2.2,0,4,1.8,4,4l0,0
			C626.9,414.2,625.1,416,622.9,416z"/>
	</g>
	<g id="PodcastCard2">
		<rect id="XMLID_88_" x="668" y="270.8" class="st6" width="128.2" height="159.8"/>
		<g id="XMLID_71_">
			<g id="XMLID_72_">
				<path id="XMLID_73_" class="st14" d="M767.3,381.7l-9-11.6c2.9-0.9,5.4-2.7,7.1-5.3c2.1-3.7,1.2-8.1,0.2-12.5
					c-0.6-2.2-0.9-4.5-1-6.8c0.1-2.3,0.4-4.6,1-6.8c0.9-4.3,1.9-8.8-0.2-12.4c-2.2-3.8-6.6-5.2-10.9-6.5c-2.1-0.6-4.2-1.4-6.1-2.4
					c-1.8-1.2-3.4-2.5-4.9-4c-3.2-2.9-6.8-6.3-11.3-6.3c-4.6,0-8.2,3.3-11.3,6.3c-1.5,1.5-3.1,2.8-4.9,4c-2,1-4,1.8-6.1,2.4
					c-4.3,1.4-8.7,2.8-10.9,6.5c-2.1,3.7-1.2,8.1-0.2,12.5c0.6,2.2,0.9,4.5,1,6.8c-0.1,2.3-0.4,4.6-1,6.8c-0.9,4.3-1.9,8.8,0.2,12.4
					c1.7,2.5,4.2,4.4,7.1,5.3l-9,11.6c-0.5,0.6-0.4,1.6,0.3,2.1c0.3,0.2,0.7,0.3,1.1,0.3l10.6-1.3l2.6,9.1c0.2,0.5,0.6,0.9,1.1,1
					c0.1,0,0.2,0,0.3,0c0.5,0,0.9-0.2,1.2-0.6l9.4-12.1c2.3,2.3,5.4,3.6,8.6,3.8c3.2-0.2,6.3-1.6,8.6-3.8l9.4,12.1
					c0.3,0.4,0.7,0.6,1.2,0.6c0.1,0,0.2,0,0.3,0c0.5-0.1,1-0.5,1.1-1l2.6-9.1l10.6,1.3c0.8,0.1,1.5-0.5,1.7-1.3
					C767.6,382.4,767.5,382,767.3,381.7z"/>
			</g>
		</g>
		<g id="XMLID_66_">
			<g id="XMLID_67_">
				<path id="XMLID_68_" class="st6" d="M732.1,319c-14.7,0-26.6,11.9-26.6,26.6s11.9,26.6,26.6,26.6c14.7,0,26.6-11.9,26.6-26.6
					C758.7,331,746.8,319,732.1,319z"/>
			</g>
		</g>
		<g id="XMLID_22_">
			<g id="XMLID_23_">
				<path id="XMLID_54_" class="st14" d="M749.2,339.5c-0.6-0.8-1.4-1.2-2.4-1.2h-9.1l-2.8-8.6c-0.5-1.6-2.2-2.4-3.7-1.9
					c-0.9,0.3-1.6,1-1.9,1.9l-2.8,8.6h-9.1c-1.6,0-3,1.3-3,3c0,0.9,0.5,1.8,1.2,2.4l7.3,5.3l-2.8,8.6c-0.5,1.6,0.3,3.2,1.9,3.7
					c0.9,0.3,1.9,0.1,2.7-0.4l7.3-5.3l7.3,5.3c1,0.8,2.4,0.8,3.5,0c1-0.7,1.5-2.1,1.1-3.3l-2.8-8.6l7.3-5.3
					C749.8,342.6,750.1,340.8,749.2,339.5z"/>
			</g>
		</g>
	</g>
	<g id="videoCard3">
		<rect id="XMLID_15_" x="354" y="268.9" class="st6" width="128.2" height="159.8"/>
		<path id="XMLID_14_" class="st7" d="M384.4,304.4L384.4,304.4c-5.3,0-9.7-4.4-9.7-9.7l0,0c0-5.3,4.4-9.7,9.7-9.7h0
			c5.3,0,9.7,4.4,9.7,9.7l0,0C394.1,300.1,389.8,304.4,384.4,304.4z"/>
		<path id="XMLID_13_" class="st7" d="M434.5,293.7h-32c-2.2,0-4-1.8-4-4l0,0c0-2.2,1.8-4,4-4h32c2.2,0,4,1.8,4,4l0,0
			C438.5,291.9,436.7,293.7,434.5,293.7z"/>
		<path id="XMLID_12_" class="st8" d="M450.2,304.4h-47.7c-2.2,0-4-1.8-4-4l0,0c0-2.2,1.8-4,4-4h47.7c2.2,0,4,1.8,4,4l0,0
			C454.3,302.6,452.4,304.4,450.2,304.4z"/>
		<rect id="XMLID_11_" x="354" y="322.6" class="st9" width="128.2" height="73.5"/>
		<path id="XMLID_10_" class="st10" d="M408.3,350.7v17.5c0,1,1.1,1.6,1.9,1l12.7-8.8c0.7-0.5,0.7-1.5,0-2l-12.7-8.7
			C409.4,349.1,408.3,349.7,408.3,350.7z"/>
	</g>
	<g id="videoCard2">
		<rect id="XMLID_21_" x="513.9" y="83.7" class="st6" width="128.2" height="159.8"/>
		<path id="XMLID_20_" class="st7" d="M544.3,119.2L544.3,119.2c-5.3,0-9.7-4.4-9.7-9.7v0c0-5.3,4.4-9.7,9.7-9.7h0
			c5.3,0,9.7,4.4,9.7,9.7v0C554,114.9,549.6,119.2,544.3,119.2z"/>
		<path id="XMLID_19_" class="st7" d="M594.4,108.5h-32c-2.2,0-4-1.8-4-4v0c0-2.2,1.8-4,4-4h32c2.2,0,4,1.8,4,4v0
			C598.4,106.7,596.6,108.5,594.4,108.5z"/>
		<path id="XMLID_18_" class="st8" d="M610.1,119.2h-47.7c-2.2,0-4-1.8-4-4v0c0-2.2,1.8-4,4-4h47.7c2.2,0,4,1.8,4,4v0
			C614.1,117.4,612.3,119.2,610.1,119.2z"/>
		<rect id="XMLID_17_" x="513.9" y="137.4" class="st9" width="128.2" height="73.5"/>
		<path id="XMLID_16_" class="st10" d="M568.1,165.5v17.5c0,1,1.1,1.6,1.9,1l12.7-8.8c0.7-0.5,0.7-1.5,0-2l-12.7-8.7
			C569.2,163.9,568.1,164.5,568.1,165.5z"/>
	</g>
	<g id="flow-logo">
		<g id="F">
			<path id="XMLID_81_" class="st7" d="M148.3,54.7c0,0,0-11.7,0-14.2c0-3.4,2.7-6.5,6-6.5c2.5,0,5.2,0,5.2,0s0.1,4.3-3.6,4.3
				c-3.7,0-3.3,3.9-3.3,3.9h5.1c0,0,0,4.4-3.2,4.4c-1.5,0-1.8,0-1.8,0s0,4.1,0,5C152.7,52.6,151.1,54.7,148.3,54.7z"/>
		</g>
		<g id="L">
			<path id="XMLID_80_" class="st7" d="M162.2,34c0,0,0,12.9,0,13.8c0,4.6,3.8,6.9,7.5,6.9c3,0,1.9,0,2.4,0c0-3.5-1.7-4.5-3.2-4.5
				c-1.2,0-2.3-0.9-2.3-2.5c0-1,0-10,0-11.1C166.7,35.6,165.6,34,162.2,34z"/>
		</g>
		<g id="O">
			<path id="XMLID_79_" class="st7" d="M188.6,35.2c2.5,2.7-1.2,4.4-2.1,4c-0.8-0.4-1.7-0.6-2.6-0.6c-3.2,0-5.8,2.6-5.8,5.8
				c0,3.2,2.6,5.8,5.8,5.8c3.2,0,5.8-2.6,5.8-5.8c0-0.8-0.2-1.6-0.5-2.3c-1.1-2.9,2.4-4.3,4-2.2l0.1,0.1c0.4,0.5,1,1.6,1,4.4
				c0,5.7-4.6,10.4-10.4,10.4s-10.4-4.6-10.4-10.4S178.2,34,183.9,34c2.2,0,3.1,0.3,4.5,1.1L188.6,35.2z"/>
		</g>
		<g id="finger3">
			<path id="XMLID_78_" class="st7" d="M172.6,41.5c-0.3-4.8-0.4-7.3-0.6-10.8c-1.5,0.5-2.1,1.7-1.7,2.7
				C170.8,35.4,171.5,37.8,172.6,41.5z"/>
		</g>
		<g id="finger2">
			<path id="XMLID_77_" class="st7" d="M173.2,41.5c1.1-4.9,2.3-9.8,3.4-14.6c-0.6-0.9-1.6-1.3-2.6-1c-0.9,0.3-1.6,1.2-1.6,2.1
				C172.6,32.6,172.9,37.1,173.2,41.5z"/>
		</g>
		<g id="finger1">
			<path id="XMLID_57_" class="st7" d="M182.4,26.1c0.5-2.9-3.9-3.9-4.8-1.1c-1.1,4.5-2.7,11.5-3.6,14.8c1.4-2.6,3.5-4.8,6.3-5.7
				C180.7,32.7,181.7,29.1,182.4,26.1z"/>
		</g>
		<g id="play">
			<path id="XMLID_56_" class="st7" d="M182.1,47.3l4.4-2.6c0.4-0.2,0.4-0.7,0-1l-4.4-2.6c-0.4-0.2-0.8,0-0.8,0.5v5.1
				C181.3,47.2,181.7,47.5,182.1,47.3z"/>
		</g>
		<g id="W">
			<path id="XMLID_55_" class="st7" d="M209.1,41.7c0,0-2.9,10.8-3.3,11.6s-0.9,1.4-3,1.4c-1.9,0-2.6-0.7-2.9-1.6
				c-0.2-0.5-5.2-18.4-5.2-18.4s2.2,0,3.1,0c1.2,0,2.2,1.1,2.5,2.5c0.3,0.8,2.4,10.5,2.4,10.5s2.9-10,3-10.6
				c0.3-1.4,0.7-2.7,1.7-2.7c0.8,0,1.6,0,1.6,0h0c0,0,0.8,0,1.6,0c1,0,1.4,1.3,1.7,2.7c0.1,0.6,2.9,10.6,2.9,10.6s2.2-9.7,2.5-10.5
				c0.3-1.3,1.3-2.5,2.5-2.5c0.9,0,3.1,0,3.1,0s-5,18-5.2,18.4c-0.3,0.9-1,1.6-2.9,1.6c-2.1,0-2.6-0.6-3-1.4
				C212,52.5,209.1,41.7,209.1,41.7z"/>
		</g>
	</g>
</g>
</svg>
