<?xml version="1.0" encoding="utf-8"?>
<!-- Generator: Adobe Illustrator 19.2.0, SVG Export Plug-In . SVG Version: 6.00 Build 0)  -->
<svg version="1.1" xmlns="http://www.w3.org/2000/svg" xmlns:xlink="http://www.w3.org/1999/xlink" x="0px" y="0px"
	 viewBox="0 0 740.7 452.3" style="enable-background:new 0 0 740.7 452.3;" xml:space="preserve">
<style type="text/css">
	.st0{stroke:#020202;stroke-miterlimit:10;}
	.st1{fill:#7B00DB;stroke:#7B00DB;stroke-miterlimit:10;}
	.st2{fill:none;stroke:#D3D3D3;stroke-width:3;stroke-linecap:round;stroke-miterlimit:10;stroke-dasharray:9;}
	.st3{fill:#7B00DB;}
	.st4{fill:#FFFFFF;stroke:#7B00DB;stroke-width:4;stroke-miterlimit:10;}
	.st5{fill:none;stroke:#7B00DB;stroke-width:4;stroke-linecap:round;stroke-linejoin:round;stroke-miterlimit:10;}
	.st6{fill:#939393;}
	.st7{fill:none;stroke:#939393;stroke-linecap:round;stroke-linejoin:round;stroke-miterlimit:10;}
	.st8{fill:#FFFFFF;}
	.st9{stroke:#000000;stroke-miterlimit:10;}
	.st10{fill:#FFFFFF;stroke:#FFFFFF;stroke-miterlimit:10;}
	.st11{stroke:#D3D3D3;stroke-width:3;stroke-linecap:round;stroke-miterlimit:10;stroke-dasharray:9;}
	.st12{fill:none;stroke:#D3D3D3;stroke-width:3;stroke-linecap:round;stroke-miterlimit:10;stroke-dasharray:9,9;}
	.st13{fill:#D3D3D3;}
	.st14{display:none;fill:none;stroke:#D3D3D3;stroke-width:3;stroke-linecap:round;stroke-miterlimit:10;stroke-dasharray:9;}
	.st15{fill:#707070;}
	.st16{font-family:'Roboto-Regular';}
	.st17{font-size:20px;}
	.st18{display:none;}
	
		.st19{display:inline;fill:none;stroke:#666666;stroke-width:0.5;stroke-linecap:round;stroke-linejoin:round;stroke-miterlimit:10;}
	.st20{display:inline;}
	.st21{fill:#3A3A3A;}
	.st22{fill:#333333;}
	.st23{fill:none;stroke:#939393;stroke-width:2;stroke-miterlimit:10;}
	.st24{fill:none;stroke:#7B00DB;stroke-width:2;stroke-miterlimit:10;}
	.st25{fill:#FFFFFF;stroke:#7B00DB;stroke-linecap:round;stroke-linejoin:round;stroke-miterlimit:10;}
	.st26{fill:none;stroke:#7B00DB;stroke-linecap:round;stroke-linejoin:round;stroke-miterlimit:10;}
	.st27{fill:#D8D8D8;}
	.st28{fill:none;}
	.st29{fill:#F7F7F7;stroke:#E5E5E5;stroke-miterlimit:10;}
	.st30{fill:#E5E5E5;}
	.st31{fill:#EAEAEA;}
	.st32{fill:#DDDDDD;}
	.st33{fill:none;stroke:#D8D8D8;stroke-miterlimit:10;}
	.st34{fill:none;stroke:#EAEAEA;stroke-width:4;stroke-linecap:round;stroke-linejoin:round;stroke-miterlimit:10;}
	.st35{fill:none;stroke:#000000;stroke-width:2;stroke-miterlimit:10;}
	.st36{fill:none;stroke:#000000;stroke-width:2;stroke-linecap:round;stroke-linejoin:round;stroke-miterlimit:10;}
	.st37{fill:#EDEDED;}
</style>
<g id="man">
	<g>
		<g>
			<g>
				<path class="st0" d="M371,377.5h8.4c7.7,0,14-6.3,14-14v-17.2c0-7.7-6.3-14-14-14H371c-7.7,0-14,6.3-14,14v17.2
					C357,371.3,363.3,377.5,371,377.5z M359.9,346.3c0-6.1,5-11.1,11.1-11.1h8.4c6.1,0,11.1,5,11.1,11.1v17.2
					c0,6.1-5,11.1-11.1,11.1H371c-6.1,0-11.1-5-11.1-11.1V346.3z"/>
				<path class="st0" d="M370.1,380.4c0-0.9-0.6-1.5-1.5-1.5c-0.9,0-1.5,0.6-1.5,1.5v1.5c0,2.5-1.9,4.4-4.4,4.4h-10.2
					c-4.1,0-7.3,3.2-7.3,7.3c0,0.9,0.6,1.5,1.5,1.5s1.5-0.6,1.5-1.5c0-2.5,1.9-4.4,4.4-4.4h10.2c4.1,0,7.3-3.2,7.3-7.3V380.4z"/>
				<path class="st0" d="M396.4,386.3h-10.2c-2.5,0-4.4-1.9-4.4-4.4v-1.5c0-0.9-0.6-1.5-1.5-1.5c-0.9,0-1.5,0.6-1.5,1.5v1.5
					c0,4.1,3.2,7.3,7.3,7.3h10.2c2.5,0,4.4,1.9,4.4,4.4v30.6c0,0.9,0.6,1.5,1.5,1.5s1.5-0.6,1.5-1.5v-30.6
					C403.7,389.5,400.4,386.3,396.4,386.3z"/>
				<path class="st1" d="M335.2,405c-3.2,0-5.8,2.6-5.8,5.8s2.6,5.8,5.8,5.8c3.2,0,5.8-2.6,5.8-5.8S338.4,405,335.2,405z
					 M335.2,413.8c-1.6,0-2.9-1.3-2.9-2.9s1.3-2.9,2.9-2.9c1.6,0,2.9,1.3,2.9,2.9S336.8,413.8,335.2,413.8z"/>
				<circle class="st0" cx="367.1" cy="353.6" r="2"/>
				<circle class="st0" cx="383.4" cy="353.6" r="2"/>
				<path class="st0" d="M380.2,365.4l-1.2,1.2c-0.7,0.7-1.7,1.2-2.8,1.2h-3.6c-1,0-2-0.4-2.8-1.2l-1.2-1.2c-0.6-0.6-1.5-0.6-2,0
					s-0.6,1.5,0,2l1.2,1.2c1.3,1.3,3.1,2,5,2h3.6c1.9,0,3.5-0.7,4.7-2l1.2-1.2c0.6-0.6,0.6-1.5,0-2
					C381.7,364.8,380.8,364.8,380.2,365.4z"/>
				<path class="st0" d="M373.9,346.6l3.5-2.6v1.5c0,0.9,0.6,1.5,1.5,1.5h8.7c0.9,0,1.5-0.6,1.5-1.5c0-0.9-0.6-1.5-1.5-1.5h-7.3
					v-2.9c0-0.6-0.3-1-0.9-1.3c-0.4-0.3-1-0.1-1.5,0.1l-5.4,4.1h-9.8c-0.9,0-1.5,0.6-1.5,1.5c0,0.9,0.6,1.5,1.5,1.5h10.2
					C373.4,346.9,373.6,346.8,373.9,346.6z"/>
				<path class="st0" d="M393.5,397.9c-0.9,0-1.5,0.6-1.5,1.5v16h-21.9c-0.4,0-0.7,0.1-1,0.4l-2.9,2.9c-0.6,0.6-0.6,1.5,0,2
					c0.3,0.3,0.6,0.4,1,0.4s0.7-0.1,1-0.4l2.5-2.5h22.7c0.9,0,1.5-0.6,1.5-1.5v-17.5C394.9,398.5,394.3,397.9,393.5,397.9z"/>
				<path class="st0" d="M377.4,412.5c0.9,0,1.5-0.6,1.5-1.5v-13.1c0.9,0,1.5-0.6,1.5-1.5v-7.3c0-0.9-0.6-1.5-1.5-1.5h-8.7
					c-0.9,0-1.5,0.6-1.5,1.5v7.3c0,0.9,0.6,1.5,1.5,1.5V411c0,0.9,0.6,1.5,1.5,1.5c0.9,0,1.5-0.6,1.5-1.5v-13.1h2.9V411
					C376,411.9,376.6,412.5,377.4,412.5z M371.6,390.6h5.8v4.4h-5.8V390.6z"/>
				<path class="st0" d="M383.3,422.7h-20.4v-23.3c0-0.9-0.6-1.5-1.5-1.5h-49.5c-0.9,0-1.5,0.6-1.5,1.5v24.8c0,0.9,0.6,1.5,1.5,1.5
					h49.5h21.9c0.9,0,1.5-0.6,1.5-1.5C384.7,423.3,384.1,422.7,383.3,422.7z M313.3,400.8h46.6v21.9h-46.6V400.8z"/>
				<circle class="st0" cx="332.3" cy="383.3" r="1.5"/>
				<circle class="st0" cx="332.3" cy="333.8" r="1.5"/>
				<circle class="st0" cx="313.3" cy="358.6" r="1.5"/>
				<circle class="st0" cx="313.3" cy="371.7" r="1.5"/>
				<circle class="st0" cx="351.2" cy="358.6" r="1.5"/>
				<circle class="st0" cx="351.2" cy="345.5" r="1.5"/>
				<circle class="st0" cx="313.3" cy="345.5" r="1.5"/>
				<circle class="st0" cx="351.2" cy="371.7" r="1.5"/>
				<path class="st1" d="M319.2,357.1c0.3,0,0.4,0,0.7-0.1l24.8-14.6c0.7-0.4,0.9-1.3,0.6-2c-0.4-0.7-1.3-0.9-2-0.6l-24.8,14.6
					c-0.7,0.4-0.9,1.3-0.6,2C318.1,356.8,318.7,357.1,319.2,357.1z"/>
				<path class="st0" d="M317.7,377.5h29.1c0.9,0,1.5-0.6,1.5-1.5s-0.6-1.5-1.5-1.5h-1.5v-23.3c0-0.9-0.6-1.5-1.5-1.5
					c-0.9,0-1.5,0.6-1.5,1.5v23.3h-2.9v-21.9c0-0.9-0.6-1.5-1.5-1.5s-1.5,0.6-1.5,1.5v21.9h-2.9v-18.9c0-0.9-0.6-1.5-1.5-1.5
					s-1.5,0.6-1.5,1.5v18.9h-2.9v-16c0-0.9-0.6-1.5-1.5-1.5s-1.5,0.6-1.5,1.5v16h-2.9v-11.7c0-0.9-0.6-1.5-1.5-1.5
					c-0.9,0-1.5,0.6-1.5,1.5v11.7h-1.5c-0.9,0-1.5,0.6-1.5,1.5S316.8,377.5,317.7,377.5z"/>
			</g>
		</g>
	</g>
	<g>
		<g>
			<path class="st1" d="M344.5,339.8l-5.8-1.5c-0.7-0.3-1.6,0.3-1.7,1c-0.3,0.7,0.3,1.6,1,1.7l4.4,1.2l-1.2,4.4
				c-0.3,0.7,0.3,1.6,1,1.7c0,0,0.1,0,0.3,0c0.6,0,1.3-0.4,1.6-1l1.5-5.8C345.8,340.8,345.2,339.9,344.5,339.8z"/>
		</g>
	</g>
</g>
<g id="man1">
	<g>
		<g>
			<g>
				<path class="st0" d="M580.5,373.8h8.4c7.7,0,14-6.3,14-14v-17.2c0-7.7-6.3-14-14-14h-8.4c-7.7,0-14,6.3-14,14v17.2
					C566.5,367.6,572.8,373.8,580.5,373.8z M569.4,342.7c0-6.1,5-11.1,11.1-11.1h8.4c6.1,0,11.1,5,11.1,11.1v17.2
					c0,6.1-5,11.1-11.1,11.1h-8.4c-6.1,0-11.1-5-11.1-11.1V342.7z"/>
				<path class="st0" d="M579.6,376.8c0-0.9-0.6-1.5-1.5-1.5c-0.9,0-1.5,0.6-1.5,1.5v1.5c0,2.5-1.9,4.4-4.4,4.4h-10.2
					c-4.1,0-7.3,3.2-7.3,7.3c0,0.9,0.6,1.5,1.5,1.5c0.9,0,1.5-0.6,1.5-1.5c0-2.5,1.9-4.4,4.4-4.4h10.2c4.1,0,7.3-3.2,7.3-7.3V376.8z
					"/>
				<path class="st0" d="M605.8,382.6h-10.2c-2.5,0-4.4-1.9-4.4-4.4v-1.5c0-0.9-0.6-1.5-1.5-1.5s-1.5,0.6-1.5,1.5v1.5
					c0,4.1,3.2,7.3,7.3,7.3h10.2c2.5,0,4.4,1.9,4.4,4.4v30.6c0,0.9,0.6,1.5,1.5,1.5c0.9,0,1.5-0.6,1.5-1.5v-30.6
					C613.1,385.8,609.9,382.6,605.8,382.6z"/>
				<path class="st1" d="M546.3,403.3c-2.6,0-4.8,2.2-4.8,4.8s2.2,4.8,4.8,4.8s4.8-2.2,4.8-4.8S549,403.3,546.3,403.3z M546.3,410.5
					c-1.3,0-2.4-1.1-2.4-2.4s1.1-2.4,2.4-2.4c1.3,0,2.4,1.1,2.4,2.4S547.6,410.5,546.3,410.5z"/>
				<circle class="st0" cx="576.5" cy="350" r="2"/>
				<circle class="st0" cx="592.9" cy="350" r="2"/>
				<path class="st0" d="M589.7,361.8l-1.2,1.2c-0.7,0.7-1.7,1.2-2.8,1.2h-3.6c-1,0-2-0.4-2.8-1.2l-1.2-1.2c-0.6-0.6-1.5-0.6-2,0
					c-0.6,0.6-0.6,1.5,0,2l1.2,1.2c1.3,1.3,3.1,2,5,2h3.6c1.9,0,3.5-0.7,4.7-2l1.2-1.2c0.6-0.6,0.6-1.5,0-2
					C591.1,361.2,590.2,361.2,589.7,361.8z"/>
				<path class="st0" d="M586.9,343.3h10.2c0.9,0,1.5-0.6,1.5-1.5s-0.6-1.5-1.5-1.5h-9.8l-5.4-4.1c-0.4-0.3-1-0.4-1.5-0.1
					c-0.6,0.3-0.9,0.7-0.9,1.3v2.9h-7.3c-0.9,0-1.5,0.6-1.5,1.5s0.6,1.5,1.5,1.5h8.7c0.9,0,1.5-0.6,1.5-1.5v-1.5l3.5,2.6
					C586.3,343.1,586.6,343.3,586.9,343.3z"/>
				<path class="st0" d="M602.9,394.2c-0.9,0-1.5,0.6-1.5,1.5v16h-21.9c-0.4,0-0.7,0.1-1,0.4l-2.9,2.9c-0.6,0.6-0.6,1.5,0,2
					c0.3,0.3,0.6,0.4,1,0.4s0.7-0.1,1-0.4l2.5-2.5h22.7c0.9,0,1.5-0.6,1.5-1.5v-17.5C604.4,394.8,603.8,394.2,602.9,394.2z"/>
				<path class="st0" d="M592.7,419h-20.4v-23.3c0-0.9-0.6-1.5-1.5-1.5h-49.5c-0.9,0-1.5,0.6-1.5,1.5v24.8c0,0.9,0.6,1.5,1.5,1.5
					h49.5h21.9c0.9,0,1.5-0.6,1.5-1.5S593.6,419,592.7,419z M522.8,397.1h46.6V419h-46.6V397.1z"/>
				<circle class="st0" cx="541.7" cy="379.7" r="1.5"/>
				<circle class="st0" cx="541.7" cy="330.1" r="1.5"/>
				<circle class="st0" cx="522.8" cy="354.9" r="1.5"/>
				<circle class="st0" cx="522.8" cy="368" r="1.5"/>
				<circle class="st0" cx="560.7" cy="354.9" r="1.5"/>
				<circle class="st0" cx="560.7" cy="341.8" r="1.5"/>
				<circle class="st0" cx="522.8" cy="341.8" r="1.5"/>
				<circle class="st0" cx="560.7" cy="368" r="1.5"/>
				<path class="st1" d="M528.6,353.4c0.3,0,0.4,0,0.7-0.1l24.8-14.6c0.7-0.4,0.9-1.3,0.6-2c-0.4-0.7-1.3-0.9-2-0.6l-24.8,14.6
					c-0.7,0.4-0.9,1.3-0.6,2C527.6,353.2,528.2,353.4,528.6,353.4z"/>
				<path class="st0" d="M527.2,373.8h29.1c0.9,0,1.5-0.6,1.5-1.5c0-0.9-0.6-1.5-1.5-1.5h-1.5v-23.3c0-0.9-0.6-1.5-1.5-1.5
					s-1.5,0.6-1.5,1.5v23.3H549v-21.9c0-0.9-0.6-1.5-1.5-1.5s-1.5,0.6-1.5,1.5v21.9h-2.9V352c0-0.9-0.6-1.5-1.5-1.5
					s-1.5,0.6-1.5,1.5v18.9h-2.9v-16c0-0.9-0.6-1.5-1.5-1.5s-1.5,0.6-1.5,1.5v16h-2.9v-11.7c0-0.9-0.6-1.5-1.5-1.5
					c-0.9,0-1.5,0.6-1.5,1.5v11.7h-1.5c-0.9,0-1.5,0.6-1.5,1.5C525.7,373.3,526.3,373.8,527.2,373.8z"/>
				<path class="st1" d="M585,391.1l5.8-3c0.5-0.3,1.2,0.1,1.2,0.7v8.5c0,0.6-0.6,1-1.1,0.7l-5.9-2.9c-0.2-0.1-0.5-0.1-0.7,0
					l-5.9,2.9c-0.5,0.3-1.1-0.1-1.1-0.7v-8.5c0-0.6,0.6-1,1.1-0.7l6.1,3C584.5,391.3,584.7,391.3,585,391.1z"/>
			</g>
		</g>
	</g>
	<g>
		<g>
			<path class="st1" d="M554,336.1l-5.8-1.5c-0.7-0.3-1.6,0.3-1.7,1c-0.3,0.7,0.3,1.6,1,1.7l4.4,1.2l-1.2,4.4
				c-0.3,0.7,0.3,1.6,1,1.7c0,0,0.1,0,0.3,0c0.6,0,1.3-0.4,1.6-1l1.5-5.8C555.3,337.1,554.7,336.3,554,336.1z"/>
		</g>
	</g>
	<path class="st2" d="M557,324.4"/>
</g>
<g id="man2">
	<g>
		<g>
			<g>
				<path class="st0" d="M162.5,378.2h8.4c7.7,0,14-6.3,14-14V347c0-7.7-6.3-14-14-14h-8.4c-7.7,0-14,6.3-14,14v17.2
					C148.5,371.9,154.7,378.2,162.5,378.2z M151.4,347c0-6.1,5-11.1,11.1-11.1h8.4c6.1,0,11.1,5,11.1,11.1v17.2
					c0,6.1-5,11.1-11.1,11.1h-8.4c-6.1,0-11.1-5-11.1-11.1V347z"/>
				<path class="st0" d="M161.6,381.1c0-0.9-0.6-1.5-1.5-1.5s-1.5,0.6-1.5,1.5v1.5c0,2.5-1.9,4.4-4.4,4.4h-10.2
					c-4.1,0-7.3,3.2-7.3,7.3c0,0.9,0.6,1.5,1.5,1.5c0.9,0,1.5-0.6,1.5-1.5c0-2.5,1.9-4.4,4.4-4.4h10.2c4.1,0,7.3-3.2,7.3-7.3V381.1z
					"/>
				<path class="st0" d="M187.8,387h-10.2c-2.5,0-4.4-1.9-4.4-4.4v-1.5c0-0.9-0.6-1.5-1.5-1.5s-1.5,0.6-1.5,1.5v1.5
					c0,4.1,3.2,7.3,7.3,7.3h10.2c2.5,0,4.4,1.9,4.4,4.4v30.6c0,0.9,0.6,1.5,1.5,1.5c0.9,0,1.5-0.6,1.5-1.5v-30.6
					C195.1,390.2,191.9,387,187.8,387z"/>
				<path class="st1" d="M126.6,405.7c-3.2,0-5.8,2.6-5.8,5.8s2.6,5.8,5.8,5.8c3.2,0,5.8-2.6,5.8-5.8S129.8,405.7,126.6,405.7z
					 M126.6,414.5c-1.6,0-2.9-1.3-2.9-2.9s1.3-2.9,2.9-2.9c1.6,0,2.9,1.3,2.9,2.9S128.2,414.5,126.6,414.5z"/>
				<circle class="st0" cx="158.5" cy="354.3" r="2"/>
				<circle class="st0" cx="174.8" cy="354.3" r="2"/>
				<path class="st0" d="M171.6,366.1l-1.2,1.2c-0.7,0.7-1.7,1.2-2.8,1.2h-3.6c-1,0-2-0.4-2.8-1.2l-1.2-1.2c-0.6-0.6-1.5-0.6-2,0
					c-0.6,0.6-0.6,1.5,0,2l1.2,1.2c1.3,1.3,3.1,2,5,2h3.6c1.9,0,3.5-0.7,4.7-2l1.2-1.2c0.6-0.6,0.6-1.5,0-2S172.2,365.5,171.6,366.1
					z"/>
				<path class="st0" d="M182,347.8c14.6,0,8.8,21,8.8,21.9c0,0.8,1,1.2,1.6,1.2c0.5-0.1,1.6-0.7,1.6-1.3c0-0.3,7.1-24.9-11.7-24.9
					h-18.2h-9.8c-0.8,0-1.4,0.6-1.5,1.4c0,0.9,0.5,1.6,1.5,1.6h10.2C164.8,347.6,179.1,347.8,182,347.8z"/>
				<path class="st0" d="M184.9,398.6c-0.9,0-1.5,0.6-1.5,1.5v16h-21.9c-0.4,0-0.7,0.1-1,0.4l-2.9,2.9c-0.6,0.6-0.6,1.5,0,2
					c0.3,0.3,0.6,0.4,1,0.4c0.4,0,0.7-0.1,1-0.4l2.5-2.5h22.7c0.9,0,1.5-0.6,1.5-1.5v-17.5C186.4,399.2,185.8,398.6,184.9,398.6z"/>
				<path class="st0" d="M155.8,400.4c0-0.8,0.8-1.4,1.6-1.1l7.4,3c0.7,0.2,1.5,0.2,2.3,0l7.4-3.1c0.8-0.3,1.6,0.2,1.6,1.1v1.7
					c0,0.6-0.4,1.1-0.9,1.3l-8.1,3.4c-0.7,0.2-1.5,0.2-2.3,0l-8.1-3.2c-0.6-0.2-0.9-0.8-0.9-1.4V400.4z"/>
				<path class="st0" d="M174.7,423.4h-20.4v-23.3c0-0.9-0.6-1.5-1.5-1.5h-49.5c-0.9,0-1.5,0.6-1.5,1.5v24.8c0,0.9,0.6,1.5,1.5,1.5
					h49.5h21.9c0.9,0,1.5-0.6,1.5-1.5C176.2,424,175.6,423.4,174.7,423.4z M104.8,401.5h46.6v21.9h-46.6V401.5z"/>
				<circle class="st0" cx="123.7" cy="384" r="1.5"/>
				<circle class="st0" cx="123.7" cy="334.5" r="1.5"/>
				<circle class="st0" cx="104.8" cy="359.3" r="1.5"/>
				<circle class="st0" cx="104.8" cy="372.4" r="1.5"/>
				<circle class="st0" cx="142.7" cy="359.3" r="1.5"/>
				<circle class="st0" cx="142.7" cy="346.2" r="1.5"/>
				<circle class="st0" cx="104.8" cy="346.2" r="1.5"/>
				<circle class="st0" cx="142.7" cy="372.4" r="1.5"/>
				<path class="st1" d="M110.6,357.8c0.3,0,0.4,0,0.7-0.1l24.8-14.6c0.7-0.4,0.9-1.3,0.6-2c-0.4-0.7-1.3-0.9-2-0.6L109.9,355
					c-0.7,0.4-0.9,1.3-0.6,2C109.6,357.5,110.2,357.8,110.6,357.8z"/>
				<path class="st0" d="M109.1,378.2h29.1c0.9,0,1.5-0.6,1.5-1.5s-0.6-1.5-1.5-1.5h-1.5V352c0-0.9-0.6-1.5-1.5-1.5
					c-0.9,0-1.5,0.6-1.5,1.5v23.3H131v-21.9c0-0.9-0.6-1.5-1.5-1.5s-1.5,0.6-1.5,1.5v21.9h-2.9v-18.9c0-0.9-0.6-1.5-1.5-1.5
					s-1.5,0.6-1.5,1.5v18.9h-2.9v-16c0-0.9-0.6-1.5-1.5-1.5c-0.9,0-1.5,0.6-1.5,1.5v16h-2.9v-11.7c0-0.9-0.6-1.5-1.5-1.5
					c-0.9,0-1.5,0.6-1.5,1.5v11.7h-1.5c-0.9,0-1.5,0.6-1.5,1.5S108.3,378.2,109.1,378.2z"/>
			</g>
		</g>
	</g>
	<g>
		<g>
			<path class="st1" d="M136,340.5l-5.8-1.5c-0.7-0.3-1.6,0.3-1.7,1c-0.3,0.7,0.3,1.6,1,1.7l4.4,1.2l-1.2,4.4
				c-0.3,0.7,0.3,1.6,1,1.7c0,0,0.1,0,0.3,0c0.6,0,1.3-0.4,1.6-1l1.5-5.8C137.3,341.5,136.7,340.6,136,340.5z"/>
		</g>
	</g>
	<path class="st2" d="M139,328.7"/>
</g>
<g id="Network">
	<g id="video">
	</g>
	<g id="podcast">
	</g>
	<g id="article_1_">
	</g>
</g>
<g id="binders">
	<g>
		<g>
			<path d="M329-69.5c-3.6,0-6.5,2.9-6.5,6.5s2.9,6.5,6.5,6.5c3.6,0,6.5-2.9,6.5-6.5S332.5-69.5,329-69.5z"/>
		</g>
	</g>
	<g>
		<g>
			<path d="M333.8-111.7h-9.7c-1,0-1.6,0.6-1.6,1.6s0.6,1.6,1.6,1.6h9.7c1,0,1.6-0.6,1.6-1.6S334.8-111.7,333.8-111.7z"/>
		</g>
	</g>
	<g>
		<g>
			<path d="M333.8-118.1h-9.7c-1,0-1.6,0.6-1.6,1.6s0.6,1.6,1.6,1.6h9.7c1,0,1.6-0.6,1.6-1.6S334.8-118.1,333.8-118.1z"/>
		</g>
	</g>
	<g>
		<g>
			<path d="M333.8-124.6h-9.7c-1,0-1.6,0.6-1.6,1.6c0,1,0.6,1.6,1.6,1.6h9.7c1,0,1.6-0.6,1.6-1.6C335.4-124,334.8-124.6,333.8-124.6
				z"/>
		</g>
	</g>
	<g>
		<g>
			<path d="M351.7-66.3c-1.8,0-3.2,1.5-3.2,3.2s1.5,3.2,3.2,3.2c1.8,0,3.2-1.5,3.2-3.2S353.4-66.3,351.7-66.3z"/>
		</g>
	</g>
	<g>
		<g>
			<path d="M329-101.9c-1,0-1.6,0.6-1.6,1.6v22.7c0,1,0.6,1.6,1.6,1.6c1,0,1.6-0.6,1.6-1.6v-22.7C330.6-101.3,329.9-101.9,329-101.9
				z"/>
		</g>
	</g>
	<g>
		<g>
			<path d="M293.4-68c-0.2,0-0.3,0-0.6,0c-0.6,0-1.3,0.2-1.8,0.6c-0.6,0.5-1.1,1.3-1.3,2.1c-0.3,1.8,0.8,3.4,2.6,3.7
				c0.8,0.2,1.8,0,2.4-0.5c0.6-0.5,1.1-1.3,1.3-2.1C296.4-65.9,295.2-67.7,293.4-68z"/>
		</g>
	</g>
	<g>
		<g>
			<path d="M363-142.5h-22.7h-22.7c-1,0-1.6,0.6-1.6,1.6v2.1l-20.4-3.7c-0.5,0-0.8,0-1.1,0.3c-0.3,0.2-0.6,0.6-0.6,1l-16.5,90
				c-0.2,0.8,0.5,1.8,1.3,1.9l22.2,4.1c0.2,0,0.2,0,0.3,0c0.3,0,0.6-0.2,1-0.3c0.3-0.3,0.6-0.6,0.6-1l13.3-72.5v72.1
				c0,1,0.6,1.6,1.6,1.6h22.7H363c1,0,1.6-0.6,1.6-1.6v-94C364.6-141.8,364-142.5,363-142.5z M299.3-63.7c-0.3,1.8-1.3,3.2-2.8,4.2
				c-1.1,0.8-2.4,1.1-3.7,1.1c-0.3,0-0.8,0-1.1-0.2c-3.6-0.6-5.8-4.1-5.2-7.6c0.3-1.8,1.3-3.2,2.8-4.2c1.5-1,3.1-1.3,4.9-1
				C297.5-70.5,299.9-67.1,299.3-63.7z M300.4-98.7l-4.1,22.4c-0.2,0.8-0.8,1.3-1.6,1.3c-0.2,0-0.2,0-0.3,0c-0.8-0.2-1.5-1-1.3-1.9
				l4.1-22.4c0.2-0.8,1-1.5,1.9-1.3C299.9-100.5,300.6-99.7,300.4-98.7z M307.2-106.6c-0.2,0.6-1,1.3-1.6,1.3c-0.2,0-0.2,0-0.3,0
				l-9.6-1.8c-0.8-0.2-1.5-1-1.3-1.9c0.2-0.8,1-1.5,1.9-1.3l9.6,1.8C306.7-108.4,307.4-107.6,307.2-106.6z M308.4-112.9
				c-0.2,0.6-0.8,1.3-1.6,1.3c-0.2,0-0.2,0-0.3,0l-9.6-1.8c-0.8-0.2-1.5-1-1.3-1.9c0.2-0.8,1-1.5,1.9-1.3l9.6,1.8
				C307.9-114.7,308.5-113.9,308.4-112.9z M309.5-119.4c-0.2,0.8-0.8,1.3-1.6,1.3c-0.2,0-0.2,0-0.3,0l-9.6-1.8
				c-0.8-0.2-1.5-1-1.3-1.9c0.2-0.8,1-1.5,1.9-1.3l9.6,1.8C309-121.2,309.7-120.4,309.5-119.4z M310.6-125.8
				c-0.2,0.6-0.8,1.3-1.6,1.3c-0.2,0-0.2,0-0.3,0l-9.4-1.8c-0.8-0.2-1.5-1-1.3-1.9c0-0.8,1-1.5,1.8-1.3l9.6,1.8
				C310.1-127.5,310.8-126.7,310.6-125.8z M338.7-48.4h-19.5v-90.8h19.5V-48.4z M351.7-56.5c-3.6,0-6.5-2.9-6.5-6.5s2.9-6.5,6.5-6.5
				s6.5,2.9,6.5,6.5C358.1-59.4,355.2-56.5,351.7-56.5z M350-77.6v-22.7c0-1,0.6-1.6,1.6-1.6c1,0,1.6,0.6,1.6,1.6v22.7
				c0,1-0.6,1.6-1.6,1.6C350.7-76,350-76.6,350-77.6z M356.5-108.4h-9.7c-1,0-1.6-0.6-1.6-1.6s0.6-1.6,1.6-1.6h9.7
				c1,0,1.6,0.6,1.6,1.6S357.5-108.4,356.5-108.4z M356.5-114.9h-9.7c-1,0-1.6-0.6-1.6-1.6s0.6-1.6,1.6-1.6h9.7c1,0,1.6,0.6,1.6,1.6
				S357.5-114.9,356.5-114.9z M356.5-121.4h-9.7c-1,0-1.6-0.6-1.6-1.6c0-1,0.6-1.6,1.6-1.6h9.7c1,0,1.6,0.6,1.6,1.6
				C358.1-122,357.5-121.4,356.5-121.4z M356.5-127.9h-9.7c-1,0-1.6-0.6-1.6-1.6c0-1,0.6-1.6,1.6-1.6h9.7c1,0,1.6,0.6,1.6,1.6
				C358.1-128.5,357.5-127.9,356.5-127.9z"/>
		</g>
	</g>
	<g>
		<g>
			<path d="M394-63c0,3.6,2.9,6.5,6.5,6.5s6.5-2.9,6.5-6.5c0-3.6-2.9-6.5-6.5-6.5S394-66.6,394-63z"/>
		</g>
	</g>
	<g>
		<g>
			<path d="M394-110c0,1,0.6,1.6,1.6,1.6h9.7c1,0,1.6-0.6,1.6-1.6c0-1-0.6-1.6-1.6-1.6h-9.7C394.7-111.7,394-111,394-110z"/>
		</g>
	</g>
	<g>
		<g>
			<path d="M394-116.5c0,1,0.6,1.6,1.6,1.6h9.7c1,0,1.6-0.6,1.6-1.6s-0.6-1.6-1.6-1.6h-9.7C394.7-118.1,394-117.5,394-116.5z"/>
		</g>
	</g>
	<g>
		<g>
			<path d="M394-123c0,1,0.6,1.6,1.6,1.6h9.7c1,0,1.6-0.6,1.6-1.6c0-1-0.6-1.6-1.6-1.6h-9.7C394.7-124.6,394-124,394-123z"/>
		</g>
	</g>
	<g>
		<g>
			<path d="M374.6-63c0,1.8,1.5,3.2,3.2,3.2c1.8,0,3.2-1.5,3.2-3.2s-1.5-3.2-3.2-3.2C376-66.3,374.6-64.8,374.6-63z"/>
		</g>
	</g>
	<g>
		<g>
			<path d="M398.9-100.3v22.7c0,1,0.6,1.6,1.6,1.6s1.6-0.6,1.6-1.6v-22.7c0-1-0.6-1.6-1.6-1.6S398.9-101.3,398.9-100.3z"/>
		</g>
	</g>
	<g>
		<g>
			<path d="M433.4-64.1c0.2,0.8,0.6,1.6,1.3,2.1s1.6,0.6,2.4,0.5c1.8-0.3,2.9-1.9,2.6-3.7c-0.2-0.8-0.6-1.6-1.3-2.1
				c-0.5-0.5-1.1-0.6-1.8-0.6c-0.3,0-0.5,0-0.6,0C434.2-67.7,433.1-65.9,433.4-64.1z"/>
		</g>
	</g>
	<g>
		<g>
			<path class="st3" d="M364.8-140.8v94c0,1,0.6,1.6,1.6,1.6h22.7h22.7c1,0,1.6-0.6,1.6-1.6v-72.1l13.3,72.5c0,0.3,0.3,0.6,0.6,1
				c0.3,0.2,0.6,0.3,1,0.3c0.2,0,0.2,0,0.3,0l22.2-4.1c0.8-0.2,1.5-1.1,1.3-1.9l-16.5-90c0-0.3-0.3-0.8-0.6-1
				c-0.3-0.3-0.6-0.3-1.1-0.3l-20.4,3.7v-2.1c0-1-0.6-1.6-1.6-1.6h-22.7h-22.7C365.5-142.5,364.8-141.8,364.8-140.8z M435.4-71.3
				c1.8-0.3,3.4,0,4.9,1c1.5,1,2.4,2.4,2.8,4.2c0.6,3.6-1.6,7-5.2,7.6c-0.3,0.2-0.8,0.2-1.1,0.2c-1.3,0-2.6-0.3-3.7-1.1
				c-1.5-1-2.4-2.4-2.8-4.2C429.5-67.1,432-70.5,435.4-71.3z M430.3-100.6c1-0.2,1.8,0.5,1.9,1.3l4.1,22.4c0.2,1-0.5,1.8-1.3,1.9
				c-0.2,0-0.2,0-0.3,0c-0.8,0-1.5-0.5-1.6-1.3l-4.1-22.4C428.9-99.7,429.5-100.5,430.3-100.6z M423.5-108.6l9.6-1.8
				c1-0.2,1.8,0.5,1.9,1.3c0.2,1-0.5,1.8-1.3,1.9l-9.6,1.8c-0.2,0-0.2,0-0.3,0c-0.6,0-1.5-0.6-1.6-1.3
				C422.1-107.6,422.7-108.4,423.5-108.6z M422.4-114.9l9.6-1.8c1-0.2,1.8,0.5,1.9,1.3c0.2,1-0.5,1.8-1.3,1.9l-9.6,1.8
				c-0.2,0-0.2,0-0.3,0c-0.8,0-1.5-0.6-1.6-1.3C420.9-113.9,421.6-114.7,422.4-114.9z M421.3-121.4l9.6-1.8c1-0.2,1.8,0.5,1.9,1.3
				c0.2,1-0.5,1.8-1.3,1.9l-9.6,1.8c-0.2,0-0.2,0-0.3,0c-0.8,0-1.5-0.5-1.6-1.3C419.8-120.4,420.5-121.2,421.3-121.4z M420.1-127.7
				l9.6-1.8c0.8-0.2,1.8,0.5,1.8,1.3c0.2,1-0.5,1.8-1.3,1.9l-9.4,1.8c-0.2,0-0.2,0-0.3,0c-0.8,0-1.5-0.6-1.6-1.3
				C418.7-126.7,419.3-127.5,420.1-127.7z M390.8-139.2h19.5v90.8h-19.5V-139.2z M371.3-63c0-3.6,2.9-6.5,6.5-6.5
				c3.6,0,6.5,2.9,6.5,6.5c0,3.6-2.9,6.5-6.5,6.5C374.3-56.5,371.3-59.4,371.3-63z M377.8-76c-1,0-1.6-0.6-1.6-1.6v-22.7
				c0-1,0.6-1.6,1.6-1.6c1,0,1.6,0.6,1.6,1.6v22.7C379.4-76.6,378.8-76,377.8-76z M371.3-110c0-1,0.6-1.6,1.6-1.6h9.7
				c1,0,1.6,0.6,1.6,1.6s-0.6,1.6-1.6,1.6H373C372-108.4,371.3-109.1,371.3-110z M371.3-116.5c0-1,0.6-1.6,1.6-1.6h9.7
				c1,0,1.6,0.6,1.6,1.6s-0.6,1.6-1.6,1.6H373C372-114.9,371.3-115.5,371.3-116.5z M371.3-123c0-1,0.6-1.6,1.6-1.6h9.7
				c1,0,1.6,0.6,1.6,1.6s-0.6,1.6-1.6,1.6H373C372-121.4,371.3-122,371.3-123z M371.3-129.5c0-1,0.6-1.6,1.6-1.6h9.7
				c1,0,1.6,0.6,1.6,1.6c0,1-0.6,1.6-1.6,1.6H373C372-127.9,371.3-128.5,371.3-129.5z"/>
		</g>
	</g>
	<circle class="st4" cx="447.2" cy="-127.9" r="15.3"/>
	<polyline class="st5" points="440.1,-127.5 445.5,-121.5 454,-132.1 	"/>
</g>
<g id="cogs2">
	<g id="cog_4_">
		<path class="st6" d="M367.7,72.2h-2c-0.3-1.2-0.8-2.4-1.4-3.4l1.4-1.4c0.2-0.2,0.2-0.6,0-0.8l-3.3-3.3c-0.2-0.2-0.6-0.2-0.8,0
			l-1.4,1.4c-1.1-0.6-2.2-1.1-3.4-1.4v-2c0-0.3-0.3-0.6-0.6-0.6h-4.7c-0.3,0-0.6,0.3-0.6,0.6v2c-1.2,0.3-2.4,0.8-3.4,1.4l-1.4-1.4
			c-0.2-0.2-0.6-0.2-0.8,0l-3.3,3.3c-0.2,0.2-0.2,0.6,0,0.8l1.4,1.4c-0.6,1.1-1.1,2.2-1.4,3.4h-2c-0.3,0-0.6,0.3-0.6,0.6v4.7
			c0,0.3,0.3,0.6,0.6,0.6h2c0.3,1.2,0.8,2.4,1.4,3.4l-1.4,1.4c-0.1,0.1-0.2,0.2-0.2,0.4c0,0.1,0.1,0.3,0.2,0.4l3.3,3.3
			c0.2,0.2,0.6,0.2,0.8,0l1.4-1.4c1.1,0.6,2.2,1.1,3.4,1.4v2c0,0.3,0.3,0.6,0.6,0.6h4.7c0.3,0,0.6-0.3,0.6-0.6v-2
			c1.2-0.3,2.4-0.8,3.4-1.4l1.4,1.4c0.2,0.2,0.6,0.2,0.8,0l3.3-3.3c0.2-0.2,0.2-0.6,0-0.8l-1.4-1.4c0.6-1.1,1.1-2.2,1.4-3.4h2
			c0.3,0,0.6-0.3,0.6-0.6v-4.7C368.3,72.4,368.1,72.2,367.7,72.2z M367.2,76.8h-1.9c-0.3,0-0.5,0.2-0.5,0.4
			c-0.3,1.4-0.8,2.7-1.6,3.9c-0.1,0.2-0.1,0.5,0.1,0.7l1.3,1.3l-2.5,2.5l-1.3-1.3c-0.2-0.2-0.5-0.2-0.7-0.1
			c-1.2,0.8-2.5,1.3-3.9,1.6c-0.3,0.1-0.4,0.3-0.4,0.5v1.9h-3.6v-1.9c0-0.3-0.2-0.5-0.4-0.5c-1.4-0.3-2.7-0.8-3.9-1.6
			c-0.2-0.1-0.5-0.1-0.7,0.1l-1.3,1.3l-2.5-2.5l1.3-1.3c0.2-0.2,0.2-0.5,0.1-0.7c-0.8-1.2-1.3-2.5-1.6-3.9c-0.1-0.3-0.3-0.4-0.5-0.4
			h-1.9v-3.6h1.9c0.3,0,0.5-0.2,0.5-0.4c0.3-1.4,0.8-2.7,1.6-3.9c0.1-0.2,0.1-0.5-0.1-0.7l-1.3-1.3l2.5-2.5l1.3,1.3
			c0.2,0.2,0.5,0.2,0.7,0.1c1.2-0.8,2.5-1.3,3.9-1.6c0.3-0.1,0.4-0.3,0.4-0.5v-1.9h3.6v1.9c0,0.3,0.2,0.5,0.4,0.5
			c1.4,0.3,2.7,0.8,3.9,1.6c0.2,0.1,0.5,0.1,0.7-0.1l1.3-1.3l2.5,2.5l-1.3,1.3c-0.2,0.2-0.2,0.5-0.1,0.7c0.8,1.2,1.3,2.5,1.6,3.9
			c0.1,0.3,0.3,0.4,0.5,0.4h1.9V76.8z"/>
		<path class="st3" d="M348.7,75.1c0-2.9,2.4-5.3,5.3-5.3c0.7,0,1.4,0.1,2,0.4c0.3,0.1,0.6,0,0.7-0.3c0.1-0.3,0-0.6-0.3-0.7
			c-0.8-0.3-1.6-0.5-2.4-0.5c-3.5,0-6.4,2.9-6.4,6.4c0,0.8,0.1,1.6,0.4,2.3c0.1,0.2,0.3,0.4,0.5,0.4c0.1,0,0.1,0,0.2,0
			c0.3-0.1,0.4-0.4,0.3-0.7C348.8,76.4,348.7,75.7,348.7,75.1z"/>
		<path class="st6" d="M359.1,72.2c-0.3,0.1-0.4,0.5-0.3,0.7c0.3,0.7,0.4,1.4,0.4,2.1c0,2.9-2.4,5.3-5.3,5.3c-0.8,0-1.5-0.2-2.2-0.5
			c-0.3-0.1-0.6,0-0.7,0.3s0,0.6,0.3,0.7c0.8,0.4,1.7,0.6,2.7,0.6c3.5,0,6.4-2.9,6.4-6.4c0-0.9-0.2-1.8-0.5-2.6
			C359.7,72.2,359.4,72.1,359.1,72.2z"/>
		<path class="st3" d="M349.7,78.5c-0.3,0-0.6,0.3-0.6,0.6s0.3,0.6,0.6,0.6c0.3,0,0.6-0.3,0.6-0.6S350,78.5,349.7,78.5z"/>
		<path class="st6" d="M358,71.4c0.3,0,0.6-0.3,0.6-0.6c0-0.3-0.3-0.6-0.6-0.6c-0.3,0-0.6,0.3-0.6,0.6
			C357.5,71.2,357.7,71.4,358,71.4z"/>
	</g>
	<g id="cog_3_">
		<path class="st6" d="M392.4,84.1l-1.9,0.3c-0.5-1.1-1.1-2.2-1.9-3.2l1.2-1.6c0.2-0.2,0.1-0.6-0.1-0.8l-3.8-2.8
			c-0.2-0.2-0.6-0.1-0.8,0.1l-1.2,1.6c-1.1-0.5-2.4-0.8-3.6-0.9L380,75c0-0.3-0.3-0.5-0.6-0.5l-4.6,0.7c-0.3,0-0.5,0.3-0.5,0.6
			l0.3,1.9c-1.1,0.5-2.2,1.1-3.2,1.9l-1.6-1.2c-0.2-0.2-0.6-0.1-0.8,0.1l-2.8,3.8c-0.2,0.2-0.1,0.6,0.1,0.8l1.6,1.2
			c-0.5,1.1-0.8,2.4-0.9,3.6l-1.9,0.3c-0.3,0-0.5,0.3-0.5,0.6l0.7,4.6c0,0.3,0.3,0.5,0.6,0.5l1.9-0.3c0.5,1.1,1.1,2.2,1.9,3.2
			l-1.2,1.6c-0.1,0.1-0.1,0.3-0.1,0.4c0,0.1,0.1,0.3,0.2,0.4l3.8,2.8c0.2,0.2,0.6,0.1,0.8-0.1l1.2-1.6c1.1,0.5,2.4,0.8,3.6,0.9
			l0.3,1.9c0,0.3,0.3,0.5,0.6,0.5l4.6-0.7c0.3,0,0.5-0.3,0.5-0.6l-0.3-1.9c1.1-0.5,2.2-1.1,3.2-1.9l1.6,1.2c0.2,0.2,0.6,0.1,0.8-0.1
			l2.8-3.8c0.2-0.2,0.1-0.6-0.1-0.8l-1.6-1.2c0.5-1.1,0.8-2.4,0.9-3.6l1.9-0.3c0.3,0,0.5-0.3,0.5-0.6l-0.7-4.6
			C393,84.3,392.7,84.1,392.4,84.1z M392.6,88.8l-1.8,0.3c-0.3,0-0.5,0.3-0.5,0.5c-0.1,1.4-0.4,2.8-1,4c-0.1,0.2,0,0.5,0.2,0.7
			l1.5,1.1l-2.1,2.9l-1.5-1.1c-0.2-0.2-0.5-0.1-0.7,0c-1,0.9-2.2,1.7-3.6,2.2c-0.3,0.1-0.4,0.3-0.4,0.6l0.3,1.8l-3.5,0.5l-0.3-1.8
			c0-0.3-0.3-0.5-0.5-0.5c-1.4-0.1-2.8-0.4-4-1c-0.2-0.1-0.5,0-0.7,0.2l-1.1,1.5l-2.9-2.1l1.1-1.5c0.2-0.2,0.1-0.5,0-0.7
			c-0.9-1-1.7-2.2-2.2-3.6c-0.1-0.3-0.3-0.4-0.6-0.4l-1.8,0.3l-0.5-3.5l1.8-0.3c0.3,0,0.5-0.3,0.5-0.5c0.1-1.4,0.4-2.8,1-4
			c0.1-0.2,0-0.5-0.2-0.7l-1.5-1.1l2.1-2.9l1.5,1.1c0.2,0.2,0.5,0.1,0.7,0c1-0.9,2.2-1.7,3.6-2.2c0.3-0.1,0.4-0.3,0.4-0.6l-0.3-1.8
			l3.5-0.5l0.3,1.8c0,0.3,0.3,0.5,0.5,0.5c1.4,0.1,2.8,0.4,4,1c0.2,0.1,0.5,0,0.7-0.2l1.1-1.5l2.9,2.1l-1.1,1.5
			c-0.2,0.2-0.1,0.5,0,0.7c0.9,1,1.7,2.2,2.2,3.6c0.1,0.3,0.3,0.4,0.6,0.4l1.8-0.3L392.6,88.8z"/>
		<path class="st6" d="M374,89.3c-0.1-2.5,1.6-4.7,4-5.3c0.8-0.2,1.7-0.2,2.5,0c0.3,0.1,0.6-0.1,0.7-0.4c0.1-0.3-0.1-0.6-0.4-0.7
			c-1-0.2-2-0.2-3.1,0c-2.9,0.7-5,3.5-4.8,6.4c0,1.1,0.3,2.1,0.8,2.9c0.1,0.2,0.3,0.3,0.6,0.3c0.1,0,0.1,0,0.2-0.1
			c0.3-0.2,0.4-0.5,0.2-0.8C374.2,91,374,90.2,374,89.3z"/>
		<path class="st3" d="M383.9,85.5c-0.3,0.2-0.3,0.5-0.2,0.8c0.4,0.6,0.7,1.3,0.8,2.1c0.4,2.8-1.6,5.5-4.4,6
			c-0.8,0.1-1.5,0.1-2.2-0.1c-0.3-0.1-0.6,0.1-0.7,0.4c-0.1,0.3,0.1,0.6,0.4,0.7c0.9,0.3,1.9,0.3,2.8,0.2c3.3-0.6,5.7-3.7,5.3-7.1
			c-0.1-1-0.4-1.8-0.9-2.6C384.5,85.4,384.1,85.3,383.9,85.5z"/>
		<path class="st6" d="M375.6,93.1c-0.3,0-0.5,0.3-0.5,0.6s0.3,0.5,0.6,0.5c0.3,0,0.5-0.3,0.5-0.6S375.9,93.1,375.6,93.1z"/>
		<path class="st3" d="M382.7,84.9c0.3,0,0.5-0.3,0.5-0.6c0-0.3-0.3-0.5-0.6-0.5c-0.3,0-0.5,0.3-0.5,0.6
			C382.1,84.7,382.4,84.9,382.7,84.9z"/>
	</g>
	<path class="st7" d="M339.8,64.8c1.3-3.8,4.8-5.8,7.8-6"/>
	<line class="st7" x1="349.9" y1="58.4" x2="350.8" y2="58.3"/>
	<path class="st7" d="M385.3,73.7c4,0.2,6.9,2.9,8,5.7"/>
	<line class="st7" x1="394.4" y1="81.4" x2="394.8" y2="82.2"/>
</g>
<g id="robot">
	<path class="st3" d="M428.6,55.4l2.7-2c0.4-0.3,0.6-0.7,0.7-1.1c0.1-0.4-0.1-0.9-0.3-1.3l-2.2-3c1.5-2.1,1.2-5-0.7-6.9
		c-1.9-1.8-4.8-2-6.9-0.5c-2.1,1.5-2.8,4.4-1.6,6.7c1.2,2.3,3.9,3.4,6.4,2.6l1.2,1.6l-5,3.7H428.6z"/>
	<g>
		<path class="st3" d="M433.6,72.4h-16.7c-0.9,0-1.7,0.8-1.7,1.7c0,0.9,0.8,1.7,1.7,1.7h16.7c0.5,0,0.9-0.2,1.2-0.5
			c0.3-0.3,0.5-0.8,0.5-1.2c0-0.5-0.2-0.9-0.5-1.2C434.5,72.6,434.1,72.4,433.6,72.4z"/>
		<path class="st3" d="M418.4,69c0.5,0,0.9-0.2,1.2-0.5c0.3-0.3,0.5-0.8,0.5-1.2v-3.4c0-0.9-0.8-1.7-1.7-1.7s-1.7,0.8-1.7,1.7v3.4
			c0,0.5,0.2,0.9,0.5,1.2C417.6,68.8,418,69,418.4,69z"/>
		<path class="st3" d="M432.1,69c0.5,0,0.9-0.2,1.2-0.5c0.3-0.3,0.5-0.8,0.5-1.2v-3.4c0-0.9-0.8-1.7-1.7-1.7c-0.9,0-1.7,0.8-1.7,1.7
			v3.4c0,0.5,0.2,0.9,0.5,1.2C431.2,68.8,431.6,69,432.1,69z"/>
		<path d="M413.3,55.4c-2.8,0-5.1,2.3-5.1,5.1v0.2c-4,0.8-6.8,4.3-6.8,8.3c0,4,2.8,7.5,6.8,8.3v0.2c0,2.8,2.3,5.1,5.1,5.1h5.1v6.8
			h-10.2c-3.8,0-6.8,3.1-6.8,6.8v17c0,1.9,1.5,3.4,3.4,3.4h3.9c0.6,1,1.7,1.7,2.9,1.7h27.2c1.9,0,3.4-1.5,3.4-3.4h3.4
			c1.9,0,3.4-1.5,3.4-3.4V96.3c0-3.8-3-6.8-6.8-6.8h-10.2v-6.8h5.1c2.8,0,5.1-2.3,5.1-5.1v-0.2c4-0.8,6.8-4.3,6.8-8.3
			s-2.8-7.5-6.8-8.3v-0.2c0-2.8-2.3-5.1-5.1-5.1H413.3z M442.3,64.2c2,0.7,3.4,2.7,3.4,4.8s-1.4,4.1-3.4,4.8V64.2z M408.2,73.8
			c-2-0.7-3.4-2.7-3.4-4.8s1.4-4.1,3.4-4.8V73.8z M408.2,113.3h-3.4v-17c0-1.9,1.5-3.4,3.4-3.4L408.2,113.3L408.2,113.3z
			 M442.3,92.8c1.9,0,3.4,1.5,3.4,3.4v15.3h-3.4V92.8z M432.1,115h-13.6V99.7h13.6V115z M438.9,92.8l0,20.4l0,0l0,0l0,1.7h-3.4V99.7
			c0-1.9-1.5-3.4-3.4-3.4h-13.6c-1.9,0-3.4,1.5-3.4,3.4V115h-3.4V92.8H438.9z M421.8,89.4v-6.8h6.8v6.8L421.8,89.4L421.8,89.4z
			 M413.3,79.2c-0.9,0-1.7-0.8-1.7-1.7v-17c0-0.9,0.8-1.7,1.7-1.7h23.8c0.9,0,1.7,0.8,1.7,1.7v17c0,0.9-0.8,1.7-1.7,1.7H413.3z"/>
	</g>
	<circle class="st8" cx="425.2" cy="45.1" r="1.7"/>
</g>
<g id="professor">
	<g>
		<path class="st9" d="M322,60.7l2.5-0.9c1.1-0.4,1.9-1.4,1.9-2.6s-0.7-2.2-1.9-2.6l-22.5-7.7c-2.4-0.8-5.1-0.8-7.5,0l-22.5,7.7
			c-1.1,0.4-1.9,1.4-1.9,2.6s0.7,2.2,1.9,2.6l10.2,3.5v11.5c0,5.4,2.1,10.6,5.3,14.3l-3.5,4.6L274,95.6c0,0-0.1,0-0.1,0
			c-2.4,0.7-4.5,2.2-6,4.4c-1.4,2-2.1,4.4-2.1,6.7v6.1c0,2.2,2,3.9,4.3,3.9h24.3c0,0,0,0,0,0c0,0,0,0,0,0h8.8c0,0,0,0,0,0
			c0,0,0,0,0,0h24.3c2.4,0,4.3-1.8,4.3-3.9v-6.1c0-2.4-0.7-4.8-2.1-6.7c-1.5-2.2-3.5-3.7-6-4.4c0,0-0.1,0-0.1,0l-10.3-1.9l-3.4-4.6
			c3.3-3.7,5.3-8.9,5.3-14.3V62.9l4.5-1.6 M326.2,99.1l-3.4,3.4c-1.9,1.9-2.9,4.3-2.9,7v5.2h-15.8l-0.4-1.9c0,0,0,0,0,0l-1.6-7.9
			c0.2-0.2,0.4-0.4,0.5-0.6l1,1.3c0,0,0,0.1,0.1,0.1c0.4,0.4,0.9,0.6,1.5,0.6c0.1,0,0.1,0,0.2,0c0.6-0.1,1.2-0.4,1.6-0.9l6.4-9.4
			l9.9,1.8C324.4,98,325.4,98.4,326.2,99.1z M300.4,114.7l-3.9-3.9l0.4-2.2l4.9,4.9l0.2,1.2H300.4z M296.6,89.1h4.6
			c0,1.9-0.3,6.2-2.3,9.4C296.9,95.3,296.6,91,296.6,89.1z M298.1,100.9c0.2,0.2,0.5,0.4,0.8,0.4c0.3,0,0.6-0.1,0.8-0.4
			c0.1-0.1,0.1-0.2,0.2-0.3l1.3,1.6c0,0.1,0,0.1,0,0.2c0,0.6-0.5,1.2-1.2,1.2h-2.2c-0.6,0-1.2-0.5-1.2-1.2c0-0.1,0-0.1,0-0.2
			l1.3-1.6C298,100.7,298,100.8,298.1,100.9z M297.8,105.7h2.2c0.1,0,0.2,0,0.3,0l0.8,4.1l-3.6-3.6l0.1-0.5
			C297.6,105.7,297.7,105.7,297.8,105.7z M296,113.2l1.5,1.5h-1.8L296,113.2z M305.4,104.1C305.4,104.1,305.4,104.1,305.4,104.1
			C305.3,104.1,305.3,104.1,305.4,104.1l-4.3-5.2c0.8-1.5,1.3-3.2,1.7-4.8c2.2-0.7,4.1-1.8,5.9-3.4l3.1,4.1L305.4,104.1z
			 M305.5,69.4c-2,0-3.8,1.1-4.8,2.8c-0.5-0.4-1.2-0.6-1.9-0.6s-1.3,0.2-1.9,0.6c-0.9-1.7-2.7-2.8-4.8-2.8c-2.2,0-4.2,1.4-5,3.3
			h-2.8v-2c0-0.1,0-0.2,0-0.3c0-0.3,0.7-1.2,3.8-2.1c2.8-0.8,6.6-1.3,10.6-1.3s7.8,0.4,10.6,1.3c3.1,0.9,3.8,1.8,3.8,2.1
			c0,0.1,0,0.2,0,0.2v2h-2.8C309.7,70.7,307.8,69.4,305.5,69.4z M308.9,74.8c0,1.9-1.5,3.4-3.4,3.4s-3.4-1.5-3.4-3.4
			s1.5-3.4,3.4-3.4S308.9,73,308.9,74.8z M292.3,71.4c1.9,0,3.4,1.5,3.4,3.4s-1.5,3.4-3.4,3.4s-3.4-1.5-3.4-3.4
			S290.4,71.4,292.3,71.4z M284.4,66.2c0-0.1,0-0.2,0-0.3c0-0.3,0.7-1.2,3.8-2.1c2.8-0.8,6.6-1.3,10.6-1.3s7.8,0.4,10.6,1.3
			c3.1,0.9,3.8,1.8,3.8,2.1c0,0.1,0,0.2,0,0.2v1.4c-0.8-0.5-1.9-0.9-3.2-1.3c-3-0.9-7-1.3-11.2-1.3s-8.2,0.5-11.2,1.3
			c-1.3,0.4-2.4,0.8-3.2,1.3V66.2L284.4,66.2z M313.3,62c0,0.1,0,0.3,0,0.5v0.7c-0.8-0.5-1.9-0.9-3.2-1.3c-3-0.9-7-1.3-11.2-1.3
			s-8.2,0.5-11.2,1.3c-1.3,0.4-2.4,0.8-3.2,1.3v-0.3c0.1-0.2,0.1-0.4,0-0.6v-3.8c0-0.1,0-0.2,0-0.3c0-0.3,0.7-1.2,3.8-2.1
			c2.8-0.8,6.6-1.3,10.6-1.3s7.8,0.4,10.6,1.3c3.1,0.9,3.8,1.8,3.8,2.1c0,0.1,0,0.2,0,0.2V62L313.3,62z M272.8,57.8
			c-0.4-0.2-0.5-0.5-0.5-0.7s0-0.5,0.5-0.7l22.5-7.7c2-0.7,4.2-0.7,6.2,0l22.5,7.7c0.4,0.2,0.5,0.5,0.5,0.7s0,0.5-0.5,0.7l-8.5,2.9
			v-2.5c0-0.1,0-0.2,0-0.3c-0.2-1.6-2-2.9-5.3-3.8c-3-0.9-7-1.3-11.2-1.3s-8.2,0.5-11.2,1.3c-3.3,0.9-5,2.2-5.3,3.8
			c0,0.1-0.1,0.2-0.1,0.3v2.9L272.8,57.8z M284.4,74.8h2.4c0,0,0,0,0,0.1c0,3,2.4,5.5,5.5,5.5s5.5-2.4,5.5-5.5
			c0-0.6,0.5-1.2,1.2-1.2s1.2,0.5,1.2,1.2c0,3,2.4,5.5,5.5,5.5s5.5-2.4,5.5-5.5c0,0,0,0,0-0.1h2.4v0c0,3.9-1.2,7.8-3.3,11
			c-1.8,2.8-4.3,4.8-6.9,5.9c0.2-2.1,0.1-3.6,0.1-3.7c0-0.5-0.5-1-1-1h-6.6c-0.5,0-1,0.4-1,1c0,0.1-0.1,1.7,0.1,3.7
			c-2.7-1.1-5.1-3.1-6.9-5.9C285.6,82.6,284.4,78.7,284.4,74.8L284.4,74.8z M289.2,90.6c1.7,1.6,3.7,2.8,5.9,3.4
			c0.3,1.6,0.8,3.2,1.7,4.8l-4.2,5.3c0,0,0,0,0,0c0,0,0,0-0.1,0l-6.3-9.3L289.2,90.6z M274.4,97.6l9.9-1.8l6.4,9.4
			c0.4,0.5,0.9,0.9,1.6,0.9c0.1,0,0.1,0,0.2,0c0.6,0,1.1-0.2,1.5-0.6c0,0,0.1-0.1,0.1-0.1l1-1.3c0.2,0.2,0.3,0.5,0.5,0.6l-2,9.8
			h-15.8v-5.2c0-2.6-1-5.1-2.9-7l-3.4-3.4C272.4,98.4,273.3,98,274.4,97.6z M267.9,112.8v-6.1c0-2.1,0.8-4.4,2.2-6.2l3.4,3.4
			c1.5,1.5,2.3,3.4,2.3,5.5v5.2h-5.6C268.9,114.7,267.9,113.8,267.9,112.8z M329.9,112.8c0,1-1,1.9-2.3,1.9H322v-5.2
			c0-2.1,0.8-4,2.3-5.5l3.4-3.4c1.5,1.8,2.2,4.1,2.2,6.2L329.9,112.8L329.9,112.8z"/>
		<path class="st1" d="M294.2,85.1c0.6,0,1.3-0.2,1.8-0.4c1.1-0.4,1.7-0.6,2.3-0.2c0,0,0,0,0,0c0,0,0,0,0.1,0c0,0,0,0,0,0
			c0,0,0,0,0.1,0c0,0,0,0,0,0c0,0,0,0,0,0c0,0,0,0,0.1,0c0,0,0,0,0,0c0,0,0,0,0.1,0c0,0,0,0,0,0c0,0,0,0,0.1,0c0,0,0,0,0,0
			c0,0,0,0,0,0c0,0,0,0,0.1,0c0,0,0,0,0,0c0,0,0,0,0.1,0c0,0,0,0,0,0c0,0,0,0,0.1,0c0,0,0,0,0,0c0,0,0,0,0.1,0c0,0,0,0,0,0
			c0,0,0,0,0,0c0,0,0,0,0,0c0,0,0,0,0,0c0,0,0,0,0.1,0c0,0,0,0,0,0c0.5-0.4,1.2-0.2,2.3,0.2c0.5,0.2,1.2,0.4,1.8,0.4
			c0.6,0,1.2-0.2,1.6-0.8c0.4-0.4,0.3-1.1-0.2-1.5c-0.4-0.4-1.1-0.3-1.5,0.1c-0.2,0-0.8-0.2-1.2-0.3c-1-0.3-2.3-0.8-3.6-0.2
			c-1.3-0.5-2.6-0.1-3.6,0.2c-0.4,0.1-1,0.3-1.2,0.3c-0.4-0.4-1-0.5-1.5-0.1c-0.4,0.4-0.5,1-0.2,1.5C293,84.9,293.6,85.1,294.2,85.1
			z"/>
		<path class="st1" d="M292.3,77c1.2,0,2.1-1,2.1-2.1c0-0.6-0.5-1-1-1s-1,0.5-1,1c0,0,0,0.1-0.1,0.1c-0.6,0-1,0.5-1,1
			C291.2,76.5,291.7,77,292.3,77z"/>
		<path class="st1" d="M304.5,75.9c0,0.6,0.5,1,1,1c1.2,0,2.1-1,2.1-2.1c0-0.6-0.5-1-1-1s-1,0.5-1,1c0,0,0,0.1-0.1,0.1
			C304.9,74.9,304.5,75.4,304.5,75.9z"/>
	</g>
	<path class="st1" d="M319.9,61.4v11.5c-1.3,0.4-2.2,1.6-2.2,3.1v3.9c0,0.6,0.5,1,1,1h4.4c0.6,0,1-0.5,1-1v-3.9
		c0-1.4-0.9-2.6-2.2-3.1V60.7"/>
	<path class="st10" d="M322.2,78.9h-2.3V76c0-0.6,0.5-1.2,1.2-1.2c0.6,0,1.2,0.5,1.2,1.2V78.9z"/>
</g>
<g id="path">
	<path class="st2" d="M347.6,328.1"/>
	<path class="st11" d="M369.8,109.6"/>
	<g>
		<g>
			<path class="st12" d="M470.3,118.4c66.1,0,98.9,56.1,99.1,105.6"/>
			<g>
				<path class="st13" d="M555.2,203.3c0.7-0.4,1.6-0.2,2.1,0.5l12.2,19.5l12.5-19.3c0.5-0.7,1.4-0.9,2.1-0.4
					c0.7,0.5,0.9,1.4,0.4,2.1l-13.8,21.2c-0.3,0.4-0.8,0.7-1.3,0.7s-1-0.3-1.3-0.7l-13.4-21.4c-0.2-0.3-0.2-0.5-0.2-0.8
					C554.5,204.1,554.7,203.6,555.2,203.3z"/>
			</g>
		</g>
	</g>
	<g>
		<g>
			<path class="st12" d="M254.3,118.4c-66.1,0-98.9,56.1-99.1,105.6"/>
			<g>
				<path class="st13" d="M140.7,203.6c0.7-0.5,1.6-0.3,2.1,0.4l12.5,19.3l12.2-19.5c0.4-0.7,1.4-0.9,2.1-0.5
					c0.7,0.4,0.9,1.4,0.5,2.1l-13.4,21.4c-0.3,0.4-0.7,0.7-1.3,0.7s-1-0.3-1.3-0.7l-13.8-21.2c-0.2-0.2-0.2-0.5-0.2-0.8
					C140,204.3,140.2,203.9,140.7,203.6z"/>
			</g>
		</g>
	</g>
	<g>
		<g>
			<path class="st12" d="M363.2,125.2c0,22.6-1.3,52.6-0.1,100.7"/>
			<g>
				<path class="st13" d="M348.4,205.7c0.7-0.5,1.6-0.3,2.1,0.4l12.7,19.1l12-19.6c0.4-0.7,1.4-0.9,2.1-0.5c0.7,0.4,0.9,1.4,0.5,2.1
					l-13.2,21.6c-0.3,0.4-0.7,0.7-1.3,0.7c-0.5,0-1-0.2-1.3-0.7l-14-21.1c-0.2-0.2-0.2-0.5-0.2-0.8C347.7,206.5,348,206,348.4,205.7
					z"/>
			</g>
		</g>
	</g>
	<path class="st14" d="M284.4-34.2c0,21.8,82.8,32.2,82.8,82.5"/>
	<path class="st14" d="M451.6-41.2c0,21.8-82.8,32.2-82.8,82.5"/>
</g>
<g id="stack">
	<path class="st3" d="M131.8,258.7c2,0,3.6-1.6,3.6-3.6s-1.6-3.6-3.6-3.6c-2,0-3.6,1.6-3.6,3.6S129.9,258.7,131.8,258.7z
		 M131.8,253.9c0.7,0,1.2,0.5,1.2,1.2s-0.5,1.2-1.2,1.2c-0.7,0-1.2-0.5-1.2-1.2S131.2,253.9,131.8,253.9z"/>
	<path class="st15" d="M171.6,268.3h-6v-6c0-0.7-0.5-1.2-1.2-1.2h-6v-6c0-0.7-0.5-1.2-1.2-1.2h-6v-6c0-0.7-0.5-1.2-1.2-1.2h-28
		c-5.6,0-8.7-0.2-9.3,0.5c-0.3,0.4-0.1,3.2-0.1,8.9v28c0,0.7,0.5,1.2,1.2,1.2h6v6c0,0.7,0.5,1.2,1.2,1.2h6v6c0,0.7,0.5,1.2,1.2,1.2
		h6v6c0,0.7,0.5,1.2,1.2,1.2h36.2c0.7,0,1.2-0.5,1.2-1.2v-36.2C172.8,268.9,172.3,268.3,171.6,268.3z M127.4,270.7H117l5.2-4.4
		L127.4,270.7z M126.6,266.9l2.9-2.9l3.3,3.3l-2.7,2.5L126.6,266.9z M142.7,261.5l6.1,6.1v3.1h-16.2L142.7,261.5z M121.2,249h27.5
		v15.2l-5.2-5.2c-0.5-0.5-1.2-0.5-1.7,0l-7.4,6.7l-4.2-4.2c-0.5-0.5-1.2-0.5-1.7,0l-3.8,3.8l-1.7-1.5c-0.4-0.4-1.1-0.4-1.6,0
		l-6.5,5.5v-14.1c0-2.2-0.1-4.8,0.6-5.5C116.3,249.1,118.8,249,121.2,249z M115,273.1h33.8v9.6H115V273.1z M122.2,285.2h27.7
		c0.7,0,1.2-0.5,1.2-1.2v-27.7h4.8V290h-33.8V285.2z M129.4,292.4h27.7c0.7,0,1.2-0.5,1.2-1.2v-27.7h4.8v33.8h-33.8V292.4z
		 M170.4,304.5h-33.8v-4.8h27.7c0.7,0,1.2-0.5,1.2-1.2v-27.7h4.8V304.5z"/>
</g>
<g id="stack1">
	<path class="st15" d="M328.1,270.7v36.2c0,0.7,0.5,1.2,1.2,1.2h36.2c0.7,0,1.2-0.5,1.2-1.2v-6h6c0.7,0,1.2-0.5,1.2-1.2v-6h6
		c0.7,0,1.2-0.5,1.2-1.2v-6h6c0.7,0,1.2-0.5,1.2-1.2v-28c0-5.7,0.3-8.5-0.1-8.9c-0.6-0.7-3.7-0.5-9.3-0.5h-28
		c-0.7,0-1.2,0.5-1.2,1.2v6h-6c-0.7,0-1.2,0.5-1.2,1.2v6h-6c-0.7,0-1.2,0.5-1.2,1.2v6h-6C328.6,269.5,328.1,270.1,328.1,270.7z
		 M378.7,267.5l5.2,4.4h-10.4L378.7,267.5z M371,271l-2.7-2.5l3.3-3.3l2.9,2.9L371,271z M368.4,272h-16.2v-3.1l6.1-6.1L368.4,272z
		 M385.3,251c0.8,0.7,0.6,3.3,0.6,5.5v14.1l-6.5-5.5c-0.4-0.4-1.1-0.4-1.6,0l-1.7,1.5l-3.8-3.8c-0.5-0.5-1.2-0.5-1.7,0l-4.2,4.2
		l-7.4-6.7c-0.5-0.4-1.2-0.4-1.7,0l-5.2,5.2v-15.2h27.5C382.1,250.2,384.6,250.4,385.3,251z M386,284h-33.8v-9.6H386V284z
		 M378.7,291.2H345v-33.8h4.8v27.7c0,0.7,0.5,1.2,1.2,1.2h27.7V291.2z M371.5,298.5h-33.8v-33.8h4.8v27.7c0,0.7,0.5,1.2,1.2,1.2
		h27.7V298.5z M330.5,272h4.8v27.7c0,0.7,0.5,1.2,1.2,1.2h27.7v4.8h-33.8V272z"/>
	<text transform="matrix(1 0 0 1 180.5579 294.9452)" class="st3 st16 st17">1</text>
</g>
<g id="stack2">
	<path class="st15" d="M600.4,269.5h-6v-6c0-0.7-0.5-1.2-1.2-1.2h-6v-6c0-0.7-0.5-1.2-1.2-1.2h-6v-6c0-0.7-0.5-1.2-1.2-1.2h-28
		c-5.6,0-8.7-0.2-9.3,0.5c-0.3,0.4-0.1,3.2-0.1,8.9v28c0,0.7,0.5,1.2,1.2,1.2h6v6c0,0.7,0.5,1.2,1.2,1.2h6v6c0,0.7,0.5,1.2,1.2,1.2
		h6v6c0,0.7,0.5,1.2,1.2,1.2h36.2c0.7,0,1.2-0.5,1.2-1.2v-36.2C601.6,270.1,601.1,269.5,600.4,269.5z M556.2,272h-10.4l5.2-4.4
		L556.2,272z M555.3,268.1l2.9-2.9l3.3,3.3l-2.7,2.5L555.3,268.1z M571.4,262.8l6.1,6.1v3.1h-16.2L571.4,262.8z M550,250.2h27.5
		v15.2l-5.2-5.2c-0.5-0.5-1.2-0.5-1.7,0l-7.4,6.7l-4.2-4.2c-0.5-0.5-1.2-0.5-1.7,0l-3.8,3.8l-1.7-1.5c-0.4-0.4-1.1-0.4-1.6,0
		l-6.5,5.5v-14.1c0-2.2-0.1-4.8,0.6-5.5C545.1,250.4,547.6,250.2,550,250.2z M543.7,274.4h33.8v9.6h-33.8V274.4z M551,286.4h27.7
		c0.7,0,1.2-0.5,1.2-1.2v-27.7h4.8v33.8H551V286.4z M558.2,293.7h27.7c0.7,0,1.2-0.5,1.2-1.2v-27.7h4.8v33.8h-33.8V293.7z
		 M599.2,305.7h-33.8v-4.8h27.7c0.7,0,1.2-0.5,1.2-1.2V272h4.8V305.7z"/>
	<text transform="matrix(1 0 0 1 394.9102 273.9452)" class="st3 st16 st17">2</text>
	<text transform="matrix(1 0 0 1 607.9464 297.6164)" class="st3 st16 st17">3</text>
</g>
<g id="bubbles" class="st18">
	<circle class="st19" cx="467.1" cy="96" r="4.6"/>
	<circle class="st19" cx="449.4" cy="71.2" r="13.1"/>
	<circle class="st19" cx="258.5" cy="101.3" r="4.6"/>
	<circle class="st19" cx="276.9" cy="72" r="13.1"/>
	<ellipse class="st19" cx="361.4" cy="28.6" rx="71.4" ry="58.6"/>
</g>
<g id="processor" class="st18">
	<g class="st20">
		<g>
			<path class="st21" d="M390.9,31.1l-15.6-0.2l0-2.2l4.2,0.1c0.5,0,1-0.4,1-1c0-0.5-0.4-1-1-1l-4.2-0.1l0-2.2l2.9,0
				c1.1,0,2.1-0.4,2.9-1.2l6.5-6.3c0.4,0.2,0.9,0.3,1.3,0.3c0.8,0,1.6-0.3,2.2-0.9c0.6-0.6,0.9-1.3,0.9-2.1c0-0.8-0.3-1.6-0.9-2.2
				c-0.6-0.6-1.3-0.9-2.1-0.9c-0.8,0-1.6,0.3-2.2,0.9c-0.6,0.6-0.9,1.3-0.9,2.1c0,0.5,0.1,0.9,0.3,1.4l-6.5,6.3
				c-0.4,0.4-0.9,0.6-1.5,0.6l-2.9,0l0-2.1c0-2.8-2.2-5.1-5-5.2l-2.1,0l0.1-8.6c1.2-0.4,2.1-1.5,2.1-2.9c0-1.7-1.3-3.1-3-3.1
				c-1.7,0-3.1,1.3-3.1,3c0,1.3,0.8,2.5,2,2.9l-0.1,8.6l-2.2,0l0.1-4.2c0-0.5-0.4-1-1-1s-1,0.4-1,1l-0.1,4.2l-2.2,0l0.2-15.6
				c0-0.5-0.4-1-1-1c-0.5,0-1,0.4-1,1L358,15.1l-2.2,0l0.1-4.2c0-0.5-0.4-1-1-1s-1,0.4-1,1l-0.1,4.2l-2.2,0l0-2.9
				c0-1.1-0.4-2.1-1.2-2.9l-6.3-6.5c0.6-1.1,0.4-2.6-0.5-3.5c-1.2-1.2-3.1-1.2-4.3-0.1c-1.2,1.2-1.2,3.1-0.1,4.3
				c0.6,0.6,1.4,0.9,2.1,0.9c0.5,0,0.9-0.1,1.4-0.3l6.3,6.5c0.4,0.4,0.6,0.9,0.6,1.5l0,2.9l-2.1,0c-0.4,0-0.9,0-1.3,0.1
				c-0.5,0.1-0.8,0.7-0.7,1.2c0.1,0.5,0.7,0.8,1.2,0.7c0.3-0.1,0.5-0.1,0.8-0.1l22.8,0.3c1.7,0,3.2,1.5,3.1,3.2l-0.3,22.8
				c0,0.3,0,0.5-0.1,0.8c-0.1,0.5,0.2,1,0.7,1.2c0.1,0,0.2,0,0.2,0c0.4,0,0.8-0.3,0.9-0.7c0.1-0.4,0.2-0.8,0.2-1.3l0-2.1l8.6,0.1
				c0.4,1.2,1.5,2.1,2.9,2.1c1.7,0,3.1-1.3,3.1-3c0-1.7-1.3-3.1-3-3.1c-1.3,0-2.5,0.8-2.9,2l-8.6-0.1l0-2.2l4.2,0.1c0.5,0,1-0.4,1-1
				c0-0.5-0.4-1-1-1l-4.2-0.1l0-2.2l15.6,0.2c0.5,0,1-0.4,1-1C391.9,31.5,391.4,31.1,390.9,31.1z M388.3,13.6
				c0.2-0.2,0.5-0.3,0.8-0.3c0.3,0,0.6,0.1,0.8,0.3c0.2,0.2,0.3,0.5,0.3,0.8s-0.1,0.6-0.3,0.8c-0.2,0.2-0.5,0.3-0.8,0.3
				s-0.6-0.1-0.8-0.3s-0.3-0.5-0.3-0.8S388.1,13.8,388.3,13.6z M342.3,2.2c-0.4,0.4-1.1,0.4-1.6,0c-0.4-0.4-0.4-1.1,0-1.6
				c0.2-0.2,0.5-0.3,0.8-0.3c0.3,0,0.6,0.1,0.8,0.3C342.8,1,342.8,1.7,342.3,2.2z M367.4,4.9c-0.6,0-1.1-0.5-1.1-1.1
				c0-0.6,0.5-1.1,1.1-1.1c0.6,0,1.1,0.5,1.1,1.1S368,4.9,367.4,4.9z M386.7,39.2c0.6,0,1.1,0.5,1.1,1.1c0,0.6-0.5,1.1-1.1,1.1
				c-0.6,0-1.1-0.5-1.1-1.1C385.5,39.6,386,39.2,386.7,39.2z"/>
		</g>
	</g>
	<g class="st20">
		<g>
			<path class="st22" d="M378.1,59.8c-0.9-1-2.3-1.2-3.5-0.6l-6.3-6.5c-0.4-0.4-0.6-0.9-0.6-1.5l0-2.9l2.1,0c0.4,0,0.9,0,1.3-0.1
				c0.5-0.1,0.8-0.7,0.7-1.2c-0.1-0.5-0.7-0.8-1.2-0.7c-0.3,0.1-0.5,0.1-0.8,0.1L347.2,46c-1.7,0-3.2-1.5-3.1-3.2l0.3-22.8
				c0-0.3,0-0.5,0.1-0.8c0.1-0.5-0.2-1-0.7-1.2c-0.5-0.1-1,0.2-1.2,0.7c-0.1,0.4-0.2,0.8-0.2,1.3l0,2.1l-8.6-0.1
				c-0.4-1.2-1.5-2.1-2.9-2.1c-1.7,0-3.1,1.3-3.1,3s1.3,3.1,3,3.1c1.3,0,2.5-0.8,2.9-2l8.6,0.1l0,2.2l-4.2-0.1c-0.5,0-1,0.4-1,1
				c0,0.5,0.4,1,1,1l4.2,0.1l0,2.2l-15.6-0.2c-0.5,0-1,0.4-1,1c0,0.5,0.4,1,1,1l15.6,0.2l0,2.2l-4.2-0.1c-0.5,0-1,0.4-1,1
				c0,0.5,0.4,1,1,1l4.2,0.1l0,2.2l-2.9,0c-1.1,0-2.1,0.4-2.9,1.2l-6.5,6.3c-0.4-0.2-0.9-0.3-1.3-0.3c-0.8,0-1.6,0.3-2.2,0.9
				c-0.6,0.6-0.9,1.3-0.9,2.1c0,0.8,0.3,1.6,0.9,2.2c0.6,0.6,1.3,0.9,2.1,0.9c0.8,0,1.6-0.3,2.2-0.9c0.6-0.6,0.9-1.3,0.9-2.1
				c0-0.5-0.1-0.9-0.3-1.4l6.5-6.3c0.4-0.4,0.9-0.6,1.5-0.6l2.9,0l0,2.1c0,2.8,2.2,5.1,5,5.2l2.1,0l-0.1,8.6
				c-1.2,0.4-2.1,1.5-2.1,2.9c0,1.7,1.3,3.1,3,3.1c1.7,0,3.1-1.3,3.1-3c0-1.3-0.8-2.5-2-2.9l0.1-8.6l2.2,0l-0.1,4.2c0,0.5,0.4,1,1,1
				c0.5,0,1-0.4,1-1l0.1-4.2l2.2,0l-0.2,15.6c0,0.5,0.4,1,1,1c0.5,0,1-0.4,1-1l0.2-15.6l2.2,0l-0.1,4.2c0,0.5,0.4,1,1,1s1-0.4,1-1
				l0.1-4.2l2.2,0l0,2.9c0,1.1,0.4,2.1,1.2,2.9l6.3,6.5c-0.6,1.1-0.4,2.5,0.5,3.5c0.6,0.6,1.4,0.9,2.1,0.9c0.8,0,1.6-0.3,2.2-0.9
				C379.3,62.9,379.3,61,378.1,59.8z M330.9,24.1c-0.6,0-1.1-0.5-1.1-1.1c0-0.6,0.5-1.1,1.1-1.1c0.6,0,1.1,0.5,1.1,1.1
				C332,23.6,331.5,24.1,330.9,24.1z M329.3,49.6c-0.2,0.2-0.5,0.3-0.8,0.3c-0.3,0-0.6-0.1-0.8-0.3c-0.2-0.2-0.3-0.5-0.3-0.8
				c0-0.3,0.1-0.6,0.3-0.8c0.2-0.2,0.5-0.3,0.8-0.3c0.3,0,0.6,0.1,0.8,0.3c0.2,0.2,0.3,0.5,0.3,0.8
				C329.6,49.1,329.5,49.4,329.3,49.6z M351.2,59.5c0,0.6-0.5,1.1-1.1,1.1c-0.6,0-1.1-0.5-1.1-1.1c0-0.6,0.5-1.1,1.1-1.1
				S351.2,58.9,351.2,59.5z M376.7,62.7c-0.4,0.4-1.1,0.4-1.6,0c-0.4-0.4-0.4-1.1,0-1.6c0.2-0.2,0.5-0.3,0.8-0.3s0.6,0.1,0.8,0.3
				C377.2,61.6,377.2,62.3,376.7,62.7z"/>
		</g>
	</g>
	<g class="st20">
		<g>
			<path class="st3" d="M369.1,29.2c0-2.1-1.5-3.8-3.5-4.4c0.1-0.3,0.1-0.5,0.1-0.8c0-2-1.7-3.6-3.8-3.6c-1.2,0-2.2,0.4-2.9,1.2
				c-0.7-0.8-1.7-1.2-2.9-1.2c-2.1,0-3.9,1.5-3.9,3.5c0,0.3,0,0.5,0.1,0.8c-2.1,0.5-3.6,2.3-3.7,4.3c0,1,0.3,2,1,2.8
				c-0.7,0.8-1,1.8-1.1,2.9c0,1.6,0.8,3.2,2.3,4.2c0,0,0,0,0,0c0,2.2,1.9,4.1,4.4,4.1c1.4,0,2.7-0.6,3.5-1.5c0.8,1,2.1,1.6,3.5,1.6
				c2.4,0,4.3-1.6,4.5-3.8c1.5-0.8,2.4-2.3,2.4-3.8c0-1.2-0.5-2.3-1.3-3.1C368.6,31.4,369.1,30.3,369.1,29.2z M365.6,33.1
				c0.9,0.5,1.5,1.4,1.5,2.3c0,0.7-0.3,1.3-0.9,1.8c-0.5-1-1.4-1.7-2.5-2.1c-0.5-0.2-1.1,0.1-1.2,0.6c-0.2,0.5,0.1,1.1,0.6,1.2
				c1,0.3,1.6,1.1,1.6,2c0,1.2-1.2,2.1-2.6,2.1c-1.4,0-2.5-1-2.5-2.2l0.1-6.2c0-1.2,1.2-2.1,2.6-2.1c0.5,0,1-0.4,1-1s-0.4-1-1-1
				c-0.9,0-1.8,0.2-2.5,0.7l0-1.2c0-0.5-0.4-1-1-1c-0.5,0-1,0.4-1,1l-0.1,5.4c-0.3-0.2-0.7-0.4-1.1-0.5c-0.5-0.2-1.1,0.1-1.2,0.6
				c-0.2,0.5,0.1,1.1,0.6,1.2c1,0.3,1.6,1.1,1.6,2l0,2.1c0,1.2-1.2,2.1-2.6,2.1c-1.4,0-2.5-1-2.5-2.2c0-0.5,0.2-1,0.6-1.4
				c0.4-0.4,0.4-1,0-1.4c-0.4-0.4-1-0.4-1.4,0c-0.2,0.2-0.4,0.5-0.6,0.7c-0.6-0.6-1-1.4-0.9-2.1c0-1.4,1.2-2.7,2.8-3
				c0.5-0.1,0.9-0.6,0.7-1.2c-0.1-0.5-0.6-0.9-1.2-0.7c-0.7,0.1-1.3,0.4-1.8,0.7c-0.3-0.4-0.5-0.9-0.5-1.5c0-1.5,1.4-2.6,3.1-2.6
				c0,0,0,0,0,0c0.2,0,0.4-0.1,0.6-0.2c0.4-0.3,0.5-0.8,0.2-1.2c0,0,0,0,0,0c0,0,0,0,0,0c0,0,0,0,0-0.1c0,0,0,0,0,0
				c-0.2-0.2-0.3-0.5-0.3-0.9c0-0.9,0.9-1.6,2-1.6c1.1,0,1.9,0.8,1.9,1.6c0,0.5,0.4,1,1,1c0.5,0,1-0.4,1-1c0-0.9,0.9-1.6,2-1.6
				c1.1,0,1.9,0.8,1.9,1.6c0,0.2-0.1,0.4-0.2,0.6c-0.6,0-1.1,0.2-1.6,0.4c-0.5,0.2-0.7,0.8-0.5,1.3c0.2,0.5,0.8,0.7,1.3,0.5
				c0.4-0.2,0.9-0.3,1.3-0.3c0,0,0,0,0,0c0,0,0,0,0,0c1.7,0,3.1,1.2,3,2.7c0,0.9-0.6,1.7-1.5,2.2c-0.3,0.2-0.5,0.5-0.5,0.8
				C365.1,32.6,365.3,32.9,365.6,33.1z"/>
		</g>
	</g>
</g>
<g id="square-content">
	<path class="st23" d="M578-599.6l-3.4,6.8c-0.3,0.6-1,0.8-1.5,0.5l-6.8-3.4c-0.6-0.3-0.8-1-0.5-1.5l3.4-6.8c0.3-0.6,1-0.8,1.5-0.5
		l6.8,3.4C578-600.8,578.3-600.1,578-599.6z"/>
	<path class="st23" d="M649.8-615l-7.1,2.7c-0.6,0.2-1.3-0.1-1.5-0.7l-2.7-7.1c-0.2-0.6,0.1-1.3,0.7-1.5l7.1-2.7
		c0.6-0.2,1.3,0.1,1.5,0.7l2.7,7.1C650.6-615.9,650.3-615.2,649.8-615z"/>
	<path class="st24" d="M680.4-609.4h-7.6c-0.6,0-1.1-0.5-1.1-1.1v-7.6c0-0.6,0.5-1.1,1.1-1.1h7.6c0.6,0,1.1,0.5,1.1,1.1v7.6
		C681.5-609.9,681-609.4,680.4-609.4z"/>
	<path class="st23" d="M575.2-563.2h-7.6c-0.6,0-1.1-0.5-1.1-1.1v-7.6c0-0.6,0.5-1.1,1.1-1.1h7.6c0.6,0,1.1,0.5,1.1,1.1v7.6
		C576.4-563.7,575.9-563.2,575.2-563.2z"/>
	<path class="st23" d="M614.6-588.3l-6.9-3.1c-0.6-0.3-0.8-0.9-0.6-1.5l3.1-6.9c0.3-0.6,0.9-0.8,1.5-0.6l6.9,3.1
		c0.6,0.3,0.8,0.9,0.6,1.5l-3.1,6.9C615.9-588.3,615.2-588.1,614.6-588.3z"/>
	<path class="st23" d="M630.7-568.8l-6.8,3.4c-0.6,0.3-1.3,0.1-1.5-0.5l-3.4-6.8c-0.3-0.6-0.1-1.3,0.5-1.5l6.8-3.4
		c0.6-0.3,1.3-0.1,1.5,0.5l3.4,6.8C631.5-569.8,631.3-569.1,630.7-568.8z"/>
	<path class="st23" d="M439.2-574.2h-7.6c-0.6,0-1.1-0.5-1.1-1.1v-7.6c0-0.6,0.5-1.1,1.1-1.1h7.6c0.6,0,1.1,0.5,1.1,1.1v7.6
		C440.3-574.7,439.8-574.2,439.2-574.2z"/>
	<path class="st23" d="M460.9-544h-7.6c-0.6,0-1.1-0.5-1.1-1.1v-7.6c0-0.6,0.5-1.1,1.1-1.1h7.6c0.6,0,1.1,0.5,1.1,1.1v7.6
		C462.1-544.5,461.6-544,460.9-544z"/>
	<path class="st23" d="M462.3-514.3h-7.6c-0.6,0-1.1-0.5-1.1-1.1v-7.6c0-0.6,0.5-1.1,1.1-1.1h7.6c0.6,0,1.1,0.5,1.1,1.1v7.6
		C463.4-514.8,462.9-514.3,462.3-514.3z"/>
	<path class="st23" d="M429.3-529.2h-7.6c-0.6,0-1.1-0.5-1.1-1.1v-7.6c0-0.6,0.5-1.1,1.1-1.1h7.6c0.6,0,1.1,0.5,1.1,1.1v7.6
		C430.5-529.7,430-529.2,429.3-529.2z"/>
	<path class="st23" d="M431.7-503.8l-7.4,1.6c-0.6,0.1-1.2-0.3-1.4-0.9l-1.6-7.4c-0.1-0.6,0.3-1.2,0.9-1.4l7.4-1.6
		c0.6-0.1,1.2,0.3,1.4,0.9l1.6,7.4C432.7-504.5,432.3-503.9,431.7-503.8z"/>
	<path class="st23" d="M448-498.9h-7.6c-0.6,0-1.1-0.5-1.1-1.1v-7.6c0-0.6,0.5-1.1,1.1-1.1h7.6c0.6,0,1.1,0.5,1.1,1.1v7.6
		C449.1-499.4,448.6-498.9,448-498.9z"/>
	<path class="st23" d="M389.9-405.5l-5-5.7c-0.4-0.5-0.4-1.2,0.1-1.6l5.7-5c0.5-0.4,1.2-0.4,1.6,0.1l5,5.7c0.4,0.5,0.4,1.2-0.1,1.6
		l-5.7,5C391-404.9,390.3-405,389.9-405.5z"/>
	<path class="st23" d="M407.6-397.6l-2.6-7.1c-0.2-0.6,0.1-1.3,0.7-1.5l7.1-2.6c0.6-0.2,1.3,0.1,1.5,0.7l2.6,7.1
		c0.2,0.6-0.1,1.3-0.7,1.5l-7.1,2.6C408.5-396.7,407.8-397,407.6-397.6z"/>
	<path class="st23" d="M347.8-361.2h-7.6c-0.6,0-1.1-0.5-1.1-1.1v-7.6c0-0.6,0.5-1.1,1.1-1.1h7.6c0.6,0,1.1,0.5,1.1,1.1v7.6
		C349-361.7,348.5-361.2,347.8-361.2z"/>
	<path class="st24" d="M396.7-386.4h-7.6c-0.6,0-1.1-0.5-1.1-1.1v-7.6c0-0.6,0.5-1.1,1.1-1.1h7.6c0.6,0,1.1,0.5,1.1,1.1v7.6
		C397.8-386.9,397.3-386.4,396.7-386.4z"/>
	<path class="st23" d="M380.3-381.8l-6.6,3.8c-0.5,0.3-1.3,0.1-1.6-0.4l-3.8-6.6c-0.3-0.5-0.1-1.3,0.4-1.6l6.6-3.8
		c0.5-0.3,1.3-0.1,1.6,0.4l3.8,6.6C381.1-382.9,380.9-382.2,380.3-381.8z"/>
	<path class="st23" d="M363.6-355.1l-5-5.7c-0.4-0.5-0.4-1.2,0.1-1.6l5.7-5c0.5-0.4,1.2-0.4,1.6,0.1l5,5.7c0.4,0.5,0.4,1.2-0.1,1.6
		l-5.7,5C364.8-354.6,364.1-354.6,363.6-355.1z"/>
	<path class="st23" d="M255.8-567.3h-7.6c-0.6,0-1.1-0.5-1.1-1.1v-7.6c0-0.6,0.5-1.1,1.1-1.1h7.6c0.6,0,1.1,0.5,1.1,1.1v7.6
		C257-567.8,256.5-567.3,255.8-567.3z"/>
	<path class="st23" d="M269.6-552.1l-7.2,2.2c-0.6,0.2-1.2-0.2-1.4-0.8l-2.2-7.2c-0.2-0.6,0.2-1.2,0.8-1.4l7.2-2.2
		c0.6-0.2,1.2,0.2,1.4,0.8l2.2,7.2C270.6-553,270.2-552.3,269.6-552.1z"/>
	<path class="st23" d="M319.6-544H312c-0.6,0-1.1-0.5-1.1-1.1v-7.6c0-0.6,0.5-1.1,1.1-1.1h7.6c0.6,0,1.1,0.5,1.1,1.1v7.6
		C320.7-544.5,320.2-544,319.6-544z"/>
	<path class="st23" d="M208.4-559.4l-1.6-7.4c-0.1-0.6,0.3-1.2,0.9-1.4l7.4-1.6c0.6-0.1,1.2,0.3,1.4,0.9l1.6,7.4
		c0.1,0.6-0.3,1.2-0.9,1.4l-7.4,1.6C209.2-558.4,208.6-558.8,208.4-559.4z"/>
	<path class="st24" d="M241.3-545.7l-6.6-3.8c-0.5-0.3-0.7-1-0.4-1.6l3.8-6.6c0.3-0.5,1-0.7,1.6-0.4l6.6,3.8c0.5,0.3,0.7,1,0.4,1.6
		l-3.8,6.6C242.6-545.6,241.8-545.4,241.3-545.7z"/>
	<path class="st23" d="M287.8-540.8l-6.2-4.4c-0.5-0.4-0.6-1.1-0.3-1.6l4.4-6.2c0.4-0.5,1.1-0.6,1.6-0.3l6.2,4.4
		c0.5,0.4,0.6,1.1,0.3,1.6l-4.4,6.2C289.1-540.6,288.3-540.4,287.8-540.8z"/>
	<path class="st24" d="M365.1-165l-6.2-4.4c-0.5-0.4-0.6-1.1-0.3-1.6l4.4-6.2c0.4-0.5,1.1-0.6,1.6-0.3l6.2,4.4
		c0.5,0.4,0.6,1.1,0.3,1.6l-4.4,6.2C366.3-164.7,365.6-164.6,365.1-165z"/>
	<path class="st23" d="M387.6-538.5l-6.9-3.1c-0.6-0.3-0.8-0.9-0.6-1.5l3.1-6.9c0.3-0.6,0.9-0.8,1.5-0.6l6.9,3.1
		c0.6,0.3,0.8,0.9,0.6,1.5l-3.1,6.9C388.8-538.5,388.2-538.2,387.6-538.5z"/>
	<path class="st24" d="M405.5-530.9l-6-4.6c-0.5-0.4-0.6-1.1-0.2-1.6l4.6-6c0.4-0.5,1.1-0.6,1.6-0.2l6,4.6c0.5,0.4,0.6,1.1,0.2,1.6
		l-4.6,6C406.7-530.6,406-530.5,405.5-530.9z"/>
	<path class="st23" d="M413.5-509.4H406c-0.6,0-1.1-0.5-1.1-1.1v-7.6c0-0.6,0.5-1.1,1.1-1.1h7.6c0.6,0,1.1,0.5,1.1,1.1v7.6
		C414.7-509.9,414.2-509.4,413.5-509.4z"/>
	<path class="st23" d="M391.8-519.3h-7.6c-0.6,0-1.1-0.5-1.1-1.1v-7.6c0-0.6,0.5-1.1,1.1-1.1h7.6c0.6,0,1.1,0.5,1.1,1.1v7.6
		C392.9-519.8,392.4-519.3,391.8-519.3z"/>
	<path class="st23" d="M398.3-501.1h-7.6c-0.6,0-1.1-0.5-1.1-1.1v-7.6c0-0.6,0.5-1.1,1.1-1.1h7.6c0.6,0,1.1,0.5,1.1,1.1v7.6
		C399.5-501.6,399-501.1,398.3-501.1z"/>
	<path class="st23" d="M475.2-574.2h-7.6c-0.6,0-1.1-0.5-1.1-1.1v-7.6c0-0.6,0.5-1.1,1.1-1.1h7.6c0.6,0,1.1,0.5,1.1,1.1v7.6
		C476.3-574.7,475.8-574.2,475.2-574.2z"/>
	<path class="st23" d="M548.8-576.4h-7.6c-0.6,0-1.1-0.5-1.1-1.1v-7.6c0-0.6,0.5-1.1,1.1-1.1h7.6c0.6,0,1.1,0.5,1.1,1.1v7.6
		C550-577,549.5-576.4,548.8-576.4z"/>
	<path class="st24" d="M534.7-548.9h-7.6c-0.6,0-1.1-0.5-1.1-1.1v-7.6c0-0.6,0.5-1.1,1.1-1.1h7.6c0.6,0,1.1,0.5,1.1,1.1v7.6
		C535.8-549.4,535.3-548.9,534.7-548.9z"/>
	<path class="st23" d="M494.5-554.3h-7.6c-0.6,0-1.1-0.5-1.1-1.1v-7.6c0-0.6,0.5-1.1,1.1-1.1h7.6c0.6,0,1.1,0.5,1.1,1.1v7.6
		C495.6-554.8,495.1-554.3,494.5-554.3z"/>
	<path class="st23" d="M512.9-577.3l-7.4,1.6c-0.6,0.1-1.2-0.3-1.4-0.9l-1.6-7.4c-0.1-0.6,0.3-1.2,0.9-1.4l7.4-1.6
		c0.6-0.1,1.2,0.3,1.4,0.9l1.6,7.4C514-578.1,513.6-577.5,512.9-577.3z"/>
	<path class="st23" d="M513.1-524h-7.6c-0.6,0-1.1-0.5-1.1-1.1v-7.6c0-0.6,0.5-1.1,1.1-1.1h7.6c0.6,0,1.1,0.5,1.1,1.1v7.6
		C514.3-524.5,513.8-524,513.1-524z"/>
	<path class="st23" d="M154.9-585.2h-7.6c-0.6,0-1.1-0.5-1.1-1.1v-7.6c0-0.6,0.5-1.1,1.1-1.1h7.6c0.6,0,1.1,0.5,1.1,1.1v7.6
		C156.1-585.7,155.6-585.2,154.9-585.2z"/>
	<path class="st23" d="M183.5-572.2h-7.6c-0.6,0-1.1-0.5-1.1-1.1v-7.6c0-0.6,0.5-1.1,1.1-1.1h7.6c0.6,0,1.1,0.5,1.1,1.1v7.6
		C184.6-572.8,184.1-572.2,183.5-572.2z"/>
	<path class="st23" d="M192.7-543l-7.4,1.6c-0.6,0.1-1.2-0.3-1.4-0.9l-1.6-7.4c-0.1-0.6,0.3-1.2,0.9-1.4l7.4-1.6
		c0.6-0.1,1.2,0.3,1.4,0.9l1.6,7.4C193.7-543.7,193.3-543.1,192.7-543z"/>
	<path class="st23" d="M120.5-580.2H113c-0.6,0-1.1-0.5-1.1-1.1v-7.6c0-0.6,0.5-1.1,1.1-1.1h7.6c0.6,0,1.1,0.5,1.1,1.1v7.6
		C121.7-580.7,121.2-580.2,120.5-580.2z"/>
	<path class="st24" d="M146-563.9l-4.1-6.3c-0.3-0.5-0.2-1.2,0.3-1.6l6.3-4.1c0.5-0.3,1.2-0.2,1.6,0.3l4.1,6.3
		c0.3,0.5,0.2,1.2-0.3,1.6l-6.3,4.1C147-563.3,146.3-563.4,146-563.9z"/>
	<path class="st23" d="M269.3-526l-7,2.9c-0.6,0.2-1.3,0-1.5-0.6l-2.9-7c-0.2-0.6,0-1.3,0.6-1.5l7-2.9c0.6-0.2,1.3,0,1.5,0.6l2.9,7
		C270.1-527,269.8-526.3,269.3-526z"/>
	<path class="st23" d="M340.6-344.6l-6.9-3.1c-0.6-0.3-0.8-0.9-0.6-1.5l3.1-6.9c0.3-0.6,0.9-0.8,1.5-0.6l6.9,3.1
		c0.6,0.3,0.8,0.9,0.6,1.5l-3.1,6.9C341.9-344.6,341.2-344.4,340.6-344.6z"/>
	<path class="st23" d="M327.8-361.2h-7.6c-0.6,0-1.1-0.5-1.1-1.1v-7.6c0-0.6,0.5-1.1,1.1-1.1h7.6c0.6,0,1.1,0.5,1.1,1.1v7.6
		C329-361.7,328.5-361.2,327.8-361.2z"/>
	<path class="st23" d="M383.5-345.8h-7.6c-0.6,0-1.1-0.5-1.1-1.1v-7.6c0-0.6,0.5-1.1,1.1-1.1h7.6c0.6,0,1.1,0.5,1.1,1.1v7.6
		C384.7-346.3,384.2-345.8,383.5-345.8z"/>
	<path class="st23" d="M310.5-443h-7.6c-0.6,0-1.1-0.5-1.1-1.1v-7.6c0-0.6,0.5-1.1,1.1-1.1h7.6c0.6,0,1.1,0.5,1.1,1.1v7.6
		C311.6-443.5,311.1-443,310.5-443z"/>
	<path class="st23" d="M357.2-546.2l-6.8,3.4c-0.6,0.3-1.3,0.1-1.5-0.5l-3.4-6.8c-0.3-0.6-0.1-1.3,0.5-1.5l6.8-3.4
		c0.6-0.3,1.3-0.1,1.5,0.5l3.4,6.8C358-547.2,357.7-546.5,357.2-546.2z"/>
	<circle class="st25" cx="372.1" cy="-173.1" r="2.8"/>
	<polyline class="st26" points="370.8,-173 371.8,-171.9 373.3,-173.8 	"/>
</g>
<g id="funnel">
	<g id="cog_1_">
		<path class="st6" d="M378.3-505.7h-5.6c-0.8-3.4-2.2-6.7-4-9.7l3.9-3.9c0.6-0.6,0.6-1.6,0-2.2l-9.4-9.4c-0.6-0.6-1.6-0.6-2.3,0
			l-3.9,3.9c-3-1.8-6.3-3.2-9.7-4v-5.6c0-0.9-0.7-1.6-1.6-1.6h-13.3c-0.9,0-1.6,0.7-1.6,1.6v5.6c-3.4,0.8-6.7,2.2-9.7,4l-3.9-3.9
			c-0.6-0.6-1.6-0.6-2.2,0l-9.4,9.4c-0.6,0.6-0.6,1.6,0,2.2l3.9,3.9c-1.8,3-3.2,6.3-4,9.7h-5.6c-0.9,0-1.6,0.7-1.6,1.6v13.3
			c0,0.9,0.7,1.6,1.6,1.6h5.6c0.8,3.4,2.2,6.7,4,9.7l-3.9,3.9c-0.3,0.3-0.5,0.7-0.5,1.1s0.2,0.8,0.5,1.1l9.4,9.4
			c0.6,0.6,1.6,0.6,2.2,0l3.9-3.9c3,1.8,6.3,3.2,9.7,4v5.6c0,0.9,0.7,1.6,1.6,1.6h13.3c0.9,0,1.6-0.7,1.6-1.6v-5.6
			c3.4-0.8,6.7-2.2,9.7-4l3.9,3.9c0.6,0.6,1.6,0.6,2.2,0l9.4-9.4c0.6-0.6,0.6-1.6,0-2.2l-3.9-3.9c1.8-3,3.2-6.3,4-9.7h5.6
			c0.9,0,1.6-0.7,1.6-1.6v-13.3C379.9-505,379.2-505.7,378.3-505.7z M376.7-492.5h-5.3c-0.8,0-1.4,0.5-1.6,1.3
			c-0.8,3.9-2.3,7.6-4.5,10.9c-0.4,0.6-0.3,1.5,0.2,2l3.7,3.7l-7.1,7.1l-3.7-3.7c-0.5-0.5-1.4-0.6-2-0.2c-3.3,2.2-7,3.7-10.9,4.5
			c-0.7,0.2-1.3,0.8-1.3,1.6v5.3h-10.1v-5.3c0-0.8-0.5-1.4-1.3-1.6c-3.9-0.8-7.6-2.3-10.9-4.5c-0.6-0.4-1.5-0.3-2,0.2l-3.7,3.7
			l-7.1-7.1l3.7-3.7c0.5-0.5,0.6-1.4,0.2-2c-2.2-3.3-3.7-7-4.5-10.9c-0.2-0.7-0.8-1.3-1.6-1.3h-5.3v-10.1h5.3c0.8,0,1.4-0.5,1.6-1.3
			c0.8-3.9,2.3-7.6,4.5-10.9c0.4-0.6,0.3-1.5-0.2-2l-3.7-3.7l7.1-7.1l3.7,3.7c0.5,0.5,1.4,0.6,2,0.2c3.3-2.2,7-3.7,10.9-4.5
			c0.7-0.2,1.3-0.8,1.3-1.6v-5.3h10.1v5.3c0,0.8,0.5,1.4,1.3,1.6c3.9,0.8,7.6,2.3,10.9,4.5c0.6,0.4,1.5,0.3,2-0.2l3.7-3.7l7.1,7.1
			l-3.7,3.7c-0.5,0.5-0.6,1.4-0.2,2c2.2,3.3,3.7,7,4.5,10.9c0.2,0.7,0.8,1.3,1.6,1.3h5.3V-492.5z"/>
		<path class="st3" d="M324.2-497.5c0-8.3,6.7-15,15-15c1.9,0,3.8,0.4,5.6,1.1c0.8,0.3,1.7-0.1,2.1-0.9c0.3-0.8-0.1-1.7-0.9-2.1
			c-2.2-0.9-4.5-1.3-6.8-1.3c-10,0-18.2,8.1-18.2,18.2c0,2.3,0.4,4.5,1.2,6.6c0.2,0.6,0.8,1,1.5,1c0.2,0,0.4,0,0.6-0.1
			c0.8-0.3,1.2-1.2,0.9-2.1C324.6-493.8,324.2-495.6,324.2-497.5z"/>
		<path class="st6" d="M353.7-505.6c-0.8,0.4-1.2,1.3-0.8,2.1c0.8,1.9,1.3,3.9,1.3,6c0,8.3-6.7,15-15,15c-2.2,0-4.3-0.5-6.2-1.3
			c-0.8-0.4-1.7,0-2.1,0.8s0,1.7,0.8,2.1c2.4,1.1,4.9,1.6,7.5,1.6c10,0,18.2-8.1,18.2-18.2c0-2.5-0.5-5-1.5-7.3
			C355.5-505.6,354.5-506,353.7-505.6z"/>
		<path class="st3" d="M327.2-487.7c-0.9,0-1.6,0.7-1.6,1.6s0.7,1.6,1.6,1.6c0.9,0,1.6-0.7,1.6-1.6S328-487.7,327.2-487.7z"/>
		<path class="st6" d="M350.8-507.8c0.9,0,1.6-0.7,1.6-1.6c0-0.9-0.7-1.6-1.6-1.6s-1.6,0.7-1.6,1.6
			C349.2-508.5,349.9-507.8,350.8-507.8z"/>
	</g>
	<g id="cog">
		<path class="st6" d="M448.4-471.8l-5.5,0.8c-1.3-3.3-3.2-6.3-5.4-9l3.3-4.5c0.5-0.7,0.4-1.7-0.3-2.2l-10.7-7.9
			c-0.7-0.5-1.7-0.4-2.2,0.3l-3.3,4.5c-3.3-1.4-6.7-2.2-10.2-2.5l-0.8-5.5c-0.1-0.9-0.9-1.5-1.8-1.3l-13.1,2
			c-0.9,0.1-1.5,0.9-1.3,1.8l0.8,5.5c-3.3,1.3-6.3,3.2-9,5.4l-4.5-3.3c-0.7-0.5-1.7-0.4-2.2,0.3l-7.9,10.7c-0.5,0.7-0.4,1.7,0.3,2.2
			l4.5,3.3c-1.4,3.3-2.2,6.7-2.5,10.2L371-460c-0.9,0.1-1.5,0.9-1.3,1.8l2,13.1c0.1,0.9,0.9,1.5,1.8,1.3l5.5-0.8
			c1.3,3.3,3.2,6.3,5.4,9l-3.3,4.5c-0.2,0.3-0.4,0.8-0.3,1.2s0.3,0.8,0.6,1l10.7,7.9c0.7,0.5,1.7,0.4,2.2-0.3l3.3-4.5
			c3.3,1.4,6.7,2.2,10.2,2.5l0.8,5.5c0.1,0.9,0.9,1.5,1.8,1.3l13.1-2c0.9-0.1,1.5-0.9,1.3-1.8l-0.8-5.5c3.3-1.3,6.3-3.2,9-5.4
			l4.5,3.3c0.7,0.5,1.7,0.4,2.2-0.3l7.9-10.7c0.5-0.7,0.4-1.7-0.3-2.2l-4.5-3.3c1.4-3.3,2.2-6.7,2.5-10.2l5.5-0.8
			c0.9-0.1,1.5-0.9,1.3-1.8l-2-13.1C450.1-471.4,449.2-472,448.4-471.8z M448.8-458.5l-5.2,0.8c-0.8,0.1-1.3,0.8-1.4,1.5
			c-0.2,4-1.2,7.8-2.8,11.4c-0.3,0.7-0.1,1.5,0.5,2l4.2,3.1l-6,8.1l-4.2-3.1c-0.6-0.5-1.5-0.4-2,0.1c-3,2.7-6.4,4.7-10.1,6.1
			c-0.7,0.3-1.2,1-1.1,1.7l0.8,5.2l-10,1.5l-0.8-5.2c-0.1-0.8-0.8-1.3-1.5-1.4c-4-0.2-7.8-1.2-11.4-2.8c-0.7-0.3-1.5-0.1-2,0.5
			l-3.1,4.2l-8.1-6l3.1-4.2c0.5-0.6,0.4-1.5-0.1-2c-2.7-3-4.7-6.4-6.1-10.1c-0.3-0.7-1-1.2-1.7-1.1l-5.2,0.8l-1.5-10l5.2-0.8
			c0.8-0.1,1.3-0.8,1.4-1.5c0.2-4,1.2-7.8,2.8-11.4c0.3-0.7,0.1-1.5-0.5-2l-4.2-3.1l6-8.1l4.2,3.1c0.6,0.5,1.5,0.4,2-0.1
			c3-2.7,6.4-4.7,10.1-6.1c0.7-0.3,1.2-1,1.1-1.7l-0.8-5.2l10-1.5l0.8,5.2c0.1,0.8,0.8,1.3,1.5,1.4c4,0.2,7.8,1.2,11.4,2.8
			c0.7,0.3,1.5,0.1,2-0.5l3.1-4.2l8.1,6l-3.1,4.2c-0.5,0.6-0.4,1.5,0.1,2c2.7,3,4.7,6.4,6.1,10.1c0.3,0.7,1,1.2,1.7,1.1l5.2-0.8
			L448.8-458.5z"/>
		<path class="st6" d="M396-457.2c-0.3-7,4.5-13.4,11.3-15.1c2.4-0.6,4.8-0.6,7.1-0.1c0.9,0.2,1.7-0.3,1.9-1.2
			c0.2-0.9-0.3-1.7-1.2-1.9c-2.8-0.7-5.8-0.7-8.7,0.1c-8.2,2-14.1,9.8-13.7,18.3c0.1,3,0.9,5.8,2.4,8.4c0.3,0.6,1,0.9,1.6,0.8
			c0.2,0,0.4-0.1,0.6-0.2c0.8-0.4,1-1.4,0.6-2.2C396.7-452.4,396.1-454.7,396-457.2z"/>
		<path class="st3" d="M424.1-468c-0.7,0.5-1,1.5-0.5,2.2c1.1,1.8,1.9,3.8,2.2,5.9c1.1,8-4.6,15.7-12.6,16.9
			c-2.1,0.3-4.3,0.2-6.3-0.4c-0.8-0.2-1.7,0.3-2,1.1c-0.2,0.8,0.3,1.7,1.1,2c2.6,0.7,5.3,0.9,7.9,0.4c9.5-1.6,16.2-10.6,15.1-20.1
			c-0.3-2.7-1.2-5.2-2.7-7.5C425.8-468.2,424.8-468.5,424.1-468z"/>
		<path class="st6" d="M400.5-446.3c-0.9,0.1-1.5,0.9-1.3,1.8s0.9,1.5,1.8,1.3c0.9-0.1,1.5-0.9,1.3-1.8
			C402.2-445.8,401.4-446.4,400.5-446.3z"/>
		<path class="st3" d="M420.8-469.7c0.9-0.1,1.5-0.9,1.3-1.8c-0.1-0.9-0.9-1.5-1.8-1.3c-0.9,0.1-1.5,0.9-1.3,1.8
			S419.9-469.6,420.8-469.7z"/>
	</g>
	<g id="cog_2_">
		<path class="st6" d="M374.8-439.2l-5.1,2.2c-2.1-2.8-4.7-5.2-7.5-7.3l2-5.2c0.3-0.8-0.1-1.7-0.9-2.1l-12.3-4.9
			c-0.8-0.3-1.7,0.1-2.1,0.9l-2,5.2c-3.5-0.5-7-0.4-10.5,0.2l-2.2-5.1c-0.4-0.8-1.3-1.2-2.1-0.8l-12.2,5.3c-0.8,0.4-1.2,1.3-0.8,2.1
			l2.2,5.1c-2.8,2.1-5.2,4.7-7.3,7.5l-5.2-2c-0.8-0.3-1.7,0.1-2.1,0.9l-4.9,12.3c-0.3,0.8,0.1,1.7,0.9,2.1l5.2,2
			c-0.5,3.5-0.4,7,0.2,10.5L303-408c-0.8,0.4-1.2,1.3-0.8,2.1l5.3,12.2c0.4,0.8,1.3,1.2,2.1,0.8l5.1-2.2c2.1,2.8,4.7,5.2,7.5,7.3
			l-2,5.2c-0.2,0.4-0.1,0.8,0,1.2c0.2,0.4,0.5,0.7,0.9,0.8l12.3,4.9c0.8,0.3,1.7-0.1,2.1-0.9l2-5.2c3.5,0.5,7,0.4,10.5-0.2l2.2,5.1
			c0.4,0.8,1.3,1.2,2.1,0.8l12.2-5.3c0.8-0.4,1.2-1.3,0.8-2.1l-2.2-5.1c2.8-2.1,5.2-4.7,7.3-7.5l5.2,2c0.8,0.3,1.7-0.1,2.1-0.9
			l4.9-12.3c0.3-0.8-0.1-1.7-0.9-2.1l-5.2-2c0.5-3.5,0.4-7-0.2-10.5l5.1-2.2c0.8-0.4,1.2-1.3,0.8-2.1l-5.3-12.2
			C376.6-439.2,375.6-439.6,374.8-439.2z M378.6-426.4l-4.8,2.1c-0.7,0.3-1.1,1.1-0.9,1.8c0.8,3.9,0.9,7.9,0.2,11.8
			c-0.1,0.8,0.3,1.5,1,1.8l4.9,1.9l-3.7,9.4l-4.9-1.9c-0.7-0.3-1.5,0-1.9,0.6c-2.2,3.3-4.9,6.2-8.2,8.5c-0.6,0.4-0.9,1.3-0.6,2
			l2.1,4.8l-9.2,4l-2.1-4.8c-0.3-0.7-1.1-1.1-1.8-0.9c-3.9,0.8-7.9,0.9-11.8,0.2c-0.8-0.1-1.5,0.3-1.8,1l-1.9,4.9l-9.4-3.7l1.9-4.9
			c0.3-0.7,0-1.5-0.6-1.9c-3.3-2.2-6.2-4.9-8.5-8.2c-0.4-0.6-1.3-0.9-2-0.6l-4.8,2.1l-4-9.2l4.8-2.1c0.7-0.3,1.1-1.1,0.9-1.8
			c-0.8-3.9-0.9-7.9-0.2-11.8c0.1-0.8-0.3-1.5-1-1.8l-4.9-1.9l3.7-9.4l4.9,1.9c0.7,0.3,1.5,0,1.9-0.6c2.2-3.3,4.9-6.2,8.2-8.5
			c0.6-0.4,0.9-1.3,0.6-2l-2.1-4.8l9.2-4l2.1,4.8c0.3,0.7,1.1,1.1,1.8,0.9c3.9-0.8,7.9-0.9,11.8-0.2c0.8,0.1,1.5-0.3,1.8-1l1.9-4.9
			l9.4,3.7l-1.9,4.9c-0.3,0.7,0,1.5,0.6,1.9c3.3,2.2,6.2,4.9,8.5,8.2c0.4,0.6,1.3,0.9,2,0.6l4.8-2.1L378.6-426.4z"/>
		<path class="st6" d="M327.9-411.7c-2.1-6.7,0.9-14.1,7.1-17.5c2.2-1.2,4.5-1.8,6.9-1.9c0.9,0,1.6-0.8,1.6-1.6
			c0-0.9-0.8-1.6-1.6-1.6c-2.9,0.1-5.7,0.8-8.4,2.3c-7.4,4.1-11.1,13.1-8.6,21.2c0.9,2.9,2.4,5.4,4.5,7.5c0.5,0.5,1.2,0.6,1.8,0.3
			c0.2-0.1,0.3-0.2,0.5-0.3c0.6-0.6,0.6-1.6,0-2.2C329.9-407.2,328.6-409.3,327.9-411.7z"/>
		<path class="st3" d="M352.3-429.3c-0.6,0.6-0.6,1.7,0.1,2.2c1.6,1.4,2.8,3.2,3.6,5.2c3.1,7.5-0.4,16.3-7.9,19.6
			c-2,0.9-4.1,1.3-6.2,1.2c-0.9,0-1.6,0.7-1.6,1.6s0.7,1.6,1.6,1.6c2.7,0,5.3-0.5,7.8-1.6c8.8-3.9,13-14.4,9.4-23.3
			c-1-2.5-2.5-4.7-4.5-6.6C353.9-430,352.9-429.9,352.3-429.3z"/>
		<path class="st6" d="M335-402.3c-0.8,0.3-1.2,1.3-0.8,2.1c0.3,0.8,1.3,1.2,2.1,0.8c0.8-0.3,1.2-1.3,0.8-2.1
			C336.8-402.3,335.9-402.6,335-402.3z"/>
		<path class="st6" d="M348.7-430.1c0.8-0.3,1.2-1.3,0.8-2.1c-0.3-0.8-1.3-1.2-2.1-0.8c-0.8,0.3-1.2,1.3-0.8,2.1
			C347-430.1,347.9-429.7,348.7-430.1z"/>
	</g>
	<g>
		<circle class="st3" cx="403.7" cy="-305.2" r="1.2"/>
	</g>
	<g>
		<path class="st6" d="M351.9-193.8c-0.7,0-1.2-0.6-1.2-1.2v-57.9l-51.2-64h-2.7c-7.1,0-12.9-5.8-12.9-12.9v-7.8
			c0-0.7,0.6-1.2,1.2-1.2h159.5c0.7,0,1.2,0.6,1.2,1.2v6.5c0,7.8-6.4,14.2-14.2,14.2h-1.3l-51.2,64v38.5c-0.1,1.2-3.3,8.4-9.8,13.6
			c-4.3,3.5-9.5,5.8-14.9,6.7l-2.2,0.4C352-193.8,351.9-193.8,351.9-193.8z M353.1-196.4l2.4-0.6c4.4-1,8.6-3,12.1-5.8
			c3.8-3.1,6.8-7,8.7-11.5l0.2-0.4v-37.4h-23.5V-196.4z M352.5-254.6h24.7l49.9-62.4H302.6L352.5-254.6z M286.3-329.8
			c0,5.7,4.7,10.4,10.4,10.4h134.9c6.5,0,11.7-5.3,11.7-11.7v-5.2h-157V-329.8z"/>
	</g>
	<g>
		<path class="st3" d="M371.6-265.1c-0.2,0-0.5,0-0.8-0.3c-0.5-0.4-0.6-1.2-0.2-1.7l23.5-29.3c0.2-0.3,0.6-0.5,1-0.5
			c0.2,0,0.5,0,0.8,0.3c0.3,0.2,0.4,0.5,0.5,0.8c0,0.3-0.1,0.7-0.3,0.9l-23.5,29.3C372.3-265.3,372-265.1,371.6-265.1L371.6-265.1z"
			/>
	</g>
</g>
<g id="cards">
	<g id="puzzle_1_">
		<g id="XMLID_29_">
			<rect id="XMLID_41_" x="588.7" y="-792.3" class="st27" width="128.2" height="159.8"/>
			<path id="XMLID_40_" class="st27" d="M603-670.5v17.5c0,1,1.1,1.6,1.9,1l12.7-8.8c0.7-0.5,0.7-1.5,0-2l-12.7-8.7
				C604.1-672,603-671.5,603-670.5z"/>
			<path id="XMLID_39_" class="st27" d="M645.3-700.9H604c-0.7,0-1.3-0.6-1.3-1.3v-35.1c0-0.7,0.6-1.3,1.3-1.3h41.3
				c0.7,0,1.3,0.6,1.3,1.3v35.1C646.5-701.5,646-700.9,645.3-700.9z"/>
			<path id="XMLID_38_" class="st27" d="M684.9-756.7h-47.7c-2.2,0-4-1.8-4-4l0,0c0-2.2,1.8-4,4-4h47.7c2.2,0,4,1.8,4,4l0,0
				C688.9-758.5,687.1-756.7,684.9-756.7z"/>
			<path id="XMLID_37_" class="st27" d="M669.2-767.4h-32c-2.2,0-4-1.8-4-4l0,0c0-2.2,1.8-4,4-4h32c2.2,0,4,1.8,4,4l0,0
				C673.2-769.2,671.4-767.4,669.2-767.4z"/>
			<path id="XMLID_36_" class="st27" d="M619.1-756.7L619.1-756.7c-5.3,0-9.7-4.4-9.7-9.7l0,0c0-5.3,4.4-9.7,9.7-9.7l0,0
				c5.3,0,9.7,4.4,9.7,9.7l0,0C628.8-761.1,624.5-756.7,619.1-756.7z"/>
			<line id="XMLID_35_" class="st28" x1="630.8" y1="-661.8" x2="699.5" y2="-661.8"/>
			<circle id="XMLID_34_" class="st27" cx="650.4" cy="-661.8" r="3.9"/>
			<path id="XMLID_33_" class="st27" d="M698.4-712.9h-41.6c-2.2,0-4-1.8-4-4l0,0c0-2.2,1.8-4,4-4h41.6c2.2,0,4,1.8,4,4l0,0
				C702.5-714.7,700.6-712.9,698.4-712.9z"/>
			<path id="XMLID_32_" class="st27" d="M698.4-700.9h-41.6c-2.2,0-4-1.8-4-4l0,0c0-2.2,1.8-4,4-4h41.6c2.2,0,4,1.8,4,4l0,0
				C702.5-702.7,700.6-700.9,698.4-700.9z"/>
			<path id="XMLID_31_" class="st27" d="M698.4-688.4h-90.3c-2.2,0-4-1.8-4-4l0,0c0-2.2,1.8-4,4-4h90.3c2.2,0,4,1.8,4,4l0,0
				C702.5-690.2,700.6-688.4,698.4-688.4z"/>
		</g>
		<g id="XMLID_7_">
			<rect id="XMLID_28_" x="588.7" y="-792.3" class="st29" width="128.2" height="159.8"/>
			<path id="XMLID_23_" class="st27" d="M603-670.5v17.5c0,1,1.1,1.6,1.9,1l12.7-8.8c0.7-0.5,0.7-1.5,0-2l-12.7-8.7
				C604.1-672,603-671.5,603-670.5z"/>
			<path id="XMLID_22_" class="st30" d="M645.3-700.9H604c-0.7,0-1.3-0.6-1.3-1.3v-35.1c0-0.7,0.6-1.3,1.3-1.3h41.3
				c0.7,0,1.3,0.6,1.3,1.3v35.1C646.5-701.5,646-700.9,645.3-700.9z"/>
			<path id="XMLID_15_" class="st31" d="M684.9-756.7h-47.7c-2.2,0-4-1.8-4-4l0,0c0-2.2,1.8-4,4-4h47.7c2.2,0,4,1.8,4,4l0,0
				C688.9-758.5,687.1-756.7,684.9-756.7z"/>
			<path id="XMLID_14_" class="st32" d="M669.2-767.4h-32c-2.2,0-4-1.8-4-4l0,0c0-2.2,1.8-4,4-4h32c2.2,0,4,1.8,4,4l0,0
				C673.2-769.2,671.4-767.4,669.2-767.4z"/>
			<path id="XMLID_13_" class="st32" d="M619.1-756.7L619.1-756.7c-5.3,0-9.7-4.4-9.7-9.7l0,0c0-5.3,4.4-9.7,9.7-9.7l0,0
				c5.3,0,9.7,4.4,9.7,9.7l0,0C628.8-761.1,624.5-756.7,619.1-756.7z"/>
			<line id="XMLID_12_" class="st33" x1="630.8" y1="-661.8" x2="699.5" y2="-661.8"/>
			<circle id="XMLID_11_" class="st27" cx="650.4" cy="-661.8" r="3.9"/>
			<path id="XMLID_10_" class="st31" d="M698.4-712.9h-41.6c-2.2,0-4-1.8-4-4l0,0c0-2.2,1.8-4,4-4h41.6c2.2,0,4,1.8,4,4l0,0
				C702.5-714.7,700.6-712.9,698.4-712.9z"/>
			<path id="XMLID_9_" class="st31" d="M698.4-700.9h-41.6c-2.2,0-4-1.8-4-4l0,0c0-2.2,1.8-4,4-4h41.6c2.2,0,4,1.8,4,4l0,0
				C702.5-702.7,700.6-700.9,698.4-700.9z"/>
			<path id="XMLID_8_" class="st31" d="M698.4-688.4h-90.3c-2.2,0-4-1.8-4-4l0,0c0-2.2,1.8-4,4-4h90.3c2.2,0,4,1.8,4,4l0,0
				C702.5-690.2,700.6-688.4,698.4-688.4z"/>
		</g>
	</g>
	<g id="videoCard2_1_">
		<rect id="XMLID_6_" x="89.2" y="-771.6" class="st29" width="128.2" height="159.8"/>
		<path id="XMLID_5_" class="st32" d="M119.6-736.1L119.6-736.1c-5.3,0-9.7-4.4-9.7-9.7l0,0c0-5.3,4.4-9.7,9.7-9.7l0,0
			c5.3,0,9.7,4.4,9.7,9.7l0,0C129.3-740.4,124.9-736.1,119.6-736.1z"/>
		<path id="XMLID_4_" class="st32" d="M169.7-746.8h-32c-2.2,0-4-1.8-4-4l0,0c0-2.2,1.8-4,4-4h32c2.2,0,4,1.8,4,4l0,0
			C173.7-748.6,171.9-746.8,169.7-746.8z"/>
		<path id="XMLID_3_" class="st31" d="M185.4-736.1h-47.7c-2.2,0-4-1.8-4-4l0,0c0-2.2,1.8-4,4-4h47.7c2.2,0,4,1.8,4,4l0,0
			C189.4-737.9,187.6-736.1,185.4-736.1z"/>
		<rect id="XMLID_2_" x="89.2" y="-717.9" class="st30" width="128.2" height="73.5"/>
		<path id="XMLID_1_" class="st8" d="M143.4-689.8v17.5c0,1,1.1,1.6,1.9,1l12.7-8.8c0.7-0.5,0.7-1.5,0-2l-12.7-8.7
			C144.5-691.4,143.4-690.8,143.4-689.8z"/>
	</g>
	<g id="quizcard">
		<rect id="XMLID_129_" x="496.9" y="-774.1" class="st29" width="128.2" height="159.8"/>
		<path id="XMLID_128_" class="st31" d="M609.4-712.4h-93.9c-2.2,0-4-1.8-4-4l0,0c0-2.2,1.8-4,4-4h93.9c2.2,0,4,1.8,4,4l0,0
			C613.4-714.3,611.6-712.4,609.4-712.4z"/>
		<path id="XMLID_127_" class="st31" d="M556-679.8h-21.1c-2.2,0-4-1.8-4-4l0,0c0-2.2,1.8-4,4-4H556c2.2,0,4,1.8,4,4l0,0
			C560-681.6,558.2-679.8,556-679.8z"/>
		<path id="XMLID_126_" class="st31" d="M611.2-680.1h-19.7c-2.2,0-4-1.8-4-4l0,0c0-2.2,1.8-4,4-4h19.7c2.2,0,4,1.8,4,4l0,0
			C615.2-681.9,613.4-680.1,611.2-680.1z"/>
		<path id="XMLID_125_" class="st32" d="M527.3-738.5L527.3-738.5c-5.3,0-9.7-4.4-9.7-9.7l0,0c0-5.3,4.4-9.7,9.7-9.7l0,0
			c5.3,0,9.7,4.4,9.7,9.7l0,0C537-742.9,532.6-738.5,527.3-738.5z"/>
		<path id="XMLID_124_" class="st32" d="M577.4-749.2h-32c-2.2,0-4-1.8-4-4l0,0c0-2.2,1.8-4,4-4h32c2.2,0,4,1.8,4,4l0,0
			C581.4-751,579.6-749.2,577.4-749.2z"/>
		<path id="XMLID_123_" class="st31" d="M593.1-738.5h-47.7c-2.2,0-4-1.8-4-4l0,0c0-2.2,1.8-4,4-4h47.7c2.2,0,4,1.8,4,4l0,0
			C597.1-740.3,595.3-738.5,593.1-738.5z"/>
		<path id="XMLID_122_" class="st34" d="M579.4-677.3H569c-0.7,0-1.3-0.6-1.3-1.3V-689c0-0.7,0.6-1.3,1.3-1.3h10.4
			c0.7,0,1.3,0.6,1.3,1.3v10.4C580.7-677.9,580.1-677.3,579.4-677.3z"/>
		<path id="XMLID_115_" class="st34" d="M522.8-677.7h-10.4c-0.7,0-1.3-0.6-1.3-1.3v-10.4c0-0.7,0.6-1.3,1.3-1.3h10.4
			c0.7,0,1.3,0.6,1.3,1.3v10.4C524.1-678.3,523.5-677.7,522.8-677.7z"/>
		<path id="XMLID_114_" class="st32" d="M556.2-641.5h-21.1c-2.2,0-4-1.8-4-4l0,0c0-2.2,1.8-4,4-4h21.1c2.2,0,4,1.8,4,4l0,0
			C560.3-643.3,558.5-641.5,556.2-641.5z"/>
		<path id="XMLID_113_" class="st31" d="M611.4-641.9h-19.7c-2.2,0-4-1.8-4-4l0,0c0-2.2,1.8-4,4-4h19.7c2.2,0,4,1.8,4,4l0,0
			C615.5-643.7,613.7-641.9,611.4-641.9z"/>
		<path id="XMLID_112_" class="st34" d="M579.7-639.1h-10.4c-0.7,0-1.3-0.6-1.3-1.3v-10.4c0-0.7,0.6-1.3,1.3-1.3h10.4
			c0.7,0,1.3,0.6,1.3,1.3v10.4C580.9-639.7,580.4-639.1,579.7-639.1z"/>
		<path id="XMLID_111_" class="st32" d="M523.1-639.5h-10.4c-0.7,0-1.3-0.6-1.3-1.3v-10.4c0-0.7,0.6-1.3,1.3-1.3h10.4
			c0.7,0,1.3,0.6,1.3,1.3v10.4C524.4-640.1,523.8-639.5,523.1-639.5z"/>
	</g>
	<g id="podcastcard">
		<g id="XMLID_156_">
			<rect id="XMLID_167_" x="181.5" y="-747.9" class="st27" width="128.2" height="159.8"/>
			<path id="XMLID_166_" class="st27" d="M195.8-626.1v17.5c0,1,1.1,1.6,1.9,1l12.7-8.8c0.7-0.5,0.7-1.5,0-2l-12.7-8.7
				C196.9-627.6,195.8-627.1,195.8-626.1z"/>
			<path id="XMLID_165_" class="st27" d="M238.1-656.5h-41.3c-0.7,0-1.3-0.6-1.3-1.3v-35.1c0-0.7,0.6-1.3,1.3-1.3h41.3
				c0.7,0,1.3,0.6,1.3,1.3v35.1C239.3-657.1,238.8-656.5,238.1-656.5z"/>
			<path id="XMLID_164_" class="st27" d="M277.7-712.3H230c-2.2,0-4-1.8-4-4l0,0c0-2.2,1.8-4,4-4h47.7c2.2,0,4,1.8,4,4l0,0
				C281.7-714.1,279.9-712.3,277.7-712.3z"/>
			<path id="XMLID_163_" class="st27" d="M262-723h-32c-2.2,0-4-1.8-4-4l0,0c0-2.2,1.8-4,4-4h32c2.2,0,4,1.8,4,4l0,0
				C266-724.8,264.2-723,262-723z"/>
			<path id="XMLID_162_" class="st27" d="M211.9-712.3L211.9-712.3c-5.3,0-9.7-4.4-9.7-9.7l0,0c0-5.3,4.4-9.7,9.7-9.7l0,0
				c5.3,0,9.7,4.4,9.7,9.7l0,0C221.6-716.7,217.3-712.3,211.9-712.3z"/>
			<line id="XMLID_161_" class="st28" x1="223.6" y1="-617.4" x2="292.3" y2="-617.4"/>
			<circle id="XMLID_160_" class="st27" cx="243.2" cy="-617.4" r="3.9"/>
			<path id="XMLID_159_" class="st27" d="M291.2-668.5h-41.6c-2.2,0-4-1.8-4-4l0,0c0-2.2,1.8-4,4-4h41.6c2.2,0,4,1.8,4,4l0,0
				C295.3-670.3,293.4-668.5,291.2-668.5z"/>
			<path id="XMLID_158_" class="st27" d="M291.2-656.5h-41.6c-2.2,0-4-1.8-4-4l0,0c0-2.2,1.8-4,4-4h41.6c2.2,0,4,1.8,4,4l0,0
				C295.3-658.3,293.4-656.5,291.2-656.5z"/>
			<path id="XMLID_157_" class="st27" d="M291.2-644h-90.3c-2.2,0-4-1.8-4-4l0,0c0-2.2,1.8-4,4-4h90.3c2.2,0,4,1.8,4,4l0,0
				C295.3-645.8,293.4-644,291.2-644z"/>
		</g>
		<g id="XMLID_144_">
			<rect id="XMLID_155_" x="181.5" y="-747.9" class="st29" width="128.2" height="159.8"/>
			<path id="XMLID_154_" class="st27" d="M195.8-626.1v17.5c0,1,1.1,1.6,1.9,1l12.7-8.8c0.7-0.5,0.7-1.5,0-2l-12.7-8.7
				C196.9-627.6,195.8-627.1,195.8-626.1z"/>
			<path id="XMLID_153_" class="st30" d="M238.1-656.5h-41.3c-0.7,0-1.3-0.6-1.3-1.3v-35.1c0-0.7,0.6-1.3,1.3-1.3h41.3
				c0.7,0,1.3,0.6,1.3,1.3v35.1C239.3-657.1,238.8-656.5,238.1-656.5z"/>
			<path id="XMLID_152_" class="st31" d="M277.7-712.3H230c-2.2,0-4-1.8-4-4l0,0c0-2.2,1.8-4,4-4h47.7c2.2,0,4,1.8,4,4l0,0
				C281.7-714.1,279.9-712.3,277.7-712.3z"/>
			<path id="XMLID_151_" class="st32" d="M262-723h-32c-2.2,0-4-1.8-4-4l0,0c0-2.2,1.8-4,4-4h32c2.2,0,4,1.8,4,4l0,0
				C266-724.8,264.2-723,262-723z"/>
			<path id="XMLID_150_" class="st32" d="M211.9-712.3L211.9-712.3c-5.3,0-9.7-4.4-9.7-9.7l0,0c0-5.3,4.4-9.7,9.7-9.7l0,0
				c5.3,0,9.7,4.4,9.7,9.7l0,0C221.6-716.7,217.3-712.3,211.9-712.3z"/>
			<line id="XMLID_149_" class="st33" x1="223.6" y1="-617.4" x2="292.3" y2="-617.4"/>
			<circle id="XMLID_148_" class="st27" cx="243.2" cy="-617.4" r="3.9"/>
			<path id="XMLID_147_" class="st31" d="M291.2-668.5h-41.6c-2.2,0-4-1.8-4-4l0,0c0-2.2,1.8-4,4-4h41.6c2.2,0,4,1.8,4,4l0,0
				C295.3-670.3,293.4-668.5,291.2-668.5z"/>
			<path id="XMLID_146_" class="st31" d="M291.2-656.5h-41.6c-2.2,0-4-1.8-4-4l0,0c0-2.2,1.8-4,4-4h41.6c2.2,0,4,1.8,4,4l0,0
				C295.3-658.3,293.4-656.5,291.2-656.5z"/>
			<path id="XMLID_145_" class="st31" d="M291.2-644h-90.3c-2.2,0-4-1.8-4-4l0,0c0-2.2,1.8-4,4-4h90.3c2.2,0,4,1.8,4,4l0,0
				C295.3-645.8,293.4-644,291.2-644z"/>
		</g>
	</g>
	<g id="articlecard2">
		<rect id="XMLID_53_" x="287.5" y="-723.2" class="st29" width="128.2" height="159.8"/>
		<path id="XMLID_52_" class="st31" d="M398.8-617.4h-93.9c-2.2,0-4-1.8-4-4l0,0c0-2.2,1.8-4,4-4h93.9c2.2,0,4,1.8,4,4l0,0
			C402.8-619.2,401-617.4,398.8-617.4z"/>
		<path id="XMLID_51_" class="st31" d="M326-630.2h-21.1c-2.2,0-4-1.8-4-4l0,0c0-2.2,1.8-4,4-4H326c2.2,0,4,1.8,4,4l0,0
			C330-632,328.2-630.2,326-630.2z"/>
		<path id="XMLID_50_" class="st31" d="M324.6-642.3h-19.7c-2.2,0-4-1.8-4-4l0,0c0-2.2,1.8-4,4-4h19.7c2.2,0,4,1.8,4,4l0,0
			C328.6-644.1,326.8-642.3,324.6-642.3z"/>
		<path id="XMLID_49_" class="st32" d="M318-687.7L318-687.7c-5.3,0-9.7-4.4-9.7-9.7l0,0c0-5.3,4.4-9.7,9.7-9.7l0,0
			c5.3,0,9.7,4.4,9.7,9.7l0,0C327.7-692,323.3-687.7,318-687.7z"/>
		<path id="XMLID_48_" class="st32" d="M368-698.4h-32c-2.2,0-4-1.8-4-4l0,0c0-2.2,1.8-4,4-4h32c2.2,0,4,1.8,4,4l0,0
			C372.1-700.2,370.2-698.4,368-698.4z"/>
		<path id="XMLID_30_" class="st31" d="M383.7-687.7H336c-2.2,0-4-1.8-4-4l0,0c0-2.2,1.8-4,4-4h47.7c2.2,0,4,1.8,4,4l0,0
			C387.8-689.5,386-687.7,383.7-687.7z"/>
		<path id="XMLID_27_" class="st30" d="M401.6-631.2h-66.3c-0.7,0-1.3-0.6-1.3-1.3v-46.2c0-0.7,0.6-1.3,1.3-1.3h66.3
			c0.7,0,1.3,0.6,1.3,1.3v46.2C402.8-631.8,402.3-631.2,401.6-631.2z"/>
		<path id="XMLID_26_" class="st31" d="M398.9-604.2H305c-2.2,0-4-1.8-4-4l0,0c0-2.2,1.8-4,4-4h93.9c2.2,0,4,1.8,4,4l0,0
			C403-606,401.2-604.2,398.9-604.2z"/>
		<path id="XMLID_25_" class="st31" d="M398.8-590.4h-93.9c-2.2,0-4-1.8-4-4l0,0c0-2.2,1.8-4,4-4h93.9c2.2,0,4,1.8,4,4l0,0
			C402.8-592.2,401-590.4,398.8-590.4z"/>
		<path id="XMLID_24_" class="st31" d="M398.8-577.4h-93.9c-2.2,0-4-1.8-4-4l0,0c0-2.2,1.8-4,4-4h93.9c2.2,0,4,1.8,4,4l0,0
			C402.8-579.2,401-577.4,398.8-577.4z"/>
	</g>
	<g id="videoCard2">
		<rect id="XMLID_21_" x="407.3" y="-754.2" class="st29" width="128.2" height="159.8"/>
		<path id="XMLID_20_" class="st32" d="M437.7-718.7L437.7-718.7c-5.3,0-9.7-4.4-9.7-9.7l0,0c0-5.3,4.4-9.7,9.7-9.7l0,0
			c5.3,0,9.7,4.4,9.7,9.7l0,0C447.4-723,443-718.7,437.7-718.7z"/>
		<path id="XMLID_19_" class="st32" d="M487.8-729.4h-32c-2.2,0-4-1.8-4-4l0,0c0-2.2,1.8-4,4-4h32c2.2,0,4,1.8,4,4l0,0
			C491.8-731.2,490-729.4,487.8-729.4z"/>
		<path id="XMLID_18_" class="st31" d="M503.5-718.7h-47.7c-2.2,0-4-1.8-4-4l0,0c0-2.2,1.8-4,4-4h47.7c2.2,0,4,1.8,4,4l0,0
			C507.5-720.5,505.7-718.7,503.5-718.7z"/>
		<rect id="XMLID_17_" x="407.3" y="-700.5" class="st30" width="128.2" height="73.5"/>
		<path id="XMLID_16_" class="st8" d="M461.5-672.4v17.5c0,1,1.1,1.6,1.9,1l12.7-8.8c0.7-0.5,0.7-1.5,0-2l-12.7-8.7
			C462.6-674,461.5-673.4,461.5-672.4z"/>
	</g>
</g>
<g id="mindmap">
	<path class="st3" d="M95.9-853.6l-1.5,1.5l1.3,1.3l1.5-1.5c0.5,0.3,1.1,0.6,1.7,0.7v2h1.9v-2c0.6-0.1,1.2-0.4,1.7-0.7l1.5,1.5
		l1.3-1.3l-1.5-1.5c0.3-0.5,0.6-1.1,0.7-1.7h2v-1.9h-2c-0.1-0.6-0.4-1.2-0.7-1.7l1.5-1.5l-1.3-1.3l-1.5,1.5
		c-0.5-0.3-1.1-0.6-1.7-0.7v-2h-1.9v2c-0.6,0.1-1.2,0.4-1.7,0.7l-1.5-1.5l-1.3,1.3l1.5,1.5c-0.3,0.5-0.6,1.1-0.7,1.7h-2v1.9h2
		C95.3-854.7,95.6-854.1,95.9-853.6z M99.9-859.1c1.6,0,2.8,1.3,2.8,2.8c0,1.6-1.3,2.8-2.8,2.8s-2.8-1.3-2.8-2.8
		C97-857.8,98.3-859.1,99.9-859.1z"/>
	<path d="M126.3-843.9c-0.4,0-0.8,0.1-1.2,0.3l-3.2-3.2c0.4-0.5,0.7-1.1,0.7-1.8c0-0.8-0.3-1.5-0.8-2L126-861c0.1,0,0.2,0,0.3,0
		c1.6,0,2.8-1.3,2.8-2.8c0-1.6-1.3-2.8-2.8-2.8c-1.6,0-2.8,1.3-2.8,2.8c0,0.1,0,0.3,0,0.4l-5.7,3.2c-0.5-0.5-1.2-0.8-1.9-0.8
		c-1.2,0-2.3,0.8-2.7,1.9h-2.7c-0.6-1.8-1.7-3.4-3.1-4.7c-2.4-2.2-5.6-3.2-8.9-2.8c-4.3,0.5-7.9,3.5-9.4,7.5h-2.7
		c-0.4-1.1-1.4-1.9-2.7-1.9c-0.8,0-1.4,0.3-1.9,0.8l-5.7-3.2c0-0.1,0-0.2,0-0.4c0-1.6-1.3-2.8-2.8-2.8c-1.6,0-2.8,1.3-2.8,2.8
		c0,1.6,1.3,2.8,2.8,2.8c0.1,0,0.2,0,0.3,0l4.3,10.3c-0.5,0.5-0.8,1.2-0.8,2c0,0.7,0.3,1.3,0.7,1.8l-3.2,3.2
		c-0.4-0.2-0.8-0.3-1.2-0.3c-1.6,0-2.8,1.3-2.8,2.8c0,1.6,1.3,2.8,2.8,2.8c1.6,0,2.8-1.3,2.8-2.8c0-0.4-0.1-0.8-0.3-1.2l3.6-3.6
		c0.2,0,0.3,0.1,0.5,0.1c0.7,0,1.4-0.3,1.9-0.7l5.4,3.9L82-831.1c-0.1,0.3-0.1,0.6,0.1,0.9c0.2,0.3,0.5,0.4,0.8,0.4h4.7v8.5
		c0,0.3,0.1,0.6,0.3,0.7c0.2,0.2,0.5,0.2,0.8,0.2l8.6-1.7l2.1,6.3l-9.4,4.1c-0.3,0.1-0.6,0.5-0.6,0.9v1.9c0,0.5,0.4,0.9,0.9,0.9
		h26.5c0.5,0,0.9-0.4,0.9-0.9v-4.7c0-0.2-0.1-0.4-0.2-0.5l-4.7-6.6c-0.1-0.2-0.3-0.3-0.5-0.3l-1.1-2.8c5.1-9.5,1.8-16.4,0.3-18.7
		l6.2-3.9c0.5,0.5,1.2,0.8,1.9,0.8c0.2,0,0.3,0,0.5-0.1l3.6,3.6c-0.2,0.4-0.3,0.8-0.3,1.2c0,1.6,1.3,2.8,2.8,2.8
		c1.6,0,2.8-1.3,2.8-2.8C129.2-842.7,127.9-843.9,126.3-843.9z M119.4-851.5l-2.1-4.2c0.9-0.5,1.5-1.4,1.5-2.5c0-0.1,0-0.3,0-0.4
		l5.5-3.2l-4.2,10.2c-0.1,0-0.2,0-0.3,0C119.6-851.5,119.5-851.5,119.4-851.5z M126.3-864.7c0.5,0,0.9,0.4,0.9,0.9
		c0,0.5-0.4,0.9-0.9,0.9c-0.5,0-0.9-0.4-0.9-0.9C125.4-864.3,125.8-864.7,126.3-864.7z M115.9-859.1c0.5,0,0.9,0.4,0.9,0.9
		c0,0.5-0.4,0.9-0.9,0.9s-0.9-0.4-0.9-0.9C115-858.6,115.4-859.1,115.9-859.1z M90.5-856.6c0.6-4.2,4-7.6,8.3-8.1
		c2.7-0.3,5.4,0.5,7.4,2.3c2,1.8,3.2,4.4,3.2,7.1c0,2.6-1.1,5.2-3.1,7c-1.9,1.7-3.1,3.9-3.4,6.3h-2v-5.7h-1.9v5.7h-2
		c-0.4-2.4-1.6-4.6-3.4-6.3C91.1-850.4,90.1-853.5,90.5-856.6z M98.9-836.4h1.9v0.9c0,0.5-0.4,0.9-0.9,0.9s-0.9-0.4-0.9-0.9V-836.4z
		 M97-838.2v-1.9h5.7v1.9H97z M83.8-859.1c0.5,0,0.9,0.4,0.9,0.9c0,0.5-0.4,0.9-0.9,0.9s-0.9-0.4-0.9-0.9
		C82.8-858.6,83.3-859.1,83.8-859.1z M80.3-851.5c-0.1,0-0.2,0-0.3,0c-0.1,0-0.2,0-0.3,0l-4.2-10.2l5.5,3.2c0,0.1,0,0.2,0,0.4
		c0,1.1,0.6,2,1.5,2.5L80.3-851.5z M72.4-863.8c0-0.5,0.4-0.9,0.9-0.9s0.9,0.4,0.9,0.9c0,0.5-0.4,0.9-0.9,0.9S72.4-863.3,72.4-863.8
		z M73.4-840.1c-0.5,0-0.9-0.4-0.9-0.9c0-0.5,0.4-0.9,0.9-0.9s0.9,0.4,0.9,0.9C74.3-840.6,73.9-840.1,73.4-840.1z M80-847.7
		c-0.5,0-0.9-0.4-0.9-0.9c0-0.5,0.4-0.9,0.9-0.9s0.9,0.4,0.9,0.9C80.9-848.1,80.5-847.7,80-847.7z M115.9-809.9H91.3v-0.3l20.5-8.9
		l4.1,5.8V-809.9z M109.4-824.5c-0.1,0.2-0.2,0.5-0.1,0.8l1.2,3.1l-9.5,4.1l-2.3-6.9c-0.2-0.5-0.6-0.7-1.1-0.6l-8.3,1.7v-8.3
		c0-0.5-0.4-0.9-0.9-0.9h-4.2l4.8-10.4h2.2v-1.9h-2.5l-6-4.3c0-0.1,0-0.3,0-0.4c0-0.8-0.3-1.5-0.8-2l2.4-4.7c1-0.2,1.7-0.9,2-1.8
		h2.2c0,0.1,0,0.2-0.1,0.3c-0.5,3.8,0.8,7.4,3.6,9.9c1.5,1.3,2.4,3.1,2.8,4.9h-1.7v1.9h1.9v2.8c0,0.5,0.4,0.9,0.9,0.9H97v0.9
		c0,1.6,1.3,2.8,2.8,2.8s2.8-1.3,2.8-2.8v-0.9h0.9c0.5,0,0.9-0.4,0.9-0.9v-2.8h1.9v-1.9h-1.7c0.3-1.8,1.3-3.5,2.8-4.9
		c2.3-2.1,3.7-5.2,3.7-8.4c0-0.6-0.1-1.3-0.2-1.9h2.2c0.3,0.9,1.1,1.6,2,1.8l2.4,4.7c-0.5,0.5-0.8,1.2-0.8,2c0,0.1,0,0.3,0,0.4
		l-6.9,4.3h-1.6v1.9h1.4C110.9-840.5,114.7-833.9,109.4-824.5z M118.8-848.7c0-0.5,0.4-0.9,0.9-0.9s0.9,0.4,0.9,0.9
		c0,0.5-0.4,0.9-0.9,0.9S118.8-848.1,118.8-848.7z M126.3-840.1c-0.5,0-0.9-0.4-0.9-0.9c0-0.5,0.4-0.9,0.9-0.9
		c0.5,0,0.9,0.4,0.9,0.9C127.3-840.6,126.9-840.1,126.3-840.1z"/>
</g>
<g id="microphone">
	<path d="M271.9-789.5c5.9,0,10.6-4.8,10.6-10.6v-19.5c0-5.9-4.8-10.6-10.6-10.6c-5.9,0-10.6,4.8-10.6,10.6v19.5
		C261.3-794.3,266-789.5,271.9-789.5z M271.9-828c4.6,0,8.4,3.8,8.4,8.4v9.3h-16.7v-9.3C263.5-824.2,267.3-828,271.9-828z
		 M263.5-808h16.7v7.9c0,4.6-3.8,8.4-8.4,8.4s-8.4-3.8-8.4-8.4V-808z"/>
	<path d="M269.1-815.4h5.5c0.6,0,1.1-0.5,1.1-1.1s-0.5-1.1-1.1-1.1h-5.5c-0.6,0-1.1,0.5-1.1,1.1S268.5-815.4,269.1-815.4z"/>
	<path d="M269.1-819.6h5.5c0.6,0,1.1-0.5,1.1-1.1s-0.5-1.1-1.1-1.1h-5.5c-0.6,0-1.1,0.5-1.1,1.1S268.5-819.6,269.1-819.6z"/>
	<path class="st3" d="M286.3-801.3c-0.6,0-1.1,0.5-1.1,1.1c0,7.4-6,13.3-13.3,13.3c-7.4,0-13.3-6-13.3-13.3c0-0.6-0.5-1.1-1.1-1.1
		s-1.1,0.5-1.1,1.1c0,7.5,5.3,13.7,12.3,15.2v5.7h-0.1c-3.1,0-5.7,2.5-5.7,5.7c0,0.6,0.5,1.1,1.1,1.1h15.9c0.6,0,1.1-0.5,1.1-1.1
		c0-3.1-2.5-5.7-5.7-5.7h-0.1v-5.7c7-1.5,12.3-7.8,12.3-15.2C287.5-800.8,287-801.3,286.3-801.3z M278.5-774.7h-13.2
		c0.5-1.3,1.7-2.3,3.2-2.3h6.8C276.8-776.9,278-776,278.5-774.7z M273-779.2h-2.1v-5.4c0.4,0,0.7,0,1.1,0c0.4,0,0.7,0,1.1,0V-779.2z
		"/>
	<path class="st3" d="M248.6-819.7c-0.6,0-1.1,0.5-1.1,1.1v11c0,0.6,0.5,1.1,1.1,1.1c0.6,0,1.1-0.5,1.1-1.1v-11
		C249.7-819.2,249.2-819.7,248.6-819.7z"/>
	<path d="M257.6-809.2c0.6,0,1.1-0.5,1.1-1.1v-5.4c0-0.6-0.5-1.1-1.1-1.1s-1.1,0.5-1.1,1.1v5.4C256.5-809.7,257-809.2,257.6-809.2z"
		/>
	<path d="M244.1-824.1c-0.6,0-1.1,0.5-1.1,1.1v18.8c0,0.6,0.5,1.1,1.1,1.1s1.1-0.5,1.1-1.1V-823
		C245.2-823.6,244.7-824.1,244.1-824.1z"/>
	<path d="M253.1-820.8c-0.6,0-1.1,0.5-1.1,1.1v15.3c0,0.6,0.5,1.1,1.1,1.1s1.1-0.5,1.1-1.1v-15.3
		C254.3-820.3,253.7-820.8,253.1-820.8z"/>
	<path d="M295.2-819.7c-0.6,0-1.1,0.5-1.1,1.1v11c0,0.6,0.5,1.1,1.1,1.1s1.1-0.5,1.1-1.1v-11C296.3-819.2,295.8-819.7,295.2-819.7z"
		/>
	<path class="st3" d="M286.1-809.2c0.6,0,1.1-0.5,1.1-1.1v-5.4c0-0.6-0.5-1.1-1.1-1.1s-1.1,0.5-1.1,1.1v5.4
		C285-809.7,285.5-809.2,286.1-809.2z"/>
	<path d="M299.7-824.1c-0.6,0-1.1,0.5-1.1,1.1v18.8c0,0.6,0.5,1.1,1.1,1.1s1.1-0.5,1.1-1.1V-823
		C300.8-823.6,300.3-824.1,299.7-824.1z"/>
	<path d="M290.6-805.6c-0.3,0-0.6,0.1-0.8,0.3c-0.2,0.2-0.3,0.5-0.3,0.8c0,0.3,0.1,0.6,0.3,0.8c0.2,0.2,0.5,0.3,0.8,0.3
		s0.6-0.1,0.8-0.3c0.2-0.2,0.3-0.5,0.3-0.8c0-0.3-0.1-0.6-0.3-0.8C291.2-805.4,290.9-805.6,290.6-805.6z"/>
	<path d="M290.6-820.8c-0.6,0-1.1,0.5-1.1,1.1v10.5c0,0.6,0.5,1.1,1.1,1.1s1.1-0.5,1.1-1.1v-10.5
		C291.8-820.3,291.3-820.8,290.6-820.8z"/>
	<path class="st3" d="M271.9-794.3c3.2,0,5.9-2.6,5.9-5.9c0-0.6-0.5-1.1-1.1-1.1c-0.6,0-1.1,0.5-1.1,1.1c0,2-1.6,3.6-3.6,3.6
		c-0.6,0-1.1,0.5-1.1,1.1S271.3-794.3,271.9-794.3z"/>
	<path d="M276.6-802.9c0.3,0,0.6-0.1,0.8-0.3c0.2-0.2,0.3-0.5,0.3-0.8s-0.1-0.6-0.3-0.8c-0.2-0.2-0.5-0.3-0.8-0.3
		c-0.3,0-0.6,0.1-0.8,0.3c-0.2,0.2-0.3,0.5-0.3,0.8s0.1,0.6,0.3,0.8C276-803,276.3-802.9,276.6-802.9z"/>
</g>
<g id="camera">
	<g>
		<g>
			<path d="M489.7-815.4c-0.4-0.3-0.9-0.3-1.4,0l-9,4.8v-4.1c0-0.8-0.6-1.4-1.4-1.4h-2.3c2.8-2.3,4.6-5.8,4.6-9.7
				c0-6.9-5.6-12.4-12.4-12.4c-5.9,0-10.8,4.1-12.1,9.5c-1.7-2.1-4.3-3.4-7.2-3.4c-5.2,0-9.4,4.2-9.4,9.4c0,2.6,1,4.9,2.7,6.6h-1.3
				c-0.8,0-1.4,0.6-1.4,1.4v6.3h-3.5c-0.8,0-1.4,0.6-1.4,1.4v5.5c0,0.8,0.6,1.4,1.4,1.4h3.5v6.3c0,0.8,0.6,1.4,1.4,1.4H457
				l-7.5,14.4c-0.4,0.7-0.1,1.5,0.6,1.9c0.2,0.1,0.4,0.2,0.6,0.2c0.5,0,1-0.3,1.2-0.7l7.3-14.1l7.3,14.1c0.2,0.5,0.7,0.7,1.2,0.7
				c0.2,0,0.4-0.1,0.6-0.2c0.7-0.4,0.9-1.2,0.6-1.9l-7.5-14.4h16.4c0.8,0,1.4-0.6,1.4-1.4v-4.1l9,4.8c0.2,0.1,0.4,0.2,0.7,0.2
				c0.2,0,0.5-0.1,0.7-0.2c0.4-0.3,0.7-0.7,0.7-1.2v-19.8C490.3-814.7,490.1-815.1,489.7-815.4z M439.2-803h-2.1v-2.7h2.1V-803z
				 M467.9-835.4c5.3,0,9.7,4.3,9.7,9.7s-4.3,9.7-9.7,9.7c-5.3,0-9.7-4.3-9.7-9.7C458.2-831.1,462.5-835.4,467.9-835.4z
				 M457.3-819.3c0.7,1.2,1.7,2.3,2.8,3.2h-4.8C456.1-817,456.8-818.1,457.3-819.3z M448.5-829.3c3.6,0,6.6,3,6.6,6.6
				c0,3.6-3,6.6-6.6,6.6c-3.6,0-6.6-3-6.6-6.6C441.9-826.4,444.9-829.3,448.5-829.3z M476.6-808.3v7.9v5.1h-17.2c0,0,0,0,0,0h0
				c0,0,0,0,0,0H442v-6.3v-5.5v-6.3h34.5V-808.3z M487.6-796.7l-8.2-4.4v-6.2l8.2-4.4V-796.7z"/>
		</g>
	</g>
	<g>
		<g>
			<path d="M448.5-826.9c-2.3,0-4.2,1.9-4.2,4.2c0,2.3,1.9,4.2,4.2,4.2c2.3,0,4.2-1.9,4.2-4.2C452.8-825,450.9-826.9,448.5-826.9z
				 M448.5-821c-0.9,0-1.7-0.8-1.7-1.7c0-0.9,0.8-1.7,1.7-1.7s1.7,0.8,1.7,1.7C450.3-821.8,449.5-821,448.5-821z"/>
		</g>
	</g>
	<g>
		<g>
			<path class="st3" d="M467.9-831.8c-3.3,0-6.1,2.7-6.1,6.1c0,3.3,2.7,6.1,6.1,6.1c3.3,0,6.1-2.7,6.1-6.1
				C473.9-829.1,471.2-831.8,467.9-831.8z M467.9-822.5c-1.8,0-3.3-1.5-3.3-3.3s1.5-3.3,3.3-3.3c1.8,0,3.3,1.5,3.3,3.3
				S469.7-822.5,467.9-822.5z"/>
		</g>
	</g>
	<g>
		<g>
			<path class="st3" d="M463.4-809.3h-15.1c-0.7,0-1.3,0.6-1.3,1.3v7.3c0,0.7,0.6,1.3,1.3,1.3h15.1c0.7,0,1.3-0.6,1.3-1.3v-7.3
				C464.7-808.7,464.1-809.3,463.4-809.3z M462.1-801.9h-12.5v-4.7h12.5L462.1-801.9L462.1-801.9z"/>
		</g>
	</g>
	<g>
		<g>
			<circle cx="470.7" cy="-806.6" r="1.4"/>
		</g>
	</g>
	<g>
		<g>
			<circle cx="470.7" cy="-802" r="1.4"/>
		</g>
	</g>
</g>
<g id="puzzle">
	<g>
		<g>
			<path d="M651.6-830c-0.1-0.9-0.4-1.7-1.1-2.3l-4.6-4.6c0.7-0.2,1.4-0.6,2-1.2l0.1-0.1c2-2,1.9-5.5-0.4-7.7
				c-1.1-1.1-2.4-1.7-3.8-1.8c-1.5-0.1-2.8,0.4-3.8,1.4l-0.1,0.1c-0.5,0.5-0.9,1.2-1.2,2l-4.6-4.6c-1.4-1.4-3.5-1.4-4.7-0.2
				l-4.2,4.2c-0.5,0.5-0.7,1.2-0.6,2c0.2,0.8,0.7,1.4,1.5,1.7c0.5,0.2,0.9,0.5,1.3,0.8l0.1,0.1c0.6,0.6,1,1.4,1.1,2.3
				c0,0.8-0.2,1.5-0.7,2s-1.2,0.8-2,0.7c-0.8-0.1-1.6-0.4-2.3-1.1l-0.1-0.1c-0.4-0.4-0.7-0.8-0.8-1.3c-0.3-0.8-0.9-1.3-1.7-1.5
				c-0.7-0.2-1.5,0.1-2,0.6l-4.1,4.1c-1.3,1.3-1.2,3.4,0.2,4.7l4.6,4.6c-0.7,0.2-1.4,0.6-2,1.2l-0.1,0.1c-2,2-1.9,5.5,0.4,7.7
				c1.2,1.2,2.7,1.8,4.2,1.8c1.3,0,2.6-0.5,3.5-1.4l0.1-0.1c0.5-0.5,0.9-1.2,1.2-2l4.6,4.6c0.6,0.6,1.5,1,2.3,1.1c0.1,0,0.1,0,0.2,0
				c0.8,0,1.6-0.3,2.2-0.9l4-4c0.3,0.7,0.8,1.4,1.3,2l0.1,0.1c2.2,2.2,5.7,2.4,7.7,0.4c2-2,1.9-5.5-0.4-7.7l-0.1-0.1
				c-0.6-0.6-1.3-1-2-1.3l4-4C651.3-828.2,651.7-829.1,651.6-830z M649-829.3l-4.2,4.2c-0.5,0.5-0.7,1.2-0.6,2
				c0.2,0.8,0.7,1.4,1.5,1.7c0.5,0.2,0.9,0.5,1.3,0.8l0.1,0.1c1.3,1.3,1.4,3.2,0.4,4.3c-1.1,1.1-3,0.9-4.3-0.4l-0.1-0.1
				c-0.4-0.4-0.7-0.8-0.8-1.3c-0.3-0.8-0.9-1.3-1.7-1.5c-0.7-0.2-1.5,0.1-2,0.6l-4.1,4.1c-0.2,0.2-0.4,0.2-0.5,0.2
				c-0.3,0-0.5-0.1-0.8-0.4l-1.8-1.8l4-4c0.5-0.5,0.5-1.2,0-1.7c-0.5-0.5-1.2-0.5-1.7,0l-4,4l-1.2-1.2c-0.5-0.5-1.1-0.7-1.7-0.7
				c-0.2,0-0.4,0-0.6,0.1c-0.7,0.2-1.3,0.8-1.4,1.6c-0.1,0.5-0.3,0.9-0.7,1.2l-0.1,0.1c-1.1,1.1-3,0.9-4.3-0.4
				c-1.3-1.3-1.4-3.2-0.4-4.3l0.1-0.1c0.3-0.3,0.7-0.5,1.2-0.7c0.8-0.2,1.3-0.7,1.6-1.4c0.2-0.8,0-1.7-0.6-2.3l-4.8-4.8
				c-0.2-0.2-0.3-0.5-0.4-0.8c0-0.2,0-0.4,0.2-0.5l4-4c0.3,0.7,0.8,1.4,1.3,2l0.1,0.1c2.2,2.2,5.7,2.4,7.7,0.4c2-2,1.9-5.5-0.4-7.7
				l-0.1-0.1c-0.6-0.6-1.3-1-2-1.3l4-4c0.3-0.3,0.9-0.2,1.3,0.2l4.8,4.8c0.6,0.6,1.5,0.8,2.3,0.6c0.7-0.2,1.3-0.8,1.4-1.6
				c0.1-0.5,0.3-0.9,0.7-1.2l0.1-0.1c0.5-0.5,1.2-0.8,2-0.7c0.8,0.1,1.6,0.4,2.3,1.1c1.3,1.3,1.4,3.2,0.4,4.3l-0.1,0.1
				c-0.3,0.3-0.7,0.5-1.2,0.7c-0.8,0.2-1.3,0.7-1.6,1.4c-0.2,0.8,0,1.7,0.6,2.3l4.8,4.8c0.2,0.2,0.3,0.5,0.4,0.8
				C649.2-829.7,649.2-829.5,649-829.3z"/>
		</g>
	</g>
	<g>
		<g>
			<path d="M638.4-825.6c-0.2-0.2-0.5-0.4-0.9-0.4s-0.6,0.1-0.9,0.4s-0.4,0.5-0.4,0.9s0.1,0.6,0.4,0.9c0.2,0.2,0.5,0.4,0.9,0.4
				c0.3,0,0.6-0.1,0.9-0.4c0.2-0.2,0.4-0.5,0.4-0.9S638.6-825.3,638.4-825.6z"/>
		</g>
	</g>
	<g>
		<g>
			<path d="M664-858.6c-0.2-0.2-0.5-0.4-0.9-0.4s-0.6,0.1-0.9,0.4c-0.2,0.2-0.4,0.5-0.4,0.9c0,0.3,0.1,0.6,0.4,0.9
				c0.2,0.2,0.5,0.4,0.9,0.4s0.6-0.1,0.9-0.4c0.2-0.2,0.4-0.5,0.4-0.9C664.4-858.1,664.3-858.4,664-858.6z"/>
		</g>
	</g>
	<g>
		<g>
			<path class="st3" d="M673.1-846.2c-0.7-0.7-1.4-1.2-2.3-1.5l4-4c0.6-0.6,0.9-1.5,0.9-2.4c-0.1-0.9-0.4-1.7-1.1-2.3l-4.5-4.5
				c0.6-0.2,1.2-0.6,1.7-1.1l0.1-0.1c2-2,1.9-5.5-0.4-7.7c-2.2-2.2-5.7-2.4-7.7-0.4l-0.1,0.1c-0.5,0.5-0.8,1.1-1.1,1.7l-4.5-4.5
				c-1.4-1.4-3.5-1.4-4.7-0.2l-4,4c-0.3-0.9-0.8-1.6-1.5-2.3l-0.1-0.1c-2.2-2.2-5.7-2.4-7.7-0.4c-2,2-1.9,5.5,0.4,7.7l0.1,0.1
				c0.7,0.7,1.4,1.2,2.3,1.5l-4,4c-1.3,1.3-1.2,3.4,0.2,4.7l4.8,4.8c0.6,0.6,1.5,0.8,2.3,0.6c0.7-0.2,1.3-0.8,1.4-1.6
				c0.1-0.5,0.3-0.9,0.7-1.2l0.1-0.1c0.5-0.5,1.2-0.8,2-0.7c0.8,0.1,1.6,0.4,2.3,1.1c0.6,0.6,1,1.4,1.1,2.3c0,0.8-0.2,1.5-0.7,2
				l-0.1,0.1c-0.3,0.3-0.7,0.5-1.2,0.7c-0.8,0.2-1.3,0.7-1.6,1.4c-0.2,0.8,0,1.7,0.6,2.3l4.8,4.8c0.7,0.7,1.6,1.1,2.5,1.1
				c0.8,0,1.6-0.3,2.2-0.9l4-4c0.3,0.9,0.8,1.6,1.5,2.3l0.1,0.1c2.2,2.2,5.7,2.4,7.7,0.4c2-2,1.9-5.5-0.4-7.7L673.1-846.2z
				 M671.9-840.1c-1.1,1.1-3,0.9-4.3-0.4l-0.1-0.1c-0.4-0.4-0.7-0.9-0.9-1.5c-0.3-0.8-0.9-1.4-1.7-1.6c-0.8-0.2-1.5,0-2,0.6
				l-4.2,4.2c-0.2,0.2-0.4,0.2-0.5,0.2c-0.3,0-0.5-0.1-0.8-0.4l-4.6-4.6c0.7-0.2,1.4-0.6,2-1.2l0.1-0.1c1-1,1.5-2.4,1.4-3.8
				c-0.1-1.4-0.7-2.8-1.8-3.8c-1.1-1.1-2.4-1.7-3.8-1.8c-1.5-0.1-2.8,0.4-3.8,1.4l-0.1,0.1c-0.5,0.5-0.9,1.2-1.2,2l-4.6-4.6
				c-0.2-0.2-0.3-0.5-0.4-0.8c0-0.2,0-0.4,0.2-0.5l4.2-4.2c0.5-0.5,0.7-1.3,0.6-2c-0.2-0.8-0.8-1.5-1.6-1.7c-0.5-0.2-1-0.5-1.5-0.9
				l-0.1-0.1c-1.3-1.3-1.4-3.2-0.4-4.3c1.1-1.1,3-0.9,4.3,0.4l0.1,0.1c0.4,0.4,0.7,0.9,0.9,1.5c0.3,0.8,0.9,1.4,1.7,1.6
				c0.8,0.2,1.5,0,2-0.6l4.2-4.2c0.3-0.3,0.9-0.2,1.3,0.2l4.7,4.7c0.6,0.6,1.4,0.8,2.2,0.6c0.7-0.2,1.3-0.7,1.5-1.4
				c0.1-0.4,0.3-0.8,0.6-1.1l0.1-0.1c1.1-1.1,3-0.9,4.3,0.4c1.3,1.3,1.4,3.2,0.4,4.3l-0.1,0.1c-0.3,0.3-0.6,0.5-1.1,0.6
				c-0.7,0.2-1.3,0.8-1.4,1.5c-0.2,0.8,0,1.6,0.6,2.2l4.7,4.7c0.2,0.2,0.3,0.5,0.4,0.8c0,0.2,0,0.4-0.2,0.5l-1.9,1.9l-4-4
				c-0.5-0.5-1.2-0.5-1.7,0c-0.5,0.5-0.5,1.2,0,1.7l4,4l-0.6,0.6c-0.5,0.5-0.7,1.3-0.6,2c0.2,0.8,0.8,1.5,1.6,1.7
				c0.5,0.2,1,0.5,1.5,0.9l0.1,0.1C672.8-843.1,672.9-841.1,671.9-840.1z"/>
		</g>
	</g>
</g>
<g id="quiz">
	<path class="st35" d="M546.7-834.6h-7.6c-0.6,0-1.1-0.5-1.1-1.1v-7.6c0-0.6,0.5-1.1,1.1-1.1h7.6c0.6,0,1.1,0.5,1.1,1.1v7.6
		C547.8-835.1,547.3-834.6,546.7-834.6z"/>
	<path class="st24" d="M546.7-819.7h-7.6c-0.6,0-1.1-0.5-1.1-1.1v-7.6c0-0.6,0.5-1.1,1.1-1.1h7.6c0.6,0,1.1,0.5,1.1,1.1v7.6
		C547.8-820.2,547.3-819.7,546.7-819.7z"/>
	<path class="st35" d="M546.7-804.7h-7.6c-0.6,0-1.1-0.5-1.1-1.1v-7.6c0-0.6,0.5-1.1,1.1-1.1h7.6c0.6,0,1.1,0.5,1.1,1.1v7.6
		C547.8-805.2,547.3-804.7,546.7-804.7z"/>
	<path class="st36" d="M547.8-828.3"/>
	<path class="st36" d="M539.2-825.2"/>
	<path d="M574.7-838.1H553c-0.6,0-1.1-0.5-1.1-1.1l0,0c0-0.6,0.5-1.1,1.1-1.1h21.7c0.6,0,1.1,0.5,1.1,1.1l0,0
		C575.8-838.6,575.3-838.1,574.7-838.1z"/>
	<path class="st3" d="M574.9-823.1h-21.7c-0.6,0-1.1-0.5-1.1-1.1l0,0c0-0.6,0.5-1.1,1.1-1.1h21.7c0.6,0,1.1,0.5,1.1,1.1l0,0
		C576-823.6,575.5-823.1,574.9-823.1z"/>
	<path d="M574.7-808.9H553c-0.6,0-1.1-0.5-1.1-1.1l0,0c0-0.6,0.5-1.1,1.1-1.1h21.7c0.6,0,1.1,0.5,1.1,1.1l0,0
		C575.8-809.4,575.3-808.9,574.7-808.9z"/>
	<polyline class="st36" points="540.9,-839.2 542.3,-837.3 544.9,-841 	"/>
</g>
<g id="article">
	<path class="st3" d="M389.4-771c-0.5,0-0.9,0.4-0.9,0.9v2.1h-5.4v-5.3c0-0.5-0.4-0.9-0.9-0.9h-23.1c-0.5,0-0.9,0.4-0.9,0.9v5.3
		h-17.3v-40.2c0-0.5-0.4-0.9-0.9-0.9c-0.5,0-0.9,0.4-0.9,0.9v41.1c0,0.5,0.4,0.9,0.9,0.9h49.4c0.5,0,0.9-0.4,0.9-0.9v-3
		C390.3-770.6,389.9-771,389.4-771z M360-768v-4.4h21.3v4.4H360z"/>
	<path d="M346.5-784.4H383c0.5,0,0.9-0.4,0.9-0.9s-0.4-0.9-0.9-0.9h-36.5c-0.5,0-0.9,0.4-0.9,0.9S346-784.4,346.5-784.4z"/>
	<path class="st3" d="M346.5-780.1H383c0.5,0,0.9-0.4,0.9-0.9s-0.4-0.9-0.9-0.9h-36.5c-0.5,0-0.9,0.4-0.9,0.9S346-780.1,346.5-780.1
		z"/>
	<path d="M346.5-775.8H383c0.5,0,0.9-0.4,0.9-0.9c0-0.5-0.4-0.9-0.9-0.9h-36.5c-0.5,0-0.9,0.4-0.9,0.9
		C345.6-776.2,346-775.8,346.5-775.8z"/>
	<path d="M346.5-771.5h9.3c0.5,0,0.9-0.4,0.9-0.9s-0.4-0.9-0.9-0.9h-9.3c-0.5,0-0.9,0.4-0.9,0.9S346-771.5,346.5-771.5z"/>
	<path class="st3" d="M367.6-807.5c0,2.6,2.1,4.7,4.7,4.7c2.6,0,4.7-2.1,4.7-4.7s-2.1-4.7-4.7-4.7
		C369.7-812.2,367.6-810.1,367.6-807.5z M372.3-810.4c1.6,0,2.9,1.3,2.9,2.9s-1.3,2.9-2.9,2.9s-2.9-1.3-2.9-2.9
		S370.7-810.4,372.3-810.4z"/>
	<path d="M395.2-818.7c0-4.7-3.8-8.5-8.5-8.5c-4.2,0-7.7,3.1-8.4,7.1H340c-0.5,0-0.9,0.4-0.9,0.9v7.3c0,0.5,0.4,0.9,0.9,0.9
		c0.5,0,0.9-0.4,0.9-0.9v-6.4h37.2c0,0.6,0.1,1.2,0.3,1.8h-3.6c-0.5,0-0.9,0.4-0.9,0.9c0,0.5,0.4,0.9,0.9,0.9h4.3
		c1.2,2.2,3.3,3.9,5.8,4.4v7.1l-11.9,7.5l-15.8-8.8c-0.3-0.2-0.6-0.1-0.9,0l-11.8,7.5v-17.8H371c0.5,0,0.9-0.4,0.9-0.9
		c0-0.5-0.4-0.9-0.9-0.9h-27.4c-0.5,0-0.9,0.4-0.9,0.9v25.8c0,0.5,0.4,0.9,0.9,0.9h42.2c0.5,0,0.9-0.4,0.9-0.9v-20.3
		c0.6,0,1.2-0.1,1.8-0.2v36.6c0,0.5,0.4,0.9,0.9,0.9s0.9-0.4,0.9-0.9V-811C393.2-812.4,395.2-815.3,395.2-818.7z M344.5-790.8v-4.1
		l12.4-7.9l21.5,11.9H344.5z M384.9-790.8H382l-7.2-4l10.1-6.4V-790.8z M386.7-812c-3.7,0-6.7-3-6.7-6.7c0-3.7,3-6.7,6.7-6.7
		c3.7,0,6.7,3,6.7,6.7C393.4-815,390.4-812,386.7-812z"/>
	<path d="M391.1-822c-0.4-0.3-0.9-0.3-1.3,0.1l-4,4.5l-2.7-2.1c-0.4-0.3-0.9-0.2-1.3,0.1c-0.3,0.4-0.2,0.9,0.1,1.3l3.3,2.7
		c0.2,0.1,0.4,0.2,0.6,0.2c0.2,0,0.5-0.1,0.7-0.3l4.5-5.1C391.5-821.1,391.5-821.6,391.1-822z"/>
</g>
<g id="QA">
	<g>
		<g>
			<path d="M177.1-806.1l-3.3-7.9c-0.1-0.3-0.5-0.6-0.9-0.6s-0.7,0.2-0.9,0.6l-3.3,7.9c-0.2,0.5,0,1,0.5,1.2c0.5,0.2,1,0,1.2-0.5
				l0.5-1.1h4l0.5,1.1c0.2,0.4,0.5,0.6,0.9,0.6c0.1,0,0.2,0,0.4-0.1C177-805.1,177.3-805.7,177.1-806.1z M171.6-808.4l1.2-2.9
				l1.2,2.9H171.6z"/>
		</g>
	</g>
	<g>
		<g>
			<path d="M210.5-842.9h-46.4c-0.5,0-0.9,0.4-0.9,0.9v18.1c0,0.5,0.4,0.9,0.9,0.9h46.4c0.5,0,0.9-0.4,0.9-0.9v-18.1
				C211.5-842.5,211.1-842.9,210.5-842.9z M180.6-824.8h-15.5V-841h15.5V-824.8z M209.6-824.8h-27.1V-841h27.1V-824.8z"/>
		</g>
	</g>
	<g>
		<g>
			<path d="M198-833.8h-10.6c-0.5,0-0.9,0.4-0.9,0.9s0.4,0.9,0.9,0.9H198c0.5,0,0.9-0.4,0.9-0.9S198.5-833.8,198-833.8z"/>
		</g>
	</g>
	<g>
		<g>
			<path d="M205.4-833.8H202c-0.5,0-0.9,0.4-0.9,0.9s0.4,0.9,0.9,0.9h3.4c0.5,0,0.9-0.4,0.9-0.9S205.9-833.8,205.4-833.8z"/>
		</g>
	</g>
	<g>
		<g>
			<path d="M202.6-838h-15.2c-0.5,0-0.9,0.4-0.9,0.9s0.4,0.9,0.9,0.9h15.2c0.5,0,0.9-0.4,0.9-0.9S203.1-838,202.6-838z"/>
		</g>
	</g>
	<g>
		<g>
			<path d="M206.1-837.7c-0.2-0.2-0.4-0.3-0.7-0.3s-0.5,0.1-0.7,0.3c-0.2,0.2-0.3,0.4-0.3,0.7s0.1,0.5,0.3,0.7
				c0.2,0.2,0.4,0.3,0.7,0.3s0.5-0.1,0.7-0.3c0.2-0.2,0.3-0.4,0.3-0.7S206.3-837.5,206.1-837.7z"/>
		</g>
	</g>
	<g>
		<g>
			<path d="M195.4-829.7h-8c-0.5,0-0.9,0.4-0.9,0.9s0.4,0.9,0.9,0.9h8c0.5,0,0.9-0.4,0.9-0.9S195.9-829.7,195.4-829.7z"/>
		</g>
	</g>
	<g>
		<g>
			<path d="M199.3-829.4c-0.2-0.2-0.4-0.3-0.7-0.3s-0.5,0.1-0.7,0.3c-0.2,0.2-0.3,0.4-0.3,0.7s0.1,0.5,0.3,0.7
				c0.2,0.2,0.4,0.3,0.7,0.3s0.5-0.1,0.7-0.3c0.2-0.2,0.3-0.4,0.3-0.7S199.4-829.2,199.3-829.4z"/>
		</g>
	</g>
	<g>
		<g>
			<path d="M202.7-829.4c-0.2-0.2-0.4-0.3-0.7-0.3s-0.5,0.1-0.7,0.3s-0.3,0.4-0.3,0.7s0.1,0.5,0.3,0.7c0.2,0.2,0.4,0.3,0.7,0.3
				s0.5-0.1,0.7-0.3c0.2-0.2,0.3-0.4,0.3-0.7S202.8-829.2,202.7-829.4z"/>
		</g>
	</g>
	<g>
		<g>
			<path d="M206.1-829.4c-0.2-0.2-0.4-0.3-0.7-0.3c-0.2,0-0.5,0.1-0.7,0.3c-0.2,0.2-0.3,0.4-0.3,0.7s0.1,0.5,0.3,0.7
				c0.2,0.2,0.4,0.3,0.7,0.3c0.2,0,0.5-0.1,0.7-0.3c0.2-0.2,0.3-0.4,0.3-0.7S206.3-829.2,206.1-829.4z"/>
		</g>
	</g>
	<g>
		<g>
			<path d="M210.5-819.7h-46.4c-0.5,0-0.9,0.4-0.9,0.9v18.1c0,0.5,0.4,0.9,0.9,0.9h46.4c0.5,0,0.9-0.4,0.9-0.9v-18.1
				C211.5-819.3,211.1-819.7,210.5-819.7z M180.6-801.6h-15.5v-16.2h15.5V-801.6z M209.6-801.6h-27.1v-16.2h27.1V-801.6z"/>
		</g>
	</g>
	<g>
		<g>
			<path d="M198-810.7h-10.6c-0.5,0-0.9,0.4-0.9,0.9s0.4,0.9,0.9,0.9H198c0.5,0,0.9-0.4,0.9-0.9S198.5-810.7,198-810.7z"/>
		</g>
	</g>
	<g>
		<g>
			<path d="M205.4-810.7H202c-0.5,0-0.9,0.4-0.9,0.9s0.4,0.9,0.9,0.9h3.4c0.5,0,0.9-0.4,0.9-0.9S205.9-810.7,205.4-810.7z"/>
		</g>
	</g>
	<g>
		<g>
			<path d="M202.6-814.8h-15.2c-0.5,0-0.9,0.4-0.9,0.9s0.4,0.9,0.9,0.9h15.2c0.5,0,0.9-0.4,0.9-0.9S203.1-814.8,202.6-814.8z"/>
		</g>
	</g>
	<g>
		<g>
			<path d="M206.1-814.5c-0.2-0.2-0.4-0.3-0.7-0.3s-0.5,0.1-0.7,0.3c-0.2,0.2-0.3,0.4-0.3,0.7s0.1,0.5,0.3,0.7
				c0.2,0.2,0.4,0.3,0.7,0.3s0.5-0.1,0.7-0.3c0.2-0.2,0.3-0.4,0.3-0.7S206.3-814.4,206.1-814.5z"/>
		</g>
	</g>
	<g>
		<g>
			<path class="st3" d="M205.4-806.5h-18c-0.5,0-0.9,0.4-0.9,0.9s0.4,0.9,0.9,0.9h18c0.5,0,0.9-0.4,0.9-0.9S205.9-806.5,205.4-806.5
				z"/>
		</g>
	</g>
	<g>
		<g>
			<path class="st3" d="M177.5-830.1l-0.9-0.7c0.3-0.6,0.4-1.2,0.4-1.9v-1.5c0-2.4-1.9-4.3-4.3-4.3c-2.4,0-4.3,1.9-4.3,4.3v1.5
				c0,2.4,1.9,4.3,4.3,4.3c1,0,2-0.4,2.7-1l0.9,0.7c0.2,0.1,0.4,0.2,0.6,0.2c0.3,0,0.6-0.1,0.8-0.4
				C178-829.2,177.9-829.8,177.5-830.1z M175.1-832.6c0,0.3,0,0.5-0.1,0.7l-1-0.7c-0.4-0.3-1-0.2-1.3,0.2c-0.3,0.4-0.2,1,0.2,1.3
				l0.9,0.7c-0.3,0.2-0.7,0.3-1.1,0.3c-1.4,0-2.4-1.1-2.4-2.4v-1.5c0-1.4,1.1-2.4,2.4-2.4s2.4,1.1,2.4,2.4V-832.6z"/>
		</g>
	</g>
</g>
<g id="internet" class="st18">
	<g class="st20">
		<g>
			<g>
				<path class="st37" d="M376.7-872.2c-153.5,0-278.4-124.9-278.4-278.4S223.2-1429,376.7-1429c153.5,0,278.4,124.9,278.4,278.4
					S530.2-872.2,376.7-872.2z M249.4-1012.3c-3.5,0-6.9,1.6-9.2,4.3c-2.3,2.7-3.2,6.3-2.6,9.8l0.6,3.5
					c5.1,29.2,19.2,55.6,40.5,76.4c21.4,20.8,48.3,34.1,77.7,38.4l3.4,0.5c0.6,0.1,1.2,0.1,1.7,0.1c2.9,0,5.7-1,7.9-2.9
					c2.6-2.3,4.1-5.6,4.1-9.1v-108.9c0-6.6-5.4-12-12-12H249.4z M391.8-1012.3c-6.6,0-12,5.4-12,12v108.9c0,3.5,1.5,6.8,4.1,9.1
					c2.2,1.9,5,2.9,7.9,2.9c0.6,0,1.1,0,1.7-0.1l3.4-0.5c29.4-4.3,56.3-17.5,77.7-38.3c21.4-20.8,35.4-47.2,40.5-76.4l0.6-3.5
					c0.6-3.5-0.3-7.1-2.6-9.8c-2.3-2.7-5.6-4.3-9.2-4.3H391.8z M219.5-1007.9c-1.2,0-2.4,0.2-3.5,0.5l-3.3,1
					c-12.1,3.8-23.7,9.3-34.3,16.4l-2.9,1.9c-2.9,1.9-4.8,5.1-5.2,8.5c-0.4,3.5,0.7,7,3,9.5l2.4,2.6c16.5,18.1,35.4,33.9,56.1,47
					c2,1.2,4.2,1.9,6.4,1.9c3.1,0,6.2-1.2,8.5-3.5l4.1-4.1c4-4,4.7-10.1,1.7-14.9c-10.3-16.4-17.2-34.4-20.5-53.5l-0.6-3.4
					c-0.6-3.4-2.6-6.4-5.5-8.2C223.9-1007.3,221.7-1007.9,219.5-1007.9z M533.9-1007.9c-2.2,0-4.4,0.6-6.3,1.8
					c-2.9,1.8-5,4.8-5.5,8.2l-0.6,3.4c-3.2,19.1-10.1,37-20.5,53.5c-3,4.7-2.3,10.9,1.7,14.9l4.1,4.1c2.3,2.3,5.4,3.5,8.5,3.5
					c2.2,0,4.4-0.6,6.4-1.9c20.7-13.1,39.6-28.9,56.1-47l2.4-2.6c2.4-2.6,3.5-6.1,3-9.5c-0.4-3.5-2.3-6.6-5.2-8.5l-2.9-1.9
					c-10.6-7.1-22.2-12.6-34.3-16.4l-3.3-1C536.3-1007.7,535.1-1007.9,533.9-1007.9z M535.6-1147.5c-6.6,0-12,5.4-12,12v108.9
					c0,5.5,3.8,10.3,9.1,11.6l2.3,0.6c16.4,4.1,31.7,11,45.7,20.8l2.5,1.7c2,1.4,4.4,2.1,6.9,2.1c0.7,0,1.5-0.1,2.2-0.2
					c3.1-0.6,5.9-2.4,7.7-5l1.7-2.5c27.1-39.7,43.2-86.1,46.6-134l0.2-3.2c0.2-3.3-0.9-6.6-3.2-9s-5.4-3.8-8.8-3.8H535.6z
					 M116.9-1147.5c-3.3,0-6.5,1.4-8.8,3.8c-2.3,2.4-3.4,5.7-3.2,9l0.2,3.2c3.3,47.9,19.5,94.2,46.6,134l1.7,2.5
					c1.8,2.6,4.6,4.5,7.7,5c0.7,0.1,1.4,0.2,2.2,0.2c2.4,0,4.8-0.7,6.9-2.1l2.5-1.7c14-9.7,29.4-16.7,45.7-20.8l2.3-0.6
					c5.4-1.3,9.1-6.1,9.1-11.6v-108.9c0-6.6-5.4-12-12-12H116.9z M391.8-1147.5c-6.6,0-12,5.4-12,12v105c0,6.6,5.4,12,12,12h109.5
					c0,0,0.9,0,0.9,0c0,0,3.1,0,3.1,0c3.2,0,6.2-1.2,8.4-3.5c2.3-2.3,3.6-5.3,3.6-8.5v-105.1c0-6.6-5.4-12-12-12H391.8z
					 M248.1-1147.5c-6.6,0-12,5.4-12,12v105c0,3.2,1.3,6.3,3.5,8.5c2.2,2.2,5.3,3.5,8.5,3.5c0,0,3.1,0,3.1,0c0.1,0,1.1,0,1.1,0
					l109.4,0c6.6,0,12-5.4,12-12v-105c0-6.6-5.4-12-12-12H248.1z M589.3-1312.5c-2,0-4.1,0.5-6,1.6l-2.4,1.4
					c-14.1,8.1-29.3,13.7-45.2,16.7l-2.4,0.5c-5.7,1.1-9.8,6-9.8,11.8v114.9c0,6.6,5.4,12,12,12h100.9c3.3,0,6.5-1.4,8.8-3.8
					c2.3-2.4,3.4-5.7,3.2-9l-0.2-3.2c-3.4-48.5-19.8-95.2-47.5-135.3l-1.6-2.3C596.9-1310.6,593.1-1312.5,589.3-1312.5z
					 M391.8-1290.2c-6.6,0-12,5.4-12,12v112.5c0,6.6,5.4,12,12,12h113.5c6.6,0,12-5.4,12-12v-112.5c0-6.6-5.4-12-12-12H391.8z
					 M248.1-1290.2c-6.6,0-12,5.4-12,12v112.5c0,6.6,5.4,12,12,12h113.5c6.6,0,12-5.4,12-12v-112.5c0-6.6-5.4-12-12-12H248.1z
					 M164.1-1312.5c-3.8,0-7.6,1.8-9.9,5.2l-1.6,2.3c-27.7,40-44.1,86.8-47.5,135.3l-0.2,3.2c-0.2,3.3,0.9,6.6,3.2,9
					c2.3,2.4,5.4,3.8,8.8,3.8h100.9c6.6,0,12-5.4,12-12v-114.9c0-5.8-4.1-10.7-9.8-11.8l-2.4-0.5c-15.9-3-31.1-8.6-45.2-16.7
					l-2.4-1.4C168.2-1312,166.1-1312.5,164.1-1312.5z M391.8-1421.9c-2.9,0-5.7,1-7.9,2.9c-2.6,2.3-4.1,5.6-4.1,9.1v101.4
					c0,6.6,5.4,12,12,12h110.8c3.7,0,7.1-1.7,9.4-4.6s3.1-6.7,2.2-10.2l-0.9-3.7c-6.6-27.3-21-51.7-41.8-70.8
					c-20.9-19.2-46.7-31.5-74.7-35.5l-3.4-0.5C393-1421.8,392.4-1421.9,391.8-1421.9z M361.6-1421.9c-0.6,0-1.1,0-1.7,0.1l-3.4,0.5
					c-27.9,4.1-53.8,16.3-74.7,35.5c-20.8,19.1-35.2,43.5-41.8,70.8l-0.9,3.7c-0.9,3.6,0,7.3,2.2,10.2s5.7,4.6,9.4,4.6h110.8
					c6.6,0,12-5.4,12-12v-101.4c0-3.5-1.5-6.8-4.1-9.1C367.3-1420.9,364.5-1421.9,361.6-1421.9z M515.3-1382.7
					c-3.1,0-6.2,1.2-8.5,3.5l-4.1,4.1c-4,4-4.7,10.1-1.7,14.9c9.5,15,16.1,31.4,19.6,48.8l0.6,3c0.6,3.2,2.5,5.9,5.2,7.7
					c2,1.3,4.2,1.9,6.5,1.9c0.9,0,1.7-0.1,2.6-0.3l3-0.7c11.7-2.6,23-6.6,33.7-12.1l3.5-1.8c3.3-1.7,5.7-4.9,6.3-8.6
					c0.7-3.7-0.5-7.5-3-10.2l-2.7-2.9c-16.2-17.5-34.6-32.8-54.6-45.5C519.8-1382.1,517.6-1382.7,515.3-1382.7z M238.1-1382.7
					c-2.2,0-4.4,0.6-6.4,1.9c-20.1,12.7-38.5,28-54.6,45.5l-2.7,2.9c-2.6,2.8-3.7,6.5-3,10.2c0.7,3.7,3,6.9,6.3,8.6l3.5,1.8
					c10.6,5.5,22,9.5,33.7,12.1l3,0.7c0.9,0.2,1.7,0.3,2.6,0.3c2.3,0,4.6-0.7,6.5-1.9c2.7-1.8,4.6-4.5,5.2-7.7l0.6-3
					c3.5-17.3,10.1-33.7,19.6-48.8c3-4.7,2.3-10.9-1.7-14.9l-4.1-4.1C244.2-1381.5,241.2-1382.7,238.1-1382.7z"/>
			</g>
		</g>
	</g>
</g>
</svg>
