<?xml version="1.0" encoding="utf-8"?>
<!-- Generator: Adobe Illustrator 19.2.0, SVG Export Plug-In . SVG Version: 6.00 Build 0)  -->
<svg version="1.1" xmlns="http://www.w3.org/2000/svg" xmlns:xlink="http://www.w3.org/1999/xlink" x="0px" y="0px"
	 viewBox="0 0 740.7 334.6" style="enable-background:new 0 0 740.7 334.6;" xml:space="preserve">
<style type="text/css">
	.st0{fill:#7B00DB;}
	.st1{fill:#FFFFFF;stroke:#7B00DB;stroke-width:4;stroke-miterlimit:10;}
	.st2{fill:none;stroke:#7B00DB;stroke-width:4;stroke-linecap:round;stroke-linejoin:round;stroke-miterlimit:10;}
	.st3{fill:none;stroke:#D3D3D3;stroke-width:3;stroke-linecap:round;stroke-miterlimit:10;stroke-dasharray:9;}
	.st4{stroke:#D3D3D3;stroke-width:3;stroke-linecap:round;stroke-miterlimit:10;stroke-dasharray:9;}
	.st5{fill:none;stroke:#D3D3D3;stroke-width:3;stroke-linecap:round;stroke-miterlimit:10;stroke-dasharray:9,9;}
	.st6{fill:#D3D3D3;}
	.st7{fill:#707070;}
	.st8{display:none;}
	.st9{display:inline;}
	.st10{fill:#3A3A3A;}
	.st11{fill:#333333;}
	.st12{stroke:#020202;stroke-miterlimit:10;}
	.st13{fill:#7B00DB;stroke:#7B00DB;stroke-miterlimit:10;}
	.st14{display:inline;fill:none;stroke:#939393;stroke-width:2;stroke-miterlimit:10;}
	.st15{display:inline;fill:none;stroke:#7B00DB;stroke-width:2;stroke-miterlimit:10;}
	.st16{display:inline;fill:#FFFFFF;stroke:#7B00DB;stroke-linecap:round;stroke-linejoin:round;stroke-miterlimit:10;}
	.st17{display:inline;fill:none;stroke:#7B00DB;stroke-linecap:round;stroke-linejoin:round;stroke-miterlimit:10;}
	.st18{fill:#939393;}
	.st19{fill:#D8D8D8;}
	.st20{fill:none;}
	.st21{fill:#F7F7F7;stroke:#E5E5E5;stroke-miterlimit:10;}
	.st22{fill:#E5E5E5;}
	.st23{fill:#EAEAEA;}
	.st24{fill:#DDDDDD;}
	.st25{fill:none;stroke:#D8D8D8;stroke-miterlimit:10;}
	.st26{fill:#FFFFFF;}
	.st27{fill:none;stroke:#EAEAEA;stroke-width:4;stroke-linecap:round;stroke-linejoin:round;stroke-miterlimit:10;}
	.st28{fill:none;stroke:#000000;stroke-width:2;stroke-miterlimit:10;}
	.st29{fill:none;stroke:#7B00DB;stroke-width:2;stroke-miterlimit:10;}
	.st30{fill:none;stroke:#000000;stroke-width:2;stroke-linecap:round;stroke-linejoin:round;stroke-miterlimit:10;}
	.st31{fill:#EDEDED;}
</style>
<g id="Network">
	<g id="video">
	</g>
	<g id="podcast">
	</g>
	<g id="article_1_">
	</g>
</g>
<g id="binders">
	<g>
		<g>
			<path d="M329,816.8c-3.6,0-6.5,2.9-6.5,6.5c0,3.6,2.9,6.5,6.5,6.5c3.6,0,6.5-2.9,6.5-6.5C335.4,819.7,332.5,816.8,329,816.8z"/>
		</g>
	</g>
	<g>
		<g>
			<path d="M333.8,774.6h-9.7c-1,0-1.6,0.6-1.6,1.6c0,1,0.6,1.6,1.6,1.6h9.7c1,0,1.6-0.6,1.6-1.6
				C335.4,775.3,334.8,774.6,333.8,774.6z"/>
		</g>
	</g>
	<g>
		<g>
			<path d="M333.8,768.2h-9.7c-1,0-1.6,0.6-1.6,1.6c0,1,0.6,1.6,1.6,1.6h9.7c1,0,1.6-0.6,1.6-1.6
				C335.4,768.8,334.8,768.2,333.8,768.2z"/>
		</g>
	</g>
	<g>
		<g>
			<path d="M333.8,761.7h-9.7c-1,0-1.6,0.6-1.6,1.6s0.6,1.6,1.6,1.6h9.7c1,0,1.6-0.6,1.6-1.6S334.8,761.7,333.8,761.7z"/>
		</g>
	</g>
	<g>
		<g>
			<path d="M351.7,820c-1.8,0-3.2,1.5-3.2,3.2c0,1.8,1.5,3.2,3.2,3.2c1.8,0,3.2-1.5,3.2-3.2C354.9,821.5,353.4,820,351.7,820z"/>
		</g>
	</g>
	<g>
		<g>
			<path d="M329,784.4c-1,0-1.6,0.6-1.6,1.6v22.7c0,1,0.6,1.6,1.6,1.6c1,0,1.6-0.6,1.6-1.6V786C330.6,785,329.9,784.4,329,784.4z"/>
		</g>
	</g>
	<g>
		<g>
			<path d="M293.4,818.3c-0.2,0-0.3,0-0.6,0c-0.6,0-1.3,0.2-1.8,0.6c-0.6,0.5-1.1,1.3-1.3,2.1c-0.3,1.8,0.8,3.4,2.6,3.7
				c0.8,0.2,1.8,0,2.4-0.5c0.6-0.5,1.1-1.3,1.3-2.1C296.4,820.4,295.2,818.6,293.4,818.3z"/>
		</g>
	</g>
	<g>
		<g>
			<path d="M363,743.8h-22.7h-22.7c-1,0-1.6,0.6-1.6,1.6v2.1l-20.4-3.7c-0.5,0-0.8,0-1.1,0.3c-0.3,0.2-0.6,0.6-0.6,1l-16.5,90
				c-0.2,0.8,0.5,1.8,1.3,1.9l22.2,4.1c0.2,0,0.2,0,0.3,0c0.3,0,0.6-0.2,1-0.3c0.3-0.3,0.6-0.6,0.6-1l13.3-72.5v72.1
				c0,1,0.6,1.6,1.6,1.6h22.7H363c1,0,1.6-0.6,1.6-1.6v-94C364.6,744.5,364,743.8,363,743.8z M299.3,822.6c-0.3,1.8-1.3,3.2-2.8,4.2
				c-1.1,0.8-2.4,1.1-3.7,1.1c-0.3,0-0.8,0-1.1-0.2c-3.6-0.6-5.8-4.1-5.2-7.6c0.3-1.8,1.3-3.2,2.8-4.2c1.5-1,3.1-1.3,4.9-1
				C297.5,815.8,299.9,819.2,299.3,822.6z M300.4,787.6l-4.1,22.4c-0.2,0.8-0.8,1.3-1.6,1.3c-0.2,0-0.2,0-0.3,0
				c-0.8-0.2-1.5-1-1.3-1.9l4.1-22.4c0.2-0.8,1-1.5,1.9-1.3C299.9,785.8,300.6,786.6,300.4,787.6z M307.2,779.7
				c-0.2,0.6-1,1.3-1.6,1.3c-0.2,0-0.2,0-0.3,0l-9.6-1.8c-0.8-0.2-1.5-1-1.3-1.9c0.2-0.8,1-1.5,1.9-1.3l9.6,1.8
				C306.7,777.9,307.4,778.7,307.2,779.7z M308.4,773.3c-0.2,0.6-0.8,1.3-1.6,1.3c-0.2,0-0.2,0-0.3,0l-9.6-1.8
				c-0.8-0.2-1.5-1-1.3-1.9c0.2-0.8,1-1.5,1.9-1.3l9.6,1.8C307.9,771.6,308.5,772.4,308.4,773.3z M309.5,766.9
				c-0.2,0.8-0.8,1.3-1.6,1.3c-0.2,0-0.2,0-0.3,0l-9.6-1.8c-0.8-0.2-1.5-1-1.3-1.9c0.2-0.8,1-1.5,1.9-1.3l9.6,1.8
				C309,765.1,309.7,765.9,309.5,766.9z M310.6,760.5c-0.2,0.6-0.8,1.3-1.6,1.3c-0.2,0-0.2,0-0.3,0l-9.4-1.8c-0.8-0.2-1.5-1-1.3-1.9
				c0-0.8,1-1.5,1.8-1.3l9.6,1.8C310.1,758.7,310.8,759.6,310.6,760.5z M338.7,837.9h-19.5v-90.8h19.5V837.9z M351.7,829.8
				c-3.6,0-6.5-2.9-6.5-6.5c0-3.6,2.9-6.5,6.5-6.5s6.5,2.9,6.5,6.5C358.1,826.8,355.2,829.8,351.7,829.8z M350,808.7V786
				c0-1,0.6-1.6,1.6-1.6c1,0,1.6,0.6,1.6,1.6v22.7c0,1-0.6,1.6-1.6,1.6C350.7,810.3,350,809.7,350,808.7z M356.5,777.9h-9.7
				c-1,0-1.6-0.6-1.6-1.6c0-1,0.6-1.6,1.6-1.6h9.7c1,0,1.6,0.6,1.6,1.6C358.1,777.2,357.5,777.9,356.5,777.9z M356.5,771.4h-9.7
				c-1,0-1.6-0.6-1.6-1.6c0-1,0.6-1.6,1.6-1.6h9.7c1,0,1.6,0.6,1.6,1.6C358.1,770.7,357.5,771.4,356.5,771.4z M356.5,764.9h-9.7
				c-1,0-1.6-0.6-1.6-1.6s0.6-1.6,1.6-1.6h9.7c1,0,1.6,0.6,1.6,1.6S357.5,764.9,356.5,764.9z M356.5,758.4h-9.7
				c-1,0-1.6-0.6-1.6-1.6c0-1,0.6-1.6,1.6-1.6h9.7c1,0,1.6,0.6,1.6,1.6C358.1,757.8,357.5,758.4,356.5,758.4z"/>
		</g>
	</g>
	<g>
		<g>
			<path d="M394,823.3c0,3.6,2.9,6.5,6.5,6.5s6.5-2.9,6.5-6.5c0-3.6-2.9-6.5-6.5-6.5S394,819.7,394,823.3z"/>
		</g>
	</g>
	<g>
		<g>
			<path d="M394,776.3c0,1,0.6,1.6,1.6,1.6h9.7c1,0,1.6-0.6,1.6-1.6c0-1-0.6-1.6-1.6-1.6h-9.7C394.7,774.6,394,775.3,394,776.3z"/>
		</g>
	</g>
	<g>
		<g>
			<path d="M394,769.8c0,1,0.6,1.6,1.6,1.6h9.7c1,0,1.6-0.6,1.6-1.6c0-1-0.6-1.6-1.6-1.6h-9.7C394.7,768.2,394,768.8,394,769.8z"/>
		</g>
	</g>
	<g>
		<g>
			<path d="M394,763.3c0,1,0.6,1.6,1.6,1.6h9.7c1,0,1.6-0.6,1.6-1.6s-0.6-1.6-1.6-1.6h-9.7C394.7,761.7,394,762.3,394,763.3z"/>
		</g>
	</g>
	<g>
		<g>
			<path d="M374.6,823.3c0,1.8,1.5,3.2,3.2,3.2c1.8,0,3.2-1.5,3.2-3.2c0-1.8-1.5-3.2-3.2-3.2C376,820,374.6,821.5,374.6,823.3z"/>
		</g>
	</g>
	<g>
		<g>
			<path d="M398.9,786v22.7c0,1,0.6,1.6,1.6,1.6s1.6-0.6,1.6-1.6V786c0-1-0.6-1.6-1.6-1.6S398.9,785,398.9,786z"/>
		</g>
	</g>
	<g>
		<g>
			<path d="M433.4,822.1c0.2,0.8,0.6,1.6,1.3,2.1c0.6,0.5,1.6,0.6,2.4,0.5c1.8-0.3,2.9-1.9,2.6-3.7c-0.2-0.8-0.6-1.6-1.3-2.1
				c-0.5-0.5-1.1-0.6-1.8-0.6c-0.3,0-0.5,0-0.6,0C434.2,818.6,433.1,820.4,433.4,822.1z"/>
		</g>
	</g>
	<g>
		<g>
			<path class="st0" d="M364.8,745.5v94c0,1,0.6,1.6,1.6,1.6h22.7h22.7c1,0,1.6-0.6,1.6-1.6v-72.1l13.3,72.5c0,0.3,0.3,0.6,0.6,1
				c0.3,0.2,0.6,0.3,1,0.3c0.2,0,0.2,0,0.3,0l22.2-4.1c0.8-0.2,1.5-1.1,1.3-1.9l-16.5-90c0-0.3-0.3-0.8-0.6-1
				c-0.3-0.3-0.6-0.3-1.1-0.3l-20.4,3.7v-2.1c0-1-0.6-1.6-1.6-1.6h-22.7h-22.7C365.5,743.8,364.8,744.5,364.8,745.5z M435.4,815
				c1.8-0.3,3.4,0,4.9,1c1.5,1,2.4,2.4,2.8,4.2c0.6,3.6-1.6,7-5.2,7.6c-0.3,0.2-0.8,0.2-1.1,0.2c-1.3,0-2.6-0.3-3.7-1.1
				c-1.5-1-2.4-2.4-2.8-4.2C429.5,819.2,432,815.8,435.4,815z M430.3,785.7c1-0.2,1.8,0.5,1.9,1.3l4.1,22.4c0.2,1-0.5,1.8-1.3,1.9
				c-0.2,0-0.2,0-0.3,0c-0.8,0-1.5-0.5-1.6-1.3l-4.1-22.4C428.9,786.6,429.5,785.8,430.3,785.7z M423.5,777.7l9.6-1.8
				c1-0.2,1.8,0.5,1.9,1.3c0.2,1-0.5,1.8-1.3,1.9l-9.6,1.8c-0.2,0-0.2,0-0.3,0c-0.6,0-1.5-0.6-1.6-1.3
				C422.1,778.7,422.7,777.9,423.5,777.7z M422.4,771.4l9.6-1.8c1-0.2,1.8,0.5,1.9,1.3c0.2,1-0.5,1.8-1.3,1.9l-9.6,1.8
				c-0.2,0-0.2,0-0.3,0c-0.8,0-1.5-0.6-1.6-1.3C420.9,772.4,421.6,771.6,422.4,771.4z M421.3,764.9l9.6-1.8c1-0.2,1.8,0.5,1.9,1.3
				c0.2,1-0.5,1.8-1.3,1.9l-9.6,1.8c-0.2,0-0.2,0-0.3,0c-0.8,0-1.5-0.5-1.6-1.3C419.8,765.9,420.5,765.1,421.3,764.9z M420.1,758.6
				l9.6-1.8c0.8-0.2,1.8,0.5,1.8,1.3c0.2,1-0.5,1.8-1.3,1.9l-9.4,1.8c-0.2,0-0.2,0-0.3,0c-0.8,0-1.5-0.6-1.6-1.3
				C418.7,759.6,419.3,758.7,420.1,758.6z M390.8,747.1h19.5v90.8h-19.5V747.1z M371.3,823.3c0-3.6,2.9-6.5,6.5-6.5
				c3.6,0,6.5,2.9,6.5,6.5c0,3.6-2.9,6.5-6.5,6.5C374.3,829.8,371.3,826.8,371.3,823.3z M377.8,810.3c-1,0-1.6-0.6-1.6-1.6V786
				c0-1,0.6-1.6,1.6-1.6c1,0,1.6,0.6,1.6,1.6v22.7C379.4,809.7,378.8,810.3,377.8,810.3z M371.3,776.3c0-1,0.6-1.6,1.6-1.6h9.7
				c1,0,1.6,0.6,1.6,1.6c0,1-0.6,1.6-1.6,1.6H373C372,777.9,371.3,777.2,371.3,776.3z M371.3,769.8c0-1,0.6-1.6,1.6-1.6h9.7
				c1,0,1.6,0.6,1.6,1.6c0,1-0.6,1.6-1.6,1.6H373C372,771.4,371.3,770.7,371.3,769.8z M371.3,763.3c0-1,0.6-1.6,1.6-1.6h9.7
				c1,0,1.6,0.6,1.6,1.6s-0.6,1.6-1.6,1.6H373C372,764.9,371.3,764.3,371.3,763.3z M371.3,756.8c0-1,0.6-1.6,1.6-1.6h9.7
				c1,0,1.6,0.6,1.6,1.6c0,1-0.6,1.6-1.6,1.6H373C372,758.4,371.3,757.8,371.3,756.8z"/>
		</g>
	</g>
	<circle class="st1" cx="447.2" cy="758.4" r="15.3"/>
	<polyline class="st2" points="440.1,758.8 445.5,764.8 454,754.2 	"/>
</g>
<g id="robot">
	<g>
		<path class="st0" d="M452.2,1244.8h-16.7c-0.9,0-1.7,0.8-1.7,1.7c0,0.9,0.8,1.7,1.7,1.7h16.7c0.5,0,0.9-0.2,1.2-0.5
			c0.3-0.3,0.5-0.8,0.5-1.2c0-0.5-0.2-0.9-0.5-1.2C453.1,1245,452.6,1244.8,452.2,1244.8z"/>
		<path class="st0" d="M437,1241.4c0.5,0,0.9-0.2,1.2-0.5c0.3-0.3,0.5-0.8,0.5-1.2v-3.4c0-0.9-0.8-1.7-1.7-1.7s-1.7,0.8-1.7,1.7v3.4
			c0,0.5,0.2,0.9,0.5,1.2C436.1,1241.2,436.6,1241.4,437,1241.4z"/>
		<path class="st0" d="M450.6,1241.4c0.5,0,0.9-0.2,1.2-0.5c0.3-0.3,0.5-0.8,0.5-1.2v-3.4c0-0.9-0.8-1.7-1.7-1.7
			c-0.9,0-1.7,0.8-1.7,1.7v3.4c0,0.5,0.2,0.9,0.5,1.2C449.8,1241.2,450.2,1241.4,450.6,1241.4z"/>
		<path class="st0" d="M455.7,1255c2.8,0,5.1-2.3,5.1-5.1v-0.2c4-0.8,6.8-4.3,6.8-8.3c0-4-2.8-7.5-6.8-8.3v-0.2
			c0-2.8-2.3-5.1-5.1-5.1h-8.5l2.7-2c0.4-0.3,0.6-0.7,0.7-1.1c0.1-0.4-0.1-0.9-0.3-1.3l-2.2-3c1.5-2.1,1.2-5-0.7-6.9
			c-1.9-1.8-4.8-2-6.9-0.5c-2.1,1.5-2.8,4.4-1.6,6.7s3.9,3.4,6.4,2.6l1.2,1.6l-5,3.7h-9.6c-2.8,0-5.1,2.3-5.1,5.1v0.2
			c-4,0.8-6.8,4.3-6.8,8.3c0,4,2.8,7.5,6.8,8.3v0.2c0,2.8,2.3,5.1,5.1,5.1h5.1v6.8h-10.2c-3.8,0-6.8,3.1-6.8,6.8v17
			c0,1.9,1.5,3.4,3.4,3.4h3.9c0.6,1,1.7,1.7,2.9,1.7h27.2c1.9,0,3.4-1.5,3.4-3.4h3.4c1.9,0,3.4-1.5,3.4-3.4v-15.3
			c0-3.8-3-6.8-6.8-6.8h-10.2v-6.8H455.7z M460.9,1236.6c2,0.7,3.4,2.7,3.4,4.8s-1.4,4.1-3.4,4.8V1236.6z M443.8,1219.3
			c-0.9,0-1.7-0.8-1.7-1.7s0.8-1.7,1.7-1.7c0.9,0,1.7,0.8,1.7,1.7C445.5,1218.5,444.8,1219.3,443.8,1219.3z M426.8,1246.2
			c-2-0.7-3.4-2.7-3.4-4.8s1.4-4.1,3.4-4.8V1246.2z M426.8,1285.7h-3.4v-17c0-1.9,1.5-3.4,3.4-3.4L426.8,1285.7L426.8,1285.7z
			 M460.9,1265.2c1.9,0,3.4,1.5,3.4,3.4v15.3h-3.4V1265.2z M450.6,1287.4H437v-15.3h13.6V1287.4z M457.4,1265.2l0,20.4l0,0l0,0
			l0,1.7H454v-15.3c0-1.9-1.5-3.4-3.4-3.4H437c-1.9,0-3.4,1.5-3.4,3.4v15.3h-3.4v-22.1H457.4z M440.4,1261.8v-6.8h6.8v6.8H440.4
			L440.4,1261.8z M431.9,1251.6c-0.9,0-1.7-0.8-1.7-1.7v-17c0-0.9,0.8-1.7,1.7-1.7h23.8c0.9,0,1.7,0.8,1.7,1.7v17
			c0,0.9-0.8,1.7-1.7,1.7H431.9z"/>
	</g>
</g>
<g id="path">
	<path class="st3" d="M349,1215.8"/>
	<path class="st4" d="M362.4,1025.7"/>
	<path class="st3" d="M285.3,845.3c0,39.5,36.5,87.1,56.6,110.4"/>
	<g>
		<g>
			<path class="st5" d="M489.7,1244.9c97.7-7.2,143.3-251.7-80-254.3"/>
			<g>
				<path class="st6" d="M430.4,976.6c0.4,0.7,0.2,1.6-0.5,2.1l-19.6,12l19.1,12.7c0.7,0.5,0.9,1.4,0.4,2.1
					c-0.5,0.7-1.4,0.9-2.1,0.4l-21.1-14c-0.4-0.3-0.7-0.8-0.7-1.3c0-0.5,0.3-1,0.7-1.3l21.6-13.2c0.3-0.2,0.5-0.2,0.8-0.2
					C429.7,975.9,430.1,976.1,430.4,976.6z"/>
			</g>
		</g>
	</g>
	<path class="st3" d="M443.1,849.6c5.8,36.5-24.2,92.2-44.3,115.4"/>
	<g>
		<g>
			<path class="st5" d="M281.7,1251.5c-150.1-4.1-127.1-261.7,42.5-261.7"/>
			<g>
				<path class="st6" d="M261.6,1236.5c-0.5,0.7-0.3,1.6,0.4,2.1l19,12.8l-19.7,11.8c-0.7,0.4-0.9,1.3-0.5,2.1
					c0.4,0.7,1.4,0.9,2.1,0.5l21.7-13c0.4-0.3,0.7-0.7,0.7-1.2c0-0.5-0.2-1-0.7-1.3l-21-14.2c-0.2-0.2-0.5-0.2-0.8-0.3
					C262.4,1235.8,261.9,1236,261.6,1236.5z"/>
			</g>
		</g>
	</g>
</g>
<g id="layers">
	<path class="st0" d="M126.8,1103.7c2,0,3.6-1.6,3.6-3.6c0-2-1.6-3.6-3.6-3.6c-2,0-3.6,1.6-3.6,3.6
		C123.2,1102.1,124.8,1103.7,126.8,1103.7z M126.8,1098.9c0.7,0,1.2,0.5,1.2,1.2c0,0.7-0.5,1.2-1.2,1.2s-1.2-0.5-1.2-1.2
		C125.6,1099.4,126.1,1098.9,126.8,1098.9z"/>
	<path class="st7" d="M166.6,1113.3h-6v-6c0-0.7-0.5-1.2-1.2-1.2h-6v-6c0-0.7-0.5-1.2-1.2-1.2h-6v-6c0-0.7-0.5-1.2-1.2-1.2h-28
		c-5.6,0-8.7-0.2-9.3,0.5c-0.3,0.4-0.1,3.2-0.1,8.9v28c0,0.7,0.5,1.2,1.2,1.2h6v6c0,0.7,0.5,1.2,1.2,1.2h6v6c0,0.7,0.5,1.2,1.2,1.2
		h6v6c0,0.7,0.5,1.2,1.2,1.2h36.2c0.7,0,1.2-0.5,1.2-1.2v-36.2C167.8,1113.9,167.2,1113.3,166.6,1113.3z M122.3,1115.7h-10.4
		l5.2-4.4L122.3,1115.7z M121.5,1111.9l2.9-2.9l3.3,3.3l-2.7,2.5L121.5,1111.9z M137.6,1106.6l6.1,6.1v3.1h-16.2L137.6,1106.6z
		 M116.1,1094h27.5v15.2l-5.2-5.2c-0.5-0.5-1.2-0.5-1.7,0l-7.4,6.7l-4.2-4.2c-0.5-0.5-1.2-0.5-1.7,0l-3.8,3.8l-1.7-1.5
		c-0.4-0.4-1.1-0.4-1.6,0l-6.5,5.5v-14.1c0-2.2-0.1-4.8,0.6-5.5C111.2,1094.1,113.8,1094,116.1,1094z M109.9,1118.2h33.8v9.6h-33.8
		V1118.2z M117.1,1130.2h27.7c0.7,0,1.2-0.5,1.2-1.2v-27.7h4.8v33.8h-33.8V1130.2z M124.4,1137.5h27.7c0.7,0,1.2-0.5,1.2-1.2v-27.7
		h4.8v33.8h-33.8V1137.5z M165.4,1149.5h-33.8v-4.8h27.7c0.7,0,1.2-0.5,1.2-1.2v-27.7h4.8V1149.5z"/>
</g>
<g id="processor" class="st8">
	<g class="st9">
		<g>
			<path class="st10" d="M395.1,988.9l-15.6-0.2l0-2.2l4.2,0.1c0.5,0,1-0.4,1-1c0-0.5-0.4-1-1-1l-4.2-0.1l0-2.2l2.9,0
				c1.1,0,2.1-0.4,2.9-1.2l6.5-6.3c0.4,0.2,0.9,0.3,1.3,0.3c0.8,0,1.6-0.3,2.2-0.9c0.6-0.6,0.9-1.3,0.9-2.1c0-0.8-0.3-1.6-0.9-2.2
				c-0.6-0.6-1.3-0.9-2.1-0.9c-0.8,0-1.6,0.3-2.2,0.9c-0.6,0.6-0.9,1.3-0.9,2.1c0,0.5,0.1,0.9,0.3,1.4l-6.5,6.3
				c-0.4,0.4-0.9,0.6-1.5,0.6l-2.9,0l0-2.1c0-2.8-2.2-5.1-5-5.2l-2.1,0l0.1-8.6c1.2-0.4,2.1-1.5,2.1-2.9c0-1.7-1.3-3.1-3-3.1
				c-1.7,0-3.1,1.3-3.1,3c0,1.3,0.8,2.5,2,2.9l-0.1,8.6l-2.2,0l0.1-4.2c0-0.5-0.4-1-1-1c-0.5,0-1,0.4-1,1l-0.1,4.2l-2.2,0l0.2-15.6
				c0-0.5-0.4-1-1-1c-0.5,0-1,0.4-1,1l-0.2,15.6l-2.2,0l0.1-4.2c0-0.5-0.4-1-1-1s-1,0.4-1,1l-0.1,4.2l-2.2,0l0-2.9
				c0-1.1-0.4-2.1-1.2-2.9l-6.3-6.5c0.6-1.1,0.4-2.6-0.5-3.5c-1.2-1.2-3.1-1.2-4.3-0.1c-1.2,1.2-1.2,3.1-0.1,4.3
				c0.6,0.6,1.4,0.9,2.1,0.9c0.5,0,0.9-0.1,1.4-0.3l6.3,6.5c0.4,0.4,0.6,0.9,0.6,1.5l0,2.9l-2.1,0c-0.4,0-0.9,0-1.3,0.1
				c-0.5,0.1-0.8,0.7-0.7,1.2c0.1,0.5,0.7,0.8,1.2,0.7c0.3-0.1,0.5-0.1,0.8-0.1l22.8,0.3c1.7,0,3.2,1.5,3.1,3.2l-0.3,22.8
				c0,0.3,0,0.5-0.1,0.8c-0.1,0.5,0.2,1,0.7,1.2c0.1,0,0.2,0,0.2,0c0.4,0,0.8-0.3,0.9-0.7c0.1-0.4,0.2-0.8,0.2-1.3l0-2.1l8.6,0.1
				c0.4,1.2,1.5,2.1,2.9,2.1c1.7,0,3.1-1.3,3.1-3s-1.3-3.1-3-3.1c-1.3,0-2.5,0.8-2.9,2l-8.6-0.1l0-2.2l4.2,0.1c0.5,0,1-0.4,1-1
				c0-0.5-0.4-1-1-1l-4.2-0.1l0-2.2l15.6,0.2c0.5,0,1-0.4,1-1C396.1,989.3,395.7,988.9,395.1,988.9z M392.5,971.4
				c0.2-0.2,0.5-0.3,0.8-0.3c0.3,0,0.6,0.1,0.8,0.3s0.3,0.5,0.3,0.8s-0.1,0.6-0.3,0.8c-0.2,0.2-0.5,0.3-0.8,0.3
				c-0.3,0-0.6-0.1-0.8-0.3c-0.2-0.2-0.3-0.5-0.3-0.8C392.2,971.9,392.3,971.6,392.5,971.4z M346.5,960c-0.4,0.4-1.1,0.4-1.6,0
				c-0.4-0.4-0.4-1.1,0-1.6c0.2-0.2,0.5-0.3,0.8-0.3c0.3,0,0.6,0.1,0.8,0.3C347,958.9,347,959.6,346.5,960z M371.6,962.7
				c-0.6,0-1.1-0.5-1.1-1.1s0.5-1.1,1.1-1.1c0.6,0,1.1,0.5,1.1,1.1C372.7,962.2,372.2,962.7,371.6,962.7z M390.9,997
				c0.6,0,1.1,0.5,1.1,1.1c0,0.6-0.5,1.1-1.1,1.1s-1.1-0.5-1.1-1.1C389.8,997.4,390.3,997,390.9,997z"/>
		</g>
	</g>
	<g class="st9">
		<g>
			<path class="st11" d="M382.4,1017.6c-0.9-1-2.3-1.2-3.5-0.6l-6.3-6.5c-0.4-0.4-0.6-0.9-0.6-1.5l0-2.9l2.1,0c0.4,0,0.9,0,1.3-0.1
				c0.5-0.1,0.8-0.7,0.7-1.2c-0.1-0.5-0.7-0.8-1.2-0.7c-0.3,0.1-0.5,0.1-0.8,0.1l-22.8-0.3c-1.7,0-3.2-1.5-3.1-3.2l0.3-22.8
				c0-0.3,0-0.5,0.1-0.8c0.1-0.5-0.2-1-0.7-1.2c-0.5-0.1-1,0.2-1.2,0.7c-0.1,0.4-0.2,0.8-0.2,1.3l0,2.1l-8.6-0.1
				c-0.4-1.2-1.5-2.1-2.9-2.1c-1.7,0-3.1,1.3-3.1,3c0,1.7,1.3,3.1,3,3.1c1.3,0,2.5-0.8,2.9-2l8.6,0.1l0,2.2l-4.2-0.1
				c-0.5,0-1,0.4-1,1c0,0.5,0.4,1,1,1l4.2,0.1l0,2.2l-15.6-0.2c-0.5,0-1,0.4-1,1c0,0.5,0.4,1,1,1l15.6,0.2l0,2.2l-4.2-0.1
				c-0.5,0-1,0.4-1,1c0,0.5,0.4,1,1,1l4.2,0.1l0,2.2l-2.9,0c-1.1,0-2.1,0.4-2.9,1.2l-6.5,6.3c-0.4-0.2-0.9-0.3-1.3-0.3
				c-0.8,0-1.6,0.3-2.2,0.9c-0.6,0.6-0.9,1.3-0.9,2.1c0,0.8,0.3,1.6,0.9,2.2c0.6,0.6,1.3,0.9,2.1,0.9c0.8,0,1.6-0.3,2.2-0.9
				c0.6-0.6,0.9-1.3,0.9-2.1c0-0.5-0.1-0.9-0.3-1.4l6.5-6.3c0.4-0.4,0.9-0.6,1.5-0.6l2.9,0l0,2.1c0,2.8,2.2,5.1,5,5.2l2.1,0
				l-0.1,8.6c-1.2,0.4-2.1,1.5-2.1,2.9c0,1.7,1.3,3.1,3,3.1c1.7,0,3.1-1.3,3.1-3c0-1.3-0.8-2.5-2-2.9l0.1-8.6l2.2,0l-0.1,4.2
				c0,0.5,0.4,1,1,1s1-0.4,1-1l0.1-4.2l2.2,0l-0.2,15.6c0,0.5,0.4,1,1,1c0.5,0,1-0.4,1-1l0.2-15.6l2.2,0l-0.1,4.2c0,0.5,0.4,1,1,1
				c0.5,0,1-0.4,1-1l0.1-4.2l2.2,0l0,2.9c0,1.1,0.4,2.1,1.2,2.9l6.3,6.5c-0.6,1.1-0.4,2.5,0.5,3.5c0.6,0.6,1.4,0.9,2.1,0.9
				c0.8,0,1.6-0.3,2.2-0.9C383.5,1020.7,383.5,1018.8,382.4,1017.6z M335.1,981.9c-0.6,0-1.1-0.5-1.1-1.1c0-0.6,0.5-1.1,1.1-1.1
				c0.6,0,1.1,0.5,1.1,1.1C336.2,981.4,335.7,981.9,335.1,981.9z M333.5,1007.4c-0.2,0.2-0.5,0.3-0.8,0.3c-0.3,0-0.6-0.1-0.8-0.3
				c-0.2-0.2-0.3-0.5-0.3-0.8c0-0.3,0.1-0.6,0.3-0.8c0.2-0.2,0.5-0.3,0.8-0.3c0.3,0,0.6,0.1,0.8,0.3c0.2,0.2,0.3,0.5,0.3,0.8
				C333.8,1006.9,333.7,1007.2,333.5,1007.4z M355.4,1017.3c0,0.6-0.5,1.1-1.1,1.1c-0.6,0-1.1-0.5-1.1-1.1s0.5-1.1,1.1-1.1
				C355,1016.2,355.4,1016.7,355.4,1017.3z M381,1020.5c-0.4,0.4-1.1,0.4-1.6,0c-0.4-0.4-0.4-1.1,0-1.6c0.2-0.2,0.5-0.3,0.8-0.3
				c0.3,0,0.6,0.1,0.8,0.3C381.4,1019.4,381.4,1020.1,381,1020.5z"/>
		</g>
	</g>
	<g class="st9">
		<g>
			<path class="st0" d="M373.3,987c0-2.1-1.5-3.8-3.5-4.4c0.1-0.3,0.1-0.5,0.1-0.8c0-2-1.7-3.6-3.8-3.6c-1.2,0-2.2,0.4-2.9,1.2
				c-0.7-0.8-1.7-1.2-2.9-1.2c-2.1,0-3.9,1.5-3.9,3.5c0,0.3,0,0.5,0.1,0.8c-2.1,0.5-3.6,2.3-3.7,4.3c0,1,0.3,2,1,2.8
				c-0.7,0.8-1,1.8-1.1,2.9c0,1.6,0.8,3.2,2.3,4.2c0,0,0,0,0,0c0,2.2,1.9,4.1,4.4,4.1c1.4,0,2.7-0.6,3.5-1.5c0.8,1,2.1,1.6,3.5,1.6
				c2.4,0,4.3-1.6,4.5-3.8c1.5-0.8,2.4-2.3,2.4-3.8c0-1.2-0.5-2.3-1.3-3.1C372.8,989.2,373.3,988.1,373.3,987z M369.8,990.9
				c0.9,0.5,1.5,1.4,1.5,2.3c0,0.7-0.3,1.3-0.9,1.8c-0.5-1-1.4-1.7-2.5-2.1c-0.5-0.2-1.1,0.1-1.2,0.6c-0.2,0.5,0.1,1.1,0.6,1.2
				c1,0.3,1.6,1.1,1.6,2c0,1.2-1.2,2.1-2.6,2.1c-1.4,0-2.5-1-2.5-2.2l0.1-6.2c0-1.2,1.2-2.1,2.6-2.1c0.5,0,1-0.4,1-1
				c0-0.5-0.4-1-1-1c-0.9,0-1.8,0.2-2.5,0.7l0-1.2c0-0.5-0.4-1-1-1c-0.5,0-1,0.4-1,1l-0.1,5.4c-0.3-0.2-0.7-0.4-1.1-0.5
				c-0.5-0.2-1.1,0.1-1.2,0.6c-0.2,0.5,0.1,1.1,0.6,1.2c1,0.3,1.6,1.1,1.6,2l0,2.1c0,1.2-1.2,2.1-2.6,2.1c-1.4,0-2.5-1-2.5-2.2
				c0-0.5,0.2-1,0.6-1.4c0.4-0.4,0.4-1,0-1.4c-0.4-0.4-1-0.4-1.4,0c-0.2,0.2-0.4,0.5-0.6,0.7c-0.6-0.6-1-1.4-0.9-2.1
				c0-1.4,1.2-2.7,2.8-3c0.5-0.1,0.9-0.6,0.7-1.2c-0.1-0.5-0.6-0.9-1.2-0.7c-0.7,0.1-1.3,0.4-1.8,0.7c-0.3-0.4-0.5-0.9-0.5-1.5
				c0-1.5,1.4-2.6,3.1-2.6c0,0,0,0,0,0c0.2,0,0.4-0.1,0.6-0.2c0.4-0.3,0.5-0.8,0.2-1.2c0,0,0,0,0,0c0,0,0,0,0,0c0,0,0,0,0-0.1
				c0,0,0,0,0,0c-0.2-0.2-0.3-0.5-0.3-0.9c0-0.9,0.9-1.6,2-1.6c1.1,0,1.9,0.8,1.9,1.6c0,0.5,0.4,1,1,1s1-0.4,1-1
				c0-0.9,0.9-1.6,2-1.6s1.9,0.8,1.9,1.6c0,0.2-0.1,0.4-0.2,0.6c-0.6,0-1.1,0.2-1.6,0.4c-0.5,0.2-0.7,0.8-0.5,1.3
				c0.2,0.5,0.8,0.7,1.3,0.5c0.4-0.2,0.9-0.3,1.3-0.3c0,0,0,0,0,0c0,0,0,0,0,0c1.7,0,3.1,1.2,3,2.7c0,0.9-0.6,1.7-1.5,2.2
				c-0.3,0.2-0.5,0.5-0.5,0.8S369.5,990.7,369.8,990.9z"/>
		</g>
	</g>
</g>
<g id="man" class="st8">
	<g class="st9">
		<g>
			<g>
				<path class="st12" d="M372.5,1265.3h8.4c7.7,0,14-6.3,14-14v-17.2c0-7.7-6.3-14-14-14h-8.4c-7.7,0-14,6.3-14,14v17.2
					C358.5,1259,364.8,1265.3,372.5,1265.3z M361.4,1234.1c0-6.1,5-11.1,11.1-11.1h8.4c6.1,0,11.1,5,11.1,11.1v17.2
					c0,6.1-5,11.1-11.1,11.1h-8.4c-6.1,0-11.1-5-11.1-11.1V1234.1z"/>
				<path class="st12" d="M371.6,1268.2c0-0.9-0.6-1.5-1.5-1.5c-0.9,0-1.5,0.6-1.5,1.5v1.5c0,2.5-1.9,4.4-4.4,4.4h-10.2
					c-4.1,0-7.3,3.2-7.3,7.3c0,0.9,0.6,1.5,1.5,1.5c0.9,0,1.5-0.6,1.5-1.5c0-2.5,1.9-4.4,4.4-4.4h10.2c4.1,0,7.3-3.2,7.3-7.3V1268.2
					z"/>
				<path class="st12" d="M397.8,1274h-10.2c-2.5,0-4.4-1.9-4.4-4.4v-1.5c0-0.9-0.6-1.5-1.5-1.5s-1.5,0.6-1.5,1.5v1.5
					c0,4.1,3.2,7.3,7.3,7.3h10.2c2.5,0,4.4,1.9,4.4,4.4v30.6c0,0.9,0.6,1.5,1.5,1.5c0.9,0,1.5-0.6,1.5-1.5v-30.6
					C405.1,1277.2,401.9,1274,397.8,1274z"/>
				<path class="st13" d="M336.6,1292.8c-3.2,0-5.8,2.6-5.8,5.8s2.6,5.8,5.8,5.8c3.2,0,5.8-2.6,5.8-5.8S339.8,1292.8,336.6,1292.8z
					 M336.6,1301.5c-1.6,0-2.9-1.3-2.9-2.9c0-1.6,1.3-2.9,2.9-2.9s2.9,1.3,2.9,2.9C339.6,1300.2,338.2,1301.5,336.6,1301.5z"/>
				<circle class="st12" cx="368.5" cy="1241.4" r="2"/>
				<circle class="st12" cx="384.9" cy="1241.4" r="2"/>
				<path class="st12" d="M381.7,1253.2l-1.2,1.2c-0.7,0.7-1.7,1.2-2.8,1.2h-3.6c-1,0-2-0.4-2.8-1.2l-1.2-1.2c-0.6-0.6-1.5-0.6-2,0
					c-0.6,0.6-0.6,1.5,0,2l1.2,1.2c1.3,1.3,3.1,2,5,2h3.6c1.9,0,3.5-0.7,4.7-2l1.2-1.2c0.6-0.6,0.6-1.5,0-2
					S382.2,1252.6,381.7,1253.2z"/>
				<path class="st12" d="M375.4,1234.4l3.5-2.6v1.5c0,0.9,0.6,1.5,1.5,1.5h8.7c0.9,0,1.5-0.6,1.5-1.5s-0.6-1.5-1.5-1.5h-7.3v-2.9
					c0-0.6-0.3-1-0.9-1.3c-0.4-0.3-1-0.1-1.5,0.1l-5.4,4.1h-9.8c-0.9,0-1.5,0.6-1.5,1.5s0.6,1.5,1.5,1.5h10.2
					C374.8,1234.7,375.1,1234.5,375.4,1234.4z"/>
				<path class="st12" d="M394.9,1285.7c-0.9,0-1.5,0.6-1.5,1.5v16h-21.9c-0.4,0-0.7,0.1-1,0.4l-2.9,2.9c-0.6,0.6-0.6,1.5,0,2
					c0.3,0.3,0.6,0.4,1,0.4s0.7-0.1,1-0.4l2.5-2.5h22.7c0.9,0,1.5-0.6,1.5-1.5v-17.5C396.4,1286.2,395.8,1285.7,394.9,1285.7z"/>
				<path class="st12" d="M378.9,1300.2c0.9,0,1.5-0.6,1.5-1.5v-13.1c0.9,0,1.5-0.6,1.5-1.5v-7.3c0-0.9-0.6-1.5-1.5-1.5h-8.7
					c-0.9,0-1.5,0.6-1.5,1.5v7.3c0,0.9,0.6,1.5,1.5,1.5v13.1c0,0.9,0.6,1.5,1.5,1.5c0.9,0,1.5-0.6,1.5-1.5v-13.1h2.9v13.1
					C377.4,1299.6,378,1300.2,378.9,1300.2z M373.1,1278.4h5.8v4.4h-5.8V1278.4z"/>
				<path class="st12" d="M384.7,1310.4h-20.4v-23.3c0-0.9-0.6-1.5-1.5-1.5h-49.5c-0.9,0-1.5,0.6-1.5,1.5v24.8
					c0,0.9,0.6,1.5,1.5,1.5h49.5h21.9c0.9,0,1.5-0.6,1.5-1.5S385.6,1310.4,384.7,1310.4z M314.8,1288.6h46.6v21.9h-46.6V1288.6z"/>
				<circle class="st12" cx="333.7" cy="1271.1" r="1.5"/>
				<circle class="st12" cx="333.7" cy="1221.6" r="1.5"/>
				<circle class="st12" cx="314.8" cy="1246.3" r="1.5"/>
				<circle class="st12" cx="314.8" cy="1259.4" r="1.5"/>
				<circle class="st12" cx="352.7" cy="1246.3" r="1.5"/>
				<circle class="st12" cx="352.7" cy="1233.2" r="1.5"/>
				<circle class="st12" cx="314.8" cy="1233.2" r="1.5"/>
				<circle class="st12" cx="352.7" cy="1259.4" r="1.5"/>
				<path class="st13" d="M320.6,1244.9c0.3,0,0.4,0,0.7-0.1l24.8-14.6c0.7-0.4,0.9-1.3,0.6-2c-0.4-0.7-1.3-0.9-2-0.6l-24.8,14.6
					c-0.7,0.4-0.9,1.3-0.6,2C319.6,1244.6,320.2,1244.9,320.6,1244.9z"/>
				<path class="st12" d="M319.2,1265.3h29.1c0.9,0,1.5-0.6,1.5-1.5c0-0.9-0.6-1.5-1.5-1.5h-1.5V1239c0-0.9-0.6-1.5-1.5-1.5
					s-1.5,0.6-1.5,1.5v23.3H341v-21.9c0-0.9-0.6-1.5-1.5-1.5s-1.5,0.6-1.5,1.5v21.9h-2.9v-18.9c0-0.9-0.6-1.5-1.5-1.5
					c-0.9,0-1.5,0.6-1.5,1.5v18.9h-2.9v-16c0-0.9-0.6-1.5-1.5-1.5c-0.9,0-1.5,0.6-1.5,1.5v16h-2.9v-11.7c0-0.9-0.6-1.5-1.5-1.5
					c-0.9,0-1.5,0.6-1.5,1.5v11.7h-1.5c-0.9,0-1.5,0.6-1.5,1.5C317.7,1264.7,318.3,1265.3,319.2,1265.3z"/>
			</g>
		</g>
	</g>
	<g class="st9">
		<g>
			<path class="st13" d="M346,1227.5l-5.8-1.5c-0.7-0.3-1.6,0.3-1.7,1c-0.3,0.7,0.3,1.6,1,1.7l4.4,1.2l-1.2,4.4
				c-0.3,0.7,0.3,1.6,1,1.7c0,0,0.1,0,0.3,0c0.6,0,1.3-0.4,1.6-1l1.5-5.8C347.3,1228.6,346.7,1227.7,346,1227.5z"/>
		</g>
	</g>
</g>
<g id="square-content" class="st8">
	<path class="st14" d="M578,286.7l-3.4,6.8c-0.3,0.6-1,0.8-1.5,0.5l-6.8-3.4c-0.6-0.3-0.8-1-0.5-1.5l3.4-6.8c0.3-0.6,1-0.8,1.5-0.5
		l6.8,3.4C578,285.5,578.3,286.1,578,286.7z"/>
	<path class="st14" d="M649.8,271.3l-7.1,2.7c-0.6,0.2-1.3-0.1-1.5-0.7l-2.7-7.1c-0.2-0.6,0.1-1.3,0.7-1.5l7.1-2.7
		c0.6-0.2,1.3,0.1,1.5,0.7l2.7,7.1C650.6,270.4,650.3,271.1,649.8,271.3z"/>
	<path class="st15" d="M680.4,276.9h-7.6c-0.6,0-1.1-0.5-1.1-1.1v-7.6c0-0.6,0.5-1.1,1.1-1.1h7.6c0.6,0,1.1,0.5,1.1,1.1v7.6
		C681.5,276.4,681,276.9,680.4,276.9z"/>
	<path class="st14" d="M575.2,323.1h-7.6c-0.6,0-1.1-0.5-1.1-1.1v-7.6c0-0.6,0.5-1.1,1.1-1.1h7.6c0.6,0,1.1,0.5,1.1,1.1v7.6
		C576.4,322.6,575.9,323.1,575.2,323.1z"/>
	<path class="st14" d="M614.6,298l-6.9-3.1c-0.6-0.3-0.8-0.9-0.6-1.5l3.1-6.9c0.3-0.6,0.9-0.8,1.5-0.6l6.9,3.1
		c0.6,0.3,0.8,0.9,0.6,1.5l-3.1,6.9C615.9,297.9,615.2,298.2,614.6,298z"/>
	<path class="st14" d="M630.7,317.5l-6.8,3.4c-0.6,0.3-1.3,0.1-1.5-0.5l-3.4-6.8c-0.3-0.6-0.1-1.3,0.5-1.5l6.8-3.4
		c0.6-0.3,1.3-0.1,1.5,0.5l3.4,6.8C631.5,316.5,631.3,317.2,630.7,317.5z"/>
	<path class="st14" d="M439.2,312.1h-7.6c-0.6,0-1.1-0.5-1.1-1.1v-7.6c0-0.6,0.5-1.1,1.1-1.1h7.6c0.6,0,1.1,0.5,1.1,1.1v7.6
		C440.3,311.6,439.8,312.1,439.2,312.1z"/>
	<path class="st14" d="M460.9,342.3h-7.6c-0.6,0-1.1-0.5-1.1-1.1v-7.6c0-0.6,0.5-1.1,1.1-1.1h7.6c0.6,0,1.1,0.5,1.1,1.1v7.6
		C462.1,341.8,461.6,342.3,460.9,342.3z"/>
	<path class="st14" d="M462.3,372h-7.6c-0.6,0-1.1-0.5-1.1-1.1v-7.6c0-0.6,0.5-1.1,1.1-1.1h7.6c0.6,0,1.1,0.5,1.1,1.1v7.6
		C463.4,371.5,462.9,372,462.3,372z"/>
	<path class="st14" d="M429.3,357.1h-7.6c-0.6,0-1.1-0.5-1.1-1.1v-7.6c0-0.6,0.5-1.1,1.1-1.1h7.6c0.6,0,1.1,0.5,1.1,1.1v7.6
		C430.5,356.6,430,357.1,429.3,357.1z"/>
	<path class="st14" d="M431.7,382.5l-7.4,1.6c-0.6,0.1-1.2-0.3-1.4-0.9l-1.6-7.4c-0.1-0.6,0.3-1.2,0.9-1.4l7.4-1.6
		c0.6-0.1,1.2,0.3,1.4,0.9l1.6,7.4C432.7,381.8,432.3,382.4,431.7,382.5z"/>
	<path class="st14" d="M448,387.4h-7.6c-0.6,0-1.1-0.5-1.1-1.1v-7.6c0-0.6,0.5-1.1,1.1-1.1h7.6c0.6,0,1.1,0.5,1.1,1.1v7.6
		C449.1,386.8,448.6,387.4,448,387.4z"/>
	<path class="st14" d="M389.9,480.8l-5-5.7c-0.4-0.5-0.4-1.2,0.1-1.6l5.7-5c0.5-0.4,1.2-0.4,1.6,0.1l5,5.7c0.4,0.5,0.4,1.2-0.1,1.6
		l-5.7,5C391,481.3,390.3,481.3,389.9,480.8z"/>
	<path class="st14" d="M407.6,488.7l-2.6-7.1c-0.2-0.6,0.1-1.3,0.7-1.5l7.1-2.6c0.6-0.2,1.3,0.1,1.5,0.7l2.6,7.1
		c0.2,0.6-0.1,1.3-0.7,1.5l-7.1,2.6C408.5,489.6,407.8,489.3,407.6,488.7z"/>
	<path class="st14" d="M347.8,525.1h-7.6c-0.6,0-1.1-0.5-1.1-1.1v-7.6c0-0.6,0.5-1.1,1.1-1.1h7.6c0.6,0,1.1,0.5,1.1,1.1v7.6
		C349,524.6,348.5,525.1,347.8,525.1z"/>
	<path class="st15" d="M396.7,499.9h-7.6c-0.6,0-1.1-0.5-1.1-1.1v-7.6c0-0.6,0.5-1.1,1.1-1.1h7.6c0.6,0,1.1,0.5,1.1,1.1v7.6
		C397.8,499.4,397.3,499.9,396.7,499.9z"/>
	<path class="st14" d="M380.3,504.4l-6.6,3.8c-0.5,0.3-1.3,0.1-1.6-0.4l-3.8-6.6c-0.3-0.5-0.1-1.3,0.4-1.6l6.6-3.8
		c0.5-0.3,1.3-0.1,1.6,0.4l3.8,6.6C381.1,503.4,380.9,504.1,380.3,504.4z"/>
	<path class="st14" d="M363.6,531.2l-5-5.7c-0.4-0.5-0.4-1.2,0.1-1.6l5.7-5c0.5-0.4,1.2-0.4,1.6,0.1l5,5.7c0.4,0.5,0.4,1.2-0.1,1.6
		l-5.7,5C364.8,531.7,364.1,531.7,363.6,531.2z"/>
	<path class="st14" d="M255.8,319h-7.6c-0.6,0-1.1-0.5-1.1-1.1v-7.6c0-0.6,0.5-1.1,1.1-1.1h7.6c0.6,0,1.1,0.5,1.1,1.1v7.6
		C257,318.5,256.5,319,255.8,319z"/>
	<path class="st14" d="M269.6,334.2l-7.2,2.2c-0.6,0.2-1.2-0.2-1.4-0.8l-2.2-7.2c-0.2-0.6,0.2-1.2,0.8-1.4l7.2-2.2
		c0.6-0.2,1.2,0.2,1.4,0.8l2.2,7.2C270.6,333.3,270.2,334,269.6,334.2z"/>
	<path class="st14" d="M319.6,342.3H312c-0.6,0-1.1-0.5-1.1-1.1v-7.6c0-0.6,0.5-1.1,1.1-1.1h7.6c0.6,0,1.1,0.5,1.1,1.1v7.6
		C320.7,341.8,320.2,342.3,319.6,342.3z"/>
	<path class="st14" d="M208.4,326.9l-1.6-7.4c-0.1-0.6,0.3-1.2,0.9-1.4l7.4-1.6c0.6-0.1,1.2,0.3,1.4,0.9l1.6,7.4
		c0.1,0.6-0.3,1.2-0.9,1.4l-7.4,1.6C209.2,327.9,208.6,327.5,208.4,326.9z"/>
	<path class="st15" d="M241.3,340.6l-6.6-3.8c-0.5-0.3-0.7-1-0.4-1.6l3.8-6.6c0.3-0.5,1-0.7,1.6-0.4l6.6,3.8c0.5,0.3,0.7,1,0.4,1.6
		l-3.8,6.6C242.6,340.7,241.8,340.9,241.3,340.6z"/>
	<path class="st14" d="M287.8,345.5l-6.2-4.4c-0.5-0.4-0.6-1.1-0.3-1.6l4.4-6.2c0.4-0.5,1.1-0.6,1.6-0.3l6.2,4.4
		c0.5,0.4,0.6,1.1,0.3,1.6l-4.4,6.2C289.1,345.7,288.3,345.9,287.8,345.5z"/>
	<path class="st15" d="M365.1,721.3l-6.2-4.4c-0.5-0.4-0.6-1.1-0.3-1.6l4.4-6.2c0.4-0.5,1.1-0.6,1.6-0.3l6.2,4.4
		c0.5,0.4,0.6,1.1,0.3,1.6l-4.4,6.2C366.3,721.6,365.6,721.7,365.1,721.3z"/>
	<path class="st14" d="M387.6,347.8l-6.9-3.1c-0.6-0.3-0.8-0.9-0.6-1.5l3.1-6.9c0.3-0.6,0.9-0.8,1.5-0.6l6.9,3.1
		c0.6,0.3,0.8,0.9,0.6,1.5l-3.1,6.9C388.8,347.8,388.2,348.1,387.6,347.8z"/>
	<path class="st15" d="M405.5,355.4l-6-4.6c-0.5-0.4-0.6-1.1-0.2-1.6l4.6-6c0.4-0.5,1.1-0.6,1.6-0.2l6,4.6c0.5,0.4,0.6,1.1,0.2,1.6
		l-4.6,6C406.7,355.7,406,355.8,405.5,355.4z"/>
	<path class="st14" d="M413.5,376.9H406c-0.6,0-1.1-0.5-1.1-1.1v-7.6c0-0.6,0.5-1.1,1.1-1.1h7.6c0.6,0,1.1,0.5,1.1,1.1v7.6
		C414.7,376.4,414.2,376.9,413.5,376.9z"/>
	<path class="st14" d="M391.8,367h-7.6c-0.6,0-1.1-0.5-1.1-1.1v-7.6c0-0.6,0.5-1.1,1.1-1.1h7.6c0.6,0,1.1,0.5,1.1,1.1v7.6
		C392.9,366.5,392.4,367,391.8,367z"/>
	<path class="st14" d="M398.3,385.2h-7.6c-0.6,0-1.1-0.5-1.1-1.1v-7.6c0-0.6,0.5-1.1,1.1-1.1h7.6c0.6,0,1.1,0.5,1.1,1.1v7.6
		C399.5,384.7,399,385.2,398.3,385.2z"/>
	<path class="st14" d="M475.2,312.1h-7.6c-0.6,0-1.1-0.5-1.1-1.1v-7.6c0-0.6,0.5-1.1,1.1-1.1h7.6c0.6,0,1.1,0.5,1.1,1.1v7.6
		C476.3,311.6,475.8,312.1,475.2,312.1z"/>
	<path class="st14" d="M548.8,309.8h-7.6c-0.6,0-1.1-0.5-1.1-1.1v-7.6c0-0.6,0.5-1.1,1.1-1.1h7.6c0.6,0,1.1,0.5,1.1,1.1v7.6
		C550,309.3,549.5,309.8,548.8,309.8z"/>
	<path class="st15" d="M534.7,337.4h-7.6c-0.6,0-1.1-0.5-1.1-1.1v-7.6c0-0.6,0.5-1.1,1.1-1.1h7.6c0.6,0,1.1,0.5,1.1,1.1v7.6
		C535.8,336.9,535.3,337.4,534.7,337.4z"/>
	<path class="st14" d="M494.5,332h-7.6c-0.6,0-1.1-0.5-1.1-1.1v-7.6c0-0.6,0.5-1.1,1.1-1.1h7.6c0.6,0,1.1,0.5,1.1,1.1v7.6
		C495.6,331.5,495.1,332,494.5,332z"/>
	<path class="st14" d="M512.9,308.9l-7.4,1.6c-0.6,0.1-1.2-0.3-1.4-0.9l-1.6-7.4c-0.1-0.6,0.3-1.2,0.9-1.4l7.4-1.6
		c0.6-0.1,1.2,0.3,1.4,0.9l1.6,7.4C514,308.2,513.6,308.8,512.9,308.9z"/>
	<path class="st14" d="M513.1,362.3h-7.6c-0.6,0-1.1-0.5-1.1-1.1v-7.6c0-0.6,0.5-1.1,1.1-1.1h7.6c0.6,0,1.1,0.5,1.1,1.1v7.6
		C514.3,361.7,513.8,362.3,513.1,362.3z"/>
	<path class="st14" d="M154.9,301.1h-7.6c-0.6,0-1.1-0.5-1.1-1.1v-7.6c0-0.6,0.5-1.1,1.1-1.1h7.6c0.6,0,1.1,0.5,1.1,1.1v7.6
		C156.1,300.6,155.6,301.1,154.9,301.1z"/>
	<path class="st14" d="M183.5,314h-7.6c-0.6,0-1.1-0.5-1.1-1.1v-7.6c0-0.6,0.5-1.1,1.1-1.1h7.6c0.6,0,1.1,0.5,1.1,1.1v7.6
		C184.6,313.5,184.1,314,183.5,314z"/>
	<path class="st14" d="M192.7,343.3l-7.4,1.6c-0.6,0.1-1.2-0.3-1.4-0.9l-1.6-7.4c-0.1-0.6,0.3-1.2,0.9-1.4l7.4-1.6
		c0.6-0.1,1.2,0.3,1.4,0.9l1.6,7.4C193.7,342.6,193.3,343.2,192.7,343.3z"/>
	<path class="st14" d="M120.5,306.1H113c-0.6,0-1.1-0.5-1.1-1.1v-7.6c0-0.6,0.5-1.1,1.1-1.1h7.6c0.6,0,1.1,0.5,1.1,1.1v7.6
		C121.7,305.5,121.2,306.1,120.5,306.1z"/>
	<path class="st15" d="M146,322.4l-4.1-6.3c-0.3-0.5-0.2-1.2,0.3-1.6l6.3-4.1c0.5-0.3,1.2-0.2,1.6,0.3l4.1,6.3
		c0.3,0.5,0.2,1.2-0.3,1.6l-6.3,4.1C147,323,146.3,322.9,146,322.4z"/>
	<path class="st14" d="M269.3,360.2l-7,2.9c-0.6,0.2-1.3,0-1.5-0.6l-2.9-7c-0.2-0.6,0-1.3,0.6-1.5l7-2.9c0.6-0.2,1.3,0,1.5,0.6
		l2.9,7C270.1,359.3,269.8,360,269.3,360.2z"/>
	<path class="st14" d="M340.6,541.7l-6.9-3.1c-0.6-0.3-0.8-0.9-0.6-1.5l3.1-6.9c0.3-0.6,0.9-0.8,1.5-0.6l6.9,3.1
		c0.6,0.3,0.8,0.9,0.6,1.5l-3.1,6.9C341.9,541.7,341.2,541.9,340.6,541.7z"/>
	<path class="st14" d="M327.8,525.1h-7.6c-0.6,0-1.1-0.5-1.1-1.1v-7.6c0-0.6,0.5-1.1,1.1-1.1h7.6c0.6,0,1.1,0.5,1.1,1.1v7.6
		C329,524.6,328.5,525.1,327.8,525.1z"/>
	<path class="st14" d="M383.5,540.5h-7.6c-0.6,0-1.1-0.5-1.1-1.1v-7.6c0-0.6,0.5-1.1,1.1-1.1h7.6c0.6,0,1.1,0.5,1.1,1.1v7.6
		C384.7,540,384.2,540.5,383.5,540.5z"/>
	<path class="st14" d="M310.5,443.3h-7.6c-0.6,0-1.1-0.5-1.1-1.1v-7.6c0-0.6,0.5-1.1,1.1-1.1h7.6c0.6,0,1.1,0.5,1.1,1.1v7.6
		C311.6,442.8,311.1,443.3,310.5,443.3z"/>
	<path class="st14" d="M357.2,340.1l-6.8,3.4c-0.6,0.3-1.3,0.1-1.5-0.5l-3.4-6.8c-0.3-0.6-0.1-1.3,0.5-1.5l6.8-3.4
		c0.6-0.3,1.3-0.1,1.5,0.5l3.4,6.8C358,339.1,357.7,339.8,357.2,340.1z"/>
	<circle class="st16" cx="372.1" cy="713.2" r="2.8"/>
	<polyline class="st17" points="370.8,713.3 371.8,714.4 373.3,712.4 	"/>
</g>
<g id="funnel" class="st8">
	<g id="cog_1_" class="st9">
		<path class="st18" d="M378.3,380.6h-5.6c-0.8-3.4-2.2-6.7-4-9.7l3.9-3.9c0.6-0.6,0.6-1.6,0-2.2l-9.4-9.4c-0.6-0.6-1.6-0.6-2.3,0
			l-3.9,3.9c-3-1.8-6.3-3.2-9.7-4v-5.6c0-0.9-0.7-1.6-1.6-1.6h-13.3c-0.9,0-1.6,0.7-1.6,1.6v5.6c-3.4,0.8-6.7,2.2-9.7,4l-3.9-3.9
			c-0.6-0.6-1.6-0.6-2.2,0l-9.4,9.4c-0.6,0.6-0.6,1.6,0,2.2l3.9,3.9c-1.8,3-3.2,6.3-4,9.7h-5.6c-0.9,0-1.6,0.7-1.6,1.6v13.3
			c0,0.9,0.7,1.6,1.6,1.6h5.6c0.8,3.4,2.2,6.7,4,9.7l-3.9,3.9c-0.3,0.3-0.5,0.7-0.5,1.1s0.2,0.8,0.5,1.1l9.4,9.4
			c0.6,0.6,1.6,0.6,2.2,0l3.9-3.9c3,1.8,6.3,3.2,9.7,4v5.6c0,0.9,0.7,1.6,1.6,1.6h13.3c0.9,0,1.6-0.7,1.6-1.6v-5.6
			c3.4-0.8,6.7-2.2,9.7-4l3.9,3.9c0.6,0.6,1.6,0.6,2.2,0l9.4-9.4c0.6-0.6,0.6-1.6,0-2.2l-3.9-3.9c1.8-3,3.2-6.3,4-9.7h5.6
			c0.9,0,1.6-0.7,1.6-1.6v-13.3C379.9,381.3,379.2,380.6,378.3,380.6z M376.7,393.8h-5.3c-0.8,0-1.4,0.5-1.6,1.3
			c-0.8,3.9-2.3,7.6-4.5,10.9c-0.4,0.6-0.3,1.5,0.2,2l3.7,3.7l-7.1,7.1l-3.7-3.7c-0.5-0.5-1.4-0.6-2-0.2c-3.3,2.2-7,3.7-10.9,4.5
			c-0.7,0.2-1.3,0.8-1.3,1.6v5.3h-10.1v-5.3c0-0.8-0.5-1.4-1.3-1.6c-3.9-0.8-7.6-2.3-10.9-4.5c-0.6-0.4-1.5-0.3-2,0.2l-3.7,3.7
			l-7.1-7.1l3.7-3.7c0.5-0.5,0.6-1.4,0.2-2c-2.2-3.3-3.7-7-4.5-10.9c-0.2-0.7-0.8-1.3-1.6-1.3h-5.3v-10.1h5.3c0.8,0,1.4-0.5,1.6-1.3
			c0.8-3.9,2.3-7.6,4.5-10.9c0.4-0.6,0.3-1.5-0.2-2l-3.7-3.7l7.1-7.1l3.7,3.7c0.5,0.5,1.4,0.6,2,0.2c3.3-2.2,7-3.7,10.9-4.5
			c0.7-0.2,1.3-0.8,1.3-1.6v-5.3h10.1v5.3c0,0.8,0.5,1.4,1.3,1.6c3.9,0.8,7.6,2.3,10.9,4.5c0.6,0.4,1.5,0.3,2-0.2l3.7-3.7l7.1,7.1
			l-3.7,3.7c-0.5,0.5-0.6,1.4-0.2,2c2.2,3.3,3.7,7,4.5,10.9c0.2,0.7,0.8,1.3,1.6,1.3h5.3V393.8z"/>
		<path class="st0" d="M324.2,388.8c0-8.3,6.7-15,15-15c1.9,0,3.8,0.4,5.6,1.1c0.8,0.3,1.7-0.1,2.1-0.9c0.3-0.8-0.1-1.7-0.9-2.1
			c-2.2-0.9-4.5-1.3-6.8-1.3c-10,0-18.2,8.1-18.2,18.2c0,2.3,0.4,4.5,1.2,6.6c0.2,0.6,0.8,1,1.5,1c0.2,0,0.4,0,0.6-0.1
			c0.8-0.3,1.2-1.2,0.9-2.1C324.6,392.5,324.2,390.6,324.2,388.8z"/>
		<path class="st18" d="M353.7,380.7c-0.8,0.4-1.2,1.3-0.8,2.1c0.8,1.9,1.3,3.9,1.3,6c0,8.3-6.7,15-15,15c-2.2,0-4.3-0.5-6.2-1.3
			c-0.8-0.4-1.7,0-2.1,0.8s0,1.7,0.8,2.1c2.4,1.1,4.9,1.6,7.5,1.6c10,0,18.2-8.1,18.2-18.2c0-2.5-0.5-5-1.5-7.3
			C355.5,380.7,354.5,380.3,353.7,380.7z"/>
		<path class="st0" d="M327.2,398.6c-0.9,0-1.6,0.7-1.6,1.6s0.7,1.6,1.6,1.6c0.9,0,1.6-0.7,1.6-1.6S328,398.6,327.2,398.6z"/>
		<path class="st18" d="M350.8,378.5c0.9,0,1.6-0.7,1.6-1.6c0-0.9-0.7-1.6-1.6-1.6s-1.6,0.7-1.6,1.6
			C349.2,377.8,349.9,378.5,350.8,378.5z"/>
	</g>
	<g id="cog" class="st9">
		<path class="st18" d="M448.4,414.5l-5.5,0.8c-1.3-3.3-3.2-6.3-5.4-9l3.3-4.5c0.5-0.7,0.4-1.7-0.3-2.2l-10.7-7.9
			c-0.7-0.5-1.7-0.4-2.2,0.3l-3.3,4.5c-3.3-1.4-6.7-2.2-10.2-2.5l-0.8-5.5c-0.1-0.9-0.9-1.5-1.8-1.3l-13.1,2
			c-0.9,0.1-1.5,0.9-1.3,1.8l0.8,5.5c-3.3,1.3-6.3,3.2-9,5.4l-4.5-3.3c-0.7-0.5-1.7-0.4-2.2,0.3l-7.9,10.7c-0.5,0.7-0.4,1.7,0.3,2.2
			l4.5,3.3c-1.4,3.3-2.2,6.7-2.5,10.2l-5.5,0.8c-0.9,0.1-1.5,0.9-1.3,1.8l2,13.1c0.1,0.9,0.9,1.5,1.8,1.3l5.5-0.8
			c1.3,3.3,3.2,6.3,5.4,9l-3.3,4.5c-0.2,0.3-0.4,0.8-0.3,1.2s0.3,0.8,0.6,1l10.7,7.9c0.7,0.5,1.7,0.4,2.2-0.3l3.3-4.5
			c3.3,1.4,6.7,2.2,10.2,2.5l0.8,5.5c0.1,0.9,0.9,1.5,1.8,1.3l13.1-2c0.9-0.1,1.5-0.9,1.3-1.8l-0.8-5.5c3.3-1.3,6.3-3.2,9-5.4
			l4.5,3.3c0.7,0.5,1.7,0.4,2.2-0.3l7.9-10.7c0.5-0.7,0.4-1.7-0.3-2.2l-4.5-3.3c1.4-3.3,2.2-6.7,2.5-10.2l5.5-0.8
			c0.9-0.1,1.5-0.9,1.3-1.8l-2-13.1C450.1,414.9,449.2,414.3,448.4,414.5z M448.8,427.8l-5.2,0.8c-0.8,0.1-1.3,0.8-1.4,1.5
			c-0.2,4-1.2,7.8-2.8,11.4c-0.3,0.7-0.1,1.5,0.5,2l4.2,3.1l-6,8.1l-4.2-3.1c-0.6-0.5-1.5-0.4-2,0.1c-3,2.7-6.4,4.7-10.1,6.1
			c-0.7,0.3-1.2,1-1.1,1.7l0.8,5.2l-10,1.5l-0.8-5.2c-0.1-0.8-0.8-1.3-1.5-1.4c-4-0.2-7.8-1.2-11.4-2.8c-0.7-0.3-1.5-0.1-2,0.5
			l-3.1,4.2l-8.1-6l3.1-4.2c0.5-0.6,0.4-1.5-0.1-2c-2.7-3-4.7-6.4-6.1-10.1c-0.3-0.7-1-1.2-1.7-1.1l-5.2,0.8l-1.5-10l5.2-0.8
			c0.8-0.1,1.3-0.8,1.4-1.5c0.2-4,1.2-7.8,2.8-11.4c0.3-0.7,0.1-1.5-0.5-2l-4.2-3.1l6-8.1l4.2,3.1c0.6,0.5,1.5,0.4,2-0.1
			c3-2.7,6.4-4.7,10.1-6.1c0.7-0.3,1.2-1,1.1-1.7l-0.8-5.2l10-1.5l0.8,5.2c0.1,0.8,0.8,1.3,1.5,1.4c4,0.2,7.8,1.2,11.4,2.8
			c0.7,0.3,1.5,0.1,2-0.5l3.1-4.2l8.1,6l-3.1,4.2c-0.5,0.6-0.4,1.5,0.1,2c2.7,3,4.7,6.4,6.1,10.1c0.3,0.7,1,1.2,1.7,1.1l5.2-0.8
			L448.8,427.8z"/>
		<path class="st18" d="M396,429.1c-0.3-7,4.5-13.4,11.3-15.1c2.4-0.6,4.8-0.6,7.1-0.1c0.9,0.2,1.7-0.3,1.9-1.2
			c0.2-0.9-0.3-1.7-1.2-1.9c-2.8-0.7-5.8-0.7-8.7,0.1c-8.2,2-14.1,9.8-13.7,18.3c0.1,3,0.9,5.8,2.4,8.4c0.3,0.6,1,0.9,1.6,0.8
			c0.2,0,0.4-0.1,0.6-0.2c0.8-0.4,1-1.4,0.6-2.2C396.7,433.9,396.1,431.6,396,429.1z"/>
		<path class="st0" d="M424.1,418.3c-0.7,0.5-1,1.5-0.5,2.2c1.1,1.8,1.9,3.8,2.2,5.9c1.1,8-4.6,15.7-12.6,16.9
			c-2.1,0.3-4.3,0.2-6.3-0.4c-0.8-0.2-1.7,0.3-2,1.1c-0.2,0.8,0.3,1.7,1.1,2c2.6,0.7,5.3,0.9,7.9,0.4c9.5-1.6,16.2-10.6,15.1-20.1
			c-0.3-2.7-1.2-5.2-2.7-7.5C425.8,418.1,424.8,417.8,424.1,418.3z"/>
		<path class="st18" d="M400.5,440c-0.9,0.1-1.5,0.9-1.3,1.8s0.9,1.5,1.8,1.3c0.9-0.1,1.5-0.9,1.3-1.8S401.4,439.9,400.5,440z"/>
		<path class="st0" d="M420.8,416.6c0.9-0.1,1.5-0.9,1.3-1.8s-0.9-1.5-1.8-1.3c-0.9,0.1-1.5,0.9-1.3,1.8S419.9,416.7,420.8,416.6z"
			/>
	</g>
	<g id="cog_2_" class="st9">
		<path class="st18" d="M374.8,447.1l-5.1,2.2c-2.1-2.8-4.7-5.2-7.5-7.3l2-5.2c0.3-0.8-0.1-1.7-0.9-2.1l-12.3-4.9
			c-0.8-0.3-1.7,0.1-2.1,0.9l-2,5.2c-3.5-0.5-7-0.4-10.5,0.2l-2.2-5.1c-0.4-0.8-1.3-1.2-2.1-0.8l-12.2,5.3c-0.8,0.4-1.2,1.3-0.8,2.1
			l2.2,5.1c-2.8,2.1-5.2,4.7-7.3,7.5l-5.2-2c-0.8-0.3-1.7,0.1-2.1,0.9l-4.9,12.3c-0.3,0.8,0.1,1.7,0.9,2.1l5.2,2
			c-0.5,3.5-0.4,7,0.2,10.5l-5.1,2.2c-0.8,0.4-1.2,1.3-0.8,2.1l5.3,12.2c0.4,0.8,1.3,1.2,2.1,0.8l5.1-2.2c2.1,2.8,4.7,5.2,7.5,7.3
			l-2,5.2c-0.2,0.4-0.1,0.8,0,1.2c0.2,0.4,0.5,0.7,0.9,0.8l12.3,4.9c0.8,0.3,1.7-0.1,2.1-0.9l2-5.2c3.5,0.5,7,0.4,10.5-0.2l2.2,5.1
			c0.4,0.8,1.3,1.2,2.1,0.8l12.2-5.3c0.8-0.4,1.2-1.3,0.8-2.1l-2.2-5.1c2.8-2.1,5.2-4.7,7.3-7.5l5.2,2c0.8,0.3,1.7-0.1,2.1-0.9
			l4.9-12.3c0.3-0.8-0.1-1.7-0.9-2.1l-5.2-2c0.5-3.5,0.4-7-0.2-10.5l5.1-2.2c0.8-0.4,1.2-1.3,0.8-2.1l-5.3-12.2
			C376.6,447.1,375.6,446.7,374.8,447.1z M378.6,459.9l-4.8,2.1c-0.7,0.3-1.1,1.1-0.9,1.8c0.8,3.9,0.9,7.9,0.2,11.8
			c-0.1,0.8,0.3,1.5,1,1.8l4.9,1.9l-3.7,9.4l-4.9-1.9c-0.7-0.3-1.5,0-1.9,0.6c-2.2,3.3-4.9,6.2-8.2,8.5c-0.6,0.4-0.9,1.3-0.6,2
			l2.1,4.8l-9.2,4l-2.1-4.8c-0.3-0.7-1.1-1.1-1.8-0.9c-3.9,0.8-7.9,0.9-11.8,0.2c-0.8-0.1-1.5,0.3-1.8,1l-1.9,4.9l-9.4-3.7l1.9-4.9
			c0.3-0.7,0-1.5-0.6-1.9c-3.3-2.2-6.2-4.9-8.5-8.2c-0.4-0.6-1.3-0.9-2-0.6l-4.8,2.1l-4-9.2l4.8-2.1c0.7-0.3,1.1-1.1,0.9-1.8
			c-0.8-3.9-0.9-7.9-0.2-11.8c0.1-0.8-0.3-1.5-1-1.8l-4.9-1.9l3.7-9.4l4.9,1.9c0.7,0.3,1.5,0,1.9-0.6c2.2-3.3,4.9-6.2,8.2-8.5
			c0.6-0.4,0.9-1.3,0.6-2l-2.1-4.8l9.2-4l2.1,4.8c0.3,0.7,1.1,1.1,1.8,0.9c3.9-0.8,7.9-0.9,11.8-0.2c0.8,0.1,1.5-0.3,1.8-1l1.9-4.9
			l9.4,3.7l-1.9,4.9c-0.3,0.7,0,1.5,0.6,1.9c3.3,2.2,6.2,4.9,8.5,8.2c0.4,0.6,1.3,0.9,2,0.6l4.8-2.1L378.6,459.9z"/>
		<path class="st18" d="M327.9,474.6c-2.1-6.7,0.9-14.1,7.1-17.5c2.2-1.2,4.5-1.8,6.9-1.9c0.9,0,1.6-0.8,1.6-1.6
			c0-0.9-0.8-1.6-1.6-1.6c-2.9,0.1-5.7,0.8-8.4,2.3c-7.4,4.1-11.1,13.1-8.6,21.2c0.9,2.9,2.4,5.4,4.5,7.5c0.5,0.5,1.2,0.6,1.8,0.3
			c0.2-0.1,0.3-0.2,0.5-0.3c0.6-0.6,0.6-1.6,0-2.2C329.9,479.1,328.6,477,327.9,474.6z"/>
		<path class="st0" d="M352.3,457c-0.6,0.6-0.6,1.7,0.1,2.2c1.6,1.4,2.8,3.2,3.6,5.2c3.1,7.5-0.4,16.3-7.9,19.6
			c-2,0.9-4.1,1.3-6.2,1.2c-0.9,0-1.6,0.7-1.6,1.6s0.7,1.6,1.6,1.6c2.7,0,5.3-0.5,7.8-1.6c8.8-3.9,13-14.4,9.4-23.3
			c-1-2.5-2.5-4.7-4.5-6.6C353.9,456.3,352.9,456.4,352.3,457z"/>
		<path class="st18" d="M335,484c-0.8,0.3-1.2,1.3-0.8,2.1c0.3,0.8,1.3,1.2,2.1,0.8c0.8-0.3,1.2-1.3,0.8-2.1
			C336.8,484,335.9,483.6,335,484z"/>
		<path class="st18" d="M348.7,456.2c0.8-0.3,1.2-1.3,0.8-2.1c-0.3-0.8-1.3-1.2-2.1-0.8s-1.2,1.3-0.8,2.1
			C347,456.2,347.9,456.5,348.7,456.2z"/>
	</g>
	<g class="st9">
		<circle class="st0" cx="403.7" cy="581" r="1.2"/>
	</g>
	<g class="st9">
		<path class="st18" d="M351.9,692.5c-0.7,0-1.2-0.6-1.2-1.2v-57.9l-51.2-64h-2.7c-7.1,0-12.9-5.8-12.9-12.9v-7.8
			c0-0.7,0.6-1.2,1.2-1.2h159.5c0.7,0,1.2,0.6,1.2,1.2v6.5c0,7.8-6.4,14.2-14.2,14.2h-1.3l-51.2,64v38.5c-0.1,1.2-3.3,8.4-9.8,13.6
			c-4.3,3.5-9.5,5.8-14.9,6.7l-2.2,0.4C352,692.5,351.9,692.5,351.9,692.5z M353.1,689.9l2.4-0.6c4.4-1,8.6-3,12.1-5.8
			c3.8-3.1,6.8-7,8.7-11.5l0.2-0.4v-37.4h-23.5V689.9z M352.5,631.7h24.7l49.9-62.4H302.6L352.5,631.7z M286.3,556.5
			c0,5.7,4.7,10.4,10.4,10.4h134.9c6.5,0,11.7-5.3,11.7-11.7v-5.2h-157V556.5z"/>
	</g>
	<g class="st9">
		<path class="st0" d="M371.6,621.2c-0.2,0-0.5,0-0.8-0.3c-0.5-0.4-0.6-1.2-0.2-1.7l23.5-29.3c0.2-0.3,0.6-0.5,1-0.5
			c0.2,0,0.5,0,0.8,0.3c0.3,0.2,0.4,0.5,0.5,0.8c0,0.3-0.1,0.7-0.3,0.9l-23.5,29.3C372.3,621,372,621.2,371.6,621.2L371.6,621.2z"/>
	</g>
</g>
<g id="cards">
	<g id="puzzle_1_">
		<g id="XMLID_29_">
			<rect id="XMLID_41_" x="588.7" y="94" class="st19" width="128.2" height="159.8"/>
			<path id="XMLID_40_" class="st19" d="M603,215.8v17.5c0,1,1.1,1.6,1.9,1l12.7-8.8c0.7-0.5,0.7-1.5,0-2l-12.7-8.7
				C604.1,214.3,603,214.8,603,215.8z"/>
			<path id="XMLID_39_" class="st19" d="M645.3,185.4H604c-0.7,0-1.3-0.6-1.3-1.3V149c0-0.7,0.6-1.3,1.3-1.3h41.3
				c0.7,0,1.3,0.6,1.3,1.3v35.1C646.5,184.8,646,185.4,645.3,185.4z"/>
			<path id="XMLID_38_" class="st19" d="M684.9,129.6h-47.7c-2.2,0-4-1.8-4-4l0,0c0-2.2,1.8-4,4-4h47.7c2.2,0,4,1.8,4,4l0,0
				C688.9,127.8,687.1,129.6,684.9,129.6z"/>
			<path id="XMLID_37_" class="st19" d="M669.2,118.9h-32c-2.2,0-4-1.8-4-4l0,0c0-2.2,1.8-4,4-4h32c2.2,0,4,1.8,4,4l0,0
				C673.2,117.1,671.4,118.9,669.2,118.9z"/>
			<path id="XMLID_36_" class="st19" d="M619.1,129.6L619.1,129.6c-5.3,0-9.7-4.4-9.7-9.7l0,0c0-5.3,4.4-9.7,9.7-9.7l0,0
				c5.3,0,9.7,4.4,9.7,9.7l0,0C628.8,125.2,624.5,129.6,619.1,129.6z"/>
			<line id="XMLID_35_" class="st20" x1="630.8" y1="224.5" x2="699.5" y2="224.5"/>
			<circle id="XMLID_34_" class="st19" cx="650.4" cy="224.5" r="3.9"/>
			<path id="XMLID_33_" class="st19" d="M698.4,173.4h-41.6c-2.2,0-4-1.8-4-4l0,0c0-2.2,1.8-4,4-4h41.6c2.2,0,4,1.8,4,4l0,0
				C702.5,171.6,700.6,173.4,698.4,173.4z"/>
			<path id="XMLID_32_" class="st19" d="M698.4,185.4h-41.6c-2.2,0-4-1.8-4-4l0,0c0-2.2,1.8-4,4-4h41.6c2.2,0,4,1.8,4,4l0,0
				C702.5,183.6,700.6,185.4,698.4,185.4z"/>
			<path id="XMLID_31_" class="st19" d="M698.4,197.9h-90.3c-2.2,0-4-1.8-4-4l0,0c0-2.2,1.8-4,4-4h90.3c2.2,0,4,1.8,4,4l0,0
				C702.5,196.1,700.6,197.9,698.4,197.9z"/>
		</g>
		<g id="XMLID_7_">
			<rect id="XMLID_28_" x="588.7" y="94" class="st21" width="128.2" height="159.8"/>
			<path id="XMLID_23_" class="st19" d="M603,215.8v17.5c0,1,1.1,1.6,1.9,1l12.7-8.8c0.7-0.5,0.7-1.5,0-2l-12.7-8.7
				C604.1,214.3,603,214.8,603,215.8z"/>
			<path id="XMLID_22_" class="st22" d="M645.3,185.4H604c-0.7,0-1.3-0.6-1.3-1.3V149c0-0.7,0.6-1.3,1.3-1.3h41.3
				c0.7,0,1.3,0.6,1.3,1.3v35.1C646.5,184.8,646,185.4,645.3,185.4z"/>
			<path id="XMLID_15_" class="st23" d="M684.9,129.6h-47.7c-2.2,0-4-1.8-4-4l0,0c0-2.2,1.8-4,4-4h47.7c2.2,0,4,1.8,4,4l0,0
				C688.9,127.8,687.1,129.6,684.9,129.6z"/>
			<path id="XMLID_14_" class="st24" d="M669.2,118.9h-32c-2.2,0-4-1.8-4-4l0,0c0-2.2,1.8-4,4-4h32c2.2,0,4,1.8,4,4l0,0
				C673.2,117.1,671.4,118.9,669.2,118.9z"/>
			<path id="XMLID_13_" class="st24" d="M619.1,129.6L619.1,129.6c-5.3,0-9.7-4.4-9.7-9.7l0,0c0-5.3,4.4-9.7,9.7-9.7l0,0
				c5.3,0,9.7,4.4,9.7,9.7l0,0C628.8,125.2,624.5,129.6,619.1,129.6z"/>
			<line id="XMLID_12_" class="st25" x1="630.8" y1="224.5" x2="699.5" y2="224.5"/>
			<circle id="XMLID_11_" class="st19" cx="650.4" cy="224.5" r="3.9"/>
			<path id="XMLID_10_" class="st23" d="M698.4,173.4h-41.6c-2.2,0-4-1.8-4-4l0,0c0-2.2,1.8-4,4-4h41.6c2.2,0,4,1.8,4,4l0,0
				C702.5,171.6,700.6,173.4,698.4,173.4z"/>
			<path id="XMLID_9_" class="st23" d="M698.4,185.4h-41.6c-2.2,0-4-1.8-4-4l0,0c0-2.2,1.8-4,4-4h41.6c2.2,0,4,1.8,4,4l0,0
				C702.5,183.6,700.6,185.4,698.4,185.4z"/>
			<path id="XMLID_8_" class="st23" d="M698.4,197.9h-90.3c-2.2,0-4-1.8-4-4l0,0c0-2.2,1.8-4,4-4h90.3c2.2,0,4,1.8,4,4l0,0
				C702.5,196.1,700.6,197.9,698.4,197.9z"/>
		</g>
	</g>
	<g id="videoCard2_1_">
		<rect id="XMLID_6_" x="89.2" y="114.7" class="st21" width="128.2" height="159.8"/>
		<path id="XMLID_5_" class="st24" d="M119.6,150.2L119.6,150.2c-5.3,0-9.7-4.4-9.7-9.7l0,0c0-5.3,4.4-9.7,9.7-9.7l0,0
			c5.3,0,9.7,4.4,9.7,9.7l0,0C129.3,145.9,124.9,150.2,119.6,150.2z"/>
		<path id="XMLID_4_" class="st24" d="M169.7,139.5h-32c-2.2,0-4-1.8-4-4l0,0c0-2.2,1.8-4,4-4h32c2.2,0,4,1.8,4,4l0,0
			C173.7,137.7,171.9,139.5,169.7,139.5z"/>
		<path id="XMLID_3_" class="st23" d="M185.4,150.2h-47.7c-2.2,0-4-1.8-4-4l0,0c0-2.2,1.8-4,4-4h47.7c2.2,0,4,1.8,4,4l0,0
			C189.4,148.4,187.6,150.2,185.4,150.2z"/>
		<rect id="XMLID_2_" x="89.2" y="168.4" class="st22" width="128.2" height="73.5"/>
		<path id="XMLID_1_" class="st26" d="M143.4,196.5V214c0,1,1.1,1.6,1.9,1l12.7-8.8c0.7-0.5,0.7-1.5,0-2l-12.7-8.7
			C144.5,194.9,143.4,195.5,143.4,196.5z"/>
	</g>
	<g id="quizcard">
		<rect id="XMLID_129_" x="496.9" y="112.2" class="st21" width="128.2" height="159.8"/>
		<path id="XMLID_128_" class="st23" d="M609.4,173.9h-93.9c-2.2,0-4-1.8-4-4l0,0c0-2.2,1.8-4,4-4h93.9c2.2,0,4,1.8,4,4l0,0
			C613.4,172,611.6,173.9,609.4,173.9z"/>
		<path id="XMLID_127_" class="st23" d="M556,206.5h-21.1c-2.2,0-4-1.8-4-4l0,0c0-2.2,1.8-4,4-4H556c2.2,0,4,1.8,4,4l0,0
			C560,204.7,558.2,206.5,556,206.5z"/>
		<path id="XMLID_126_" class="st23" d="M611.2,206.2h-19.7c-2.2,0-4-1.8-4-4l0,0c0-2.2,1.8-4,4-4h19.7c2.2,0,4,1.8,4,4l0,0
			C615.2,204.4,613.4,206.2,611.2,206.2z"/>
		<path id="XMLID_125_" class="st24" d="M527.3,147.8L527.3,147.8c-5.3,0-9.7-4.4-9.7-9.7l0,0c0-5.3,4.4-9.7,9.7-9.7l0,0
			c5.3,0,9.7,4.4,9.7,9.7l0,0C537,143.4,532.6,147.8,527.3,147.8z"/>
		<path id="XMLID_124_" class="st24" d="M577.4,137.1h-32c-2.2,0-4-1.8-4-4l0,0c0-2.2,1.8-4,4-4h32c2.2,0,4,1.8,4,4l0,0
			C581.4,135.3,579.6,137.1,577.4,137.1z"/>
		<path id="XMLID_123_" class="st23" d="M593.1,147.8h-47.7c-2.2,0-4-1.8-4-4l0,0c0-2.2,1.8-4,4-4h47.7c2.2,0,4,1.8,4,4l0,0
			C597.1,146,595.3,147.8,593.1,147.8z"/>
		<path id="XMLID_122_" class="st27" d="M579.4,209H569c-0.7,0-1.3-0.6-1.3-1.3v-10.4c0-0.7,0.6-1.3,1.3-1.3h10.4
			c0.7,0,1.3,0.6,1.3,1.3v10.4C580.7,208.4,580.1,209,579.4,209z"/>
		<path id="XMLID_115_" class="st27" d="M522.8,208.6h-10.4c-0.7,0-1.3-0.6-1.3-1.3v-10.4c0-0.7,0.6-1.3,1.3-1.3h10.4
			c0.7,0,1.3,0.6,1.3,1.3v10.4C524.1,208,523.5,208.6,522.8,208.6z"/>
		<path id="XMLID_114_" class="st24" d="M556.2,244.8h-21.1c-2.2,0-4-1.8-4-4l0,0c0-2.2,1.8-4,4-4h21.1c2.2,0,4,1.8,4,4l0,0
			C560.3,243,558.5,244.8,556.2,244.8z"/>
		<path id="XMLID_113_" class="st23" d="M611.4,244.4h-19.7c-2.2,0-4-1.8-4-4l0,0c0-2.2,1.8-4,4-4h19.7c2.2,0,4,1.8,4,4l0,0
			C615.5,242.6,613.7,244.4,611.4,244.4z"/>
		<path id="XMLID_112_" class="st27" d="M579.7,247.2h-10.4c-0.7,0-1.3-0.6-1.3-1.3v-10.4c0-0.7,0.6-1.3,1.3-1.3h10.4
			c0.7,0,1.3,0.6,1.3,1.3v10.4C580.9,246.6,580.4,247.2,579.7,247.2z"/>
		<path id="XMLID_111_" class="st24" d="M523.1,246.8h-10.4c-0.7,0-1.3-0.6-1.3-1.3v-10.4c0-0.7,0.6-1.3,1.3-1.3h10.4
			c0.7,0,1.3,0.6,1.3,1.3v10.4C524.4,246.2,523.8,246.8,523.1,246.8z"/>
	</g>
	<g id="podcastcard">
		<g id="XMLID_156_">
			<rect id="XMLID_167_" x="181.5" y="138.4" class="st19" width="128.2" height="159.8"/>
			<path id="XMLID_166_" class="st19" d="M195.8,260.2v17.5c0,1,1.1,1.6,1.9,1l12.7-8.8c0.7-0.5,0.7-1.5,0-2l-12.7-8.7
				C196.9,258.7,195.8,259.2,195.8,260.2z"/>
			<path id="XMLID_165_" class="st19" d="M238.1,229.8h-41.3c-0.7,0-1.3-0.6-1.3-1.3v-35.1c0-0.7,0.6-1.3,1.3-1.3h41.3
				c0.7,0,1.3,0.6,1.3,1.3v35.1C239.3,229.2,238.8,229.8,238.1,229.8z"/>
			<path id="XMLID_164_" class="st19" d="M277.7,174H230c-2.2,0-4-1.8-4-4l0,0c0-2.2,1.8-4,4-4h47.7c2.2,0,4,1.8,4,4l0,0
				C281.7,172.2,279.9,174,277.7,174z"/>
			<path id="XMLID_163_" class="st19" d="M262,163.3h-32c-2.2,0-4-1.8-4-4l0,0c0-2.2,1.8-4,4-4h32c2.2,0,4,1.8,4,4l0,0
				C266,161.5,264.2,163.3,262,163.3z"/>
			<path id="XMLID_162_" class="st19" d="M211.9,174L211.9,174c-5.3,0-9.7-4.4-9.7-9.7l0,0c0-5.3,4.4-9.7,9.7-9.7l0,0
				c5.3,0,9.7,4.4,9.7,9.7l0,0C221.6,169.6,217.3,174,211.9,174z"/>
			<line id="XMLID_161_" class="st20" x1="223.6" y1="268.9" x2="292.3" y2="268.9"/>
			<circle id="XMLID_160_" class="st19" cx="243.2" cy="268.9" r="3.9"/>
			<path id="XMLID_159_" class="st19" d="M291.2,217.8h-41.6c-2.2,0-4-1.8-4-4l0,0c0-2.2,1.8-4,4-4h41.6c2.2,0,4,1.8,4,4l0,0
				C295.3,216,293.4,217.8,291.2,217.8z"/>
			<path id="XMLID_158_" class="st19" d="M291.2,229.8h-41.6c-2.2,0-4-1.8-4-4l0,0c0-2.2,1.8-4,4-4h41.6c2.2,0,4,1.8,4,4l0,0
				C295.3,228,293.4,229.8,291.2,229.8z"/>
			<path id="XMLID_157_" class="st19" d="M291.2,242.3h-90.3c-2.2,0-4-1.8-4-4l0,0c0-2.2,1.8-4,4-4h90.3c2.2,0,4,1.8,4,4l0,0
				C295.3,240.5,293.4,242.3,291.2,242.3z"/>
		</g>
		<g id="XMLID_144_">
			<rect id="XMLID_155_" x="181.5" y="138.4" class="st21" width="128.2" height="159.8"/>
			<path id="XMLID_154_" class="st19" d="M195.8,260.2v17.5c0,1,1.1,1.6,1.9,1l12.7-8.8c0.7-0.5,0.7-1.5,0-2l-12.7-8.7
				C196.9,258.7,195.8,259.2,195.8,260.2z"/>
			<path id="XMLID_153_" class="st22" d="M238.1,229.8h-41.3c-0.7,0-1.3-0.6-1.3-1.3v-35.1c0-0.7,0.6-1.3,1.3-1.3h41.3
				c0.7,0,1.3,0.6,1.3,1.3v35.1C239.3,229.2,238.8,229.8,238.1,229.8z"/>
			<path id="XMLID_152_" class="st23" d="M277.7,174H230c-2.2,0-4-1.8-4-4l0,0c0-2.2,1.8-4,4-4h47.7c2.2,0,4,1.8,4,4l0,0
				C281.7,172.2,279.9,174,277.7,174z"/>
			<path id="XMLID_151_" class="st24" d="M262,163.3h-32c-2.2,0-4-1.8-4-4l0,0c0-2.2,1.8-4,4-4h32c2.2,0,4,1.8,4,4l0,0
				C266,161.5,264.2,163.3,262,163.3z"/>
			<path id="XMLID_150_" class="st24" d="M211.9,174L211.9,174c-5.3,0-9.7-4.4-9.7-9.7l0,0c0-5.3,4.4-9.7,9.7-9.7l0,0
				c5.3,0,9.7,4.4,9.7,9.7l0,0C221.6,169.6,217.3,174,211.9,174z"/>
			<line id="XMLID_149_" class="st25" x1="223.6" y1="268.9" x2="292.3" y2="268.9"/>
			<circle id="XMLID_148_" class="st19" cx="243.2" cy="268.9" r="3.9"/>
			<path id="XMLID_147_" class="st23" d="M291.2,217.8h-41.6c-2.2,0-4-1.8-4-4l0,0c0-2.2,1.8-4,4-4h41.6c2.2,0,4,1.8,4,4l0,0
				C295.3,216,293.4,217.8,291.2,217.8z"/>
			<path id="XMLID_146_" class="st23" d="M291.2,229.8h-41.6c-2.2,0-4-1.8-4-4l0,0c0-2.2,1.8-4,4-4h41.6c2.2,0,4,1.8,4,4l0,0
				C295.3,228,293.4,229.8,291.2,229.8z"/>
			<path id="XMLID_145_" class="st23" d="M291.2,242.3h-90.3c-2.2,0-4-1.8-4-4l0,0c0-2.2,1.8-4,4-4h90.3c2.2,0,4,1.8,4,4l0,0
				C295.3,240.5,293.4,242.3,291.2,242.3z"/>
		</g>
	</g>
	<g id="articlecard2">
		<rect id="XMLID_53_" x="287.5" y="163.1" class="st21" width="128.2" height="159.8"/>
		<path id="XMLID_52_" class="st23" d="M398.8,268.9h-93.9c-2.2,0-4-1.8-4-4l0,0c0-2.2,1.8-4,4-4h93.9c2.2,0,4,1.8,4,4l0,0
			C402.8,267.1,401,268.9,398.8,268.9z"/>
		<path id="XMLID_51_" class="st23" d="M326,256.1h-21.1c-2.2,0-4-1.8-4-4l0,0c0-2.2,1.8-4,4-4H326c2.2,0,4,1.8,4,4l0,0
			C330,254.3,328.2,256.1,326,256.1z"/>
		<path id="XMLID_50_" class="st23" d="M324.6,244h-19.7c-2.2,0-4-1.8-4-4l0,0c0-2.2,1.8-4,4-4h19.7c2.2,0,4,1.8,4,4l0,0
			C328.6,242.2,326.8,244,324.6,244z"/>
		<path id="XMLID_49_" class="st24" d="M318,198.6L318,198.6c-5.3,0-9.7-4.4-9.7-9.7l0,0c0-5.3,4.4-9.7,9.7-9.7l0,0
			c5.3,0,9.7,4.4,9.7,9.7l0,0C327.7,194.3,323.3,198.6,318,198.6z"/>
		<path id="XMLID_48_" class="st24" d="M368,187.9h-32c-2.2,0-4-1.8-4-4l0,0c0-2.2,1.8-4,4-4h32c2.2,0,4,1.8,4,4l0,0
			C372.1,186.1,370.2,187.9,368,187.9z"/>
		<path id="XMLID_30_" class="st23" d="M383.7,198.6H336c-2.2,0-4-1.8-4-4l0,0c0-2.2,1.8-4,4-4h47.7c2.2,0,4,1.8,4,4l0,0
			C387.8,196.8,386,198.6,383.7,198.6z"/>
		<path id="XMLID_27_" class="st22" d="M401.6,255.1h-66.3c-0.7,0-1.3-0.6-1.3-1.3v-46.2c0-0.7,0.6-1.3,1.3-1.3h66.3
			c0.7,0,1.3,0.6,1.3,1.3v46.2C402.8,254.5,402.3,255.1,401.6,255.1z"/>
		<path id="XMLID_26_" class="st23" d="M398.9,282.1H305c-2.2,0-4-1.8-4-4l0,0c0-2.2,1.8-4,4-4h93.9c2.2,0,4,1.8,4,4l0,0
			C403,280.3,401.2,282.1,398.9,282.1z"/>
		<path id="XMLID_25_" class="st23" d="M398.8,295.9h-93.9c-2.2,0-4-1.8-4-4l0,0c0-2.2,1.8-4,4-4h93.9c2.2,0,4,1.8,4,4l0,0
			C402.8,294.1,401,295.9,398.8,295.9z"/>
		<path id="XMLID_24_" class="st23" d="M398.8,308.9h-93.9c-2.2,0-4-1.8-4-4l0,0c0-2.2,1.8-4,4-4h93.9c2.2,0,4,1.8,4,4l0,0
			C402.8,307.1,401,308.9,398.8,308.9z"/>
	</g>
	<g id="videoCard2">
		<rect id="XMLID_21_" x="407.3" y="132.1" class="st21" width="128.2" height="159.8"/>
		<path id="XMLID_20_" class="st24" d="M437.7,167.6L437.7,167.6c-5.3,0-9.7-4.4-9.7-9.7l0,0c0-5.3,4.4-9.7,9.7-9.7l0,0
			c5.3,0,9.7,4.4,9.7,9.7l0,0C447.4,163.3,443,167.6,437.7,167.6z"/>
		<path id="XMLID_19_" class="st24" d="M487.8,156.9h-32c-2.2,0-4-1.8-4-4l0,0c0-2.2,1.8-4,4-4h32c2.2,0,4,1.8,4,4l0,0
			C491.8,155.1,490,156.9,487.8,156.9z"/>
		<path id="XMLID_18_" class="st23" d="M503.5,167.6h-47.7c-2.2,0-4-1.8-4-4l0,0c0-2.2,1.8-4,4-4h47.7c2.2,0,4,1.8,4,4l0,0
			C507.5,165.8,505.7,167.6,503.5,167.6z"/>
		<rect id="XMLID_17_" x="407.3" y="185.8" class="st22" width="128.2" height="73.5"/>
		<path id="XMLID_16_" class="st26" d="M461.5,213.9v17.5c0,1,1.1,1.6,1.9,1l12.7-8.8c0.7-0.5,0.7-1.5,0-2l-12.7-8.7
			C462.6,212.3,461.5,212.9,461.5,213.9z"/>
	</g>
</g>
<g id="mindmap">
	<path class="st0" d="M95.9,32.7l-1.5,1.5l1.3,1.3l1.5-1.5c0.5,0.3,1.1,0.6,1.7,0.7v2h1.9v-2c0.6-0.1,1.2-0.4,1.7-0.7l1.5,1.5
		l1.3-1.3l-1.5-1.5c0.3-0.5,0.6-1.1,0.7-1.7h2v-1.9h-2c-0.1-0.6-0.4-1.2-0.7-1.7l1.5-1.5l-1.3-1.3l-1.5,1.5
		c-0.5-0.3-1.1-0.6-1.7-0.7v-2h-1.9v2c-0.6,0.1-1.2,0.4-1.7,0.7l-1.5-1.5L94.5,26l1.5,1.5c-0.3,0.5-0.6,1.1-0.7,1.7h-2V31h2
		C95.3,31.6,95.6,32.2,95.9,32.7z M99.9,27.2c1.6,0,2.8,1.3,2.8,2.8s-1.3,2.8-2.8,2.8S97,31.6,97,30.1S98.3,27.2,99.9,27.2z"/>
	<path d="M126.3,42.4c-0.4,0-0.8,0.1-1.2,0.3l-3.2-3.2c0.4-0.5,0.7-1.1,0.7-1.8c0-0.8-0.3-1.5-0.8-2l4.3-10.3c0.1,0,0.2,0,0.3,0
		c1.6,0,2.8-1.3,2.8-2.8c0-1.6-1.3-2.8-2.8-2.8c-1.6,0-2.8,1.3-2.8,2.8c0,0.1,0,0.3,0,0.4l-5.7,3.2c-0.5-0.5-1.2-0.8-1.9-0.8
		c-1.2,0-2.3,0.8-2.7,1.9h-2.7c-0.6-1.8-1.7-3.4-3.1-4.7c-2.4-2.2-5.6-3.2-8.9-2.8c-4.3,0.5-7.9,3.5-9.4,7.5h-2.7
		c-0.4-1.1-1.4-1.9-2.7-1.9c-0.8,0-1.4,0.3-1.9,0.8l-5.7-3.2c0-0.1,0-0.2,0-0.4c0-1.6-1.3-2.8-2.8-2.8c-1.6,0-2.8,1.3-2.8,2.8
		c0,1.6,1.3,2.8,2.8,2.8c0.1,0,0.2,0,0.3,0L78,35.6c-0.5,0.5-0.8,1.2-0.8,2c0,0.7,0.3,1.3,0.7,1.8l-3.2,3.2
		c-0.4-0.2-0.8-0.3-1.2-0.3c-1.6,0-2.8,1.3-2.8,2.8c0,1.6,1.3,2.8,2.8,2.8c1.6,0,2.8-1.3,2.8-2.8c0-0.4-0.1-0.8-0.3-1.2l3.6-3.6
		c0.2,0,0.3,0.1,0.5,0.1c0.7,0,1.4-0.3,1.9-0.7l5.4,3.9L82,55.2c-0.1,0.3-0.1,0.6,0.1,0.9c0.2,0.3,0.5,0.4,0.8,0.4h4.7v8.5
		c0,0.3,0.1,0.6,0.3,0.7c0.2,0.2,0.5,0.2,0.8,0.2l8.6-1.7l2.1,6.3L90,74.6c-0.3,0.1-0.6,0.5-0.6,0.9v1.9c0,0.5,0.4,0.9,0.9,0.9h26.5
		c0.5,0,0.9-0.4,0.9-0.9v-4.7c0-0.2-0.1-0.4-0.2-0.5l-4.7-6.6c-0.1-0.2-0.3-0.3-0.5-0.3l-1.1-2.8c5.1-9.5,1.8-16.4,0.3-18.7l6.2-3.9
		c0.5,0.5,1.2,0.8,1.9,0.8c0.2,0,0.3,0,0.5-0.1l3.6,3.6c-0.2,0.4-0.3,0.8-0.3,1.2c0,1.6,1.3,2.8,2.8,2.8c1.6,0,2.8-1.3,2.8-2.8
		C129.2,43.6,127.9,42.4,126.3,42.4z M119.4,34.8l-2.1-4.2c0.9-0.5,1.5-1.4,1.5-2.5c0-0.1,0-0.3,0-0.4l5.5-3.2L120,34.8
		c-0.1,0-0.2,0-0.3,0C119.6,34.8,119.5,34.8,119.4,34.8z M126.3,21.6c0.5,0,0.9,0.4,0.9,0.9c0,0.5-0.4,0.9-0.9,0.9
		c-0.5,0-0.9-0.4-0.9-0.9C125.4,22,125.8,21.6,126.3,21.6z M115.9,27.2c0.5,0,0.9,0.4,0.9,0.9c0,0.5-0.4,0.9-0.9,0.9
		s-0.9-0.4-0.9-0.9C115,27.7,115.4,27.2,115.9,27.2z M90.5,29.7c0.6-4.2,4-7.6,8.3-8.1c2.7-0.3,5.4,0.5,7.4,2.3
		c2,1.8,3.2,4.4,3.2,7.1c0,2.6-1.1,5.2-3.1,7c-1.9,1.7-3.1,3.9-3.4,6.3h-2v-5.7h-1.9v5.7h-2c-0.4-2.4-1.6-4.6-3.4-6.3
		C91.1,35.9,90.1,32.8,90.5,29.7z M98.9,49.9h1.9v0.9c0,0.5-0.4,0.9-0.9,0.9s-0.9-0.4-0.9-0.9V49.9z M97,48v-1.9h5.7V48H97z
		 M83.8,27.2c0.5,0,0.9,0.4,0.9,0.9c0,0.5-0.4,0.9-0.9,0.9s-0.9-0.4-0.9-0.9C82.8,27.7,83.3,27.2,83.8,27.2z M80.3,34.8
		c-0.1,0-0.2,0-0.3,0c-0.1,0-0.2,0-0.3,0l-4.2-10.2l5.5,3.2c0,0.1,0,0.2,0,0.4c0,1.1,0.6,2,1.5,2.5L80.3,34.8z M72.4,22.5
		c0-0.5,0.4-0.9,0.9-0.9s0.9,0.4,0.9,0.9c0,0.5-0.4,0.9-0.9,0.9S72.4,23,72.4,22.5z M73.4,46.1c-0.5,0-0.9-0.4-0.9-0.9
		c0-0.5,0.4-0.9,0.9-0.9s0.9,0.4,0.9,0.9C74.3,45.7,73.9,46.1,73.4,46.1z M80,38.6c-0.5,0-0.9-0.4-0.9-0.9s0.4-0.9,0.9-0.9
		s0.9,0.4,0.9,0.9S80.5,38.6,80,38.6z M115.9,76.4H91.3v-0.3l20.5-8.9l4.1,5.8V76.4z M109.4,61.8c-0.1,0.2-0.2,0.5-0.1,0.8l1.2,3.1
		l-9.5,4.1l-2.3-6.9c-0.2-0.5-0.6-0.7-1.1-0.6l-8.3,1.7v-8.3c0-0.5-0.4-0.9-0.9-0.9h-4.2l4.8-10.4h2.2v-1.9h-2.5l-6-4.3
		c0-0.1,0-0.3,0-0.4c0-0.8-0.3-1.5-0.8-2l2.4-4.7c1-0.2,1.7-0.9,2-1.8h2.2c0,0.1,0,0.2-0.1,0.3c-0.5,3.8,0.8,7.4,3.6,9.9
		c1.5,1.3,2.4,3.1,2.8,4.9h-1.7v1.9h1.9V49c0,0.5,0.4,0.9,0.9,0.9H97v0.9c0,1.6,1.3,2.8,2.8,2.8s2.8-1.3,2.8-2.8v-0.9h0.9
		c0.5,0,0.9-0.4,0.9-0.9v-2.8h1.9v-1.9h-1.7c0.3-1.8,1.3-3.5,2.8-4.9c2.3-2.1,3.7-5.2,3.7-8.4c0-0.6-0.1-1.3-0.2-1.9h2.2
		c0.3,0.9,1.1,1.6,2,1.8l2.4,4.7c-0.5,0.5-0.8,1.2-0.8,2c0,0.1,0,0.3,0,0.4l-6.9,4.3h-1.6v1.9h1.4C110.9,45.8,114.7,52.4,109.4,61.8
		z M118.8,37.6c0-0.5,0.4-0.9,0.9-0.9s0.9,0.4,0.9,0.9s-0.4,0.9-0.9,0.9S118.8,38.2,118.8,37.6z M126.3,46.1c-0.5,0-0.9-0.4-0.9-0.9
		c0-0.5,0.4-0.9,0.9-0.9c0.5,0,0.9,0.4,0.9,0.9C127.3,45.7,126.9,46.1,126.3,46.1z"/>
</g>
<g id="microphone">
	<path d="M271.9,96.8c5.9,0,10.6-4.8,10.6-10.6V66.7c0-5.9-4.8-10.6-10.6-10.6c-5.9,0-10.6,4.8-10.6,10.6v19.5
		C261.3,92,266,96.8,271.9,96.8z M271.9,58.3c4.6,0,8.4,3.8,8.4,8.4V76h-16.7v-9.3C263.5,62,267.3,58.3,271.9,58.3z M263.5,78.3
		h16.7v7.9c0,4.6-3.8,8.4-8.4,8.4s-8.4-3.8-8.4-8.4V78.3z"/>
	<path d="M269.1,70.9h5.5c0.6,0,1.1-0.5,1.1-1.1c0-0.6-0.5-1.1-1.1-1.1h-5.5c-0.6,0-1.1,0.5-1.1,1.1C268,70.4,268.5,70.9,269.1,70.9
		z"/>
	<path d="M269.1,66.7h5.5c0.6,0,1.1-0.5,1.1-1.1s-0.5-1.1-1.1-1.1h-5.5c-0.6,0-1.1,0.5-1.1,1.1S268.5,66.7,269.1,66.7z"/>
	<path class="st0" d="M286.3,85c-0.6,0-1.1,0.5-1.1,1.1c0,7.4-6,13.3-13.3,13.3c-7.4,0-13.3-6-13.3-13.3c0-0.6-0.5-1.1-1.1-1.1
		s-1.1,0.5-1.1,1.1c0,7.5,5.3,13.7,12.3,15.2v5.7h-0.1c-3.1,0-5.7,2.5-5.7,5.7c0,0.6,0.5,1.1,1.1,1.1h15.9c0.6,0,1.1-0.5,1.1-1.1
		c0-3.1-2.5-5.7-5.7-5.7h-0.1v-5.7c7-1.5,12.3-7.8,12.3-15.2C287.5,85.5,287,85,286.3,85z M278.5,111.6h-13.2
		c0.5-1.3,1.7-2.3,3.2-2.3h6.8C276.8,109.4,278,110.3,278.5,111.6z M273,107.1h-2.1v-5.4c0.4,0,0.7,0,1.1,0c0.4,0,0.7,0,1.1,0V107.1
		z"/>
	<path class="st0" d="M248.6,66.6c-0.6,0-1.1,0.5-1.1,1.1v11c0,0.6,0.5,1.1,1.1,1.1c0.6,0,1.1-0.5,1.1-1.1v-11
		C249.7,67.1,249.2,66.6,248.6,66.6z"/>
	<path d="M257.6,77.1c0.6,0,1.1-0.5,1.1-1.1v-5.4c0-0.6-0.5-1.1-1.1-1.1s-1.1,0.5-1.1,1.1v5.4C256.5,76.6,257,77.1,257.6,77.1z"/>
	<path d="M244.1,62.1c-0.6,0-1.1,0.5-1.1,1.1v18.8c0,0.6,0.5,1.1,1.1,1.1s1.1-0.5,1.1-1.1V63.3C245.2,62.6,244.7,62.1,244.1,62.1z"
		/>
	<path d="M253.1,65.5c-0.6,0-1.1,0.5-1.1,1.1v15.3c0,0.6,0.5,1.1,1.1,1.1s1.1-0.5,1.1-1.1V66.6C254.3,66,253.7,65.5,253.1,65.5z"/>
	<path d="M295.2,66.6c-0.6,0-1.1,0.5-1.1,1.1v11c0,0.6,0.5,1.1,1.1,1.1s1.1-0.5,1.1-1.1v-11C296.3,67.1,295.8,66.6,295.2,66.6z"/>
	<path class="st0" d="M286.1,77.1c0.6,0,1.1-0.5,1.1-1.1v-5.4c0-0.6-0.5-1.1-1.1-1.1s-1.1,0.5-1.1,1.1v5.4
		C285,76.6,285.5,77.1,286.1,77.1z"/>
	<path d="M299.7,62.1c-0.6,0-1.1,0.5-1.1,1.1v18.8c0,0.6,0.5,1.1,1.1,1.1s1.1-0.5,1.1-1.1V63.3C300.8,62.6,300.3,62.1,299.7,62.1z"
		/>
	<path d="M290.6,80.7c-0.3,0-0.6,0.1-0.8,0.3c-0.2,0.2-0.3,0.5-0.3,0.8c0,0.3,0.1,0.6,0.3,0.8c0.2,0.2,0.5,0.3,0.8,0.3
		s0.6-0.1,0.8-0.3c0.2-0.2,0.3-0.5,0.3-0.8c0-0.3-0.1-0.6-0.3-0.8C291.2,80.8,290.9,80.7,290.6,80.7z"/>
	<path d="M290.6,65.5c-0.6,0-1.1,0.5-1.1,1.1v10.5c0,0.6,0.5,1.1,1.1,1.1s1.1-0.5,1.1-1.1V66.6C291.8,66,291.3,65.5,290.6,65.5z"/>
	<path class="st0" d="M271.9,92c3.2,0,5.9-2.6,5.9-5.9c0-0.6-0.5-1.1-1.1-1.1c-0.6,0-1.1,0.5-1.1,1.1c0,2-1.6,3.6-3.6,3.6
		c-0.6,0-1.1,0.5-1.1,1.1S271.3,92,271.9,92z"/>
	<path d="M276.6,83.4c0.3,0,0.6-0.1,0.8-0.3c0.2-0.2,0.3-0.5,0.3-0.8c0-0.3-0.1-0.6-0.3-0.8c-0.2-0.2-0.5-0.3-0.8-0.3
		c-0.3,0-0.6,0.1-0.8,0.3c-0.2,0.2-0.3,0.5-0.3,0.8c0,0.3,0.1,0.6,0.3,0.8C276,83.3,276.3,83.4,276.6,83.4z"/>
</g>
<g id="camera">
	<g>
		<g>
			<path d="M489.7,70.9c-0.4-0.3-0.9-0.3-1.4,0l-9,4.8v-4.1c0-0.8-0.6-1.4-1.4-1.4h-2.3c2.8-2.3,4.6-5.8,4.6-9.7
				c0-6.9-5.6-12.4-12.4-12.4c-5.9,0-10.8,4.1-12.1,9.5c-1.7-2.1-4.3-3.4-7.2-3.4c-5.2,0-9.4,4.2-9.4,9.4c0,2.6,1,4.9,2.7,6.6h-1.3
				c-0.8,0-1.4,0.6-1.4,1.4v6.3h-3.5c-0.8,0-1.4,0.6-1.4,1.4v5.5c0,0.8,0.6,1.4,1.4,1.4h3.5v6.3c0,0.8,0.6,1.4,1.4,1.4H457
				l-7.5,14.4c-0.4,0.7-0.1,1.5,0.6,1.9c0.2,0.1,0.4,0.2,0.6,0.2c0.5,0,1-0.3,1.2-0.7l7.3-14.1l7.3,14.1c0.2,0.5,0.7,0.7,1.2,0.7
				c0.2,0,0.4-0.1,0.6-0.2c0.7-0.4,0.9-1.2,0.6-1.9l-7.5-14.4h16.4c0.8,0,1.4-0.6,1.4-1.4v-4.1l9,4.8c0.2,0.1,0.4,0.2,0.7,0.2
				c0.2,0,0.5-0.1,0.7-0.2c0.4-0.3,0.7-0.7,0.7-1.2V72.1C490.3,71.6,490.1,71.2,489.7,70.9z M439.2,83.3h-2.1v-2.7h2.1V83.3z
				 M467.9,50.8c5.3,0,9.7,4.3,9.7,9.7s-4.3,9.7-9.7,9.7c-5.3,0-9.7-4.3-9.7-9.7C458.2,55.2,462.5,50.8,467.9,50.8z M457.3,67
				c0.7,1.2,1.7,2.3,2.8,3.2h-4.8C456.1,69.3,456.8,68.2,457.3,67z M448.5,57c3.6,0,6.6,3,6.6,6.6s-3,6.6-6.6,6.6
				c-3.6,0-6.6-3-6.6-6.6C441.9,59.9,444.9,57,448.5,57z M476.6,78v7.9V91h-17.2c0,0,0,0,0,0h0c0,0,0,0,0,0H442v-6.3v-5.5V73h34.5
				V78z M487.6,89.5l-8.2-4.4v-6.3l8.2-4.4V89.5z"/>
		</g>
	</g>
	<g>
		<g>
			<path d="M448.5,59.4c-2.3,0-4.2,1.9-4.2,4.2c0,2.3,1.9,4.2,4.2,4.2c2.3,0,4.2-1.9,4.2-4.2C452.8,61.3,450.9,59.4,448.5,59.4z
				 M448.5,65.3c-0.9,0-1.7-0.8-1.7-1.7c0-0.9,0.8-1.7,1.7-1.7s1.7,0.8,1.7,1.7C450.3,64.5,449.5,65.3,448.5,65.3z"/>
		</g>
	</g>
	<g>
		<g>
			<path class="st0" d="M467.9,54.5c-3.3,0-6.1,2.7-6.1,6.1c0,3.3,2.7,6.1,6.1,6.1c3.3,0,6.1-2.7,6.1-6.1
				C473.9,57.2,471.2,54.5,467.9,54.5z M467.9,63.8c-1.8,0-3.3-1.5-3.3-3.3s1.5-3.3,3.3-3.3c1.8,0,3.3,1.5,3.3,3.3
				S469.7,63.8,467.9,63.8z"/>
		</g>
	</g>
	<g>
		<g>
			<path class="st0" d="M463.4,77h-15.1c-0.7,0-1.3,0.6-1.3,1.3v7.3c0,0.7,0.6,1.3,1.3,1.3h15.1c0.7,0,1.3-0.6,1.3-1.3v-7.3
				C464.7,77.6,464.1,77,463.4,77z M462.1,84.3h-12.5v-4.7h12.5L462.1,84.3L462.1,84.3z"/>
		</g>
	</g>
	<g>
		<g>
			<circle cx="470.7" cy="79.7" r="1.4"/>
		</g>
	</g>
	<g>
		<g>
			<circle cx="470.7" cy="84.3" r="1.4"/>
		</g>
	</g>
</g>
<g id="puzzle">
	<g>
		<g>
			<path d="M651.6,56.3c-0.1-0.9-0.4-1.7-1.1-2.3l-4.6-4.6c0.7-0.2,1.4-0.6,2-1.2l0.1-0.1c2-2,1.9-5.5-0.4-7.7
				c-1.1-1.1-2.4-1.7-3.8-1.8c-1.5-0.1-2.8,0.4-3.8,1.4l-0.1,0.1c-0.5,0.5-0.9,1.2-1.2,2l-4.6-4.6c-1.4-1.4-3.5-1.4-4.7-0.2
				l-4.2,4.2c-0.5,0.5-0.7,1.2-0.6,2c0.2,0.8,0.7,1.4,1.5,1.7c0.5,0.2,0.9,0.5,1.3,0.8l0.1,0.1c0.6,0.6,1,1.4,1.1,2.3
				c0,0.8-0.2,1.5-0.7,2s-1.2,0.8-2,0.7c-0.8-0.1-1.6-0.4-2.3-1.1l-0.1-0.1c-0.4-0.4-0.7-0.8-0.8-1.3c-0.3-0.8-0.9-1.3-1.7-1.5
				c-0.7-0.2-1.5,0.1-2,0.6l-4.1,4.1c-1.3,1.3-1.2,3.4,0.2,4.7l4.6,4.6c-0.7,0.2-1.4,0.6-2,1.2l-0.1,0.1c-2,2-1.9,5.5,0.4,7.7
				c1.2,1.2,2.7,1.8,4.2,1.8c1.3,0,2.6-0.5,3.5-1.4l0.1-0.1c0.5-0.5,0.9-1.2,1.2-2l4.6,4.6c0.6,0.6,1.5,1,2.3,1.1c0.1,0,0.1,0,0.2,0
				c0.8,0,1.6-0.3,2.2-0.9l4-4c0.3,0.7,0.8,1.4,1.3,2l0.1,0.1c2.2,2.2,5.7,2.4,7.7,0.4c2-2,1.9-5.5-0.4-7.7l-0.1-0.1
				c-0.6-0.6-1.3-1-2-1.3l4-4C651.3,58.1,651.7,57.2,651.6,56.3z M649,57l-4.2,4.2c-0.5,0.5-0.7,1.2-0.6,2c0.2,0.8,0.7,1.4,1.5,1.7
				c0.5,0.2,0.9,0.5,1.3,0.8l0.1,0.1c1.3,1.3,1.4,3.2,0.4,4.3c-1.1,1.1-3,0.9-4.3-0.4l-0.1-0.1c-0.4-0.4-0.7-0.8-0.8-1.3
				c-0.3-0.8-0.9-1.3-1.7-1.5c-0.7-0.2-1.5,0.1-2,0.6l-4.1,4.1c-0.2,0.2-0.4,0.2-0.5,0.2c-0.3,0-0.5-0.1-0.8-0.4l-1.8-1.8l4-4
				c0.5-0.5,0.5-1.2,0-1.7c-0.5-0.5-1.2-0.5-1.7,0l-4,4l-1.2-1.2c-0.5-0.5-1.1-0.7-1.7-0.7c-0.2,0-0.4,0-0.6,0.1
				c-0.7,0.2-1.3,0.8-1.4,1.6c-0.1,0.5-0.3,0.9-0.7,1.2l-0.1,0.1c-1.1,1.1-3,0.9-4.3-0.4c-1.3-1.3-1.4-3.2-0.4-4.3l0.1-0.1
				c0.3-0.3,0.7-0.5,1.2-0.7c0.8-0.2,1.3-0.7,1.6-1.4c0.2-0.8,0-1.7-0.6-2.3l-4.8-4.8c-0.2-0.2-0.3-0.5-0.4-0.8c0-0.2,0-0.4,0.2-0.5
				l4-4c0.3,0.7,0.8,1.4,1.3,2l0.1,0.1c2.2,2.2,5.7,2.4,7.7,0.4c2-2,1.9-5.5-0.4-7.7l-0.1-0.1c-0.6-0.6-1.3-1-2-1.3l4-4
				c0.3-0.3,0.9-0.2,1.3,0.2l4.8,4.8c0.6,0.6,1.5,0.8,2.3,0.6c0.7-0.2,1.3-0.8,1.4-1.6c0.1-0.5,0.3-0.9,0.7-1.2l0.1-0.1
				c0.5-0.5,1.2-0.8,2-0.7c0.8,0.1,1.6,0.4,2.3,1.1c1.3,1.3,1.4,3.2,0.4,4.3l-0.1,0.1c-0.3,0.3-0.7,0.5-1.2,0.7
				c-0.8,0.2-1.3,0.7-1.6,1.4c-0.2,0.8,0,1.7,0.6,2.3l4.8,4.8c0.2,0.2,0.3,0.5,0.4,0.8C649.2,56.6,649.2,56.8,649,57z"/>
		</g>
	</g>
	<g>
		<g>
			<path d="M638.4,60.7c-0.2-0.2-0.5-0.4-0.9-0.4s-0.6,0.1-0.9,0.4s-0.4,0.5-0.4,0.9s0.1,0.6,0.4,0.9c0.2,0.2,0.5,0.4,0.9,0.4
				c0.3,0,0.6-0.1,0.9-0.4c0.2-0.2,0.4-0.5,0.4-0.9S638.6,61,638.4,60.7z"/>
		</g>
	</g>
	<g>
		<g>
			<path d="M664,27.7c-0.2-0.2-0.5-0.4-0.9-0.4s-0.6,0.1-0.9,0.4c-0.2,0.2-0.4,0.5-0.4,0.9s0.1,0.6,0.4,0.9c0.2,0.2,0.5,0.4,0.9,0.4
				s0.6-0.1,0.9-0.4c0.2-0.2,0.4-0.5,0.4-0.9S664.3,27.9,664,27.7z"/>
		</g>
	</g>
	<g>
		<g>
			<path class="st0" d="M673.1,40.1c-0.7-0.7-1.4-1.2-2.3-1.5l4-4c0.6-0.6,0.9-1.5,0.9-2.4c-0.1-0.9-0.4-1.7-1.1-2.3l-4.5-4.5
				c0.6-0.2,1.2-0.6,1.7-1.1l0.1-0.1c2-2,1.9-5.5-0.4-7.7c-2.2-2.2-5.7-2.4-7.7-0.4l-0.1,0.1c-0.5,0.5-0.8,1.1-1.1,1.7l-4.5-4.5
				c-1.4-1.4-3.5-1.4-4.7-0.2l-4,4c-0.3-0.9-0.8-1.6-1.5-2.3l-0.1-0.1c-2.2-2.2-5.7-2.4-7.7-0.4c-2,2-1.9,5.5,0.4,7.7l0.1,0.1
				c0.7,0.7,1.4,1.2,2.3,1.5l-4,4c-1.3,1.3-1.2,3.4,0.2,4.7l4.8,4.8c0.6,0.6,1.5,0.8,2.3,0.6c0.7-0.2,1.3-0.8,1.4-1.6
				c0.1-0.5,0.3-0.9,0.7-1.2l0.1-0.1c0.5-0.5,1.2-0.8,2-0.7c0.8,0.1,1.6,0.4,2.3,1.1c0.6,0.6,1,1.4,1.1,2.3c0,0.8-0.2,1.5-0.7,2
				l-0.1,0.1c-0.3,0.3-0.7,0.5-1.2,0.7c-0.8,0.2-1.3,0.7-1.6,1.4c-0.2,0.8,0,1.7,0.6,2.3l4.8,4.8c0.7,0.7,1.6,1.1,2.5,1.1
				c0.8,0,1.6-0.3,2.2-0.9l4-4c0.3,0.9,0.8,1.6,1.5,2.3l0.1,0.1c2.2,2.2,5.7,2.4,7.7,0.4c2-2,1.9-5.5-0.4-7.7L673.1,40.1z
				 M671.9,46.2c-1.1,1.1-3,0.9-4.3-0.4l-0.1-0.1c-0.4-0.4-0.7-0.9-0.9-1.5c-0.3-0.8-0.9-1.4-1.7-1.6c-0.8-0.2-1.5,0-2,0.6l-4.2,4.2
				c-0.2,0.2-0.4,0.2-0.5,0.2c-0.3,0-0.5-0.1-0.8-0.4l-4.6-4.6c0.7-0.2,1.4-0.6,2-1.2l0.1-0.1c1-1,1.5-2.4,1.4-3.8
				c-0.1-1.4-0.7-2.8-1.8-3.8c-1.1-1.1-2.4-1.7-3.8-1.8c-1.5-0.1-2.8,0.4-3.8,1.4l-0.1,0.1c-0.5,0.5-0.9,1.2-1.2,2l-4.6-4.6
				c-0.2-0.2-0.3-0.5-0.4-0.8c0-0.2,0-0.4,0.2-0.5l4.2-4.2c0.5-0.5,0.7-1.3,0.6-2c-0.2-0.8-0.8-1.5-1.6-1.7c-0.5-0.2-1-0.5-1.5-0.9
				l-0.1-0.1c-1.3-1.3-1.4-3.2-0.4-4.3c1.1-1.1,3-0.9,4.3,0.4l0.1,0.1c0.4,0.4,0.7,0.9,0.9,1.5c0.3,0.8,0.9,1.4,1.7,1.6
				c0.8,0.2,1.5,0,2-0.6l4.2-4.2c0.3-0.3,0.9-0.2,1.3,0.2l4.7,4.7c0.6,0.6,1.4,0.8,2.2,0.6c0.7-0.2,1.3-0.7,1.5-1.4
				c0.1-0.4,0.3-0.8,0.6-1.1l0.1-0.1c1.1-1.1,3-0.9,4.3,0.4c1.3,1.3,1.4,3.2,0.4,4.3l-0.1,0.1c-0.3,0.3-0.6,0.5-1.1,0.6
				c-0.7,0.2-1.3,0.8-1.4,1.5c-0.2,0.8,0,1.6,0.6,2.2l4.7,4.7c0.2,0.2,0.3,0.5,0.4,0.8c0,0.2,0,0.4-0.2,0.5l-1.9,1.9l-4-4
				c-0.5-0.5-1.2-0.5-1.7,0c-0.5,0.5-0.5,1.2,0,1.7l4,4l-0.6,0.6c-0.5,0.5-0.7,1.3-0.6,2c0.2,0.8,0.8,1.5,1.6,1.7
				c0.5,0.2,1,0.5,1.5,0.9l0.1,0.1C672.8,43.2,672.9,45.1,671.9,46.2z"/>
		</g>
	</g>
</g>
<g id="quiz">
	<path class="st28" d="M546.7,51.7h-7.6c-0.6,0-1.1-0.5-1.1-1.1v-7.6c0-0.6,0.5-1.1,1.1-1.1h7.6c0.6,0,1.1,0.5,1.1,1.1v7.6
		C547.8,51.2,547.3,51.7,546.7,51.7z"/>
	<path class="st29" d="M546.7,66.6h-7.6c-0.6,0-1.1-0.5-1.1-1.1v-7.6c0-0.6,0.5-1.1,1.1-1.1h7.6c0.6,0,1.1,0.5,1.1,1.1v7.6
		C547.8,66.1,547.3,66.6,546.7,66.6z"/>
	<path class="st28" d="M546.7,81.6h-7.6c-0.6,0-1.1-0.5-1.1-1.1v-7.6c0-0.6,0.5-1.1,1.1-1.1h7.6c0.6,0,1.1,0.5,1.1,1.1v7.6
		C547.8,81.1,547.3,81.6,546.7,81.6z"/>
	<path class="st30" d="M547.8,57.9"/>
	<path class="st30" d="M539.2,61.1"/>
	<path d="M574.7,48.2H553c-0.6,0-1.1-0.5-1.1-1.1v0c0-0.6,0.5-1.1,1.1-1.1h21.7c0.6,0,1.1,0.5,1.1,1.1v0
		C575.8,47.7,575.3,48.2,574.7,48.2z"/>
	<path class="st0" d="M574.9,63.2h-21.7c-0.6,0-1.1-0.5-1.1-1.1l0,0c0-0.6,0.5-1.1,1.1-1.1h21.7c0.6,0,1.1,0.5,1.1,1.1l0,0
		C576,62.7,575.5,63.2,574.9,63.2z"/>
	<path d="M574.7,77.4H553c-0.6,0-1.1-0.5-1.1-1.1l0,0c0-0.6,0.5-1.1,1.1-1.1h21.7c0.6,0,1.1,0.5,1.1,1.1l0,0
		C575.8,76.8,575.3,77.4,574.7,77.4z"/>
	<polyline class="st30" points="540.9,47.1 542.3,49 544.9,45.3 	"/>
</g>
<g id="article">
	<path class="st0" d="M389.4,115.3c-0.5,0-0.9,0.4-0.9,0.9v2.1h-5.4V113c0-0.5-0.4-0.9-0.9-0.9h-23.1c-0.5,0-0.9,0.4-0.9,0.9v5.3
		h-17.3V78.1c0-0.5-0.4-0.9-0.9-0.9c-0.5,0-0.9,0.4-0.9,0.9v41.1c0,0.5,0.4,0.9,0.9,0.9h49.4c0.5,0,0.9-0.4,0.9-0.9v-3
		C390.3,115.7,389.9,115.3,389.4,115.3z M360,118.3v-4.4h21.3v4.4H360z"/>
	<path d="M346.5,101.9H383c0.5,0,0.9-0.4,0.9-0.9c0-0.5-0.4-0.9-0.9-0.9h-36.5c-0.5,0-0.9,0.4-0.9,0.9
		C345.6,101.5,346,101.9,346.5,101.9z"/>
	<path class="st0" d="M346.5,106.2H383c0.5,0,0.9-0.4,0.9-0.9s-0.4-0.9-0.9-0.9h-36.5c-0.5,0-0.9,0.4-0.9,0.9S346,106.2,346.5,106.2
		z"/>
	<path d="M346.5,110.5H383c0.5,0,0.9-0.4,0.9-0.9c0-0.5-0.4-0.9-0.9-0.9h-36.5c-0.5,0-0.9,0.4-0.9,0.9
		C345.6,110.1,346,110.5,346.5,110.5z"/>
	<path d="M346.5,114.8h9.3c0.5,0,0.9-0.4,0.9-0.9c0-0.5-0.4-0.9-0.9-0.9h-9.3c-0.5,0-0.9,0.4-0.9,0.9
		C345.6,114.4,346,114.8,346.5,114.8z"/>
	<path class="st0" d="M367.6,78.8c0,2.6,2.1,4.7,4.7,4.7c2.6,0,4.7-2.1,4.7-4.7c0-2.6-2.1-4.7-4.7-4.7
		C369.7,74.1,367.6,76.2,367.6,78.8z M372.3,75.9c1.6,0,2.9,1.3,2.9,2.9s-1.3,2.9-2.9,2.9s-2.9-1.3-2.9-2.9S370.7,75.9,372.3,75.9z"
		/>
	<path d="M395.2,67.5c0-4.7-3.8-8.5-8.5-8.5c-4.2,0-7.7,3.1-8.4,7.1H340c-0.5,0-0.9,0.4-0.9,0.9v7.3c0,0.5,0.4,0.9,0.9,0.9
		c0.5,0,0.9-0.4,0.9-0.9v-6.4h37.2c0,0.6,0.1,1.2,0.3,1.8h-3.6c-0.5,0-0.9,0.4-0.9,0.9c0,0.5,0.4,0.9,0.9,0.9h4.3
		c1.2,2.2,3.3,3.9,5.8,4.4V83L373,90.5l-15.8-8.8c-0.3-0.2-0.6-0.1-0.9,0l-11.8,7.5V71.5H371c0.5,0,0.9-0.4,0.9-0.9
		c0-0.5-0.4-0.9-0.9-0.9h-27.4c-0.5,0-0.9,0.4-0.9,0.9v25.8c0,0.5,0.4,0.9,0.9,0.9h42.2c0.5,0,0.9-0.4,0.9-0.9V76.1
		c0.6,0,1.2-0.1,1.8-0.2v36.6c0,0.5,0.4,0.9,0.9,0.9s0.9-0.4,0.9-0.9V75.3C393.2,73.9,395.2,70.9,395.2,67.5z M344.5,95.5v-4.1
		l12.4-7.9l21.5,11.9H344.5z M384.9,95.5H382l-7.2-4l10.1-6.4V95.5z M386.7,74.3c-3.7,0-6.7-3-6.7-6.7c0-3.7,3-6.7,6.7-6.7
		c3.7,0,6.7,3,6.7,6.7C393.4,71.3,390.4,74.3,386.7,74.3z"/>
	<path d="M391.1,64.3c-0.4-0.3-0.9-0.3-1.3,0.1l-4,4.5l-2.7-2.1c-0.4-0.3-0.9-0.2-1.3,0.1c-0.3,0.4-0.2,0.9,0.1,1.3l3.3,2.7
		c0.2,0.1,0.4,0.2,0.6,0.2c0.2,0,0.5-0.1,0.7-0.3l4.5-5.1C391.5,65.2,391.5,64.7,391.1,64.3z"/>
</g>
<g id="QA">
	<g>
		<g>
			<path d="M177.1,80.2l-3.3-7.9c-0.1-0.3-0.5-0.6-0.9-0.6s-0.7,0.2-0.9,0.6l-3.3,7.9c-0.2,0.5,0,1,0.5,1.2c0.5,0.2,1,0,1.2-0.5
				l0.5-1.1h4l0.5,1.1c0.2,0.4,0.5,0.6,0.9,0.6c0.1,0,0.2,0,0.4-0.1C177,81.2,177.3,80.6,177.1,80.2z M171.6,77.9l1.2-2.9l1.2,2.9
				H171.6z"/>
		</g>
	</g>
	<g>
		<g>
			<path d="M210.5,43.4h-46.4c-0.5,0-0.9,0.4-0.9,0.9v18.1c0,0.5,0.4,0.9,0.9,0.9h46.4c0.5,0,0.9-0.4,0.9-0.9V44.3
				C211.5,43.8,211.1,43.4,210.5,43.4z M180.6,61.5h-15.5V45.3h15.5V61.5z M209.6,61.5h-27.1V45.3h27.1V61.5z"/>
		</g>
	</g>
	<g>
		<g>
			<path d="M198,52.4h-10.6c-0.5,0-0.9,0.4-0.9,0.9c0,0.5,0.4,0.9,0.9,0.9H198c0.5,0,0.9-0.4,0.9-0.9
				C198.9,52.9,198.5,52.4,198,52.4z"/>
		</g>
	</g>
	<g>
		<g>
			<path d="M205.4,52.4H202c-0.5,0-0.9,0.4-0.9,0.9c0,0.5,0.4,0.9,0.9,0.9h3.4c0.5,0,0.9-0.4,0.9-0.9
				C206.4,52.9,205.9,52.4,205.4,52.4z"/>
		</g>
	</g>
	<g>
		<g>
			<path d="M202.6,48.3h-15.2c-0.5,0-0.9,0.4-0.9,0.9c0,0.5,0.4,0.9,0.9,0.9h15.2c0.5,0,0.9-0.4,0.9-0.9
				C203.6,48.7,203.1,48.3,202.6,48.3z"/>
		</g>
	</g>
	<g>
		<g>
			<path d="M206.1,48.6c-0.2-0.2-0.4-0.3-0.7-0.3s-0.5,0.1-0.7,0.3c-0.2,0.2-0.3,0.4-0.3,0.7c0,0.2,0.1,0.5,0.3,0.7
				c0.2,0.2,0.4,0.3,0.7,0.3s0.5-0.1,0.7-0.3c0.2-0.2,0.3-0.4,0.3-0.7C206.4,49,206.3,48.8,206.1,48.6z"/>
		</g>
	</g>
	<g>
		<g>
			<path d="M195.4,56.6h-8c-0.5,0-0.9,0.4-0.9,0.9c0,0.5,0.4,0.9,0.9,0.9h8c0.5,0,0.9-0.4,0.9-0.9C196.3,57,195.9,56.6,195.4,56.6z"
				/>
		</g>
	</g>
	<g>
		<g>
			<path d="M199.3,56.9c-0.2-0.2-0.4-0.3-0.7-0.3s-0.5,0.1-0.7,0.3c-0.2,0.2-0.3,0.4-0.3,0.7s0.1,0.5,0.3,0.7
				c0.2,0.2,0.4,0.3,0.7,0.3s0.5-0.1,0.7-0.3s0.3-0.4,0.3-0.7S199.4,57,199.3,56.9z"/>
		</g>
	</g>
	<g>
		<g>
			<path d="M202.7,56.9c-0.2-0.2-0.4-0.3-0.7-0.3s-0.5,0.1-0.7,0.3s-0.3,0.4-0.3,0.7s0.1,0.5,0.3,0.7c0.2,0.2,0.4,0.3,0.7,0.3
				s0.5-0.1,0.7-0.3c0.2-0.2,0.3-0.4,0.3-0.7S202.8,57,202.7,56.9z"/>
		</g>
	</g>
	<g>
		<g>
			<path d="M206.1,56.9c-0.2-0.2-0.4-0.3-0.7-0.3c-0.2,0-0.5,0.1-0.7,0.3c-0.2,0.2-0.3,0.4-0.3,0.7s0.1,0.5,0.3,0.7
				c0.2,0.2,0.4,0.3,0.7,0.3c0.2,0,0.5-0.1,0.7-0.3s0.3-0.4,0.3-0.7S206.3,57,206.1,56.9z"/>
		</g>
	</g>
	<g>
		<g>
			<path d="M210.5,66.6h-46.4c-0.5,0-0.9,0.4-0.9,0.9v18.1c0,0.5,0.4,0.9,0.9,0.9h46.4c0.5,0,0.9-0.4,0.9-0.9V67.5
				C211.5,67,211.1,66.6,210.5,66.6z M180.6,84.7h-15.5V68.5h15.5V84.7z M209.6,84.7h-27.1V68.5h27.1V84.7z"/>
		</g>
	</g>
	<g>
		<g>
			<path d="M198,75.6h-10.6c-0.5,0-0.9,0.4-0.9,0.9s0.4,0.9,0.9,0.9H198c0.5,0,0.9-0.4,0.9-0.9S198.5,75.6,198,75.6z"/>
		</g>
	</g>
	<g>
		<g>
			<path d="M205.4,75.6H202c-0.5,0-0.9,0.4-0.9,0.9s0.4,0.9,0.9,0.9h3.4c0.5,0,0.9-0.4,0.9-0.9S205.9,75.6,205.4,75.6z"/>
		</g>
	</g>
	<g>
		<g>
			<path d="M202.6,71.5h-15.2c-0.5,0-0.9,0.4-0.9,0.9c0,0.5,0.4,0.9,0.9,0.9h15.2c0.5,0,0.9-0.4,0.9-0.9
				C203.6,71.9,203.1,71.5,202.6,71.5z"/>
		</g>
	</g>
	<g>
		<g>
			<path d="M206.1,71.8c-0.2-0.2-0.4-0.3-0.7-0.3s-0.5,0.1-0.7,0.3c-0.2,0.2-0.3,0.4-0.3,0.7s0.1,0.5,0.3,0.7
				c0.2,0.2,0.4,0.3,0.7,0.3s0.5-0.1,0.7-0.3c0.2-0.2,0.3-0.4,0.3-0.7S206.3,71.9,206.1,71.8z"/>
		</g>
	</g>
	<g>
		<g>
			<path class="st0" d="M205.4,79.8h-18c-0.5,0-0.9,0.4-0.9,0.9s0.4,0.9,0.9,0.9h18c0.5,0,0.9-0.4,0.9-0.9S205.9,79.8,205.4,79.8z"
				/>
		</g>
	</g>
	<g>
		<g>
			<path class="st0" d="M177.5,56.2l-0.9-0.7c0.3-0.6,0.4-1.2,0.4-1.9v-1.5c0-2.4-1.9-4.3-4.3-4.3c-2.4,0-4.3,1.9-4.3,4.3v1.5
				c0,2.4,1.9,4.3,4.3,4.3c1,0,2-0.4,2.7-1l0.9,0.7c0.2,0.1,0.4,0.2,0.6,0.2c0.3,0,0.6-0.1,0.8-0.4C178,57.1,177.9,56.5,177.5,56.2z
				 M175.1,53.7c0,0.3,0,0.5-0.1,0.7l-1-0.7c-0.4-0.3-1-0.2-1.3,0.2c-0.3,0.4-0.2,1,0.2,1.3l0.9,0.7c-0.3,0.2-0.7,0.3-1.1,0.3
				c-1.4,0-2.4-1.1-2.4-2.4v-1.5c0-1.4,1.1-2.4,2.4-2.4s2.4,1.1,2.4,2.4V53.7z"/>
		</g>
	</g>
</g>
<g id="internet" class="st8">
	<g class="st9">
		<g>
			<g>
				<path class="st31" d="M376.7,14.1c-153.5,0-278.4-124.9-278.4-278.4s124.9-278.4,278.4-278.4c153.5,0,278.4,124.9,278.4,278.4
					S530.2,14.1,376.7,14.1z M249.4-126c-3.5,0-6.9,1.6-9.2,4.3c-2.3,2.7-3.2,6.3-2.6,9.8l0.6,3.5c5.1,29.2,19.2,55.6,40.5,76.4
					C300.2-11.2,327,2.1,356.4,6.3l3.4,0.5c0.6,0.1,1.2,0.1,1.7,0.1c2.9,0,5.7-1,7.9-2.9c2.6-2.3,4.1-5.6,4.1-9.1V-114
					c0-6.6-5.4-12-12-12H249.4z M391.8-126c-6.6,0-12,5.4-12,12V-5c0,3.5,1.5,6.8,4.1,9.1c2.2,1.9,5,2.9,7.9,2.9
					c0.6,0,1.1,0,1.7-0.1l3.4-0.5c29.4-4.3,56.3-17.5,77.7-38.3c21.4-20.8,35.4-47.2,40.5-76.4l0.6-3.5c0.6-3.5-0.3-7.1-2.6-9.8
					c-2.3-2.7-5.6-4.3-9.2-4.3H391.8z M219.5-121.6c-1.2,0-2.4,0.2-3.5,0.5l-3.3,1c-12.1,3.8-23.7,9.3-34.3,16.4l-2.9,1.9
					c-2.9,1.9-4.8,5.1-5.2,8.5c-0.4,3.5,0.7,7,3,9.5l2.4,2.6c16.5,18.1,35.4,33.9,56.1,47c2,1.2,4.2,1.9,6.4,1.9
					c3.1,0,6.2-1.2,8.5-3.5l4.1-4.1c4-4,4.7-10.1,1.7-14.9c-10.3-16.4-17.2-34.4-20.5-53.5l-0.6-3.4c-0.6-3.4-2.6-6.4-5.5-8.2
					C223.9-121,221.7-121.6,219.5-121.6z M533.9-121.6c-2.2,0-4.4,0.6-6.3,1.8c-2.9,1.8-5,4.8-5.5,8.2l-0.6,3.4
					c-3.2,19.1-10.1,37-20.5,53.5c-3,4.7-2.3,10.9,1.7,14.9l4.1,4.1c2.3,2.3,5.4,3.5,8.5,3.5c2.2,0,4.4-0.6,6.4-1.9
					c20.7-13.1,39.6-28.9,56.1-47l2.4-2.6c2.4-2.6,3.5-6.1,3-9.5c-0.4-3.5-2.3-6.6-5.2-8.5l-2.9-1.9c-10.6-7.1-22.2-12.6-34.3-16.4
					l-3.3-1C536.3-121.4,535.1-121.6,533.9-121.6z M535.6-261.2c-6.6,0-12,5.4-12,12v108.9c0,5.5,3.8,10.3,9.1,11.6l2.3,0.6
					c16.4,4.1,31.7,11,45.7,20.8l2.5,1.7c2,1.4,4.4,2.1,6.9,2.1c0.7,0,1.5-0.1,2.2-0.2c3.1-0.6,5.9-2.4,7.7-5l1.7-2.5
					c27.1-39.7,43.2-86.1,46.6-134l0.2-3.2c0.2-3.3-0.9-6.6-3.2-9s-5.4-3.8-8.8-3.8H535.6z M116.9-261.2c-3.3,0-6.5,1.4-8.8,3.8
					c-2.3,2.4-3.4,5.7-3.2,9l0.2,3.2c3.3,47.9,19.5,94.2,46.6,134l1.7,2.5c1.8,2.6,4.6,4.5,7.7,5c0.7,0.1,1.4,0.2,2.2,0.2
					c2.4,0,4.8-0.7,6.9-2.1l2.5-1.7c14-9.7,29.4-16.7,45.7-20.8l2.3-0.6c5.4-1.3,9.1-6.1,9.1-11.6v-108.9c0-6.6-5.4-12-12-12H116.9z
					 M391.8-261.2c-6.6,0-12,5.4-12,12v105c0,6.6,5.4,12,12,12h109.5c0,0,0.9,0,0.9,0c0,0,3.1,0,3.1,0c3.2,0,6.2-1.2,8.4-3.5
					c2.3-2.3,3.6-5.3,3.6-8.5v-105.1c0-6.6-5.4-12-12-12H391.8z M248.1-261.2c-6.6,0-12,5.4-12,12v105c0,3.2,1.3,6.3,3.5,8.5
					c2.2,2.2,5.3,3.5,8.5,3.5c0,0,3.1,0,3.1,0c0.1,0,1.1,0,1.1,0l109.4,0c6.6,0,12-5.4,12-12v-105c0-6.6-5.4-12-12-12H248.1z
					 M589.3-426.2c-2,0-4.1,0.5-6,1.6l-2.4,1.4c-14.1,8.1-29.3,13.7-45.2,16.7l-2.4,0.5c-5.7,1.1-9.8,6-9.8,11.8v114.9
					c0,6.6,5.4,12,12,12h100.9c3.3,0,6.5-1.4,8.8-3.8c2.3-2.4,3.4-5.7,3.2-9l-0.2-3.2c-3.4-48.5-19.8-95.2-47.5-135.3l-1.6-2.3
					C596.9-424.4,593.1-426.2,589.3-426.2z M391.8-403.9c-6.6,0-12,5.4-12,12v112.5c0,6.6,5.4,12,12,12h113.5c6.6,0,12-5.4,12-12
					v-112.5c0-6.6-5.4-12-12-12H391.8z M248.1-403.9c-6.6,0-12,5.4-12,12v112.5c0,6.6,5.4,12,12,12h113.5c6.6,0,12-5.4,12-12v-112.5
					c0-6.6-5.4-12-12-12H248.1z M164.1-426.2c-3.8,0-7.6,1.8-9.9,5.2l-1.6,2.3c-27.7,40-44.1,86.8-47.5,135.3l-0.2,3.2
					c-0.2,3.3,0.9,6.6,3.2,9c2.3,2.4,5.4,3.8,8.8,3.8h100.9c6.6,0,12-5.4,12-12v-114.9c0-5.8-4.1-10.7-9.8-11.8l-2.4-0.5
					c-15.9-3-31.1-8.6-45.2-16.7l-2.4-1.4C168.2-425.7,166.1-426.2,164.1-426.2z M391.8-535.6c-2.9,0-5.7,1-7.9,2.9
					c-2.6,2.3-4.1,5.6-4.1,9.1v101.4c0,6.6,5.4,12,12,12h110.8c3.7,0,7.1-1.7,9.4-4.6s3.1-6.7,2.2-10.2l-0.9-3.7
					c-6.6-27.3-21-51.7-41.8-70.8c-20.9-19.2-46.7-31.5-74.7-35.5l-3.4-0.5C393-535.6,392.4-535.6,391.8-535.6z M361.6-535.6
					c-0.6,0-1.1,0-1.7,0.1l-3.4,0.5c-27.9,4.1-53.8,16.3-74.7,35.5c-20.8,19.1-35.2,43.5-41.8,70.8l-0.9,3.7
					c-0.9,3.6,0,7.3,2.2,10.2s5.7,4.6,9.4,4.6h110.8c6.6,0,12-5.4,12-12v-101.4c0-3.5-1.5-6.8-4.1-9.1
					C367.3-534.6,364.5-535.6,361.6-535.6z M515.3-496.4c-3.1,0-6.2,1.2-8.5,3.5l-4.1,4.1c-4,4-4.7,10.1-1.7,14.9
					c9.5,15,16.1,31.4,19.6,48.8l0.6,3c0.6,3.2,2.5,5.9,5.2,7.7c2,1.3,4.2,1.9,6.5,1.9c0.9,0,1.7-0.1,2.6-0.3l3-0.7
					c11.7-2.6,23-6.6,33.7-12.1l3.5-1.8c3.3-1.7,5.7-4.9,6.3-8.6c0.7-3.7-0.5-7.5-3-10.2l-2.7-2.9c-16.2-17.5-34.6-32.8-54.6-45.5
					C519.8-495.8,517.6-496.4,515.3-496.4z M238.1-496.4c-2.2,0-4.4,0.6-6.4,1.9c-20.1,12.7-38.5,28-54.6,45.5l-2.7,2.9
					c-2.6,2.8-3.7,6.5-3,10.2c0.7,3.7,3,6.9,6.3,8.6l3.5,1.8c10.6,5.5,22,9.5,33.7,12.1l3,0.7c0.9,0.2,1.7,0.3,2.6,0.3
					c2.3,0,4.6-0.7,6.5-1.9c2.7-1.8,4.6-4.5,5.2-7.7l0.6-3c3.5-17.3,10.1-33.7,19.6-48.8c3-4.7,2.3-10.9-1.7-14.9l-4.1-4.1
					C244.2-495.2,241.2-496.4,238.1-496.4z"/>
			</g>
		</g>
	</g>
</g>
</svg>
