<?xml version="1.0" encoding="utf-8"?>
<!-- Generator: Adobe Illustrator 19.2.0, SVG Export Plug-In . SVG Version: 6.00 Build 0)  -->
<svg version="1.1" xmlns="http://www.w3.org/2000/svg" xmlns:xlink="http://www.w3.org/1999/xlink" x="0px" y="0px"
	 viewBox="0 0 740.7 186.7" style="enable-background:new 0 0 740.7 186.7;" xml:space="preserve">
<style type="text/css">
	.st0{fill:#7B00DB;}
	.st1{fill:#FFFFFF;stroke:#7B00DB;stroke-width:4;stroke-miterlimit:10;}
	.st2{fill:none;stroke:#7B00DB;stroke-width:4;stroke-linecap:round;stroke-linejoin:round;stroke-miterlimit:10;}
	.st3{display:none;}
	.st4{display:inline;fill:none;stroke:#D3D3D3;stroke-width:3;stroke-linecap:round;stroke-miterlimit:10;stroke-dasharray:9;}
	.st5{display:inline;stroke:#D3D3D3;stroke-width:3;stroke-linecap:round;stroke-miterlimit:10;stroke-dasharray:9;}
	.st6{display:inline;}
	.st7{fill:none;stroke:#D3D3D3;stroke-width:3;stroke-linecap:round;stroke-miterlimit:10;stroke-dasharray:9,9;}
	.st8{fill:#D3D3D3;}
	.st9{fill:#707070;}
	.st10{fill:#3A3A3A;}
	.st11{fill:#333333;}
	.st12{stroke:#020202;stroke-miterlimit:10;}
	.st13{fill:#7B00DB;stroke:#7B00DB;stroke-miterlimit:10;}
	.st14{display:inline;fill:none;stroke:#939393;stroke-width:2;stroke-miterlimit:10;}
	.st15{display:inline;fill:none;stroke:#7B00DB;stroke-width:2;stroke-miterlimit:10;}
	.st16{display:inline;fill:#FFFFFF;stroke:#7B00DB;stroke-linecap:round;stroke-linejoin:round;stroke-miterlimit:10;}
	.st17{display:inline;fill:none;stroke:#7B00DB;stroke-linecap:round;stroke-linejoin:round;stroke-miterlimit:10;}
	.st18{fill:#939393;}
	.st19{fill:#D8D8D8;}
	.st20{fill:none;}
	.st21{fill:#F7F7F7;stroke:#E5E5E5;stroke-miterlimit:10;}
	.st22{fill:#E5E5E5;}
	.st23{fill:#EAEAEA;}
	.st24{fill:#DDDDDD;}
	.st25{fill:none;stroke:#D8D8D8;stroke-miterlimit:10;}
	.st26{fill:#FFFFFF;}
	.st27{fill:none;stroke:#EAEAEA;stroke-width:4;stroke-linecap:round;stroke-linejoin:round;stroke-miterlimit:10;}
	.st28{fill:none;stroke:#000000;stroke-width:2;stroke-miterlimit:10;}
	.st29{fill:none;stroke:#7B00DB;stroke-width:2;stroke-miterlimit:10;}
	.st30{fill:none;stroke:#000000;stroke-width:2;stroke-linecap:round;stroke-linejoin:round;stroke-miterlimit:10;}
	.st31{fill:#EDEDED;}
</style>
<g id="Network">
	<g id="video">
	</g>
	<g id="podcast">
	</g>
	<g id="article_1_">
	</g>
</g>
<g id="binders">
	<g>
		<g>
			<path d="M329,122.7c-3.6,0-6.5,2.9-6.5,6.5c0,3.6,2.9,6.5,6.5,6.5c3.6,0,6.5-2.9,6.5-6.5C335.4,125.6,332.5,122.7,329,122.7z"/>
		</g>
	</g>
	<g>
		<g>
			<path d="M333.8,80.5h-9.7c-1,0-1.6,0.6-1.6,1.6s0.6,1.6,1.6,1.6h9.7c1,0,1.6-0.6,1.6-1.6S334.8,80.5,333.8,80.5z"/>
		</g>
	</g>
	<g>
		<g>
			<path d="M333.8,74.1h-9.7c-1,0-1.6,0.6-1.6,1.6s0.6,1.6,1.6,1.6h9.7c1,0,1.6-0.6,1.6-1.6S334.8,74.1,333.8,74.1z"/>
		</g>
	</g>
	<g>
		<g>
			<path d="M333.8,67.6h-9.7c-1,0-1.6,0.6-1.6,1.6c0,1,0.6,1.6,1.6,1.6h9.7c1,0,1.6-0.6,1.6-1.6C335.4,68.2,334.8,67.6,333.8,67.6z"
				/>
		</g>
	</g>
	<g>
		<g>
			<path d="M351.7,125.9c-1.8,0-3.2,1.5-3.2,3.2c0,1.8,1.5,3.2,3.2,3.2c1.8,0,3.2-1.5,3.2-3.2C354.9,127.4,353.4,125.9,351.7,125.9z
				"/>
		</g>
	</g>
	<g>
		<g>
			<path d="M329,90.3c-1,0-1.6,0.6-1.6,1.6v22.7c0,1,0.6,1.6,1.6,1.6c1,0,1.6-0.6,1.6-1.6V91.9C330.6,90.9,329.9,90.3,329,90.3z"/>
		</g>
	</g>
	<g>
		<g>
			<path d="M293.4,124.2c-0.2,0-0.3,0-0.6,0c-0.6,0-1.3,0.2-1.8,0.6c-0.6,0.5-1.1,1.3-1.3,2.1c-0.3,1.8,0.8,3.4,2.6,3.7
				c0.8,0.2,1.8,0,2.4-0.5s1.1-1.3,1.3-2.1C296.4,126.3,295.2,124.5,293.4,124.2z"/>
		</g>
	</g>
	<g>
		<g>
			<path d="M363,49.7h-22.7h-22.7c-1,0-1.6,0.6-1.6,1.6v2.1l-20.4-3.7c-0.5,0-0.8,0-1.1,0.3c-0.3,0.2-0.6,0.6-0.6,1l-16.5,90
				c-0.2,0.8,0.5,1.8,1.3,1.9l22.2,4.1c0.2,0,0.2,0,0.3,0c0.3,0,0.6-0.2,1-0.3c0.3-0.3,0.6-0.6,0.6-1L316,73.3v72.1
				c0,1,0.6,1.6,1.6,1.6h22.7H363c1,0,1.6-0.6,1.6-1.6v-94C364.6,50.4,364,49.7,363,49.7z M299.3,128.5c-0.3,1.8-1.3,3.2-2.8,4.2
				c-1.1,0.8-2.4,1.1-3.7,1.1c-0.3,0-0.8,0-1.1-0.2c-3.6-0.6-5.8-4.1-5.2-7.6c0.3-1.8,1.3-3.2,2.8-4.2c1.5-1,3.1-1.3,4.9-1
				C297.5,121.7,299.9,125.1,299.3,128.5z M300.4,93.5l-4.1,22.4c-0.2,0.8-0.8,1.3-1.6,1.3c-0.2,0-0.2,0-0.3,0
				c-0.8-0.2-1.5-1-1.3-1.9l4.1-22.4c0.2-0.8,1-1.5,1.9-1.3C299.9,91.7,300.6,92.5,300.4,93.5z M307.2,85.6c-0.2,0.6-1,1.3-1.6,1.3
				c-0.2,0-0.2,0-0.3,0l-9.6-1.8c-0.8-0.2-1.5-1-1.3-1.9c0.2-0.8,1-1.5,1.9-1.3l9.6,1.8C306.7,83.8,307.4,84.6,307.2,85.6z
				 M308.4,79.3c-0.2,0.6-0.8,1.3-1.6,1.3c-0.2,0-0.2,0-0.3,0l-9.6-1.8c-0.8-0.2-1.5-1-1.3-1.9c0.2-0.8,1-1.5,1.9-1.3l9.6,1.8
				C307.9,77.5,308.5,78.3,308.4,79.3z M309.5,72.8c-0.2,0.8-0.8,1.3-1.6,1.3c-0.2,0-0.2,0-0.3,0l-9.6-1.8c-0.8-0.2-1.5-1-1.3-1.9
				c0.2-0.8,1-1.5,1.9-1.3l9.6,1.8C309,71,309.7,71.8,309.5,72.8z M310.6,66.4c-0.2,0.6-0.8,1.3-1.6,1.3c-0.2,0-0.2,0-0.3,0
				l-9.4-1.8c-0.8-0.2-1.5-1-1.3-1.9c0-0.8,1-1.5,1.8-1.3l9.6,1.8C310.1,64.7,310.8,65.5,310.6,66.4z M338.7,143.8h-19.5V53h19.5
				V143.8z M351.7,135.7c-3.6,0-6.5-2.9-6.5-6.5c0-3.6,2.9-6.5,6.5-6.5s6.5,2.9,6.5,6.5C358.1,132.8,355.2,135.7,351.7,135.7z
				 M350,114.6V91.9c0-1,0.6-1.6,1.6-1.6c1,0,1.6,0.6,1.6,1.6v22.7c0,1-0.6,1.6-1.6,1.6C350.7,116.2,350,115.6,350,114.6z
				 M356.5,83.8h-9.7c-1,0-1.6-0.6-1.6-1.6s0.6-1.6,1.6-1.6h9.7c1,0,1.6,0.6,1.6,1.6S357.5,83.8,356.5,83.8z M356.5,77.3h-9.7
				c-1,0-1.6-0.6-1.6-1.6s0.6-1.6,1.6-1.6h9.7c1,0,1.6,0.6,1.6,1.6S357.5,77.3,356.5,77.3z M356.5,70.8h-9.7c-1,0-1.6-0.6-1.6-1.6
				c0-1,0.6-1.6,1.6-1.6h9.7c1,0,1.6,0.6,1.6,1.6C358.1,70.2,357.5,70.8,356.5,70.8z M356.5,64.3h-9.7c-1,0-1.6-0.6-1.6-1.6
				c0-1,0.6-1.6,1.6-1.6h9.7c1,0,1.6,0.6,1.6,1.6S357.5,64.3,356.5,64.3z"/>
		</g>
	</g>
	<g>
		<g>
			<path d="M394,129.2c0,3.6,2.9,6.5,6.5,6.5s6.5-2.9,6.5-6.5c0-3.6-2.9-6.5-6.5-6.5S394,125.6,394,129.2z"/>
		</g>
	</g>
	<g>
		<g>
			<path d="M394,82.2c0,1,0.6,1.6,1.6,1.6h9.7c1,0,1.6-0.6,1.6-1.6s-0.6-1.6-1.6-1.6h-9.7C394.7,80.5,394,81.2,394,82.2z"/>
		</g>
	</g>
	<g>
		<g>
			<path d="M394,75.7c0,1,0.6,1.6,1.6,1.6h9.7c1,0,1.6-0.6,1.6-1.6s-0.6-1.6-1.6-1.6h-9.7C394.7,74.1,394,74.7,394,75.7z"/>
		</g>
	</g>
	<g>
		<g>
			<path d="M394,69.2c0,1,0.6,1.6,1.6,1.6h9.7c1,0,1.6-0.6,1.6-1.6c0-1-0.6-1.6-1.6-1.6h-9.7C394.7,67.6,394,68.2,394,69.2z"/>
		</g>
	</g>
	<g>
		<g>
			<path d="M374.6,129.2c0,1.8,1.5,3.2,3.2,3.2c1.8,0,3.2-1.5,3.2-3.2c0-1.8-1.5-3.2-3.2-3.2C376,125.9,374.6,127.4,374.6,129.2z"/>
		</g>
	</g>
	<g>
		<g>
			<path d="M398.9,91.9v22.7c0,1,0.6,1.6,1.6,1.6s1.6-0.6,1.6-1.6V91.9c0-1-0.6-1.6-1.6-1.6S398.9,90.9,398.9,91.9z"/>
		</g>
	</g>
	<g>
		<g>
			<path d="M433.4,128.1c0.2,0.8,0.6,1.6,1.3,2.1s1.6,0.6,2.4,0.5c1.8-0.3,2.9-1.9,2.6-3.7c-0.2-0.8-0.6-1.6-1.3-2.1
				c-0.5-0.5-1.1-0.6-1.8-0.6c-0.3,0-0.5,0-0.6,0C434.2,124.5,433.1,126.3,433.4,128.1z"/>
		</g>
	</g>
	<g>
		<g>
			<path class="st0" d="M364.8,51.4v94c0,1,0.6,1.6,1.6,1.6h22.7h22.7c1,0,1.6-0.6,1.6-1.6V73.3l13.3,72.5c0,0.3,0.3,0.6,0.6,1
				c0.3,0.2,0.6,0.3,1,0.3c0.2,0,0.2,0,0.3,0l22.2-4.1c0.8-0.2,1.5-1.1,1.3-1.9l-16.5-90c0-0.3-0.3-0.8-0.6-1
				c-0.3-0.3-0.6-0.3-1.1-0.3l-20.4,3.7v-2.1c0-1-0.6-1.6-1.6-1.6h-22.7h-22.7C365.5,49.7,364.8,50.4,364.8,51.4z M435.4,120.9
				c1.8-0.3,3.4,0,4.9,1c1.5,1,2.4,2.4,2.8,4.2c0.6,3.6-1.6,7-5.2,7.6c-0.3,0.2-0.8,0.2-1.1,0.2c-1.3,0-2.6-0.3-3.7-1.1
				c-1.5-1-2.4-2.4-2.8-4.2C429.5,125.1,432,121.7,435.4,120.9z M430.3,91.6c1-0.2,1.8,0.5,1.9,1.3l4.1,22.4c0.2,1-0.5,1.8-1.3,1.9
				c-0.2,0-0.2,0-0.3,0c-0.8,0-1.5-0.5-1.6-1.3l-4.1-22.4C428.9,92.5,429.5,91.7,430.3,91.6z M423.5,83.6l9.6-1.8
				c1-0.2,1.8,0.5,1.9,1.3c0.2,1-0.5,1.8-1.3,1.9l-9.6,1.8c-0.2,0-0.2,0-0.3,0c-0.6,0-1.5-0.6-1.6-1.3
				C422.1,84.6,422.7,83.8,423.5,83.6z M422.4,77.3l9.6-1.8c1-0.2,1.8,0.5,1.9,1.3c0.2,1-0.5,1.8-1.3,1.9l-9.6,1.8
				c-0.2,0-0.2,0-0.3,0c-0.8,0-1.5-0.6-1.6-1.3C420.9,78.3,421.6,77.5,422.4,77.3z M421.3,70.8l9.6-1.8c1-0.2,1.8,0.5,1.9,1.3
				c0.2,1-0.5,1.8-1.3,1.9l-9.6,1.8c-0.2,0-0.2,0-0.3,0c-0.8,0-1.5-0.5-1.6-1.3C419.8,71.8,420.5,71,421.3,70.8z M420.1,64.5
				l9.6-1.8c0.8-0.2,1.8,0.5,1.8,1.3c0.2,1-0.5,1.8-1.3,1.9l-9.4,1.8c-0.2,0-0.2,0-0.3,0c-0.8,0-1.5-0.6-1.6-1.3
				C418.7,65.5,419.3,64.7,420.1,64.5z M390.8,53h19.5v90.8h-19.5V53z M371.3,129.2c0-3.6,2.9-6.5,6.5-6.5c3.6,0,6.5,2.9,6.5,6.5
				c0,3.6-2.9,6.5-6.5,6.5C374.3,135.7,371.3,132.8,371.3,129.2z M377.8,116.2c-1,0-1.6-0.6-1.6-1.6V91.9c0-1,0.6-1.6,1.6-1.6
				c1,0,1.6,0.6,1.6,1.6v22.7C379.4,115.6,378.8,116.2,377.8,116.2z M371.3,82.2c0-1,0.6-1.6,1.6-1.6h9.7c1,0,1.6,0.6,1.6,1.6
				s-0.6,1.6-1.6,1.6H373C372,83.8,371.3,83.1,371.3,82.2z M371.3,75.7c0-1,0.6-1.6,1.6-1.6h9.7c1,0,1.6,0.6,1.6,1.6
				s-0.6,1.6-1.6,1.6H373C372,77.3,371.3,76.7,371.3,75.7z M371.3,69.2c0-1,0.6-1.6,1.6-1.6h9.7c1,0,1.6,0.6,1.6,1.6
				c0,1-0.6,1.6-1.6,1.6H373C372,70.8,371.3,70.2,371.3,69.2z M371.3,62.7c0-1,0.6-1.6,1.6-1.6h9.7c1,0,1.6,0.6,1.6,1.6
				c0,1-0.6,1.6-1.6,1.6H373C372,64.3,371.3,63.7,371.3,62.7z"/>
		</g>
	</g>
	<circle class="st1" cx="447.2" cy="64.3" r="15.3"/>
	<polyline class="st2" points="440.1,64.7 445.5,70.7 454,60.1 	"/>
</g>
<g id="robot">
	<g>
		<path class="st0" d="M452.2,550.7h-16.7c-0.9,0-1.7,0.8-1.7,1.7c0,0.9,0.8,1.7,1.7,1.7h16.7c0.5,0,0.9-0.2,1.2-0.5
			c0.3-0.3,0.5-0.8,0.5-1.2c0-0.5-0.2-0.9-0.5-1.2C453.1,550.9,452.6,550.7,452.2,550.7z"/>
		<path class="st0" d="M437,547.3c0.5,0,0.9-0.2,1.2-0.5c0.3-0.3,0.5-0.8,0.5-1.2v-3.4c0-0.9-0.8-1.7-1.7-1.7s-1.7,0.8-1.7,1.7v3.4
			c0,0.5,0.2,0.9,0.5,1.2C436.1,547.2,436.6,547.3,437,547.3z"/>
		<path class="st0" d="M450.6,547.3c0.5,0,0.9-0.2,1.2-0.5c0.3-0.3,0.5-0.8,0.5-1.2v-3.4c0-0.9-0.8-1.7-1.7-1.7
			c-0.9,0-1.7,0.8-1.7,1.7v3.4c0,0.5,0.2,0.9,0.5,1.2C449.8,547.2,450.2,547.3,450.6,547.3z"/>
		<path class="st0" d="M455.7,560.9c2.8,0,5.1-2.3,5.1-5.1v-0.2c4-0.8,6.8-4.3,6.8-8.3s-2.8-7.5-6.8-8.3v-0.2c0-2.8-2.3-5.1-5.1-5.1
			h-8.5l2.7-2c0.4-0.3,0.6-0.7,0.7-1.1c0.1-0.4-0.1-0.9-0.3-1.3l-2.2-3c1.5-2.1,1.2-5-0.7-6.9c-1.9-1.8-4.8-2-6.9-0.5
			s-2.8,4.4-1.6,6.7s3.9,3.4,6.4,2.6l1.2,1.6l-5,3.7h-9.6c-2.8,0-5.1,2.3-5.1,5.1v0.2c-4,0.8-6.8,4.3-6.8,8.3c0,4,2.8,7.5,6.8,8.3
			v0.2c0,2.8,2.3,5.1,5.1,5.1h5.1v6.8h-10.2c-3.8,0-6.8,3-6.8,6.8v17c0,1.9,1.5,3.4,3.4,3.4h3.9c0.6,1,1.7,1.7,2.9,1.7h27.2
			c1.9,0,3.4-1.5,3.4-3.4h3.4c1.9,0,3.4-1.5,3.4-3.4v-15.3c0-3.8-3-6.8-6.8-6.8h-10.2v-6.8H455.7z M460.9,542.5
			c2,0.7,3.4,2.7,3.4,4.8c0,2.2-1.4,4.1-3.4,4.8V542.5z M443.8,525.2c-0.9,0-1.7-0.8-1.7-1.7s0.8-1.7,1.7-1.7c0.9,0,1.7,0.8,1.7,1.7
			C445.5,524.4,444.8,525.2,443.8,525.2z M426.8,552.1c-2-0.7-3.4-2.7-3.4-4.8s1.4-4.1,3.4-4.8V552.1z M426.8,591.6h-3.4v-17
			c0-1.9,1.5-3.4,3.4-3.4L426.8,591.6L426.8,591.6z M460.9,571.2c1.9,0,3.4,1.5,3.4,3.4v15.3h-3.4V571.2z M450.6,593.3H437V578h13.6
			V593.3z M457.4,571.2l0,20.4l0,0l0,0l0,1.7H454V578c0-1.9-1.5-3.4-3.4-3.4H437c-1.9,0-3.4,1.5-3.4,3.4v15.3h-3.4v-22.1H457.4z
			 M440.4,567.8v-6.8h6.8v6.8H440.4L440.4,567.8z M431.9,557.5c-0.9,0-1.7-0.8-1.7-1.7v-17c0-0.9,0.8-1.7,1.7-1.7h23.8
			c0.9,0,1.7,0.8,1.7,1.7v17c0,0.9-0.8,1.7-1.7,1.7H431.9z"/>
	</g>
</g>
<g id="path" class="st3">
	<path class="st4" d="M349,521.7"/>
	<path class="st5" d="M362.4,331.6"/>
	<path class="st4" d="M285.3,151.2c0,39.5,36.5,87.1,56.6,110.4"/>
	<g class="st6">
		<g>
			<path class="st7" d="M489.7,550.8c97.7-7.2,143.3-251.7-80-254.3"/>
			<g>
				<path class="st8" d="M430.4,282.5c0.4,0.7,0.2,1.6-0.5,2.1l-19.6,12l19.1,12.7c0.7,0.5,0.9,1.4,0.4,2.1
					c-0.5,0.7-1.4,0.9-2.1,0.4l-21.1-14c-0.4-0.3-0.7-0.8-0.7-1.3c0-0.5,0.3-1,0.7-1.3l21.6-13.2c0.3-0.2,0.5-0.2,0.8-0.2
					C429.7,281.8,430.1,282,430.4,282.5z"/>
			</g>
		</g>
	</g>
	<path class="st4" d="M443.1,155.5c5.8,36.5-24.2,92.2-44.3,115.4"/>
	<g class="st6">
		<g>
			<path class="st7" d="M281.7,557.4c-150.1-4.1-127.1-261.7,42.5-261.7"/>
			<g>
				<path class="st8" d="M261.6,542.4c-0.5,0.7-0.3,1.6,0.4,2.1l19,12.8l-19.7,11.8c-0.7,0.4-0.9,1.3-0.5,2.1
					c0.4,0.7,1.4,0.9,2.1,0.5l21.7-13c0.4-0.3,0.7-0.7,0.7-1.2c0-0.5-0.2-1-0.7-1.3l-21-14.2c-0.2-0.2-0.5-0.2-0.8-0.3
					C262.4,541.7,261.9,541.9,261.6,542.4z"/>
			</g>
		</g>
	</g>
</g>
<g id="layers">
	<path class="st0" d="M126.8,409.6c2,0,3.6-1.6,3.6-3.6s-1.6-3.6-3.6-3.6c-2,0-3.6,1.6-3.6,3.6S124.8,409.6,126.8,409.6z
		 M126.8,404.8c0.7,0,1.2,0.5,1.2,1.2s-0.5,1.2-1.2,1.2s-1.2-0.5-1.2-1.2S126.1,404.8,126.8,404.8z"/>
	<path class="st9" d="M166.6,419.2h-6v-6c0-0.7-0.5-1.2-1.2-1.2h-6v-6c0-0.7-0.5-1.2-1.2-1.2h-6v-6c0-0.7-0.5-1.2-1.2-1.2h-28
		c-5.6,0-8.7-0.2-9.3,0.5c-0.3,0.4-0.1,3.2-0.1,8.9v28c0,0.7,0.5,1.2,1.2,1.2h6v6c0,0.7,0.5,1.2,1.2,1.2h6v6c0,0.7,0.5,1.2,1.2,1.2
		h6v6c0,0.7,0.5,1.2,1.2,1.2h36.2c0.7,0,1.2-0.5,1.2-1.2v-36.2C167.8,419.8,167.2,419.2,166.6,419.2z M122.3,421.7h-10.4l5.2-4.4
		L122.3,421.7z M121.5,417.8l2.9-2.9l3.3,3.3l-2.7,2.5L121.5,417.8z M137.6,412.5l6.1,6.1v3.1h-16.2L137.6,412.5z M116.1,400h27.5
		v15.2l-5.2-5.2c-0.5-0.5-1.2-0.5-1.7,0l-7.4,6.7l-4.2-4.2c-0.5-0.5-1.2-0.5-1.7,0l-3.8,3.8l-1.7-1.5c-0.4-0.4-1.1-0.4-1.6,0
		l-6.5,5.5v-14.1c0-2.2-0.1-4.8,0.6-5.5C111.2,400.1,113.8,400,116.1,400z M109.9,424.1h33.8v9.6h-33.8V424.1z M117.1,436.1h27.7
		c0.7,0,1.2-0.5,1.2-1.2v-27.7h4.8V441h-33.8V436.1z M124.4,443.4h27.7c0.7,0,1.2-0.5,1.2-1.2v-27.7h4.8v33.8h-33.8V443.4z
		 M165.4,455.4h-33.8v-4.8h27.7c0.7,0,1.2-0.5,1.2-1.2v-27.7h4.8V455.4z"/>
</g>
<g id="processor" class="st3">
	<g class="st6">
		<g>
			<path class="st10" d="M395.1,294.8l-15.6-0.2l0-2.2l4.2,0.1c0.5,0,1-0.4,1-1c0-0.5-0.4-1-1-1l-4.2-0.1l0-2.2l2.9,0
				c1.1,0,2.1-0.4,2.9-1.2l6.5-6.3c0.4,0.2,0.9,0.3,1.3,0.3c0.8,0,1.6-0.3,2.2-0.9c0.6-0.6,0.9-1.3,0.9-2.1c0-0.8-0.3-1.6-0.9-2.2
				c-0.6-0.6-1.3-0.9-2.1-0.9c-0.8,0-1.6,0.3-2.2,0.9c-0.6,0.6-0.9,1.3-0.9,2.1c0,0.5,0.1,0.9,0.3,1.4l-6.5,6.3
				c-0.4,0.4-0.9,0.6-1.5,0.6l-2.9,0l0-2.1c0-2.8-2.2-5.1-5-5.2l-2.1,0l0.1-8.6c1.2-0.4,2.1-1.5,2.1-2.9c0-1.7-1.3-3.1-3-3.1
				c-1.7,0-3.1,1.3-3.1,3c0,1.3,0.8,2.5,2,2.9l-0.1,8.6l-2.2,0l0.1-4.2c0-0.5-0.4-1-1-1c-0.5,0-1,0.4-1,1l-0.1,4.2l-2.2,0l0.2-15.6
				c0-0.5-0.4-1-1-1c-0.5,0-1,0.4-1,1l-0.2,15.6l-2.2,0l0.1-4.2c0-0.5-0.4-1-1-1c-0.5,0-1,0.4-1,1l-0.1,4.2l-2.2,0l0-2.9
				c0-1.1-0.4-2.1-1.2-2.9l-6.3-6.5c0.6-1.1,0.4-2.6-0.5-3.5c-1.2-1.2-3.1-1.2-4.3-0.1c-1.2,1.2-1.2,3.1-0.1,4.3
				c0.6,0.6,1.4,0.9,2.1,0.9c0.5,0,0.9-0.1,1.4-0.3l6.3,6.5c0.4,0.4,0.6,0.9,0.6,1.5l0,2.9l-2.1,0c-0.4,0-0.9,0-1.3,0.1
				c-0.5,0.1-0.8,0.7-0.7,1.2c0.1,0.5,0.7,0.8,1.2,0.7c0.3-0.1,0.5-0.1,0.8-0.1l22.8,0.3c1.7,0,3.2,1.5,3.1,3.2l-0.3,22.8
				c0,0.3,0,0.5-0.1,0.8c-0.1,0.5,0.2,1,0.7,1.2c0.1,0,0.2,0,0.2,0c0.4,0,0.8-0.3,0.9-0.7c0.1-0.4,0.2-0.8,0.2-1.3l0-2.1l8.6,0.1
				c0.4,1.2,1.5,2.1,2.9,2.1c1.7,0,3.1-1.3,3.1-3c0-1.7-1.3-3.1-3-3.1c-1.3,0-2.5,0.8-2.9,2l-8.6-0.1l0-2.2l4.2,0.1c0.5,0,1-0.4,1-1
				c0-0.5-0.4-1-1-1l-4.2-0.1l0-2.2l15.6,0.2c0.5,0,1-0.4,1-1S395.7,294.8,395.1,294.8z M392.5,277.3c0.2-0.2,0.5-0.3,0.8-0.3
				s0.6,0.1,0.8,0.3c0.2,0.2,0.3,0.5,0.3,0.8s-0.1,0.6-0.3,0.8c-0.2,0.2-0.5,0.3-0.8,0.3s-0.6-0.1-0.8-0.3c-0.2-0.2-0.3-0.5-0.3-0.8
				S392.3,277.5,392.5,277.3z M346.5,265.9c-0.4,0.4-1.1,0.4-1.6,0c-0.4-0.4-0.4-1.1,0-1.6c0.2-0.2,0.5-0.3,0.8-0.3
				c0.3,0,0.6,0.1,0.8,0.3C347,264.8,347,265.5,346.5,265.9z M371.6,268.6c-0.6,0-1.1-0.5-1.1-1.1c0-0.6,0.5-1.1,1.1-1.1
				c0.6,0,1.1,0.5,1.1,1.1C372.7,268.1,372.2,268.6,371.6,268.6z M390.9,302.9c0.6,0,1.1,0.5,1.1,1.1c0,0.6-0.5,1.1-1.1,1.1
				s-1.1-0.5-1.1-1.1C389.8,303.4,390.3,302.9,390.9,302.9z"/>
		</g>
	</g>
	<g class="st6">
		<g>
			<path class="st11" d="M382.4,323.5c-0.9-1-2.3-1.2-3.5-0.6l-6.3-6.5c-0.4-0.4-0.6-0.9-0.6-1.5l0-2.9l2.1,0c0.4,0,0.9,0,1.3-0.1
				c0.5-0.1,0.8-0.7,0.7-1.2c-0.1-0.5-0.7-0.8-1.2-0.7c-0.3,0.1-0.5,0.1-0.8,0.1l-22.8-0.3c-1.7,0-3.2-1.5-3.1-3.2l0.3-22.8
				c0-0.3,0-0.5,0.1-0.8c0.1-0.5-0.2-1-0.7-1.2c-0.5-0.1-1,0.2-1.2,0.7c-0.1,0.4-0.2,0.8-0.2,1.3l0,2.1l-8.6-0.1
				c-0.4-1.2-1.5-2.1-2.9-2.1c-1.7,0-3.1,1.3-3.1,3s1.3,3.1,3,3.1c1.3,0,2.5-0.8,2.9-2l8.6,0.1l0,2.2l-4.2-0.1c-0.5,0-1,0.4-1,1
				c0,0.5,0.4,1,1,1l4.2,0.1l0,2.2l-15.6-0.2c-0.5,0-1,0.4-1,1c0,0.5,0.4,1,1,1l15.6,0.2l0,2.2l-4.2-0.1c-0.5,0-1,0.4-1,1
				c0,0.5,0.4,1,1,1l4.2,0.1l0,2.2l-2.9,0c-1.1,0-2.1,0.4-2.9,1.2l-6.5,6.3c-0.4-0.2-0.9-0.3-1.3-0.3c-0.8,0-1.6,0.3-2.2,0.9
				c-0.6,0.6-0.9,1.3-0.9,2.1c0,0.8,0.3,1.6,0.9,2.2c0.6,0.6,1.3,0.9,2.1,0.9c0.8,0,1.6-0.3,2.2-0.9c0.6-0.6,0.9-1.3,0.9-2.1
				c0-0.5-0.1-0.9-0.3-1.4l6.5-6.3c0.4-0.4,0.9-0.6,1.5-0.6l2.9,0l0,2.1c0,2.8,2.2,5.1,5,5.2l2.1,0l-0.1,8.6
				c-1.2,0.4-2.1,1.5-2.1,2.9c0,1.7,1.3,3.1,3,3.1c1.7,0,3.1-1.3,3.1-3c0-1.3-0.8-2.5-2-2.9l0.1-8.6l2.2,0l-0.1,4.2c0,0.5,0.4,1,1,1
				c0.5,0,1-0.4,1-1l0.1-4.2l2.2,0l-0.2,15.6c0,0.5,0.4,1,1,1c0.5,0,1-0.4,1-1l0.2-15.6l2.2,0l-0.1,4.2c0,0.5,0.4,1,1,1
				c0.5,0,1-0.4,1-1l0.1-4.2l2.2,0l0,2.9c0,1.1,0.4,2.1,1.2,2.9l6.3,6.5c-0.6,1.1-0.4,2.5,0.5,3.5c0.6,0.6,1.4,0.9,2.1,0.9
				c0.8,0,1.6-0.3,2.2-0.9C383.5,326.6,383.5,324.7,382.4,323.5z M335.1,287.8c-0.6,0-1.1-0.5-1.1-1.1c0-0.6,0.5-1.1,1.1-1.1
				s1.1,0.5,1.1,1.1C336.2,287.3,335.7,287.8,335.1,287.8z M333.5,313.3c-0.2,0.2-0.5,0.3-0.8,0.3c-0.3,0-0.6-0.1-0.8-0.3
				s-0.3-0.5-0.3-0.8c0-0.3,0.1-0.6,0.3-0.8c0.2-0.2,0.5-0.3,0.8-0.3c0.3,0,0.6,0.1,0.8,0.3c0.2,0.2,0.3,0.5,0.3,0.8
				C333.8,312.9,333.7,313.1,333.5,313.3z M355.4,323.2c0,0.6-0.5,1.1-1.1,1.1c-0.6,0-1.1-0.5-1.1-1.1s0.5-1.1,1.1-1.1
				S355.4,322.6,355.4,323.2z M381,326.4c-0.4,0.4-1.1,0.4-1.6,0c-0.4-0.4-0.4-1.1,0-1.6c0.2-0.2,0.5-0.3,0.8-0.3s0.6,0.1,0.8,0.3
				C381.4,325.3,381.4,326,381,326.4z"/>
		</g>
	</g>
	<g class="st6">
		<g>
			<path class="st0" d="M373.3,292.9c0-2.1-1.5-3.8-3.5-4.4c0.1-0.3,0.1-0.5,0.1-0.8c0-2-1.7-3.6-3.8-3.6c-1.2,0-2.2,0.4-2.9,1.2
				c-0.7-0.8-1.7-1.2-2.9-1.2c-2.1,0-3.9,1.5-3.9,3.5c0,0.3,0,0.5,0.1,0.8c-2.1,0.5-3.6,2.3-3.7,4.3c0,1,0.3,2,1,2.8
				c-0.7,0.8-1,1.8-1.1,2.9c0,1.6,0.8,3.2,2.3,4.2c0,0,0,0,0,0c0,2.2,1.9,4.1,4.4,4.1c1.4,0,2.7-0.6,3.5-1.5c0.8,1,2.1,1.6,3.5,1.6
				c2.4,0,4.3-1.6,4.5-3.8c1.5-0.8,2.4-2.3,2.4-3.8c0-1.2-0.5-2.3-1.3-3.1C372.8,295.2,373.3,294.1,373.3,292.9z M369.8,296.8
				c0.9,0.5,1.5,1.4,1.5,2.3c0,0.7-0.3,1.3-0.9,1.8c-0.5-1-1.4-1.7-2.5-2.1c-0.5-0.2-1.1,0.1-1.2,0.6c-0.2,0.5,0.1,1.1,0.6,1.2
				c1,0.3,1.6,1.1,1.6,2c0,1.2-1.2,2.1-2.6,2.1c-1.4,0-2.5-1-2.5-2.2l0.1-6.2c0-1.2,1.2-2.1,2.6-2.1c0.5,0,1-0.4,1-1
				c0-0.5-0.4-1-1-1c-0.9,0-1.8,0.2-2.5,0.7l0-1.2c0-0.5-0.4-1-1-1c-0.5,0-1,0.4-1,1l-0.1,5.4c-0.3-0.2-0.7-0.4-1.1-0.5
				c-0.5-0.2-1.1,0.1-1.2,0.6c-0.2,0.5,0.1,1.1,0.6,1.2c1,0.3,1.6,1.1,1.6,2l0,2.1c0,1.2-1.2,2.1-2.6,2.1c-1.4,0-2.5-1-2.5-2.2
				c0-0.5,0.2-1,0.6-1.4c0.4-0.4,0.4-1,0-1.4c-0.4-0.4-1-0.4-1.4,0c-0.2,0.2-0.4,0.5-0.6,0.7c-0.6-0.6-1-1.4-0.9-2.1
				c0-1.4,1.2-2.7,2.8-3c0.5-0.1,0.9-0.6,0.7-1.2c-0.1-0.5-0.6-0.9-1.2-0.7c-0.7,0.1-1.3,0.4-1.8,0.7c-0.3-0.4-0.5-0.9-0.5-1.5
				c0-1.5,1.4-2.6,3.1-2.6c0,0,0,0,0,0c0.2,0,0.4-0.1,0.6-0.2c0.4-0.3,0.5-0.8,0.2-1.2c0,0,0,0,0,0c0,0,0,0,0,0c0,0,0,0,0-0.1
				c0,0,0,0,0,0c-0.2-0.2-0.3-0.5-0.3-0.9c0-0.9,0.9-1.6,2-1.6s1.9,0.8,1.9,1.6c0,0.5,0.4,1,1,1c0.5,0,1-0.4,1-1
				c0-0.9,0.9-1.6,2-1.6c1.1,0,1.9,0.8,1.9,1.6c0,0.2-0.1,0.4-0.2,0.6c-0.6,0-1.1,0.2-1.6,0.4c-0.5,0.2-0.7,0.8-0.5,1.3
				c0.2,0.5,0.8,0.7,1.3,0.5c0.4-0.2,0.9-0.3,1.3-0.3c0,0,0,0,0,0c0,0,0,0,0,0c1.7,0,3.1,1.2,3,2.7c0,0.9-0.6,1.7-1.5,2.2
				c-0.3,0.2-0.5,0.5-0.5,0.8S369.5,296.6,369.8,296.8z"/>
		</g>
	</g>
</g>
<g id="man" class="st3">
	<g class="st6">
		<g>
			<g>
				<path class="st12" d="M372.5,571.2h8.4c7.7,0,14-6.3,14-14V540c0-7.7-6.3-14-14-14h-8.4c-7.7,0-14,6.3-14,14v17.2
					C358.5,564.9,364.8,571.2,372.5,571.2z M361.4,540c0-6.1,5-11.1,11.1-11.1h8.4c6.1,0,11.1,5,11.1,11.1v17.2
					c0,6.1-5,11.1-11.1,11.1h-8.4c-6.1,0-11.1-5-11.1-11.1V540z"/>
				<path class="st12" d="M371.6,574.1c0-0.9-0.6-1.5-1.5-1.5c-0.9,0-1.5,0.6-1.5,1.5v1.5c0,2.5-1.9,4.4-4.4,4.4h-10.2
					c-4.1,0-7.3,3.2-7.3,7.3c0,0.9,0.6,1.5,1.5,1.5c0.9,0,1.5-0.6,1.5-1.5c0-2.5,1.9-4.4,4.4-4.4h10.2c4.1,0,7.3-3.2,7.3-7.3V574.1z
					"/>
				<path class="st12" d="M397.8,579.9h-10.2c-2.5,0-4.4-1.9-4.4-4.4v-1.5c0-0.9-0.6-1.5-1.5-1.5s-1.5,0.6-1.5,1.5v1.5
					c0,4.1,3.2,7.3,7.3,7.3h10.2c2.5,0,4.4,1.9,4.4,4.4v30.6c0,0.9,0.6,1.5,1.5,1.5c0.9,0,1.5-0.6,1.5-1.5v-30.6
					C405.1,583.1,401.9,579.9,397.8,579.9z"/>
				<path class="st13" d="M336.6,598.7c-3.2,0-5.8,2.6-5.8,5.8s2.6,5.8,5.8,5.8c3.2,0,5.8-2.6,5.8-5.8S339.8,598.7,336.6,598.7z
					 M336.6,607.4c-1.6,0-2.9-1.3-2.9-2.9s1.3-2.9,2.9-2.9s2.9,1.3,2.9,2.9S338.2,607.4,336.6,607.4z"/>
				<circle class="st12" cx="368.5" cy="547.3" r="2"/>
				<circle class="st12" cx="384.9" cy="547.3" r="2"/>
				<path class="st12" d="M381.7,559.1l-1.2,1.2c-0.7,0.7-1.7,1.2-2.8,1.2h-3.6c-1,0-2-0.4-2.8-1.2l-1.2-1.2c-0.6-0.6-1.5-0.6-2,0
					c-0.6,0.6-0.6,1.5,0,2l1.2,1.2c1.3,1.3,3.1,2,5,2h3.6c1.9,0,3.5-0.7,4.7-2l1.2-1.2c0.6-0.6,0.6-1.5,0-2
					C383.1,558.5,382.2,558.5,381.7,559.1z"/>
				<path class="st12" d="M375.4,540.3l3.5-2.6v1.5c0,0.9,0.6,1.5,1.5,1.5h8.7c0.9,0,1.5-0.6,1.5-1.5c0-0.9-0.6-1.5-1.5-1.5h-7.3
					v-2.9c0-0.6-0.3-1-0.9-1.3c-0.4-0.3-1-0.1-1.5,0.1l-5.4,4.1h-9.8c-0.9,0-1.5,0.6-1.5,1.5c0,0.9,0.6,1.5,1.5,1.5h10.2
					C374.8,540.6,375.1,540.4,375.4,540.3z"/>
				<path class="st12" d="M394.9,591.6c-0.9,0-1.5,0.6-1.5,1.5v16h-21.9c-0.4,0-0.7,0.1-1,0.4l-2.9,2.9c-0.6,0.6-0.6,1.5,0,2
					c0.3,0.3,0.6,0.4,1,0.4s0.7-0.1,1-0.4l2.5-2.5h22.7c0.9,0,1.5-0.6,1.5-1.5V593C396.4,592.1,395.8,591.6,394.9,591.6z"/>
				<path class="st12" d="M378.9,606.1c0.9,0,1.5-0.6,1.5-1.5v-13.1c0.9,0,1.5-0.6,1.5-1.5v-7.3c0-0.9-0.6-1.5-1.5-1.5h-8.7
					c-0.9,0-1.5,0.6-1.5,1.5v7.3c0,0.9,0.6,1.5,1.5,1.5v13.1c0,0.9,0.6,1.5,1.5,1.5c0.9,0,1.5-0.6,1.5-1.5v-13.1h2.9v13.1
					C377.4,605.6,378,606.1,378.9,606.1z M373.1,584.3h5.8v4.4h-5.8V584.3z"/>
				<path class="st12" d="M384.7,616.3h-20.4V593c0-0.9-0.6-1.5-1.5-1.5h-49.5c-0.9,0-1.5,0.6-1.5,1.5v24.8c0,0.9,0.6,1.5,1.5,1.5
					h49.5h21.9c0.9,0,1.5-0.6,1.5-1.5S385.6,616.3,384.7,616.3z M314.8,594.5h46.6v21.9h-46.6V594.5z"/>
				<circle class="st12" cx="333.7" cy="577" r="1.5"/>
				<circle class="st12" cx="333.7" cy="527.5" r="1.5"/>
				<circle class="st12" cx="314.8" cy="552.2" r="1.5"/>
				<circle class="st12" cx="314.8" cy="565.3" r="1.5"/>
				<circle class="st12" cx="352.7" cy="552.2" r="1.5"/>
				<circle class="st12" cx="352.7" cy="539.1" r="1.5"/>
				<circle class="st12" cx="314.8" cy="539.1" r="1.5"/>
				<circle class="st12" cx="352.7" cy="565.3" r="1.5"/>
				<path class="st13" d="M320.6,550.8c0.3,0,0.4,0,0.7-0.1l24.8-14.6c0.7-0.4,0.9-1.3,0.6-2c-0.4-0.7-1.3-0.9-2-0.6L319.9,548
					c-0.7,0.4-0.9,1.3-0.6,2C319.6,550.5,320.2,550.8,320.6,550.8z"/>
				<path class="st12" d="M319.2,571.2h29.1c0.9,0,1.5-0.6,1.5-1.5s-0.6-1.5-1.5-1.5h-1.5V545c0-0.9-0.6-1.5-1.5-1.5
					s-1.5,0.6-1.5,1.5v23.3H341v-21.9c0-0.9-0.6-1.5-1.5-1.5s-1.5,0.6-1.5,1.5v21.9h-2.9v-18.9c0-0.9-0.6-1.5-1.5-1.5
					c-0.9,0-1.5,0.6-1.5,1.5v18.9h-2.9v-16c0-0.9-0.6-1.5-1.5-1.5c-0.9,0-1.5,0.6-1.5,1.5v16h-2.9v-11.7c0-0.9-0.6-1.5-1.5-1.5
					c-0.9,0-1.5,0.6-1.5,1.5v11.7h-1.5c-0.9,0-1.5,0.6-1.5,1.5S318.3,571.2,319.2,571.2z"/>
			</g>
		</g>
	</g>
	<g class="st6">
		<g>
			<path class="st13" d="M346,533.4l-5.8-1.5c-0.7-0.3-1.6,0.3-1.7,1c-0.3,0.7,0.3,1.6,1,1.7l4.4,1.2l-1.2,4.4
				c-0.3,0.7,0.3,1.6,1,1.7c0,0,0.1,0,0.3,0c0.6,0,1.3-0.4,1.6-1l1.5-5.8C347.3,534.5,346.7,533.6,346,533.4z"/>
		</g>
	</g>
</g>
<g id="square-content" class="st3">
	<path class="st14" d="M578-407.4l-3.4,6.8c-0.3,0.6-1,0.8-1.5,0.5l-6.8-3.4c-0.6-0.3-0.8-1-0.5-1.5l3.4-6.8c0.3-0.6,1-0.8,1.5-0.5
		l6.8,3.4C578-408.6,578.3-407.9,578-407.4z"/>
	<path class="st14" d="M649.8-422.8l-7.1,2.7c-0.6,0.2-1.3-0.1-1.5-0.7l-2.7-7.1c-0.2-0.6,0.1-1.3,0.7-1.5l7.1-2.7
		c0.6-0.2,1.3,0.1,1.5,0.7l2.7,7.1C650.6-423.7,650.3-423,649.8-422.8z"/>
	<path class="st15" d="M680.4-417.2h-7.6c-0.6,0-1.1-0.5-1.1-1.1v-7.6c0-0.6,0.5-1.1,1.1-1.1h7.6c0.6,0,1.1,0.5,1.1,1.1v7.6
		C681.5-417.7,681-417.2,680.4-417.2z"/>
	<path class="st14" d="M575.2-371h-7.6c-0.6,0-1.1-0.5-1.1-1.1v-7.6c0-0.6,0.5-1.1,1.1-1.1h7.6c0.6,0,1.1,0.5,1.1,1.1v7.6
		C576.4-371.5,575.9-371,575.2-371z"/>
	<path class="st14" d="M614.6-396.1l-6.9-3.1c-0.6-0.3-0.8-0.9-0.6-1.5l3.1-6.9c0.3-0.6,0.9-0.8,1.5-0.6l6.9,3.1
		c0.6,0.3,0.8,0.9,0.6,1.5l-3.1,6.9C615.9-396.1,615.2-395.9,614.6-396.1z"/>
	<path class="st14" d="M630.7-376.6l-6.8,3.4c-0.6,0.3-1.3,0.1-1.5-0.5l-3.4-6.8c-0.3-0.6-0.1-1.3,0.5-1.5l6.8-3.4
		c0.6-0.3,1.3-0.1,1.5,0.5l3.4,6.8C631.5-377.6,631.3-376.9,630.7-376.6z"/>
	<path class="st14" d="M439.2-382h-7.6c-0.6,0-1.1-0.5-1.1-1.1v-7.6c0-0.6,0.5-1.1,1.1-1.1h7.6c0.6,0,1.1,0.5,1.1,1.1v7.6
		C440.3-382.5,439.8-382,439.2-382z"/>
	<path class="st14" d="M460.9-351.8h-7.6c-0.6,0-1.1-0.5-1.1-1.1v-7.6c0-0.6,0.5-1.1,1.1-1.1h7.6c0.6,0,1.1,0.5,1.1,1.1v7.6
		C462.1-352.3,461.6-351.8,460.9-351.8z"/>
	<path class="st14" d="M462.3-322.1h-7.6c-0.6,0-1.1-0.5-1.1-1.1v-7.6c0-0.6,0.5-1.1,1.1-1.1h7.6c0.6,0,1.1,0.5,1.1,1.1v7.6
		C463.4-322.6,462.9-322.1,462.3-322.1z"/>
	<path class="st14" d="M429.3-337h-7.6c-0.6,0-1.1-0.5-1.1-1.1v-7.6c0-0.6,0.5-1.1,1.1-1.1h7.6c0.6,0,1.1,0.5,1.1,1.1v7.6
		C430.5-337.5,430-337,429.3-337z"/>
	<path class="st14" d="M431.7-311.6l-7.4,1.6c-0.6,0.1-1.2-0.3-1.4-0.9l-1.6-7.4c-0.1-0.6,0.3-1.2,0.9-1.4l7.4-1.6
		c0.6-0.1,1.2,0.3,1.4,0.9l1.6,7.4C432.7-312.3,432.3-311.7,431.7-311.6z"/>
	<path class="st14" d="M448-306.7h-7.6c-0.6,0-1.1-0.5-1.1-1.1v-7.6c0-0.6,0.5-1.1,1.1-1.1h7.6c0.6,0,1.1,0.5,1.1,1.1v7.6
		C449.1-307.2,448.6-306.7,448-306.7z"/>
	<path class="st14" d="M389.9-213.3l-5-5.7c-0.4-0.5-0.4-1.2,0.1-1.6l5.7-5c0.5-0.4,1.2-0.4,1.6,0.1l5,5.7c0.4,0.5,0.4,1.2-0.1,1.6
		l-5.7,5C391-212.7,390.3-212.8,389.9-213.3z"/>
	<path class="st14" d="M407.6-205.4l-2.6-7.1c-0.2-0.6,0.1-1.3,0.7-1.5l7.1-2.6c0.6-0.2,1.3,0.1,1.5,0.7l2.6,7.1
		c0.2,0.6-0.1,1.3-0.7,1.5l-7.1,2.6C408.5-204.5,407.8-204.8,407.6-205.4z"/>
	<path class="st14" d="M347.8-169h-7.6c-0.6,0-1.1-0.5-1.1-1.1v-7.6c0-0.6,0.5-1.1,1.1-1.1h7.6c0.6,0,1.1,0.5,1.1,1.1v7.6
		C349-169.5,348.5-169,347.8-169z"/>
	<path class="st15" d="M396.7-194.2h-7.6c-0.6,0-1.1-0.5-1.1-1.1v-7.6c0-0.6,0.5-1.1,1.1-1.1h7.6c0.6,0,1.1,0.5,1.1,1.1v7.6
		C397.8-194.7,397.3-194.2,396.7-194.2z"/>
	<path class="st14" d="M380.3-189.6l-6.6,3.8c-0.5,0.3-1.3,0.1-1.6-0.4l-3.8-6.6c-0.3-0.5-0.1-1.3,0.4-1.6l6.6-3.8
		c0.5-0.3,1.3-0.1,1.6,0.4l3.8,6.6C381.1-190.7,380.9-190,380.3-189.6z"/>
	<path class="st14" d="M363.6-162.9l-5-5.7c-0.4-0.5-0.4-1.2,0.1-1.6l5.7-5c0.5-0.4,1.2-0.4,1.6,0.1l5,5.7c0.4,0.5,0.4,1.2-0.1,1.6
		l-5.7,5C364.8-162.4,364.1-162.4,363.6-162.9z"/>
	<path class="st14" d="M255.8-375.1h-7.6c-0.6,0-1.1-0.5-1.1-1.1v-7.6c0-0.6,0.5-1.1,1.1-1.1h7.6c0.6,0,1.1,0.5,1.1,1.1v7.6
		C257-375.6,256.5-375.1,255.8-375.1z"/>
	<path class="st14" d="M269.6-359.9l-7.2,2.2c-0.6,0.2-1.2-0.2-1.4-0.8l-2.2-7.2c-0.2-0.6,0.2-1.2,0.8-1.4l7.2-2.2
		c0.6-0.2,1.2,0.2,1.4,0.8l2.2,7.2C270.6-360.8,270.2-360.1,269.6-359.9z"/>
	<path class="st14" d="M319.6-351.8H312c-0.6,0-1.1-0.5-1.1-1.1v-7.6c0-0.6,0.5-1.1,1.1-1.1h7.6c0.6,0,1.1,0.5,1.1,1.1v7.6
		C320.7-352.3,320.2-351.8,319.6-351.8z"/>
	<path class="st14" d="M208.4-367.2l-1.6-7.4c-0.1-0.6,0.3-1.2,0.9-1.4l7.4-1.6c0.6-0.1,1.2,0.3,1.4,0.9l1.6,7.4
		c0.1,0.6-0.3,1.2-0.9,1.4l-7.4,1.6C209.2-366.2,208.6-366.6,208.4-367.2z"/>
	<path class="st15" d="M241.3-353.5l-6.6-3.8c-0.5-0.3-0.7-1-0.4-1.6l3.8-6.6c0.3-0.5,1-0.7,1.6-0.4l6.6,3.8c0.5,0.3,0.7,1,0.4,1.6
		l-3.8,6.6C242.6-353.4,241.8-353.2,241.3-353.5z"/>
	<path class="st14" d="M287.8-348.6l-6.2-4.4c-0.5-0.4-0.6-1.1-0.3-1.6l4.4-6.2c0.4-0.5,1.1-0.6,1.6-0.3l6.2,4.4
		c0.5,0.4,0.6,1.1,0.3,1.6l-4.4,6.2C289.1-348.4,288.3-348.2,287.8-348.6z"/>
	<path class="st15" d="M365.1,27.2l-6.2-4.4c-0.5-0.4-0.6-1.1-0.3-1.6l4.4-6.2c0.4-0.5,1.1-0.6,1.6-0.3l6.2,4.4
		c0.5,0.4,0.6,1.1,0.3,1.6l-4.4,6.2C366.3,27.5,365.6,27.6,365.1,27.2z"/>
	<path class="st14" d="M387.6-346.3l-6.9-3.1c-0.6-0.3-0.8-0.9-0.6-1.5l3.1-6.9c0.3-0.6,0.9-0.8,1.5-0.6l6.9,3.1
		c0.6,0.3,0.8,0.9,0.6,1.5l-3.1,6.9C388.8-346.3,388.2-346,387.6-346.3z"/>
	<path class="st15" d="M405.5-338.7l-6-4.6c-0.5-0.4-0.6-1.1-0.2-1.6l4.6-6c0.4-0.5,1.1-0.6,1.6-0.2l6,4.6c0.5,0.4,0.6,1.1,0.2,1.6
		l-4.6,6C406.7-338.4,406-338.3,405.5-338.7z"/>
	<path class="st14" d="M413.5-317.2H406c-0.6,0-1.1-0.5-1.1-1.1v-7.6c0-0.6,0.5-1.1,1.1-1.1h7.6c0.6,0,1.1,0.5,1.1,1.1v7.6
		C414.7-317.7,414.2-317.2,413.5-317.2z"/>
	<path class="st14" d="M391.8-327.1h-7.6c-0.6,0-1.1-0.5-1.1-1.1v-7.6c0-0.6,0.5-1.1,1.1-1.1h7.6c0.6,0,1.1,0.5,1.1,1.1v7.6
		C392.9-327.6,392.4-327.1,391.8-327.1z"/>
	<path class="st14" d="M398.3-308.9h-7.6c-0.6,0-1.1-0.5-1.1-1.1v-7.6c0-0.6,0.5-1.1,1.1-1.1h7.6c0.6,0,1.1,0.5,1.1,1.1v7.6
		C399.5-309.4,399-308.9,398.3-308.9z"/>
	<path class="st14" d="M475.2-382h-7.6c-0.6,0-1.1-0.5-1.1-1.1v-7.6c0-0.6,0.5-1.1,1.1-1.1h7.6c0.6,0,1.1,0.5,1.1,1.1v7.6
		C476.3-382.5,475.8-382,475.2-382z"/>
	<path class="st14" d="M548.8-384.2h-7.6c-0.6,0-1.1-0.5-1.1-1.1v-7.6c0-0.6,0.5-1.1,1.1-1.1h7.6c0.6,0,1.1,0.5,1.1,1.1v7.6
		C550-384.8,549.5-384.2,548.8-384.2z"/>
	<path class="st15" d="M534.7-356.7h-7.6c-0.6,0-1.1-0.5-1.1-1.1v-7.6c0-0.6,0.5-1.1,1.1-1.1h7.6c0.6,0,1.1,0.5,1.1,1.1v7.6
		C535.8-357.2,535.3-356.7,534.7-356.7z"/>
	<path class="st14" d="M494.5-362.1h-7.6c-0.6,0-1.1-0.5-1.1-1.1v-7.6c0-0.6,0.5-1.1,1.1-1.1h7.6c0.6,0,1.1,0.5,1.1,1.1v7.6
		C495.6-362.6,495.1-362.1,494.5-362.1z"/>
	<path class="st14" d="M512.9-385.1l-7.4,1.6c-0.6,0.1-1.2-0.3-1.4-0.9l-1.6-7.4c-0.1-0.6,0.3-1.2,0.9-1.4l7.4-1.6
		c0.6-0.1,1.2,0.3,1.4,0.9l1.6,7.4C514-385.9,513.6-385.3,512.9-385.1z"/>
	<path class="st14" d="M513.1-331.8h-7.6c-0.6,0-1.1-0.5-1.1-1.1v-7.6c0-0.6,0.5-1.1,1.1-1.1h7.6c0.6,0,1.1,0.5,1.1,1.1v7.6
		C514.3-332.3,513.8-331.8,513.1-331.8z"/>
	<path class="st14" d="M154.9-393h-7.6c-0.6,0-1.1-0.5-1.1-1.1v-7.6c0-0.6,0.5-1.1,1.1-1.1h7.6c0.6,0,1.1,0.5,1.1,1.1v7.6
		C156.1-393.5,155.6-393,154.9-393z"/>
	<path class="st14" d="M183.5-380h-7.6c-0.6,0-1.1-0.5-1.1-1.1v-7.6c0-0.6,0.5-1.1,1.1-1.1h7.6c0.6,0,1.1,0.5,1.1,1.1v7.6
		C184.6-380.6,184.1-380,183.5-380z"/>
	<path class="st14" d="M192.7-350.8l-7.4,1.6c-0.6,0.1-1.2-0.3-1.4-0.9l-1.6-7.4c-0.1-0.6,0.3-1.2,0.9-1.4l7.4-1.6
		c0.6-0.1,1.2,0.3,1.4,0.9l1.6,7.4C193.7-351.5,193.3-350.9,192.7-350.8z"/>
	<path class="st14" d="M120.5-388H113c-0.6,0-1.1-0.5-1.1-1.1v-7.6c0-0.6,0.5-1.1,1.1-1.1h7.6c0.6,0,1.1,0.5,1.1,1.1v7.6
		C121.7-388.5,121.2-388,120.5-388z"/>
	<path class="st15" d="M146-371.7l-4.1-6.3c-0.3-0.5-0.2-1.2,0.3-1.6l6.3-4.1c0.5-0.3,1.2-0.2,1.6,0.3l4.1,6.3
		c0.3,0.5,0.2,1.2-0.3,1.6l-6.3,4.1C147-371.1,146.3-371.2,146-371.7z"/>
	<path class="st14" d="M269.3-333.8l-7,2.9c-0.6,0.2-1.3,0-1.5-0.6l-2.9-7c-0.2-0.6,0-1.3,0.6-1.5l7-2.9c0.6-0.2,1.3,0,1.5,0.6
		l2.9,7C270.1-334.8,269.8-334.1,269.3-333.8z"/>
	<path class="st14" d="M340.6-152.4l-6.9-3.1c-0.6-0.3-0.8-0.9-0.6-1.5l3.1-6.9c0.3-0.6,0.9-0.8,1.5-0.6l6.9,3.1
		c0.6,0.3,0.8,0.9,0.6,1.5l-3.1,6.9C341.9-152.4,341.2-152.2,340.6-152.4z"/>
	<path class="st14" d="M327.8-169h-7.6c-0.6,0-1.1-0.5-1.1-1.1v-7.6c0-0.6,0.5-1.1,1.1-1.1h7.6c0.6,0,1.1,0.5,1.1,1.1v7.6
		C329-169.5,328.5-169,327.8-169z"/>
	<path class="st14" d="M383.5-153.6h-7.6c-0.6,0-1.1-0.5-1.1-1.1v-7.6c0-0.6,0.5-1.1,1.1-1.1h7.6c0.6,0,1.1,0.5,1.1,1.1v7.6
		C384.7-154.1,384.2-153.6,383.5-153.6z"/>
	<path class="st14" d="M310.5-250.8h-7.6c-0.6,0-1.1-0.5-1.1-1.1v-7.6c0-0.6,0.5-1.1,1.1-1.1h7.6c0.6,0,1.1,0.5,1.1,1.1v7.6
		C311.6-251.3,311.1-250.8,310.5-250.8z"/>
	<path class="st14" d="M357.2-354l-6.8,3.4c-0.6,0.3-1.3,0.1-1.5-0.5l-3.4-6.8c-0.3-0.6-0.1-1.3,0.5-1.5l6.8-3.4
		c0.6-0.3,1.3-0.1,1.5,0.5l3.4,6.8C358-355,357.7-354.3,357.2-354z"/>
	<circle class="st16" cx="372.1" cy="19.1" r="2.8"/>
	<polyline class="st17" points="370.8,19.2 371.8,20.3 373.3,18.4 	"/>
</g>
<g id="funnel">
	<g id="cog_1_">
		<path class="st18" d="M378.3-313.5h-5.6c-0.8-3.4-2.2-6.7-4-9.7l3.9-3.9c0.6-0.6,0.6-1.6,0-2.2l-9.4-9.4c-0.6-0.6-1.6-0.6-2.3,0
			l-3.9,3.9c-3-1.8-6.3-3.2-9.7-4v-5.6c0-0.9-0.7-1.6-1.6-1.6h-13.3c-0.9,0-1.6,0.7-1.6,1.6v5.6c-3.4,0.8-6.7,2.2-9.7,4l-3.9-3.9
			c-0.6-0.6-1.6-0.6-2.2,0l-9.4,9.4c-0.6,0.6-0.6,1.6,0,2.2l3.9,3.9c-1.8,3-3.2,6.3-4,9.7h-5.6c-0.9,0-1.6,0.7-1.6,1.6v13.3
			c0,0.9,0.7,1.6,1.6,1.6h5.6c0.8,3.4,2.2,6.7,4,9.7l-3.9,3.9c-0.3,0.3-0.5,0.7-0.5,1.1c0,0.4,0.2,0.8,0.5,1.1l9.4,9.4
			c0.6,0.6,1.6,0.6,2.2,0l3.9-3.9c3,1.8,6.3,3.2,9.7,4v5.6c0,0.9,0.7,1.6,1.6,1.6h13.3c0.9,0,1.6-0.7,1.6-1.6v-5.6
			c3.4-0.8,6.7-2.2,9.7-4l3.9,3.9c0.6,0.6,1.6,0.6,2.2,0l9.4-9.4c0.6-0.6,0.6-1.6,0-2.2l-3.9-3.9c1.8-3,3.2-6.3,4-9.7h5.6
			c0.9,0,1.6-0.7,1.6-1.6v-13.3C379.9-312.8,379.2-313.5,378.3-313.5z M376.7-300.3h-5.3c-0.8,0-1.4,0.5-1.6,1.3
			c-0.8,3.9-2.3,7.6-4.5,10.9c-0.4,0.6-0.3,1.5,0.2,2l3.7,3.7l-7.1,7.1l-3.7-3.7c-0.5-0.5-1.4-0.6-2-0.2c-3.3,2.2-7,3.7-10.9,4.5
			c-0.7,0.2-1.3,0.8-1.3,1.6v5.3h-10.1v-5.3c0-0.8-0.5-1.4-1.3-1.6c-3.9-0.8-7.6-2.3-10.9-4.5c-0.6-0.4-1.5-0.3-2,0.2l-3.7,3.7
			l-7.1-7.1l3.7-3.7c0.5-0.5,0.6-1.4,0.2-2c-2.2-3.3-3.7-7-4.5-10.9c-0.2-0.7-0.8-1.3-1.6-1.3h-5.3v-10.1h5.3c0.8,0,1.4-0.5,1.6-1.3
			c0.8-3.9,2.3-7.6,4.5-10.9c0.4-0.6,0.3-1.5-0.2-2l-3.7-3.7l7.1-7.1l3.7,3.7c0.5,0.5,1.4,0.6,2,0.2c3.3-2.2,7-3.7,10.9-4.5
			c0.7-0.2,1.3-0.8,1.3-1.6v-5.3h10.1v5.3c0,0.8,0.5,1.4,1.3,1.6c3.9,0.8,7.6,2.3,10.9,4.5c0.6,0.4,1.5,0.3,2-0.2l3.7-3.7l7.1,7.1
			l-3.7,3.7c-0.5,0.5-0.6,1.4-0.2,2c2.2,3.3,3.7,7,4.5,10.9c0.2,0.7,0.8,1.3,1.6,1.3h5.3V-300.3z"/>
		<path class="st0" d="M324.2-305.3c0-8.3,6.7-15,15-15c1.9,0,3.8,0.4,5.6,1.1c0.8,0.3,1.7-0.1,2.1-0.9c0.3-0.8-0.1-1.7-0.9-2.1
			c-2.2-0.9-4.5-1.3-6.8-1.3c-10,0-18.2,8.1-18.2,18.2c0,2.3,0.4,4.5,1.2,6.6c0.2,0.6,0.8,1,1.5,1c0.2,0,0.4,0,0.6-0.1
			c0.8-0.3,1.2-1.2,0.9-2.1C324.6-301.6,324.2-303.4,324.2-305.3z"/>
		<path class="st18" d="M353.7-313.4c-0.8,0.4-1.2,1.3-0.8,2.1c0.8,1.9,1.3,3.9,1.3,6c0,8.3-6.7,15-15,15c-2.2,0-4.3-0.5-6.2-1.3
			c-0.8-0.4-1.7,0-2.1,0.8s0,1.7,0.8,2.1c2.4,1.1,4.9,1.6,7.5,1.6c10,0,18.2-8.1,18.2-18.2c0-2.5-0.5-5-1.5-7.3
			C355.5-313.4,354.5-313.8,353.7-313.4z"/>
		<path class="st0" d="M327.2-295.5c-0.9,0-1.6,0.7-1.6,1.6c0,0.9,0.7,1.6,1.6,1.6c0.9,0,1.6-0.7,1.6-1.6
			C328.7-294.8,328-295.5,327.2-295.5z"/>
		<path class="st18" d="M350.8-315.6c0.9,0,1.6-0.7,1.6-1.6c0-0.9-0.7-1.6-1.6-1.6s-1.6,0.7-1.6,1.6
			C349.2-316.3,349.9-315.6,350.8-315.6z"/>
	</g>
	<g id="cog">
		<path class="st18" d="M448.4-279.6l-5.5,0.8c-1.3-3.3-3.2-6.3-5.4-9l3.3-4.5c0.5-0.7,0.4-1.7-0.3-2.2l-10.7-7.9
			c-0.7-0.5-1.7-0.4-2.2,0.3l-3.3,4.5c-3.3-1.4-6.7-2.2-10.2-2.5l-0.8-5.5c-0.1-0.9-0.9-1.5-1.8-1.3l-13.1,2
			c-0.9,0.1-1.5,0.9-1.3,1.8l0.8,5.5c-3.3,1.3-6.3,3.2-9,5.4l-4.5-3.3c-0.7-0.5-1.7-0.4-2.2,0.3l-7.9,10.7c-0.5,0.7-0.4,1.7,0.3,2.2
			l4.5,3.3c-1.4,3.3-2.2,6.7-2.5,10.2l-5.5,0.8c-0.9,0.1-1.5,0.9-1.3,1.8l2,13.1c0.1,0.9,0.9,1.5,1.8,1.3l5.5-0.8
			c1.3,3.3,3.2,6.3,5.4,9l-3.3,4.5c-0.2,0.3-0.4,0.8-0.3,1.2s0.3,0.8,0.6,1l10.7,7.9c0.7,0.5,1.7,0.4,2.2-0.3l3.3-4.5
			c3.3,1.4,6.7,2.2,10.2,2.5l0.8,5.5c0.1,0.9,0.9,1.5,1.8,1.3l13.1-2c0.9-0.1,1.5-0.9,1.3-1.8l-0.8-5.5c3.3-1.3,6.3-3.2,9-5.4
			l4.5,3.3c0.7,0.5,1.7,0.4,2.2-0.3l7.9-10.7c0.5-0.7,0.4-1.7-0.3-2.2l-4.5-3.3c1.4-3.3,2.2-6.7,2.5-10.2l5.5-0.8
			c0.9-0.1,1.5-0.9,1.3-1.8l-2-13.1C450.1-279.2,449.2-279.8,448.4-279.6z M448.8-266.3l-5.2,0.8c-0.8,0.1-1.3,0.8-1.4,1.5
			c-0.2,4-1.2,7.8-2.8,11.4c-0.3,0.7-0.1,1.5,0.5,2l4.2,3.1l-6,8.1l-4.2-3.1c-0.6-0.5-1.5-0.4-2,0.1c-3,2.7-6.4,4.7-10.1,6.1
			c-0.7,0.3-1.2,1-1.1,1.7l0.8,5.2l-10,1.5l-0.8-5.2c-0.1-0.8-0.8-1.3-1.5-1.4c-4-0.2-7.8-1.2-11.4-2.8c-0.7-0.3-1.5-0.1-2,0.5
			l-3.1,4.2l-8.1-6l3.1-4.2c0.5-0.6,0.4-1.5-0.1-2c-2.7-3-4.7-6.4-6.1-10.1c-0.3-0.7-1-1.2-1.7-1.1l-5.2,0.8l-1.5-10l5.2-0.8
			c0.8-0.1,1.3-0.8,1.4-1.5c0.2-4,1.2-7.8,2.8-11.4c0.3-0.7,0.1-1.5-0.5-2l-4.2-3.1l6-8.1l4.2,3.1c0.6,0.5,1.5,0.4,2-0.1
			c3-2.7,6.4-4.7,10.1-6.1c0.7-0.3,1.2-1,1.1-1.7l-0.8-5.2l10-1.5l0.8,5.2c0.1,0.8,0.8,1.3,1.5,1.4c4,0.2,7.8,1.2,11.4,2.8
			c0.7,0.3,1.5,0.1,2-0.5l3.1-4.2l8.1,6l-3.1,4.2c-0.5,0.6-0.4,1.5,0.1,2c2.7,3,4.7,6.4,6.1,10.1c0.3,0.7,1,1.2,1.7,1.1l5.2-0.8
			L448.8-266.3z"/>
		<path class="st18" d="M396-265c-0.3-7,4.5-13.4,11.3-15.1c2.4-0.6,4.8-0.6,7.1-0.1c0.9,0.2,1.7-0.3,1.9-1.2
			c0.2-0.9-0.3-1.7-1.2-1.9c-2.8-0.7-5.8-0.7-8.7,0.1c-8.2,2-14.1,9.8-13.7,18.3c0.1,3,0.9,5.8,2.4,8.4c0.3,0.6,1,0.9,1.6,0.8
			c0.2,0,0.4-0.1,0.6-0.2c0.8-0.4,1-1.4,0.6-2.2C396.7-260.2,396.1-262.5,396-265z"/>
		<path class="st0" d="M424.1-275.8c-0.7,0.5-1,1.5-0.5,2.2c1.1,1.8,1.9,3.8,2.2,5.9c1.1,8-4.6,15.7-12.6,16.9
			c-2.1,0.3-4.3,0.2-6.3-0.4c-0.8-0.2-1.7,0.3-2,1.1c-0.2,0.8,0.3,1.7,1.1,2c2.6,0.7,5.3,0.9,7.9,0.4c9.5-1.6,16.2-10.6,15.1-20.1
			c-0.3-2.7-1.2-5.2-2.7-7.5C425.8-276,424.8-276.3,424.1-275.8z"/>
		<path class="st18" d="M400.5-254.1c-0.9,0.1-1.5,0.9-1.3,1.8c0.1,0.9,0.9,1.5,1.8,1.3c0.9-0.1,1.5-0.9,1.3-1.8
			C402.2-253.6,401.4-254.2,400.5-254.1z"/>
		<path class="st0" d="M420.8-277.5c0.9-0.1,1.5-0.9,1.3-1.8c-0.1-0.9-0.9-1.5-1.8-1.3c-0.9,0.1-1.5,0.9-1.3,1.8
			S419.9-277.4,420.8-277.5z"/>
	</g>
	<g id="cog_2_">
		<path class="st18" d="M374.8-247l-5.1,2.2c-2.1-2.8-4.7-5.2-7.5-7.3l2-5.2c0.3-0.8-0.1-1.7-0.9-2.1l-12.3-4.9
			c-0.8-0.3-1.7,0.1-2.1,0.9l-2,5.2c-3.5-0.5-7-0.4-10.5,0.2l-2.2-5.1c-0.4-0.8-1.3-1.2-2.1-0.8l-12.2,5.3c-0.8,0.4-1.2,1.3-0.8,2.1
			l2.2,5.1c-2.8,2.1-5.2,4.7-7.3,7.5l-5.2-2c-0.8-0.3-1.7,0.1-2.1,0.9l-4.9,12.3c-0.3,0.8,0.1,1.7,0.9,2.1l5.2,2
			c-0.5,3.5-0.4,7,0.2,10.5l-5.1,2.2c-0.8,0.4-1.2,1.3-0.8,2.1l5.3,12.2c0.4,0.8,1.3,1.2,2.1,0.8l5.1-2.2c2.1,2.8,4.7,5.2,7.5,7.3
			l-2,5.2c-0.2,0.4-0.1,0.8,0,1.2c0.2,0.4,0.5,0.7,0.9,0.8l12.3,4.9c0.8,0.3,1.7-0.1,2.1-0.9l2-5.2c3.5,0.5,7,0.4,10.5-0.2l2.2,5.1
			c0.4,0.8,1.3,1.2,2.1,0.8l12.2-5.3c0.8-0.4,1.2-1.3,0.8-2.1l-2.2-5.1c2.8-2.1,5.2-4.7,7.3-7.5l5.2,2c0.8,0.3,1.7-0.1,2.1-0.9
			l4.9-12.3c0.3-0.8-0.1-1.7-0.9-2.1l-5.2-2c0.5-3.5,0.4-7-0.2-10.5l5.1-2.2c0.8-0.4,1.2-1.3,0.8-2.1l-5.3-12.2
			C376.6-247,375.6-247.4,374.8-247z M378.6-234.2l-4.8,2.1c-0.7,0.3-1.1,1.1-0.9,1.8c0.8,3.9,0.9,7.9,0.2,11.8
			c-0.1,0.8,0.3,1.5,1,1.8l4.9,1.9l-3.7,9.4l-4.9-1.9c-0.7-0.3-1.5,0-1.9,0.6c-2.2,3.3-4.9,6.2-8.2,8.5c-0.6,0.4-0.9,1.3-0.6,2
			l2.1,4.8l-9.2,4l-2.1-4.8c-0.3-0.7-1.1-1.1-1.8-0.9c-3.9,0.8-7.9,0.9-11.8,0.2c-0.8-0.1-1.5,0.3-1.8,1l-1.9,4.9l-9.4-3.7l1.9-4.9
			c0.3-0.7,0-1.5-0.6-1.9c-3.3-2.2-6.2-4.9-8.5-8.2c-0.4-0.6-1.3-0.9-2-0.6l-4.8,2.1l-4-9.2l4.8-2.1c0.7-0.3,1.1-1.1,0.9-1.8
			c-0.8-3.9-0.9-7.9-0.2-11.8c0.1-0.8-0.3-1.5-1-1.8l-4.9-1.9l3.7-9.4l4.9,1.9c0.7,0.3,1.5,0,1.9-0.6c2.2-3.3,4.9-6.2,8.2-8.5
			c0.6-0.4,0.9-1.3,0.6-2l-2.1-4.8l9.2-4l2.1,4.8c0.3,0.7,1.1,1.1,1.8,0.9c3.9-0.8,7.9-0.9,11.8-0.2c0.8,0.1,1.5-0.3,1.8-1l1.9-4.9
			l9.4,3.7l-1.9,4.9c-0.3,0.7,0,1.5,0.6,1.9c3.3,2.2,6.2,4.9,8.5,8.2c0.4,0.6,1.3,0.9,2,0.6l4.8-2.1L378.6-234.2z"/>
		<path class="st18" d="M327.9-219.5c-2.1-6.7,0.9-14.1,7.1-17.5c2.2-1.2,4.5-1.8,6.9-1.9c0.9,0,1.6-0.8,1.6-1.6
			c0-0.9-0.8-1.6-1.6-1.6c-2.9,0.1-5.7,0.8-8.4,2.3c-7.4,4.1-11.1,13.1-8.6,21.2c0.9,2.9,2.4,5.4,4.5,7.5c0.5,0.5,1.2,0.6,1.8,0.3
			c0.2-0.1,0.3-0.2,0.5-0.3c0.6-0.6,0.6-1.6,0-2.2C329.9-215,328.6-217.1,327.9-219.5z"/>
		<path class="st0" d="M352.3-237.1c-0.6,0.6-0.6,1.7,0.1,2.2c1.6,1.4,2.8,3.2,3.6,5.2c3.1,7.5-0.4,16.3-7.9,19.6
			c-2,0.9-4.1,1.3-6.2,1.2c-0.9,0-1.6,0.7-1.6,1.6s0.7,1.6,1.6,1.6c2.7,0,5.3-0.5,7.8-1.6c8.8-3.9,13-14.4,9.4-23.3
			c-1-2.5-2.5-4.7-4.5-6.6C353.9-237.8,352.9-237.7,352.3-237.1z"/>
		<path class="st18" d="M335-210.1c-0.8,0.3-1.2,1.3-0.8,2.1c0.3,0.8,1.3,1.2,2.1,0.8s1.2-1.3,0.8-2.1
			C336.8-210.1,335.9-210.4,335-210.1z"/>
		<path class="st18" d="M348.7-237.9c0.8-0.3,1.2-1.3,0.8-2.1c-0.3-0.8-1.3-1.2-2.1-0.8s-1.2,1.3-0.8,2.1
			C347-237.9,347.9-237.5,348.7-237.9z"/>
	</g>
	<g>
		<circle class="st0" cx="403.7" cy="-113" r="1.2"/>
	</g>
	<g>
		<path class="st18" d="M351.9-1.6c-0.7,0-1.2-0.6-1.2-1.2v-57.9l-51.2-64h-2.7c-7.1,0-12.9-5.8-12.9-12.9v-7.8
			c0-0.7,0.6-1.2,1.2-1.2h159.5c0.7,0,1.2,0.6,1.2,1.2v6.5c0,7.8-6.4,14.2-14.2,14.2h-1.3l-51.2,64v38.5c-0.1,1.2-3.3,8.4-9.8,13.6
			c-4.3,3.5-9.5,5.8-14.9,6.7l-2.2,0.4C352-1.6,351.9-1.6,351.9-1.6z M353.1-4.2l2.4-0.6c4.4-1,8.6-3,12.1-5.8
			c3.8-3.1,6.8-7,8.7-11.5l0.2-0.4v-37.4h-23.5V-4.2z M352.5-62.4h24.7l49.9-62.4H302.6L352.5-62.4z M286.3-137.6
			c0,5.7,4.7,10.4,10.4,10.4h134.9c6.5,0,11.7-5.3,11.7-11.7v-5.2h-157V-137.6z"/>
	</g>
	<g>
		<path class="st0" d="M371.6-72.9c-0.2,0-0.5,0-0.8-0.3c-0.5-0.4-0.6-1.2-0.2-1.7l23.5-29.3c0.2-0.3,0.6-0.5,1-0.5
			c0.2,0,0.5,0,0.8,0.3c0.3,0.2,0.4,0.5,0.5,0.8c0,0.3-0.1,0.7-0.3,0.9l-23.5,29.3C372.3-73.1,372-72.9,371.6-72.9L371.6-72.9z"/>
	</g>
</g>
<g id="cards" class="st3">
	<g id="puzzle_1_" class="st6">
		<g id="XMLID_29_">
			<rect id="XMLID_41_" x="588.7" y="-600.1" class="st19" width="128.2" height="159.8"/>
			<path id="XMLID_40_" class="st19" d="M603-478.3v17.5c0,1,1.1,1.6,1.9,1l12.7-8.8c0.7-0.5,0.7-1.5,0-2l-12.7-8.7
				C604.1-479.8,603-479.3,603-478.3z"/>
			<path id="XMLID_39_" class="st19" d="M645.3-508.7H604c-0.7,0-1.3-0.6-1.3-1.3v-35.1c0-0.7,0.6-1.3,1.3-1.3h41.3
				c0.7,0,1.3,0.6,1.3,1.3v35.1C646.5-509.3,646-508.7,645.3-508.7z"/>
			<path id="XMLID_38_" class="st19" d="M684.9-564.5h-47.7c-2.2,0-4-1.8-4-4l0,0c0-2.2,1.8-4,4-4h47.7c2.2,0,4,1.8,4,4l0,0
				C688.9-566.3,687.1-564.5,684.9-564.5z"/>
			<path id="XMLID_37_" class="st19" d="M669.2-575.2h-32c-2.2,0-4-1.8-4-4l0,0c0-2.2,1.8-4,4-4h32c2.2,0,4,1.8,4,4l0,0
				C673.2-577,671.4-575.2,669.2-575.2z"/>
			<path id="XMLID_36_" class="st19" d="M619.1-564.5L619.1-564.5c-5.3,0-9.7-4.4-9.7-9.7l0,0c0-5.3,4.4-9.7,9.7-9.7l0,0
				c5.3,0,9.7,4.4,9.7,9.7l0,0C628.8-568.9,624.5-564.5,619.1-564.5z"/>
			<line id="XMLID_35_" class="st20" x1="630.8" y1="-469.6" x2="699.5" y2="-469.6"/>
			<circle id="XMLID_34_" class="st19" cx="650.4" cy="-469.6" r="3.9"/>
			<path id="XMLID_33_" class="st19" d="M698.4-520.7h-41.6c-2.2,0-4-1.8-4-4l0,0c0-2.2,1.8-4,4-4h41.6c2.2,0,4,1.8,4,4l0,0
				C702.5-522.5,700.6-520.7,698.4-520.7z"/>
			<path id="XMLID_32_" class="st19" d="M698.4-508.7h-41.6c-2.2,0-4-1.8-4-4l0,0c0-2.2,1.8-4,4-4h41.6c2.2,0,4,1.8,4,4l0,0
				C702.5-510.5,700.6-508.7,698.4-508.7z"/>
			<path id="XMLID_31_" class="st19" d="M698.4-496.2h-90.3c-2.2,0-4-1.8-4-4l0,0c0-2.2,1.8-4,4-4h90.3c2.2,0,4,1.8,4,4l0,0
				C702.5-498,700.6-496.2,698.4-496.2z"/>
		</g>
		<g id="XMLID_7_">
			<rect id="XMLID_28_" x="588.7" y="-600.1" class="st21" width="128.2" height="159.8"/>
			<path id="XMLID_23_" class="st19" d="M603-478.3v17.5c0,1,1.1,1.6,1.9,1l12.7-8.8c0.7-0.5,0.7-1.5,0-2l-12.7-8.7
				C604.1-479.8,603-479.3,603-478.3z"/>
			<path id="XMLID_22_" class="st22" d="M645.3-508.7H604c-0.7,0-1.3-0.6-1.3-1.3v-35.1c0-0.7,0.6-1.3,1.3-1.3h41.3
				c0.7,0,1.3,0.6,1.3,1.3v35.1C646.5-509.3,646-508.7,645.3-508.7z"/>
			<path id="XMLID_15_" class="st23" d="M684.9-564.5h-47.7c-2.2,0-4-1.8-4-4l0,0c0-2.2,1.8-4,4-4h47.7c2.2,0,4,1.8,4,4l0,0
				C688.9-566.3,687.1-564.5,684.9-564.5z"/>
			<path id="XMLID_14_" class="st24" d="M669.2-575.2h-32c-2.2,0-4-1.8-4-4l0,0c0-2.2,1.8-4,4-4h32c2.2,0,4,1.8,4,4l0,0
				C673.2-577,671.4-575.2,669.2-575.2z"/>
			<path id="XMLID_13_" class="st24" d="M619.1-564.5L619.1-564.5c-5.3,0-9.7-4.4-9.7-9.7l0,0c0-5.3,4.4-9.7,9.7-9.7l0,0
				c5.3,0,9.7,4.4,9.7,9.7l0,0C628.8-568.9,624.5-564.5,619.1-564.5z"/>
			<line id="XMLID_12_" class="st25" x1="630.8" y1="-469.6" x2="699.5" y2="-469.6"/>
			<circle id="XMLID_11_" class="st19" cx="650.4" cy="-469.6" r="3.9"/>
			<path id="XMLID_10_" class="st23" d="M698.4-520.7h-41.6c-2.2,0-4-1.8-4-4l0,0c0-2.2,1.8-4,4-4h41.6c2.2,0,4,1.8,4,4l0,0
				C702.5-522.5,700.6-520.7,698.4-520.7z"/>
			<path id="XMLID_9_" class="st23" d="M698.4-508.7h-41.6c-2.2,0-4-1.8-4-4l0,0c0-2.2,1.8-4,4-4h41.6c2.2,0,4,1.8,4,4l0,0
				C702.5-510.5,700.6-508.7,698.4-508.7z"/>
			<path id="XMLID_8_" class="st23" d="M698.4-496.2h-90.3c-2.2,0-4-1.8-4-4l0,0c0-2.2,1.8-4,4-4h90.3c2.2,0,4,1.8,4,4l0,0
				C702.5-498,700.6-496.2,698.4-496.2z"/>
		</g>
	</g>
	<g id="videoCard2_1_" class="st6">
		<rect id="XMLID_6_" x="89.2" y="-579.4" class="st21" width="128.2" height="159.8"/>
		<path id="XMLID_5_" class="st24" d="M119.6-543.9L119.6-543.9c-5.3,0-9.7-4.4-9.7-9.7l0,0c0-5.3,4.4-9.7,9.7-9.7l0,0
			c5.3,0,9.7,4.4,9.7,9.7l0,0C129.3-548.2,124.9-543.9,119.6-543.9z"/>
		<path id="XMLID_4_" class="st24" d="M169.7-554.6h-32c-2.2,0-4-1.8-4-4l0,0c0-2.2,1.8-4,4-4h32c2.2,0,4,1.8,4,4l0,0
			C173.7-556.4,171.9-554.6,169.7-554.6z"/>
		<path id="XMLID_3_" class="st23" d="M185.4-543.9h-47.7c-2.2,0-4-1.8-4-4l0,0c0-2.2,1.8-4,4-4h47.7c2.2,0,4,1.8,4,4l0,0
			C189.4-545.7,187.6-543.9,185.4-543.9z"/>
		<rect id="XMLID_2_" x="89.2" y="-525.7" class="st22" width="128.2" height="73.5"/>
		<path id="XMLID_1_" class="st26" d="M143.4-497.6v17.5c0,1,1.1,1.6,1.9,1l12.7-8.8c0.7-0.5,0.7-1.5,0-2l-12.7-8.7
			C144.5-499.2,143.4-498.6,143.4-497.6z"/>
	</g>
	<g id="quizcard" class="st6">
		<rect id="XMLID_129_" x="496.9" y="-581.9" class="st21" width="128.2" height="159.8"/>
		<path id="XMLID_128_" class="st23" d="M609.4-520.2h-93.9c-2.2,0-4-1.8-4-4l0,0c0-2.2,1.8-4,4-4h93.9c2.2,0,4,1.8,4,4l0,0
			C613.4-522.1,611.6-520.2,609.4-520.2z"/>
		<path id="XMLID_127_" class="st23" d="M556-487.6h-21.1c-2.2,0-4-1.8-4-4l0,0c0-2.2,1.8-4,4-4H556c2.2,0,4,1.8,4,4l0,0
			C560-489.4,558.2-487.6,556-487.6z"/>
		<path id="XMLID_126_" class="st23" d="M611.2-487.9h-19.7c-2.2,0-4-1.8-4-4l0,0c0-2.2,1.8-4,4-4h19.7c2.2,0,4,1.8,4,4l0,0
			C615.2-489.7,613.4-487.9,611.2-487.9z"/>
		<path id="XMLID_125_" class="st24" d="M527.3-546.3L527.3-546.3c-5.3,0-9.7-4.4-9.7-9.7l0,0c0-5.3,4.4-9.7,9.7-9.7l0,0
			c5.3,0,9.7,4.4,9.7,9.7l0,0C537-550.7,532.6-546.3,527.3-546.3z"/>
		<path id="XMLID_124_" class="st24" d="M577.4-557h-32c-2.2,0-4-1.8-4-4l0,0c0-2.2,1.8-4,4-4h32c2.2,0,4,1.8,4,4l0,0
			C581.4-558.8,579.6-557,577.4-557z"/>
		<path id="XMLID_123_" class="st23" d="M593.1-546.3h-47.7c-2.2,0-4-1.8-4-4l0,0c0-2.2,1.8-4,4-4h47.7c2.2,0,4,1.8,4,4l0,0
			C597.1-548.1,595.3-546.3,593.1-546.3z"/>
		<path id="XMLID_122_" class="st27" d="M579.4-485.1H569c-0.7,0-1.3-0.6-1.3-1.3v-10.4c0-0.7,0.6-1.3,1.3-1.3h10.4
			c0.7,0,1.3,0.6,1.3,1.3v10.4C580.7-485.7,580.1-485.1,579.4-485.1z"/>
		<path id="XMLID_115_" class="st27" d="M522.8-485.5h-10.4c-0.7,0-1.3-0.6-1.3-1.3v-10.4c0-0.7,0.6-1.3,1.3-1.3h10.4
			c0.7,0,1.3,0.6,1.3,1.3v10.4C524.1-486.1,523.5-485.5,522.8-485.5z"/>
		<path id="XMLID_114_" class="st24" d="M556.2-449.3h-21.1c-2.2,0-4-1.8-4-4l0,0c0-2.2,1.8-4,4-4h21.1c2.2,0,4,1.8,4,4l0,0
			C560.3-451.1,558.5-449.3,556.2-449.3z"/>
		<path id="XMLID_113_" class="st23" d="M611.4-449.7h-19.7c-2.2,0-4-1.8-4-4l0,0c0-2.2,1.8-4,4-4h19.7c2.2,0,4,1.8,4,4l0,0
			C615.5-451.5,613.7-449.7,611.4-449.7z"/>
		<path id="XMLID_112_" class="st27" d="M579.7-446.9h-10.4c-0.7,0-1.3-0.6-1.3-1.3v-10.4c0-0.7,0.6-1.3,1.3-1.3h10.4
			c0.7,0,1.3,0.6,1.3,1.3v10.4C580.9-447.5,580.4-446.9,579.7-446.9z"/>
		<path id="XMLID_111_" class="st24" d="M523.1-447.3h-10.4c-0.7,0-1.3-0.6-1.3-1.3V-459c0-0.7,0.6-1.3,1.3-1.3h10.4
			c0.7,0,1.3,0.6,1.3,1.3v10.4C524.4-447.9,523.8-447.3,523.1-447.3z"/>
	</g>
	<g id="podcastcard" class="st6">
		<g id="XMLID_156_">
			<rect id="XMLID_167_" x="181.5" y="-555.7" class="st19" width="128.2" height="159.8"/>
			<path id="XMLID_166_" class="st19" d="M195.8-433.9v17.5c0,1,1.1,1.6,1.9,1l12.7-8.8c0.7-0.5,0.7-1.5,0-2l-12.7-8.7
				C196.9-435.4,195.8-434.9,195.8-433.9z"/>
			<path id="XMLID_165_" class="st19" d="M238.1-464.3h-41.3c-0.7,0-1.3-0.6-1.3-1.3v-35.1c0-0.7,0.6-1.3,1.3-1.3h41.3
				c0.7,0,1.3,0.6,1.3,1.3v35.1C239.3-464.9,238.8-464.3,238.1-464.3z"/>
			<path id="XMLID_164_" class="st19" d="M277.7-520.1H230c-2.2,0-4-1.8-4-4l0,0c0-2.2,1.8-4,4-4h47.7c2.2,0,4,1.8,4,4l0,0
				C281.7-521.9,279.9-520.1,277.7-520.1z"/>
			<path id="XMLID_163_" class="st19" d="M262-530.8h-32c-2.2,0-4-1.8-4-4l0,0c0-2.2,1.8-4,4-4h32c2.2,0,4,1.8,4,4l0,0
				C266-532.6,264.2-530.8,262-530.8z"/>
			<path id="XMLID_162_" class="st19" d="M211.9-520.1L211.9-520.1c-5.3,0-9.7-4.4-9.7-9.7l0,0c0-5.3,4.4-9.7,9.7-9.7l0,0
				c5.3,0,9.7,4.4,9.7,9.7l0,0C221.6-524.5,217.3-520.1,211.9-520.1z"/>
			<line id="XMLID_161_" class="st20" x1="223.6" y1="-425.2" x2="292.3" y2="-425.2"/>
			<circle id="XMLID_160_" class="st19" cx="243.2" cy="-425.2" r="3.9"/>
			<path id="XMLID_159_" class="st19" d="M291.2-476.3h-41.6c-2.2,0-4-1.8-4-4l0,0c0-2.2,1.8-4,4-4h41.6c2.2,0,4,1.8,4,4l0,0
				C295.3-478.1,293.4-476.3,291.2-476.3z"/>
			<path id="XMLID_158_" class="st19" d="M291.2-464.3h-41.6c-2.2,0-4-1.8-4-4l0,0c0-2.2,1.8-4,4-4h41.6c2.2,0,4,1.8,4,4l0,0
				C295.3-466.1,293.4-464.3,291.2-464.3z"/>
			<path id="XMLID_157_" class="st19" d="M291.2-451.8h-90.3c-2.2,0-4-1.8-4-4l0,0c0-2.2,1.8-4,4-4h90.3c2.2,0,4,1.8,4,4l0,0
				C295.3-453.6,293.4-451.8,291.2-451.8z"/>
		</g>
		<g id="XMLID_144_">
			<rect id="XMLID_155_" x="181.5" y="-555.7" class="st21" width="128.2" height="159.8"/>
			<path id="XMLID_154_" class="st19" d="M195.8-433.9v17.5c0,1,1.1,1.6,1.9,1l12.7-8.8c0.7-0.5,0.7-1.5,0-2l-12.7-8.7
				C196.9-435.4,195.8-434.9,195.8-433.9z"/>
			<path id="XMLID_153_" class="st22" d="M238.1-464.3h-41.3c-0.7,0-1.3-0.6-1.3-1.3v-35.1c0-0.7,0.6-1.3,1.3-1.3h41.3
				c0.7,0,1.3,0.6,1.3,1.3v35.1C239.3-464.9,238.8-464.3,238.1-464.3z"/>
			<path id="XMLID_152_" class="st23" d="M277.7-520.1H230c-2.2,0-4-1.8-4-4l0,0c0-2.2,1.8-4,4-4h47.7c2.2,0,4,1.8,4,4l0,0
				C281.7-521.9,279.9-520.1,277.7-520.1z"/>
			<path id="XMLID_151_" class="st24" d="M262-530.8h-32c-2.2,0-4-1.8-4-4l0,0c0-2.2,1.8-4,4-4h32c2.2,0,4,1.8,4,4l0,0
				C266-532.6,264.2-530.8,262-530.8z"/>
			<path id="XMLID_150_" class="st24" d="M211.9-520.1L211.9-520.1c-5.3,0-9.7-4.4-9.7-9.7l0,0c0-5.3,4.4-9.7,9.7-9.7l0,0
				c5.3,0,9.7,4.4,9.7,9.7l0,0C221.6-524.5,217.3-520.1,211.9-520.1z"/>
			<line id="XMLID_149_" class="st25" x1="223.6" y1="-425.2" x2="292.3" y2="-425.2"/>
			<circle id="XMLID_148_" class="st19" cx="243.2" cy="-425.2" r="3.9"/>
			<path id="XMLID_147_" class="st23" d="M291.2-476.3h-41.6c-2.2,0-4-1.8-4-4l0,0c0-2.2,1.8-4,4-4h41.6c2.2,0,4,1.8,4,4l0,0
				C295.3-478.1,293.4-476.3,291.2-476.3z"/>
			<path id="XMLID_146_" class="st23" d="M291.2-464.3h-41.6c-2.2,0-4-1.8-4-4l0,0c0-2.2,1.8-4,4-4h41.6c2.2,0,4,1.8,4,4l0,0
				C295.3-466.1,293.4-464.3,291.2-464.3z"/>
			<path id="XMLID_145_" class="st23" d="M291.2-451.8h-90.3c-2.2,0-4-1.8-4-4l0,0c0-2.2,1.8-4,4-4h90.3c2.2,0,4,1.8,4,4l0,0
				C295.3-453.6,293.4-451.8,291.2-451.8z"/>
		</g>
	</g>
	<g id="articlecard2" class="st6">
		<rect id="XMLID_53_" x="287.5" y="-531" class="st21" width="128.2" height="159.8"/>
		<path id="XMLID_52_" class="st23" d="M398.8-425.2h-93.9c-2.2,0-4-1.8-4-4l0,0c0-2.2,1.8-4,4-4h93.9c2.2,0,4,1.8,4,4l0,0
			C402.8-427,401-425.2,398.8-425.2z"/>
		<path id="XMLID_51_" class="st23" d="M326-438h-21.1c-2.2,0-4-1.8-4-4l0,0c0-2.2,1.8-4,4-4H326c2.2,0,4,1.8,4,4l0,0
			C330-439.8,328.2-438,326-438z"/>
		<path id="XMLID_50_" class="st23" d="M324.6-450.1h-19.7c-2.2,0-4-1.8-4-4l0,0c0-2.2,1.8-4,4-4h19.7c2.2,0,4,1.8,4,4l0,0
			C328.6-451.9,326.8-450.1,324.6-450.1z"/>
		<path id="XMLID_49_" class="st24" d="M318-495.5L318-495.5c-5.3,0-9.7-4.4-9.7-9.7l0,0c0-5.3,4.4-9.7,9.7-9.7l0,0
			c5.3,0,9.7,4.4,9.7,9.7l0,0C327.7-499.8,323.3-495.5,318-495.5z"/>
		<path id="XMLID_48_" class="st24" d="M368-506.2h-32c-2.2,0-4-1.8-4-4l0,0c0-2.2,1.8-4,4-4h32c2.2,0,4,1.8,4,4l0,0
			C372.1-508,370.2-506.2,368-506.2z"/>
		<path id="XMLID_30_" class="st23" d="M383.7-495.5H336c-2.2,0-4-1.8-4-4l0,0c0-2.2,1.8-4,4-4h47.7c2.2,0,4,1.8,4,4l0,0
			C387.8-497.3,386-495.5,383.7-495.5z"/>
		<path id="XMLID_27_" class="st22" d="M401.6-439h-66.3c-0.7,0-1.3-0.6-1.3-1.3v-46.2c0-0.7,0.6-1.3,1.3-1.3h66.3
			c0.7,0,1.3,0.6,1.3,1.3v46.2C402.8-439.6,402.3-439,401.6-439z"/>
		<path id="XMLID_26_" class="st23" d="M398.9-412H305c-2.2,0-4-1.8-4-4l0,0c0-2.2,1.8-4,4-4h93.9c2.2,0,4,1.8,4,4l0,0
			C403-413.8,401.2-412,398.9-412z"/>
		<path id="XMLID_25_" class="st23" d="M398.8-398.2h-93.9c-2.2,0-4-1.8-4-4l0,0c0-2.2,1.8-4,4-4h93.9c2.2,0,4,1.8,4,4l0,0
			C402.8-400,401-398.2,398.8-398.2z"/>
		<path id="XMLID_24_" class="st23" d="M398.8-385.2h-93.9c-2.2,0-4-1.8-4-4l0,0c0-2.2,1.8-4,4-4h93.9c2.2,0,4,1.8,4,4l0,0
			C402.8-387,401-385.2,398.8-385.2z"/>
	</g>
	<g id="videoCard2" class="st6">
		<rect id="XMLID_21_" x="407.3" y="-562" class="st21" width="128.2" height="159.8"/>
		<path id="XMLID_20_" class="st24" d="M437.7-526.5L437.7-526.5c-5.3,0-9.7-4.4-9.7-9.7l0,0c0-5.3,4.4-9.7,9.7-9.7l0,0
			c5.3,0,9.7,4.4,9.7,9.7l0,0C447.4-530.8,443-526.5,437.7-526.5z"/>
		<path id="XMLID_19_" class="st24" d="M487.8-537.2h-32c-2.2,0-4-1.8-4-4l0,0c0-2.2,1.8-4,4-4h32c2.2,0,4,1.8,4,4l0,0
			C491.8-539,490-537.2,487.8-537.2z"/>
		<path id="XMLID_18_" class="st23" d="M503.5-526.5h-47.7c-2.2,0-4-1.8-4-4l0,0c0-2.2,1.8-4,4-4h47.7c2.2,0,4,1.8,4,4l0,0
			C507.5-528.3,505.7-526.5,503.5-526.5z"/>
		<rect id="XMLID_17_" x="407.3" y="-508.3" class="st22" width="128.2" height="73.5"/>
		<path id="XMLID_16_" class="st26" d="M461.5-480.2v17.5c0,1,1.1,1.6,1.9,1l12.7-8.8c0.7-0.5,0.7-1.5,0-2l-12.7-8.7
			C462.6-481.8,461.5-481.2,461.5-480.2z"/>
	</g>
</g>
<g id="mindmap">
	<path class="st0" d="M95.9-661.4l-1.5,1.5l1.3,1.3l1.5-1.5c0.5,0.3,1.1,0.6,1.7,0.7v2h1.9v-2c0.6-0.1,1.2-0.4,1.7-0.7l1.5,1.5
		l1.3-1.3l-1.5-1.5c0.3-0.5,0.6-1.1,0.7-1.7h2v-1.9h-2c-0.1-0.6-0.4-1.2-0.7-1.7l1.5-1.5l-1.3-1.3l-1.5,1.5
		c-0.5-0.3-1.1-0.6-1.7-0.7v-2h-1.9v2c-0.6,0.1-1.2,0.4-1.7,0.7l-1.5-1.5l-1.3,1.3l1.5,1.5c-0.3,0.5-0.6,1.1-0.7,1.7h-2v1.9h2
		C95.3-662.5,95.6-661.9,95.9-661.4z M99.9-666.9c1.6,0,2.8,1.3,2.8,2.8c0,1.6-1.3,2.8-2.8,2.8S97-662.5,97-664
		C97-665.6,98.3-666.9,99.9-666.9z"/>
	<path d="M126.3-651.7c-0.4,0-0.8,0.1-1.2,0.3l-3.2-3.2c0.4-0.5,0.7-1.1,0.7-1.8c0-0.8-0.3-1.5-0.8-2l4.3-10.3c0.1,0,0.2,0,0.3,0
		c1.6,0,2.8-1.3,2.8-2.8c0-1.6-1.3-2.8-2.8-2.8c-1.6,0-2.8,1.3-2.8,2.8c0,0.1,0,0.3,0,0.4l-5.7,3.2c-0.5-0.5-1.2-0.8-1.9-0.8
		c-1.2,0-2.3,0.8-2.7,1.9h-2.7c-0.6-1.8-1.7-3.4-3.1-4.7c-2.4-2.2-5.6-3.2-8.9-2.8c-4.3,0.5-7.9,3.5-9.4,7.5h-2.7
		c-0.4-1.1-1.4-1.9-2.7-1.9c-0.8,0-1.4,0.3-1.9,0.8l-5.7-3.2c0-0.1,0-0.2,0-0.4c0-1.6-1.3-2.8-2.8-2.8c-1.6,0-2.8,1.3-2.8,2.8
		c0,1.6,1.3,2.8,2.8,2.8c0.1,0,0.2,0,0.3,0l4.3,10.3c-0.5,0.5-0.8,1.2-0.8,2c0,0.7,0.3,1.3,0.7,1.8l-3.2,3.2
		c-0.4-0.2-0.8-0.3-1.2-0.3c-1.6,0-2.8,1.3-2.8,2.8c0,1.6,1.3,2.8,2.8,2.8c1.6,0,2.8-1.3,2.8-2.8c0-0.4-0.1-0.8-0.3-1.2l3.6-3.6
		c0.2,0,0.3,0.1,0.5,0.1c0.7,0,1.4-0.3,1.9-0.7l5.4,3.9L82-638.9c-0.1,0.3-0.1,0.6,0.1,0.9c0.2,0.3,0.5,0.4,0.8,0.4h4.7v8.5
		c0,0.3,0.1,0.6,0.3,0.7c0.2,0.2,0.5,0.2,0.8,0.2l8.6-1.7l2.1,6.3l-9.4,4.1c-0.3,0.1-0.6,0.5-0.6,0.9v1.9c0,0.5,0.4,0.9,0.9,0.9
		h26.5c0.5,0,0.9-0.4,0.9-0.9v-4.7c0-0.2-0.1-0.4-0.2-0.5l-4.7-6.6c-0.1-0.2-0.3-0.3-0.5-0.3l-1.1-2.8c5.1-9.5,1.8-16.4,0.3-18.7
		l6.2-3.9c0.5,0.5,1.2,0.8,1.9,0.8c0.2,0,0.3,0,0.5-0.1l3.6,3.6c-0.2,0.4-0.3,0.8-0.3,1.2c0,1.6,1.3,2.8,2.8,2.8
		c1.6,0,2.8-1.3,2.8-2.8C129.2-650.4,127.9-651.7,126.3-651.7z M119.4-659.3l-2.1-4.2c0.9-0.5,1.5-1.4,1.5-2.5c0-0.1,0-0.3,0-0.4
		l5.5-3.2l-4.2,10.2c-0.1,0-0.2,0-0.3,0C119.6-659.3,119.5-659.3,119.4-659.3z M126.3-672.5c0.5,0,0.9,0.4,0.9,0.9
		c0,0.5-0.4,0.9-0.9,0.9c-0.5,0-0.9-0.4-0.9-0.9C125.4-672.1,125.8-672.5,126.3-672.5z M115.9-666.9c0.5,0,0.9,0.4,0.9,0.9
		c0,0.5-0.4,0.9-0.9,0.9s-0.9-0.4-0.9-0.9C115-666.4,115.4-666.9,115.9-666.9z M90.5-664.4c0.6-4.2,4-7.6,8.3-8.1
		c2.7-0.3,5.4,0.5,7.4,2.3c2,1.8,3.2,4.4,3.2,7.1c0,2.6-1.1,5.2-3.1,7c-1.9,1.7-3.1,3.9-3.4,6.3h-2v-5.7h-1.9v5.7h-2
		c-0.4-2.4-1.6-4.6-3.4-6.3C91.1-658.2,90.1-661.3,90.5-664.4z M98.9-644.2h1.9v0.9c0,0.5-0.4,0.9-0.9,0.9s-0.9-0.4-0.9-0.9V-644.2z
		 M97-646v-1.9h5.7v1.9H97z M83.8-666.9c0.5,0,0.9,0.4,0.9,0.9c0,0.5-0.4,0.9-0.9,0.9s-0.9-0.4-0.9-0.9
		C82.8-666.4,83.3-666.9,83.8-666.9z M80.3-659.3c-0.1,0-0.2,0-0.3,0c-0.1,0-0.2,0-0.3,0l-4.2-10.2l5.5,3.2c0,0.1,0,0.2,0,0.4
		c0,1.1,0.6,2,1.5,2.5L80.3-659.3z M72.4-671.6c0-0.5,0.4-0.9,0.9-0.9s0.9,0.4,0.9,0.9c0,0.5-0.4,0.9-0.9,0.9S72.4-671.1,72.4-671.6
		z M73.4-647.9c-0.5,0-0.9-0.4-0.9-0.9c0-0.5,0.4-0.9,0.9-0.9s0.9,0.4,0.9,0.9C74.3-648.4,73.9-647.9,73.4-647.9z M80-655.5
		c-0.5,0-0.9-0.4-0.9-0.9c0-0.5,0.4-0.9,0.9-0.9s0.9,0.4,0.9,0.9C80.9-655.9,80.5-655.5,80-655.5z M115.9-617.7H91.3v-0.3l20.5-8.9
		l4.1,5.8V-617.7z M109.4-632.3c-0.1,0.2-0.2,0.5-0.1,0.8l1.2,3.1l-9.5,4.1l-2.3-6.9c-0.2-0.5-0.6-0.7-1.1-0.6l-8.3,1.7v-8.3
		c0-0.5-0.4-0.9-0.9-0.9h-4.2l4.8-10.4h2.2v-1.9h-2.5l-6-4.3c0-0.1,0-0.3,0-0.4c0-0.8-0.3-1.5-0.8-2l2.4-4.7c1-0.2,1.7-0.9,2-1.8
		h2.2c0,0.1,0,0.2-0.1,0.3c-0.5,3.8,0.8,7.4,3.6,9.9c1.5,1.3,2.4,3.1,2.8,4.9h-1.7v1.9h1.9v2.8c0,0.5,0.4,0.9,0.9,0.9H97v0.9
		c0,1.6,1.3,2.8,2.8,2.8s2.8-1.3,2.8-2.8v-0.9h0.9c0.5,0,0.9-0.4,0.9-0.9v-2.8h1.9v-1.9h-1.7c0.3-1.8,1.3-3.5,2.8-4.9
		c2.3-2.1,3.7-5.2,3.7-8.4c0-0.6-0.1-1.3-0.2-1.9h2.2c0.3,0.9,1.1,1.6,2,1.8l2.4,4.7c-0.5,0.5-0.8,1.2-0.8,2c0,0.1,0,0.3,0,0.4
		l-6.9,4.3h-1.6v1.9h1.4C110.9-648.3,114.7-641.7,109.4-632.3z M118.8-656.5c0-0.5,0.4-0.9,0.9-0.9s0.9,0.4,0.9,0.9
		c0,0.5-0.4,0.9-0.9,0.9S118.8-655.9,118.8-656.5z M126.3-647.9c-0.5,0-0.9-0.4-0.9-0.9c0-0.5,0.4-0.9,0.9-0.9
		c0.5,0,0.9,0.4,0.9,0.9C127.3-648.4,126.9-647.9,126.3-647.9z"/>
</g>
<g id="microphone">
	<path d="M271.9-597.3c5.9,0,10.6-4.8,10.6-10.6v-19.5c0-5.9-4.8-10.6-10.6-10.6c-5.9,0-10.6,4.8-10.6,10.6v19.5
		C261.3-602.1,266-597.3,271.9-597.3z M271.9-635.8c4.6,0,8.4,3.8,8.4,8.4v9.3h-16.7v-9.3C263.5-632,267.3-635.8,271.9-635.8z
		 M263.5-615.8h16.7v7.9c0,4.6-3.8,8.4-8.4,8.4s-8.4-3.8-8.4-8.4V-615.8z"/>
	<path d="M269.1-623.2h5.5c0.6,0,1.1-0.5,1.1-1.1s-0.5-1.1-1.1-1.1h-5.5c-0.6,0-1.1,0.5-1.1,1.1S268.5-623.2,269.1-623.2z"/>
	<path d="M269.1-627.4h5.5c0.6,0,1.1-0.5,1.1-1.1s-0.5-1.1-1.1-1.1h-5.5c-0.6,0-1.1,0.5-1.1,1.1S268.5-627.4,269.1-627.4z"/>
	<path class="st0" d="M286.3-609.1c-0.6,0-1.1,0.5-1.1,1.1c0,7.4-6,13.3-13.3,13.3c-7.4,0-13.3-6-13.3-13.3c0-0.6-0.5-1.1-1.1-1.1
		s-1.1,0.5-1.1,1.1c0,7.5,5.3,13.7,12.3,15.2v5.7h-0.1c-3.1,0-5.7,2.5-5.7,5.7c0,0.6,0.5,1.1,1.1,1.1h15.9c0.6,0,1.1-0.5,1.1-1.1
		c0-3.1-2.5-5.7-5.7-5.7h-0.1v-5.7c7-1.5,12.3-7.8,12.3-15.2C287.5-608.6,287-609.1,286.3-609.1z M278.5-582.5h-13.2
		c0.5-1.3,1.7-2.3,3.2-2.3h6.8C276.8-584.7,278-583.8,278.5-582.5z M273-587h-2.1v-5.4c0.4,0,0.7,0,1.1,0c0.4,0,0.7,0,1.1,0V-587z"
		/>
	<path class="st0" d="M248.6-627.5c-0.6,0-1.1,0.5-1.1,1.1v11c0,0.6,0.5,1.1,1.1,1.1c0.6,0,1.1-0.5,1.1-1.1v-11
		C249.7-627,249.2-627.5,248.6-627.5z"/>
	<path d="M257.6-617c0.6,0,1.1-0.5,1.1-1.1v-5.4c0-0.6-0.5-1.1-1.1-1.1s-1.1,0.5-1.1,1.1v5.4C256.5-617.5,257-617,257.6-617z"/>
	<path d="M244.1-631.9c-0.6,0-1.1,0.5-1.1,1.1v18.8c0,0.6,0.5,1.1,1.1,1.1s1.1-0.5,1.1-1.1v-18.8
		C245.2-631.4,244.7-631.9,244.1-631.9z"/>
	<path d="M253.1-628.6c-0.6,0-1.1,0.5-1.1,1.1v15.3c0,0.6,0.5,1.1,1.1,1.1s1.1-0.5,1.1-1.1v-15.3
		C254.3-628.1,253.7-628.6,253.1-628.6z"/>
	<path d="M295.2-627.5c-0.6,0-1.1,0.5-1.1,1.1v11c0,0.6,0.5,1.1,1.1,1.1s1.1-0.5,1.1-1.1v-11C296.3-627,295.8-627.5,295.2-627.5z"/>
	<path class="st0" d="M286.1-617c0.6,0,1.1-0.5,1.1-1.1v-5.4c0-0.6-0.5-1.1-1.1-1.1s-1.1,0.5-1.1,1.1v5.4
		C285-617.5,285.5-617,286.1-617z"/>
	<path d="M299.7-631.9c-0.6,0-1.1,0.5-1.1,1.1v18.8c0,0.6,0.5,1.1,1.1,1.1s1.1-0.5,1.1-1.1v-18.8
		C300.8-631.4,300.3-631.9,299.7-631.9z"/>
	<path d="M290.6-613.4c-0.3,0-0.6,0.1-0.8,0.3c-0.2,0.2-0.3,0.5-0.3,0.8c0,0.3,0.1,0.6,0.3,0.8c0.2,0.2,0.5,0.3,0.8,0.3
		s0.6-0.1,0.8-0.3c0.2-0.2,0.3-0.5,0.3-0.8c0-0.3-0.1-0.6-0.3-0.8C291.2-613.2,290.9-613.4,290.6-613.4z"/>
	<path d="M290.6-628.6c-0.6,0-1.1,0.5-1.1,1.1v10.5c0,0.6,0.5,1.1,1.1,1.1s1.1-0.5,1.1-1.1v-10.5
		C291.8-628.1,291.3-628.6,290.6-628.6z"/>
	<path class="st0" d="M271.9-602.1c3.2,0,5.9-2.6,5.9-5.9c0-0.6-0.5-1.1-1.1-1.1c-0.6,0-1.1,0.5-1.1,1.1c0,2-1.6,3.6-3.6,3.6
		c-0.6,0-1.1,0.5-1.1,1.1S271.3-602.1,271.9-602.1z"/>
	<path d="M276.6-610.7c0.3,0,0.6-0.1,0.8-0.3c0.2-0.2,0.3-0.5,0.3-0.8s-0.1-0.6-0.3-0.8c-0.2-0.2-0.5-0.3-0.8-0.3
		c-0.3,0-0.6,0.1-0.8,0.3c-0.2,0.2-0.3,0.5-0.3,0.8s0.1,0.6,0.3,0.8C276-610.8,276.3-610.7,276.6-610.7z"/>
</g>
<g id="camera">
	<g>
		<g>
			<path d="M489.7-623.2c-0.4-0.3-0.9-0.3-1.4,0l-9,4.8v-4.1c0-0.8-0.6-1.4-1.4-1.4h-2.3c2.8-2.3,4.6-5.8,4.6-9.7
				c0-6.9-5.6-12.4-12.4-12.4c-5.9,0-10.8,4.1-12.1,9.5c-1.7-2.1-4.3-3.4-7.2-3.4c-5.2,0-9.4,4.2-9.4,9.4c0,2.6,1,4.9,2.7,6.6h-1.3
				c-0.8,0-1.4,0.6-1.4,1.4v6.3h-3.5c-0.8,0-1.4,0.6-1.4,1.4v5.5c0,0.8,0.6,1.4,1.4,1.4h3.5v6.3c0,0.8,0.6,1.4,1.4,1.4H457
				l-7.5,14.4c-0.4,0.7-0.1,1.5,0.6,1.9c0.2,0.1,0.4,0.2,0.6,0.2c0.5,0,1-0.3,1.2-0.7l7.3-14.1l7.3,14.1c0.2,0.5,0.7,0.7,1.2,0.7
				c0.2,0,0.4-0.1,0.6-0.2c0.7-0.4,0.9-1.2,0.6-1.9l-7.5-14.4h16.4c0.8,0,1.4-0.6,1.4-1.4v-4.1l9,4.8c0.2,0.1,0.4,0.2,0.7,0.2
				c0.2,0,0.5-0.1,0.7-0.2c0.4-0.3,0.7-0.7,0.7-1.2V-622C490.3-622.5,490.1-622.9,489.7-623.2z M439.2-610.8h-2.1v-2.7h2.1V-610.8z
				 M467.9-643.2c5.3,0,9.7,4.3,9.7,9.7s-4.3,9.7-9.7,9.7c-5.3,0-9.7-4.3-9.7-9.7C458.2-638.9,462.5-643.2,467.9-643.2z
				 M457.3-627.1c0.7,1.2,1.7,2.3,2.8,3.2h-4.8C456.1-624.8,456.8-625.9,457.3-627.1z M448.5-637.1c3.6,0,6.6,3,6.6,6.6
				c0,3.6-3,6.6-6.6,6.6c-3.6,0-6.6-3-6.6-6.6C441.9-634.2,444.9-637.1,448.5-637.1z M476.6-616.1v7.9v5.1h-17.2c0,0,0,0,0,0h0
				c0,0,0,0,0,0H442v-6.3v-5.5v-6.3h34.5V-616.1z M487.6-604.5l-8.2-4.4v-6.2l8.2-4.4V-604.5z"/>
		</g>
	</g>
	<g>
		<g>
			<path d="M448.5-634.7c-2.3,0-4.2,1.9-4.2,4.2c0,2.3,1.9,4.2,4.2,4.2c2.3,0,4.2-1.9,4.2-4.2C452.8-632.8,450.9-634.7,448.5-634.7z
				 M448.5-628.8c-0.9,0-1.7-0.8-1.7-1.7c0-0.9,0.8-1.7,1.7-1.7s1.7,0.8,1.7,1.7C450.3-629.6,449.5-628.8,448.5-628.8z"/>
		</g>
	</g>
	<g>
		<g>
			<path class="st0" d="M467.9-639.6c-3.3,0-6.1,2.7-6.1,6.1c0,3.3,2.7,6.1,6.1,6.1c3.3,0,6.1-2.7,6.1-6.1
				C473.9-636.9,471.2-639.6,467.9-639.6z M467.9-630.3c-1.8,0-3.3-1.5-3.3-3.3s1.5-3.3,3.3-3.3c1.8,0,3.3,1.5,3.3,3.3
				S469.7-630.3,467.9-630.3z"/>
		</g>
	</g>
	<g>
		<g>
			<path class="st0" d="M463.4-617.1h-15.1c-0.7,0-1.3,0.6-1.3,1.3v7.3c0,0.7,0.6,1.3,1.3,1.3h15.1c0.7,0,1.3-0.6,1.3-1.3v-7.3
				C464.7-616.5,464.1-617.1,463.4-617.1z M462.1-609.7h-12.5v-4.7h12.5L462.1-609.7L462.1-609.7z"/>
		</g>
	</g>
	<g>
		<g>
			<circle cx="470.7" cy="-614.4" r="1.4"/>
		</g>
	</g>
	<g>
		<g>
			<circle cx="470.7" cy="-609.8" r="1.4"/>
		</g>
	</g>
</g>
<g id="puzzle">
	<g>
		<g>
			<path d="M651.6-637.8c-0.1-0.9-0.4-1.7-1.1-2.3l-4.6-4.6c0.7-0.2,1.4-0.6,2-1.2l0.1-0.1c2-2,1.9-5.5-0.4-7.7
				c-1.1-1.1-2.4-1.7-3.8-1.8c-1.5-0.1-2.8,0.4-3.8,1.4l-0.1,0.1c-0.5,0.5-0.9,1.2-1.2,2l-4.6-4.6c-1.4-1.4-3.5-1.4-4.7-0.2
				l-4.2,4.2c-0.5,0.5-0.7,1.2-0.6,2c0.2,0.8,0.7,1.4,1.5,1.7c0.5,0.2,0.9,0.5,1.3,0.8l0.1,0.1c0.6,0.6,1,1.4,1.1,2.3
				c0,0.8-0.2,1.5-0.7,2s-1.2,0.8-2,0.7c-0.8-0.1-1.6-0.4-2.3-1.1l-0.1-0.1c-0.4-0.4-0.7-0.8-0.8-1.3c-0.3-0.8-0.9-1.3-1.7-1.5
				c-0.7-0.2-1.5,0.1-2,0.6l-4.1,4.1c-1.3,1.3-1.2,3.4,0.2,4.7l4.6,4.6c-0.7,0.2-1.4,0.6-2,1.2l-0.1,0.1c-2,2-1.9,5.5,0.4,7.7
				c1.2,1.2,2.7,1.8,4.2,1.8c1.3,0,2.6-0.5,3.5-1.4l0.1-0.1c0.5-0.5,0.9-1.2,1.2-2l4.6,4.6c0.6,0.6,1.5,1,2.3,1.1c0.1,0,0.1,0,0.2,0
				c0.8,0,1.6-0.3,2.2-0.9l4-4c0.3,0.7,0.8,1.4,1.3,2l0.1,0.1c2.2,2.2,5.7,2.4,7.7,0.4c2-2,1.9-5.5-0.4-7.7l-0.1-0.1
				c-0.6-0.6-1.3-1-2-1.3l4-4C651.3-636,651.7-636.9,651.6-637.8z M649-637.1l-4.2,4.2c-0.5,0.5-0.7,1.2-0.6,2
				c0.2,0.8,0.7,1.4,1.5,1.7c0.5,0.2,0.9,0.5,1.3,0.8l0.1,0.1c1.3,1.3,1.4,3.2,0.4,4.3c-1.1,1.1-3,0.9-4.3-0.4l-0.1-0.1
				c-0.4-0.4-0.7-0.8-0.8-1.3c-0.3-0.8-0.9-1.3-1.7-1.5c-0.7-0.2-1.5,0.1-2,0.6l-4.1,4.1c-0.2,0.2-0.4,0.2-0.5,0.2
				c-0.3,0-0.5-0.1-0.8-0.4l-1.8-1.8l4-4c0.5-0.5,0.5-1.2,0-1.7c-0.5-0.5-1.2-0.5-1.7,0l-4,4l-1.2-1.2c-0.5-0.5-1.1-0.7-1.7-0.7
				c-0.2,0-0.4,0-0.6,0.1c-0.7,0.2-1.3,0.8-1.4,1.6c-0.1,0.5-0.3,0.9-0.7,1.2l-0.1,0.1c-1.1,1.1-3,0.9-4.3-0.4
				c-1.3-1.3-1.4-3.2-0.4-4.3l0.1-0.1c0.3-0.3,0.7-0.5,1.2-0.7c0.8-0.2,1.3-0.7,1.6-1.4c0.2-0.8,0-1.7-0.6-2.3l-4.8-4.8
				c-0.2-0.2-0.3-0.5-0.4-0.8c0-0.2,0-0.4,0.2-0.5l4-4c0.3,0.7,0.8,1.4,1.3,2l0.1,0.1c2.2,2.2,5.7,2.4,7.7,0.4c2-2,1.9-5.5-0.4-7.7
				l-0.1-0.1c-0.6-0.6-1.3-1-2-1.3l4-4c0.3-0.3,0.9-0.2,1.3,0.2l4.8,4.8c0.6,0.6,1.5,0.8,2.3,0.6c0.7-0.2,1.3-0.8,1.4-1.6
				c0.1-0.5,0.3-0.9,0.7-1.2l0.1-0.1c0.5-0.5,1.2-0.8,2-0.7c0.8,0.1,1.6,0.4,2.3,1.1c1.3,1.3,1.4,3.2,0.4,4.3l-0.1,0.1
				c-0.3,0.3-0.7,0.5-1.2,0.7c-0.8,0.2-1.3,0.7-1.6,1.4c-0.2,0.8,0,1.7,0.6,2.3l4.8,4.8c0.2,0.2,0.3,0.5,0.4,0.8
				C649.2-637.5,649.2-637.3,649-637.1z"/>
		</g>
	</g>
	<g>
		<g>
			<path d="M638.4-633.4c-0.2-0.2-0.5-0.4-0.9-0.4s-0.6,0.1-0.9,0.4s-0.4,0.5-0.4,0.9s0.1,0.6,0.4,0.9c0.2,0.2,0.5,0.4,0.9,0.4
				c0.3,0,0.6-0.1,0.9-0.4c0.2-0.2,0.4-0.5,0.4-0.9S638.6-633.1,638.4-633.4z"/>
		</g>
	</g>
	<g>
		<g>
			<path d="M664-666.4c-0.2-0.2-0.5-0.4-0.9-0.4s-0.6,0.1-0.9,0.4c-0.2,0.2-0.4,0.5-0.4,0.9c0,0.3,0.1,0.6,0.4,0.9
				c0.2,0.2,0.5,0.4,0.9,0.4s0.6-0.1,0.9-0.4c0.2-0.2,0.4-0.5,0.4-0.9C664.4-665.9,664.3-666.2,664-666.4z"/>
		</g>
	</g>
	<g>
		<g>
			<path class="st0" d="M673.1-654c-0.7-0.7-1.4-1.2-2.3-1.5l4-4c0.6-0.6,0.9-1.5,0.9-2.4c-0.1-0.9-0.4-1.7-1.1-2.3l-4.5-4.5
				c0.6-0.2,1.2-0.6,1.7-1.1l0.1-0.1c2-2,1.9-5.5-0.4-7.7c-2.2-2.2-5.7-2.4-7.7-0.4l-0.1,0.1c-0.5,0.5-0.8,1.1-1.1,1.7l-4.5-4.5
				c-1.4-1.4-3.5-1.4-4.7-0.2l-4,4c-0.3-0.9-0.8-1.6-1.5-2.3l-0.1-0.1c-2.2-2.2-5.7-2.4-7.7-0.4c-2,2-1.9,5.5,0.4,7.7l0.1,0.1
				c0.7,0.7,1.4,1.2,2.3,1.5l-4,4c-1.3,1.3-1.2,3.4,0.2,4.7l4.8,4.8c0.6,0.6,1.5,0.8,2.3,0.6c0.7-0.2,1.3-0.8,1.4-1.6
				c0.1-0.5,0.3-0.9,0.7-1.2l0.1-0.1c0.5-0.5,1.2-0.8,2-0.7c0.8,0.1,1.6,0.4,2.3,1.1c0.6,0.6,1,1.4,1.1,2.3c0,0.8-0.2,1.5-0.7,2
				l-0.1,0.1c-0.3,0.3-0.7,0.5-1.2,0.7c-0.8,0.2-1.3,0.7-1.6,1.4c-0.2,0.8,0,1.7,0.6,2.3l4.8,4.8c0.7,0.7,1.6,1.1,2.5,1.1
				c0.8,0,1.6-0.3,2.2-0.9l4-4c0.3,0.9,0.8,1.6,1.5,2.3l0.1,0.1c2.2,2.2,5.7,2.4,7.7,0.4c2-2,1.9-5.5-0.4-7.7L673.1-654z
				 M671.9-647.9c-1.1,1.1-3,0.9-4.3-0.4l-0.1-0.1c-0.4-0.4-0.7-0.9-0.9-1.5c-0.3-0.8-0.9-1.4-1.7-1.6c-0.8-0.2-1.5,0-2,0.6
				l-4.2,4.2c-0.2,0.2-0.4,0.2-0.5,0.2c-0.3,0-0.5-0.1-0.8-0.4l-4.6-4.6c0.7-0.2,1.4-0.6,2-1.2l0.1-0.1c1-1,1.5-2.4,1.4-3.8
				c-0.1-1.4-0.7-2.8-1.8-3.8c-1.1-1.1-2.4-1.7-3.8-1.8c-1.5-0.1-2.8,0.4-3.8,1.4l-0.1,0.1c-0.5,0.5-0.9,1.2-1.2,2l-4.6-4.6
				c-0.2-0.2-0.3-0.5-0.4-0.8c0-0.2,0-0.4,0.2-0.5l4.2-4.2c0.5-0.5,0.7-1.3,0.6-2c-0.2-0.8-0.8-1.5-1.6-1.7c-0.5-0.2-1-0.5-1.5-0.9
				l-0.1-0.1c-1.3-1.3-1.4-3.2-0.4-4.3c1.1-1.1,3-0.9,4.3,0.4l0.1,0.1c0.4,0.4,0.7,0.9,0.9,1.5c0.3,0.8,0.9,1.4,1.7,1.6
				c0.8,0.2,1.5,0,2-0.6l4.2-4.2c0.3-0.3,0.9-0.2,1.3,0.2l4.7,4.7c0.6,0.6,1.4,0.8,2.2,0.6c0.7-0.2,1.3-0.7,1.5-1.4
				c0.1-0.4,0.3-0.8,0.6-1.1l0.1-0.1c1.1-1.1,3-0.9,4.3,0.4c1.3,1.3,1.4,3.2,0.4,4.3l-0.1,0.1c-0.3,0.3-0.6,0.5-1.1,0.6
				c-0.7,0.2-1.3,0.8-1.4,1.5c-0.2,0.8,0,1.6,0.6,2.2l4.7,4.7c0.2,0.2,0.3,0.5,0.4,0.8c0,0.2,0,0.4-0.2,0.5l-1.9,1.9l-4-4
				c-0.5-0.5-1.2-0.5-1.7,0c-0.5,0.5-0.5,1.2,0,1.7l4,4l-0.6,0.6c-0.5,0.5-0.7,1.3-0.6,2c0.2,0.8,0.8,1.5,1.6,1.7
				c0.5,0.2,1,0.5,1.5,0.9l0.1,0.1C672.8-650.9,672.9-648.9,671.9-647.9z"/>
		</g>
	</g>
</g>
<g id="quiz">
	<path class="st28" d="M546.7-642.4h-7.6c-0.6,0-1.1-0.5-1.1-1.1v-7.6c0-0.6,0.5-1.1,1.1-1.1h7.6c0.6,0,1.1,0.5,1.1,1.1v7.6
		C547.8-642.9,547.3-642.4,546.7-642.4z"/>
	<path class="st29" d="M546.7-627.5h-7.6c-0.6,0-1.1-0.5-1.1-1.1v-7.6c0-0.6,0.5-1.1,1.1-1.1h7.6c0.6,0,1.1,0.5,1.1,1.1v7.6
		C547.8-628,547.3-627.5,546.7-627.5z"/>
	<path class="st28" d="M546.7-612.5h-7.6c-0.6,0-1.1-0.5-1.1-1.1v-7.6c0-0.6,0.5-1.1,1.1-1.1h7.6c0.6,0,1.1,0.5,1.1,1.1v7.6
		C547.8-613,547.3-612.5,546.7-612.5z"/>
	<path class="st30" d="M547.8-636.1"/>
	<path class="st30" d="M539.2-633"/>
	<path d="M574.7-645.9H553c-0.6,0-1.1-0.5-1.1-1.1l0,0c0-0.6,0.5-1.1,1.1-1.1h21.7c0.6,0,1.1,0.5,1.1,1.1l0,0
		C575.8-646.4,575.3-645.9,574.7-645.9z"/>
	<path class="st0" d="M574.9-630.9h-21.7c-0.6,0-1.1-0.5-1.1-1.1l0,0c0-0.6,0.5-1.1,1.1-1.1h21.7c0.6,0,1.1,0.5,1.1,1.1l0,0
		C576-631.4,575.5-630.9,574.9-630.9z"/>
	<path d="M574.7-616.7H553c-0.6,0-1.1-0.5-1.1-1.1l0,0c0-0.6,0.5-1.1,1.1-1.1h21.7c0.6,0,1.1,0.5,1.1,1.1l0,0
		C575.8-617.2,575.3-616.7,574.7-616.7z"/>
	<polyline class="st30" points="540.9,-647 542.3,-645.1 544.9,-648.8 	"/>
</g>
<g id="article">
	<path class="st0" d="M389.4-578.8c-0.5,0-0.9,0.4-0.9,0.9v2.1h-5.4v-5.3c0-0.5-0.4-0.9-0.9-0.9h-23.1c-0.5,0-0.9,0.4-0.9,0.9v5.3
		h-17.3V-616c0-0.5-0.4-0.9-0.9-0.9c-0.5,0-0.9,0.4-0.9,0.9v41.1c0,0.5,0.4,0.9,0.9,0.9h49.4c0.5,0,0.9-0.4,0.9-0.9v-3
		C390.3-578.4,389.9-578.8,389.4-578.8z M360-575.8v-4.4h21.3v4.4H360z"/>
	<path d="M346.5-592.2H383c0.5,0,0.9-0.4,0.9-0.9s-0.4-0.9-0.9-0.9h-36.5c-0.5,0-0.9,0.4-0.9,0.9S346-592.2,346.5-592.2z"/>
	<path class="st0" d="M346.5-587.9H383c0.5,0,0.9-0.4,0.9-0.9s-0.4-0.9-0.9-0.9h-36.5c-0.5,0-0.9,0.4-0.9,0.9S346-587.9,346.5-587.9
		z"/>
	<path d="M346.5-583.6H383c0.5,0,0.9-0.4,0.9-0.9c0-0.5-0.4-0.9-0.9-0.9h-36.5c-0.5,0-0.9,0.4-0.9,0.9
		C345.6-584,346-583.6,346.5-583.6z"/>
	<path d="M346.5-579.3h9.3c0.5,0,0.9-0.4,0.9-0.9s-0.4-0.9-0.9-0.9h-9.3c-0.5,0-0.9,0.4-0.9,0.9S346-579.3,346.5-579.3z"/>
	<path class="st0" d="M367.6-615.3c0,2.6,2.1,4.7,4.7,4.7c2.6,0,4.7-2.1,4.7-4.7s-2.1-4.7-4.7-4.7
		C369.7-620,367.6-617.9,367.6-615.3z M372.3-618.2c1.6,0,2.9,1.3,2.9,2.9s-1.3,2.9-2.9,2.9s-2.9-1.3-2.9-2.9
		S370.7-618.2,372.3-618.2z"/>
	<path d="M395.2-626.5c0-4.7-3.8-8.5-8.5-8.5c-4.2,0-7.7,3.1-8.4,7.1H340c-0.5,0-0.9,0.4-0.9,0.9v7.3c0,0.5,0.4,0.9,0.9,0.9
		c0.5,0,0.9-0.4,0.9-0.9v-6.4h37.2c0,0.6,0.1,1.2,0.3,1.8h-3.6c-0.5,0-0.9,0.4-0.9,0.9c0,0.5,0.4,0.9,0.9,0.9h4.3
		c1.2,2.2,3.3,3.9,5.8,4.4v7.1l-11.9,7.5l-15.8-8.8c-0.3-0.2-0.6-0.1-0.9,0l-11.8,7.5v-17.8H371c0.5,0,0.9-0.4,0.9-0.9
		c0-0.5-0.4-0.9-0.9-0.9h-27.4c-0.5,0-0.9,0.4-0.9,0.9v25.8c0,0.5,0.4,0.9,0.9,0.9h42.2c0.5,0,0.9-0.4,0.9-0.9V-618
		c0.6,0,1.2-0.1,1.8-0.2v36.6c0,0.5,0.4,0.9,0.9,0.9s0.9-0.4,0.9-0.9v-37.2C393.2-620.2,395.2-623.1,395.2-626.5z M344.5-598.6v-4.1
		l12.4-7.9l21.5,11.9H344.5z M384.9-598.6H382l-7.2-4l10.1-6.4V-598.6z M386.7-619.8c-3.7,0-6.7-3-6.7-6.7c0-3.7,3-6.7,6.7-6.7
		c3.7,0,6.7,3,6.7,6.7C393.4-622.8,390.4-619.8,386.7-619.8z"/>
	<path d="M391.1-629.8c-0.4-0.3-0.9-0.3-1.3,0.1l-4,4.5l-2.7-2.1c-0.4-0.3-0.9-0.2-1.3,0.1c-0.3,0.4-0.2,0.9,0.1,1.3l3.3,2.7
		c0.2,0.1,0.4,0.2,0.6,0.2c0.2,0,0.5-0.1,0.7-0.3l4.5-5.1C391.5-628.9,391.5-629.4,391.1-629.8z"/>
</g>
<g id="QA">
	<g>
		<g>
			<path d="M177.1-613.9l-3.3-7.9c-0.1-0.3-0.5-0.6-0.9-0.6s-0.7,0.2-0.9,0.6l-3.3,7.9c-0.2,0.5,0,1,0.5,1.2c0.5,0.2,1,0,1.2-0.5
				l0.5-1.1h4l0.5,1.1c0.2,0.4,0.5,0.6,0.9,0.6c0.1,0,0.2,0,0.4-0.1C177-612.9,177.3-613.4,177.1-613.9z M171.6-616.2l1.2-2.9
				l1.2,2.9H171.6z"/>
		</g>
	</g>
	<g>
		<g>
			<path d="M210.5-650.7h-46.4c-0.5,0-0.9,0.4-0.9,0.9v18.1c0,0.5,0.4,0.9,0.9,0.9h46.4c0.5,0,0.9-0.4,0.9-0.9v-18.1
				C211.5-650.3,211.1-650.7,210.5-650.7z M180.6-632.6h-15.5v-16.2h15.5V-632.6z M209.6-632.6h-27.1v-16.2h27.1V-632.6z"/>
		</g>
	</g>
	<g>
		<g>
			<path d="M198-641.6h-10.6c-0.5,0-0.9,0.4-0.9,0.9s0.4,0.9,0.9,0.9H198c0.5,0,0.9-0.4,0.9-0.9S198.5-641.6,198-641.6z"/>
		</g>
	</g>
	<g>
		<g>
			<path d="M205.4-641.6H202c-0.5,0-0.9,0.4-0.9,0.9s0.4,0.9,0.9,0.9h3.4c0.5,0,0.9-0.4,0.9-0.9S205.9-641.6,205.4-641.6z"/>
		</g>
	</g>
	<g>
		<g>
			<path d="M202.6-645.8h-15.2c-0.5,0-0.9,0.4-0.9,0.9s0.4,0.9,0.9,0.9h15.2c0.5,0,0.9-0.4,0.9-0.9S203.1-645.8,202.6-645.8z"/>
		</g>
	</g>
	<g>
		<g>
			<path d="M206.1-645.5c-0.2-0.2-0.4-0.3-0.7-0.3s-0.5,0.1-0.7,0.3c-0.2,0.2-0.3,0.4-0.3,0.7s0.1,0.5,0.3,0.7
				c0.2,0.2,0.4,0.3,0.7,0.3s0.5-0.1,0.7-0.3c0.2-0.2,0.3-0.4,0.3-0.7S206.3-645.3,206.1-645.5z"/>
		</g>
	</g>
	<g>
		<g>
			<path d="M195.4-637.5h-8c-0.5,0-0.9,0.4-0.9,0.9s0.4,0.9,0.9,0.9h8c0.5,0,0.9-0.4,0.9-0.9S195.9-637.5,195.4-637.5z"/>
		</g>
	</g>
	<g>
		<g>
			<path d="M199.3-637.2c-0.2-0.2-0.4-0.3-0.7-0.3s-0.5,0.1-0.7,0.3c-0.2,0.2-0.3,0.4-0.3,0.7s0.1,0.5,0.3,0.7
				c0.2,0.2,0.4,0.3,0.7,0.3s0.5-0.1,0.7-0.3s0.3-0.4,0.3-0.7S199.4-637,199.3-637.2z"/>
		</g>
	</g>
	<g>
		<g>
			<path d="M202.7-637.2c-0.2-0.2-0.4-0.3-0.7-0.3s-0.5,0.1-0.7,0.3s-0.3,0.4-0.3,0.7s0.1,0.5,0.3,0.7c0.2,0.2,0.4,0.3,0.7,0.3
				s0.5-0.1,0.7-0.3c0.2-0.2,0.3-0.4,0.3-0.7S202.8-637,202.7-637.2z"/>
		</g>
	</g>
	<g>
		<g>
			<path d="M206.1-637.2c-0.2-0.2-0.4-0.3-0.7-0.3c-0.2,0-0.5,0.1-0.7,0.3c-0.2,0.2-0.3,0.4-0.3,0.7s0.1,0.5,0.3,0.7
				c0.2,0.2,0.4,0.3,0.7,0.3c0.2,0,0.5-0.1,0.7-0.3s0.3-0.4,0.3-0.7S206.3-637,206.1-637.2z"/>
		</g>
	</g>
	<g>
		<g>
			<path d="M210.5-627.5h-46.4c-0.5,0-0.9,0.4-0.9,0.9v18.1c0,0.5,0.4,0.9,0.9,0.9h46.4c0.5,0,0.9-0.4,0.9-0.9v-18.1
				C211.5-627.1,211.1-627.5,210.5-627.5z M180.6-609.4h-15.5v-16.2h15.5V-609.4z M209.6-609.4h-27.1v-16.2h27.1V-609.4z"/>
		</g>
	</g>
	<g>
		<g>
			<path d="M198-618.5h-10.6c-0.5,0-0.9,0.4-0.9,0.9s0.4,0.9,0.9,0.9H198c0.5,0,0.9-0.4,0.9-0.9S198.5-618.5,198-618.5z"/>
		</g>
	</g>
	<g>
		<g>
			<path d="M205.4-618.5H202c-0.5,0-0.9,0.4-0.9,0.9s0.4,0.9,0.9,0.9h3.4c0.5,0,0.9-0.4,0.9-0.9S205.9-618.5,205.4-618.5z"/>
		</g>
	</g>
	<g>
		<g>
			<path d="M202.6-622.6h-15.2c-0.5,0-0.9,0.4-0.9,0.9s0.4,0.9,0.9,0.9h15.2c0.5,0,0.9-0.4,0.9-0.9S203.1-622.6,202.6-622.6z"/>
		</g>
	</g>
	<g>
		<g>
			<path d="M206.1-622.3c-0.2-0.2-0.4-0.3-0.7-0.3s-0.5,0.1-0.7,0.3c-0.2,0.2-0.3,0.4-0.3,0.7s0.1,0.5,0.3,0.7
				c0.2,0.2,0.4,0.3,0.7,0.3s0.5-0.1,0.7-0.3c0.2-0.2,0.3-0.4,0.3-0.7S206.3-622.2,206.1-622.3z"/>
		</g>
	</g>
	<g>
		<g>
			<path class="st0" d="M205.4-614.3h-18c-0.5,0-0.9,0.4-0.9,0.9s0.4,0.9,0.9,0.9h18c0.5,0,0.9-0.4,0.9-0.9S205.9-614.3,205.4-614.3
				z"/>
		</g>
	</g>
	<g>
		<g>
			<path class="st0" d="M177.5-637.9l-0.9-0.7c0.3-0.6,0.4-1.2,0.4-1.9v-1.5c0-2.4-1.9-4.3-4.3-4.3c-2.4,0-4.3,1.9-4.3,4.3v1.5
				c0,2.4,1.9,4.3,4.3,4.3c1,0,2-0.4,2.7-1l0.9,0.7c0.2,0.1,0.4,0.2,0.6,0.2c0.3,0,0.6-0.1,0.8-0.4C178-637,177.9-637.6,177.5-637.9
				z M175.1-640.4c0,0.3,0,0.5-0.1,0.7l-1-0.7c-0.4-0.3-1-0.2-1.3,0.2c-0.3,0.4-0.2,1,0.2,1.3l0.9,0.7c-0.3,0.2-0.7,0.3-1.1,0.3
				c-1.4,0-2.4-1.1-2.4-2.4v-1.5c0-1.4,1.1-2.4,2.4-2.4s2.4,1.1,2.4,2.4V-640.4z"/>
		</g>
	</g>
</g>
<g id="internet" class="st3">
	<g class="st6">
		<g>
			<g>
				<path class="st31" d="M376.7-680C223.2-680,98.3-804.9,98.3-958.4s124.9-278.4,278.4-278.4c153.5,0,278.4,124.9,278.4,278.4
					S530.2-680,376.7-680z M249.4-820.1c-3.5,0-6.9,1.6-9.2,4.3c-2.3,2.7-3.2,6.3-2.6,9.8l0.6,3.5c5.1,29.2,19.2,55.6,40.5,76.4
					c21.4,20.8,48.3,34.1,77.7,38.4l3.4,0.5c0.6,0.1,1.2,0.1,1.7,0.1c2.9,0,5.7-1,7.9-2.9c2.6-2.3,4.1-5.6,4.1-9.1v-108.9
					c0-6.6-5.4-12-12-12H249.4z M391.8-820.1c-6.6,0-12,5.4-12,12v108.9c0,3.5,1.5,6.8,4.1,9.1c2.2,1.9,5,2.9,7.9,2.9
					c0.6,0,1.1,0,1.7-0.1l3.4-0.5c29.4-4.3,56.3-17.5,77.7-38.3c21.4-20.8,35.4-47.2,40.5-76.4l0.6-3.5c0.6-3.5-0.3-7.1-2.6-9.8
					c-2.3-2.7-5.6-4.3-9.2-4.3H391.8z M219.5-815.7c-1.2,0-2.4,0.2-3.5,0.5l-3.3,1c-12.1,3.8-23.7,9.3-34.3,16.4l-2.9,1.9
					c-2.9,1.9-4.8,5.1-5.2,8.5c-0.4,3.5,0.7,7,3,9.5l2.4,2.6c16.5,18.1,35.4,33.9,56.1,47c2,1.2,4.2,1.9,6.4,1.9
					c3.1,0,6.2-1.2,8.5-3.5l4.1-4.1c4-4,4.7-10.1,1.7-14.9c-10.3-16.4-17.2-34.4-20.5-53.5l-0.6-3.4c-0.6-3.4-2.6-6.4-5.5-8.2
					C223.9-815.1,221.7-815.7,219.5-815.7z M533.9-815.7c-2.2,0-4.4,0.6-6.3,1.8c-2.9,1.8-5,4.8-5.5,8.2l-0.6,3.4
					c-3.2,19.1-10.1,37-20.5,53.5c-3,4.7-2.3,10.9,1.7,14.9l4.1,4.1c2.3,2.3,5.4,3.5,8.5,3.5c2.2,0,4.4-0.6,6.4-1.9
					c20.7-13.1,39.6-28.9,56.1-47l2.4-2.6c2.4-2.6,3.5-6.1,3-9.5c-0.4-3.5-2.3-6.6-5.2-8.5l-2.9-1.9c-10.6-7.1-22.2-12.6-34.3-16.4
					l-3.3-1C536.3-815.5,535.1-815.7,533.9-815.7z M535.6-955.3c-6.6,0-12,5.4-12,12v108.9c0,5.5,3.8,10.3,9.1,11.6l2.3,0.6
					c16.4,4.1,31.7,11,45.7,20.8l2.5,1.7c2,1.4,4.4,2.1,6.9,2.1c0.7,0,1.5-0.1,2.2-0.2c3.1-0.6,5.9-2.4,7.7-5l1.7-2.5
					c27.1-39.7,43.2-86.1,46.6-134l0.2-3.2c0.2-3.3-0.9-6.6-3.2-9s-5.4-3.8-8.8-3.8H535.6z M116.9-955.3c-3.3,0-6.5,1.4-8.8,3.8
					c-2.3,2.4-3.4,5.7-3.2,9l0.2,3.2c3.3,47.9,19.5,94.2,46.6,134l1.7,2.5c1.8,2.6,4.6,4.5,7.7,5c0.7,0.1,1.4,0.2,2.2,0.2
					c2.4,0,4.8-0.7,6.9-2.1l2.5-1.7c14-9.7,29.4-16.7,45.7-20.8l2.3-0.6c5.4-1.3,9.1-6.1,9.1-11.6v-108.9c0-6.6-5.4-12-12-12H116.9z
					 M391.8-955.3c-6.6,0-12,5.4-12,12v105c0,6.6,5.4,12,12,12h109.5c0,0,0.9,0,0.9,0c0,0,3.1,0,3.1,0c3.2,0,6.2-1.2,8.4-3.5
					c2.3-2.3,3.6-5.3,3.6-8.5v-105.1c0-6.6-5.4-12-12-12H391.8z M248.1-955.3c-6.6,0-12,5.4-12,12v105c0,3.2,1.3,6.3,3.5,8.5
					c2.2,2.2,5.3,3.5,8.5,3.5c0,0,3.1,0,3.1,0c0.1,0,1.1,0,1.1,0l109.4,0c6.6,0,12-5.4,12-12v-105c0-6.6-5.4-12-12-12H248.1z
					 M589.3-1120.3c-2,0-4.1,0.5-6,1.6l-2.4,1.4c-14.1,8.1-29.3,13.7-45.2,16.7l-2.4,0.5c-5.7,1.1-9.8,6-9.8,11.8v114.9
					c0,6.6,5.4,12,12,12h100.9c3.3,0,6.5-1.4,8.8-3.8c2.3-2.4,3.4-5.7,3.2-9l-0.2-3.2c-3.4-48.5-19.8-95.2-47.5-135.3l-1.6-2.3
					C596.9-1118.4,593.1-1120.3,589.3-1120.3z M391.8-1098c-6.6,0-12,5.4-12,12v112.5c0,6.6,5.4,12,12,12h113.5c6.6,0,12-5.4,12-12
					V-1086c0-6.6-5.4-12-12-12H391.8z M248.1-1098c-6.6,0-12,5.4-12,12v112.5c0,6.6,5.4,12,12,12h113.5c6.6,0,12-5.4,12-12V-1086
					c0-6.6-5.4-12-12-12H248.1z M164.1-1120.3c-3.8,0-7.6,1.8-9.9,5.2l-1.6,2.3c-27.7,40-44.1,86.8-47.5,135.3l-0.2,3.2
					c-0.2,3.3,0.9,6.6,3.2,9c2.3,2.4,5.4,3.8,8.8,3.8h100.9c6.6,0,12-5.4,12-12v-114.9c0-5.8-4.1-10.7-9.8-11.8l-2.4-0.5
					c-15.9-3-31.1-8.6-45.2-16.7l-2.4-1.4C168.2-1119.8,166.1-1120.3,164.1-1120.3z M391.8-1229.7c-2.9,0-5.7,1-7.9,2.9
					c-2.6,2.3-4.1,5.6-4.1,9.1v101.4c0,6.6,5.4,12,12,12h110.8c3.7,0,7.1-1.7,9.4-4.6s3.1-6.7,2.2-10.2l-0.9-3.7
					c-6.6-27.3-21-51.7-41.8-70.8c-20.9-19.2-46.7-31.5-74.7-35.5l-3.4-0.5C393-1229.6,392.4-1229.7,391.8-1229.7z M361.6-1229.7
					c-0.6,0-1.1,0-1.7,0.1l-3.4,0.5c-27.9,4.1-53.8,16.3-74.7,35.5c-20.8,19.1-35.2,43.5-41.8,70.8l-0.9,3.7
					c-0.9,3.6,0,7.3,2.2,10.2s5.7,4.6,9.4,4.6h110.8c6.6,0,12-5.4,12-12v-101.4c0-3.5-1.5-6.8-4.1-9.1
					C367.3-1228.7,364.5-1229.7,361.6-1229.7z M515.3-1190.5c-3.1,0-6.2,1.2-8.5,3.5l-4.1,4.1c-4,4-4.7,10.1-1.7,14.9
					c9.5,15,16.1,31.4,19.6,48.8l0.6,3c0.6,3.2,2.5,5.9,5.2,7.7c2,1.3,4.2,1.9,6.5,1.9c0.9,0,1.7-0.1,2.6-0.3l3-0.7
					c11.7-2.6,23-6.6,33.7-12.1l3.5-1.8c3.3-1.7,5.7-4.9,6.3-8.6c0.7-3.7-0.5-7.5-3-10.2l-2.7-2.9c-16.2-17.5-34.6-32.8-54.6-45.5
					C519.8-1189.9,517.6-1190.5,515.3-1190.5z M238.1-1190.5c-2.2,0-4.4,0.6-6.4,1.9c-20.1,12.7-38.5,28-54.6,45.5l-2.7,2.9
					c-2.6,2.8-3.7,6.5-3,10.2c0.7,3.7,3,6.9,6.3,8.6l3.5,1.8c10.6,5.5,22,9.5,33.7,12.1l3,0.7c0.9,0.2,1.7,0.3,2.6,0.3
					c2.3,0,4.6-0.7,6.5-1.9c2.7-1.8,4.6-4.5,5.2-7.7l0.6-3c3.5-17.3,10.1-33.7,19.6-48.8c3-4.7,2.3-10.9-1.7-14.9l-4.1-4.1
					C244.2-1189.3,241.2-1190.5,238.1-1190.5z"/>
			</g>
		</g>
	</g>
</g>
</svg>
