<?xml version="1.0" encoding="utf-8"?>
<!-- Generator: Adobe Illustrator 19.2.0, SVG Export Plug-In . SVG Version: 6.00 Build 0)  -->
<svg version="1.1" xmlns="http://www.w3.org/2000/svg" xmlns:xlink="http://www.w3.org/1999/xlink" x="0px" y="0px"
	 viewBox="0 0 740.7 1353.2" style="enable-background:new 0 0 740.7 1353.2;" xml:space="preserve">
<style type="text/css">
	.st0{stroke:#020202;stroke-miterlimit:10;}
	.st1{fill:#7B00DB;stroke:#7B00DB;stroke-miterlimit:10;}
	.st2{fill:none;stroke:#D3D3D3;stroke-width:3;stroke-linecap:round;stroke-miterlimit:10;stroke-dasharray:9;}
	.st3{fill:#7B00DB;}
	.st4{fill:#FFFFFF;stroke:#7B00DB;stroke-width:4;stroke-miterlimit:10;}
	.st5{fill:none;stroke:#7B00DB;stroke-width:4;stroke-linecap:round;stroke-linejoin:round;stroke-miterlimit:10;}
	.st6{fill:#939393;}
	.st7{fill:none;stroke:#939393;stroke-linecap:round;stroke-linejoin:round;stroke-miterlimit:10;}
	.st8{fill:#FFFFFF;}
	.st9{stroke:#000000;stroke-miterlimit:10;}
	.st10{fill:#FFFFFF;stroke:#FFFFFF;stroke-miterlimit:10;}
	.st11{stroke:#D3D3D3;stroke-width:3;stroke-linecap:round;stroke-miterlimit:10;stroke-dasharray:9;}
	.st12{fill:none;stroke:#D3D3D3;stroke-width:3;stroke-linecap:round;stroke-miterlimit:10;stroke-dasharray:9,9;}
	.st13{fill:#D3D3D3;}
	.st14{fill:#707070;}
	.st15{font-family:'Roboto-Regular';}
	.st16{font-size:20px;}
	.st17{display:none;}
	
		.st18{display:inline;fill:none;stroke:#666666;stroke-width:0.5;stroke-linecap:round;stroke-linejoin:round;stroke-miterlimit:10;}
	.st19{display:inline;}
	.st20{fill:#3A3A3A;}
	.st21{fill:#333333;}
	.st22{fill:none;stroke:#939393;stroke-width:2;stroke-miterlimit:10;}
	.st23{fill:none;stroke:#7B00DB;stroke-width:2;stroke-miterlimit:10;}
	.st24{fill:#FFFFFF;stroke:#7B00DB;stroke-linecap:round;stroke-linejoin:round;stroke-miterlimit:10;}
	.st25{fill:none;stroke:#7B00DB;stroke-linecap:round;stroke-linejoin:round;stroke-miterlimit:10;}
	.st26{fill:#D8D8D8;}
	.st27{fill:none;}
	.st28{fill:#F7F7F7;stroke:#E5E5E5;stroke-miterlimit:10;}
	.st29{fill:#E5E5E5;}
	.st30{fill:#EAEAEA;}
	.st31{fill:#DDDDDD;}
	.st32{fill:none;stroke:#D8D8D8;stroke-miterlimit:10;}
	.st33{fill:none;stroke:#EAEAEA;stroke-width:4;stroke-linecap:round;stroke-linejoin:round;stroke-miterlimit:10;}
	.st34{fill:none;stroke:#000000;stroke-width:2;stroke-miterlimit:10;}
	.st35{fill:none;stroke:#000000;stroke-width:2;stroke-linecap:round;stroke-linejoin:round;stroke-miterlimit:10;}
	.st36{fill:#EDEDED;}
</style>
<g id="man">
	<g>
		<g>
			<g>
				<path class="st0" d="M371,1278.4h8.4c7.7,0,14-6.3,14-14v-17.2c0-7.7-6.3-14-14-14H371c-7.7,0-14,6.3-14,14v17.2
					C357,1272.2,363.3,1278.4,371,1278.4z M359.9,1247.2c0-6.1,5-11.1,11.1-11.1h8.4c6.1,0,11.1,5,11.1,11.1v17.2
					c0,6.1-5,11.1-11.1,11.1H371c-6.1,0-11.1-5-11.1-11.1V1247.2z"/>
				<path class="st0" d="M370.1,1281.3c0-0.9-0.6-1.5-1.5-1.5c-0.9,0-1.5,0.6-1.5,1.5v1.5c0,2.5-1.9,4.4-4.4,4.4h-10.2
					c-4.1,0-7.3,3.2-7.3,7.3c0,0.9,0.6,1.5,1.5,1.5s1.5-0.6,1.5-1.5c0-2.5,1.9-4.4,4.4-4.4h10.2c4.1,0,7.3-3.2,7.3-7.3V1281.3z"/>
				<path class="st0" d="M396.4,1287.2h-10.2c-2.5,0-4.4-1.9-4.4-4.4v-1.5c0-0.9-0.6-1.5-1.5-1.5c-0.9,0-1.5,0.6-1.5,1.5v1.5
					c0,4.1,3.2,7.3,7.3,7.3h10.2c2.5,0,4.4,1.9,4.4,4.4v30.6c0,0.9,0.6,1.5,1.5,1.5s1.5-0.6,1.5-1.5v-30.6
					C403.7,1290.4,400.4,1287.2,396.4,1287.2z"/>
				<path class="st1" d="M335.2,1306c-3.2,0-5.8,2.6-5.8,5.8s2.6,5.8,5.8,5.8c3.2,0,5.8-2.6,5.8-5.8S338.4,1306,335.2,1306z
					 M335.2,1314.7c-1.6,0-2.9-1.3-2.9-2.9c0-1.6,1.3-2.9,2.9-2.9c1.6,0,2.9,1.3,2.9,2.9C338.1,1313.4,336.8,1314.7,335.2,1314.7z"
					/>
				<circle class="st0" cx="367.1" cy="1254.5" r="2"/>
				<circle class="st0" cx="383.4" cy="1254.5" r="2"/>
				<path class="st0" d="M380.2,1266.3l-1.2,1.2c-0.7,0.7-1.7,1.2-2.8,1.2h-3.6c-1,0-2-0.4-2.8-1.2l-1.2-1.2c-0.6-0.6-1.5-0.6-2,0
					c-0.6,0.6-0.6,1.5,0,2l1.2,1.2c1.3,1.3,3.1,2,5,2h3.6c1.9,0,3.5-0.7,4.7-2l1.2-1.2c0.6-0.6,0.6-1.5,0-2
					C381.7,1265.7,380.8,1265.7,380.2,1266.3z"/>
				<path class="st0" d="M373.9,1247.5l3.5-2.6v1.5c0,0.9,0.6,1.5,1.5,1.5h8.7c0.9,0,1.5-0.6,1.5-1.5c0-0.9-0.6-1.5-1.5-1.5h-7.3
					v-2.9c0-0.6-0.3-1-0.9-1.3c-0.4-0.3-1-0.1-1.5,0.1l-5.4,4.1h-9.8c-0.9,0-1.5,0.6-1.5,1.5c0,0.9,0.6,1.5,1.5,1.5h10.2
					C373.4,1247.8,373.6,1247.7,373.9,1247.5z"/>
				<path class="st0" d="M393.5,1298.8c-0.9,0-1.5,0.6-1.5,1.5v16h-21.9c-0.4,0-0.7,0.1-1,0.4l-2.9,2.9c-0.6,0.6-0.6,1.5,0,2
					c0.3,0.3,0.6,0.4,1,0.4s0.7-0.1,1-0.4l2.5-2.5h22.7c0.9,0,1.5-0.6,1.5-1.5v-17.5C394.9,1299.4,394.3,1298.8,393.5,1298.8z"/>
				<path class="st0" d="M377.4,1313.4c0.9,0,1.5-0.6,1.5-1.5v-13.1c0.9,0,1.5-0.6,1.5-1.5v-7.3c0-0.9-0.6-1.5-1.5-1.5h-8.7
					c-0.9,0-1.5,0.6-1.5,1.5v7.3c0,0.9,0.6,1.5,1.5,1.5v13.1c0,0.9,0.6,1.5,1.5,1.5c0.9,0,1.5-0.6,1.5-1.5v-13.1h2.9v13.1
					C376,1312.8,376.6,1313.4,377.4,1313.4z M371.6,1291.5h5.8v4.4h-5.8V1291.5z"/>
				<path class="st0" d="M383.3,1323.6h-20.4v-23.3c0-0.9-0.6-1.5-1.5-1.5h-49.5c-0.9,0-1.5,0.6-1.5,1.5v24.8c0,0.9,0.6,1.5,1.5,1.5
					h49.5h21.9c0.9,0,1.5-0.6,1.5-1.5S384.1,1323.6,383.3,1323.6z M313.3,1301.7h46.6v21.9h-46.6V1301.7z"/>
				<circle class="st0" cx="332.3" cy="1284.2" r="1.5"/>
				<circle class="st0" cx="332.3" cy="1234.7" r="1.5"/>
				<circle class="st0" cx="313.3" cy="1259.5" r="1.5"/>
				<circle class="st0" cx="313.3" cy="1272.6" r="1.5"/>
				<circle class="st0" cx="351.2" cy="1259.5" r="1.5"/>
				<circle class="st0" cx="351.2" cy="1246.4" r="1.5"/>
				<circle class="st0" cx="313.3" cy="1246.4" r="1.5"/>
				<circle class="st0" cx="351.2" cy="1272.6" r="1.5"/>
				<path class="st1" d="M319.2,1258c0.3,0,0.4,0,0.7-0.1l24.8-14.6c0.7-0.4,0.9-1.3,0.6-2c-0.4-0.7-1.3-0.9-2-0.6l-24.8,14.6
					c-0.7,0.4-0.9,1.3-0.6,2C318.1,1257.7,318.7,1258,319.2,1258z"/>
				<path class="st0" d="M317.7,1278.4h29.1c0.9,0,1.5-0.6,1.5-1.5s-0.6-1.5-1.5-1.5h-1.5v-23.3c0-0.9-0.6-1.5-1.5-1.5
					c-0.9,0-1.5,0.6-1.5,1.5v23.3h-2.9v-21.9c0-0.9-0.6-1.5-1.5-1.5s-1.5,0.6-1.5,1.5v21.9h-2.9v-18.9c0-0.9-0.6-1.5-1.5-1.5
					s-1.5,0.6-1.5,1.5v18.9h-2.9v-16c0-0.9-0.6-1.5-1.5-1.5s-1.5,0.6-1.5,1.5v16h-2.9v-11.7c0-0.9-0.6-1.5-1.5-1.5
					c-0.9,0-1.5,0.6-1.5,1.5v11.7h-1.5c-0.9,0-1.5,0.6-1.5,1.5S316.8,1278.4,317.7,1278.4z"/>
			</g>
		</g>
	</g>
	<g>
		<g>
			<path class="st1" d="M344.5,1240.7l-5.8-1.5c-0.7-0.3-1.6,0.3-1.7,1c-0.3,0.7,0.3,1.6,1,1.7l4.4,1.2l-1.2,4.4
				c-0.3,0.7,0.3,1.6,1,1.7c0,0,0.1,0,0.3,0c0.6,0,1.3-0.4,1.6-1l1.5-5.8C345.8,1241.7,345.2,1240.8,344.5,1240.7z"/>
		</g>
	</g>
</g>
<g id="man1">
	<g>
		<g>
			<g>
				<path class="st0" d="M580.5,1274.7h8.4c7.7,0,14-6.3,14-14v-17.2c0-7.7-6.3-14-14-14h-8.4c-7.7,0-14,6.3-14,14v17.2
					C566.5,1268.5,572.8,1274.7,580.5,1274.7z M569.4,1243.6c0-6.1,5-11.1,11.1-11.1h8.4c6.1,0,11.1,5,11.1,11.1v17.2
					c0,6.1-5,11.1-11.1,11.1h-8.4c-6.1,0-11.1-5-11.1-11.1V1243.6z"/>
				<path class="st0" d="M579.6,1277.7c0-0.9-0.6-1.5-1.5-1.5c-0.9,0-1.5,0.6-1.5,1.5v1.5c0,2.5-1.9,4.4-4.4,4.4h-10.2
					c-4.1,0-7.3,3.2-7.3,7.3c0,0.9,0.6,1.5,1.5,1.5c0.9,0,1.5-0.6,1.5-1.5c0-2.5,1.9-4.4,4.4-4.4h10.2c4.1,0,7.3-3.2,7.3-7.3V1277.7
					z"/>
				<path class="st0" d="M605.8,1283.5h-10.2c-2.5,0-4.4-1.9-4.4-4.4v-1.5c0-0.9-0.6-1.5-1.5-1.5s-1.5,0.6-1.5,1.5v1.5
					c0,4.1,3.2,7.3,7.3,7.3h10.2c2.5,0,4.4,1.9,4.4,4.4v30.6c0,0.9,0.6,1.5,1.5,1.5c0.9,0,1.5-0.6,1.5-1.5v-30.6
					C613.1,1286.7,609.9,1283.5,605.8,1283.5z"/>
				<path class="st1" d="M546.3,1304.2c-2.6,0-4.8,2.2-4.8,4.8c0,2.6,2.2,4.8,4.8,4.8s4.8-2.2,4.8-4.8
					C551.1,1306.3,549,1304.2,546.3,1304.2z M546.3,1311.4c-1.3,0-2.4-1.1-2.4-2.4s1.1-2.4,2.4-2.4c1.3,0,2.4,1.1,2.4,2.4
					S547.6,1311.4,546.3,1311.4z"/>
				<circle class="st0" cx="576.5" cy="1250.9" r="2"/>
				<circle class="st0" cx="592.9" cy="1250.9" r="2"/>
				<path class="st0" d="M589.7,1262.7l-1.2,1.2c-0.7,0.7-1.7,1.2-2.8,1.2h-3.6c-1,0-2-0.4-2.8-1.2l-1.2-1.2c-0.6-0.6-1.5-0.6-2,0
					c-0.6,0.6-0.6,1.5,0,2l1.2,1.2c1.3,1.3,3.1,2,5,2h3.6c1.9,0,3.5-0.7,4.7-2l1.2-1.2c0.6-0.6,0.6-1.5,0-2
					C591.1,1262.1,590.2,1262.1,589.7,1262.7z"/>
				<path class="st0" d="M586.9,1244.2h10.2c0.9,0,1.5-0.6,1.5-1.5c0-0.9-0.6-1.5-1.5-1.5h-9.8l-5.4-4.1c-0.4-0.3-1-0.4-1.5-0.1
					c-0.6,0.3-0.9,0.7-0.9,1.3v2.9h-7.3c-0.9,0-1.5,0.6-1.5,1.5c0,0.9,0.6,1.5,1.5,1.5h8.7c0.9,0,1.5-0.6,1.5-1.5v-1.5l3.5,2.6
					C586.3,1244,586.6,1244.2,586.9,1244.2z"/>
				<path class="st0" d="M602.9,1295.1c-0.9,0-1.5,0.6-1.5,1.5v16h-21.9c-0.4,0-0.7,0.1-1,0.4l-2.9,2.9c-0.6,0.6-0.6,1.5,0,2
					c0.3,0.3,0.6,0.4,1,0.4s0.7-0.1,1-0.4l2.5-2.5h22.7c0.9,0,1.5-0.6,1.5-1.5v-17.5C604.4,1295.7,603.8,1295.1,602.9,1295.1z"/>
				<path class="st0" d="M592.7,1319.9h-20.4v-23.3c0-0.9-0.6-1.5-1.5-1.5h-49.5c-0.9,0-1.5,0.6-1.5,1.5v24.8c0,0.9,0.6,1.5,1.5,1.5
					h49.5h21.9c0.9,0,1.5-0.6,1.5-1.5S593.6,1319.9,592.7,1319.9z M522.8,1298.1h46.6v21.9h-46.6V1298.1z"/>
				<circle class="st0" cx="541.7" cy="1280.6" r="1.5"/>
				<circle class="st0" cx="541.7" cy="1231" r="1.5"/>
				<circle class="st0" cx="522.8" cy="1255.8" r="1.5"/>
				<circle class="st0" cx="522.8" cy="1268.9" r="1.5"/>
				<circle class="st0" cx="560.7" cy="1255.8" r="1.5"/>
				<circle class="st0" cx="560.7" cy="1242.7" r="1.5"/>
				<circle class="st0" cx="522.8" cy="1242.7" r="1.5"/>
				<circle class="st0" cx="560.7" cy="1268.9" r="1.5"/>
				<path class="st1" d="M528.6,1254.4c0.3,0,0.4,0,0.7-0.1l24.8-14.6c0.7-0.4,0.9-1.3,0.6-2c-0.4-0.7-1.3-0.9-2-0.6l-24.8,14.6
					c-0.7,0.4-0.9,1.3-0.6,2C527.6,1254.1,528.2,1254.4,528.6,1254.4z"/>
				<path class="st0" d="M527.2,1274.7h29.1c0.9,0,1.5-0.6,1.5-1.5s-0.6-1.5-1.5-1.5h-1.5v-23.3c0-0.9-0.6-1.5-1.5-1.5
					s-1.5,0.6-1.5,1.5v23.3H549V1250c0-0.9-0.6-1.5-1.5-1.5s-1.5,0.6-1.5,1.5v21.9h-2.9v-18.9c0-0.9-0.6-1.5-1.5-1.5
					s-1.5,0.6-1.5,1.5v18.9h-2.9v-16c0-0.9-0.6-1.5-1.5-1.5s-1.5,0.6-1.5,1.5v16h-2.9v-11.7c0-0.9-0.6-1.5-1.5-1.5
					c-0.9,0-1.5,0.6-1.5,1.5v11.7h-1.5c-0.9,0-1.5,0.6-1.5,1.5S526.3,1274.7,527.2,1274.7z"/>
				<path class="st1" d="M585,1292l5.8-3c0.5-0.3,1.2,0.1,1.2,0.7v8.5c0,0.6-0.6,1-1.1,0.7l-5.9-2.9c-0.2-0.1-0.5-0.1-0.7,0
					l-5.9,2.9c-0.5,0.3-1.1-0.1-1.1-0.7v-8.5c0-0.6,0.6-1,1.1-0.7l6.1,3C584.5,1292.2,584.7,1292.2,585,1292z"/>
			</g>
		</g>
	</g>
	<g>
		<g>
			<path class="st1" d="M554,1237l-5.8-1.5c-0.7-0.3-1.6,0.3-1.7,1c-0.3,0.7,0.3,1.6,1,1.7l4.4,1.2l-1.2,4.4c-0.3,0.7,0.3,1.6,1,1.7
				c0,0,0.1,0,0.3,0c0.6,0,1.3-0.4,1.6-1l1.5-5.8C555.3,1238,554.7,1237.2,554,1237z"/>
		</g>
	</g>
	<path class="st2" d="M557,1225.3"/>
</g>
<g id="man2">
	<g>
		<g>
			<g>
				<path class="st0" d="M162.5,1279.1h8.4c7.7,0,14-6.3,14-14v-17.2c0-7.7-6.3-14-14-14h-8.4c-7.7,0-14,6.3-14,14v17.2
					C148.5,1272.9,154.7,1279.1,162.5,1279.1z M151.4,1247.9c0-6.1,5-11.1,11.1-11.1h8.4c6.1,0,11.1,5,11.1,11.1v17.2
					c0,6.1-5,11.1-11.1,11.1h-8.4c-6.1,0-11.1-5-11.1-11.1V1247.9z"/>
				<path class="st0" d="M161.6,1282c0-0.9-0.6-1.5-1.5-1.5s-1.5,0.6-1.5,1.5v1.5c0,2.5-1.9,4.4-4.4,4.4h-10.2
					c-4.1,0-7.3,3.2-7.3,7.3c0,0.9,0.6,1.5,1.5,1.5c0.9,0,1.5-0.6,1.5-1.5c0-2.5,1.9-4.4,4.4-4.4h10.2c4.1,0,7.3-3.2,7.3-7.3V1282z"
					/>
				<path class="st0" d="M187.8,1287.9h-10.2c-2.5,0-4.4-1.9-4.4-4.4v-1.5c0-0.9-0.6-1.5-1.5-1.5s-1.5,0.6-1.5,1.5v1.5
					c0,4.1,3.2,7.3,7.3,7.3h10.2c2.5,0,4.4,1.9,4.4,4.4v30.6c0,0.9,0.6,1.5,1.5,1.5c0.9,0,1.5-0.6,1.5-1.5v-30.6
					C195.1,1291.1,191.9,1287.9,187.8,1287.9z"/>
				<path class="st1" d="M126.6,1306.6c-3.2,0-5.8,2.6-5.8,5.8s2.6,5.8,5.8,5.8c3.2,0,5.8-2.6,5.8-5.8S129.8,1306.6,126.6,1306.6z
					 M126.6,1315.4c-1.6,0-2.9-1.3-2.9-2.9c0-1.6,1.3-2.9,2.9-2.9c1.6,0,2.9,1.3,2.9,2.9C129.5,1314.1,128.2,1315.4,126.6,1315.4z"
					/>
				<circle class="st0" cx="158.5" cy="1255.2" r="2"/>
				<circle class="st0" cx="174.8" cy="1255.2" r="2"/>
				<path class="st0" d="M171.6,1267l-1.2,1.2c-0.7,0.7-1.7,1.2-2.8,1.2h-3.6c-1,0-2-0.4-2.8-1.2l-1.2-1.2c-0.6-0.6-1.5-0.6-2,0
					c-0.6,0.6-0.6,1.5,0,2l1.2,1.2c1.3,1.3,3.1,2,5,2h3.6c1.9,0,3.5-0.7,4.7-2l1.2-1.2c0.6-0.6,0.6-1.5,0-2S172.2,1266.4,171.6,1267
					z"/>
				<path class="st0" d="M182,1248.7c14.6,0,8.8,21,8.8,21.9c0,0.8,1,1.2,1.6,1.2c0.5-0.1,1.6-0.7,1.6-1.3c0-0.3,7.1-24.9-11.7-24.9
					h-18.2h-9.8c-0.8,0-1.4,0.6-1.5,1.4c0,0.9,0.5,1.6,1.5,1.6h10.2C164.8,1248.5,179.1,1248.7,182,1248.7z"/>
				<path class="st0" d="M184.9,1299.5c-0.9,0-1.5,0.6-1.5,1.5v16h-21.9c-0.4,0-0.7,0.1-1,0.4l-2.9,2.9c-0.6,0.6-0.6,1.5,0,2
					c0.3,0.3,0.6,0.4,1,0.4c0.4,0,0.7-0.1,1-0.4l2.5-2.5h22.7c0.9,0,1.5-0.6,1.5-1.5V1301C186.4,1300.1,185.8,1299.5,184.9,1299.5z"
					/>
				<path class="st0" d="M155.8,1301.4c0-0.8,0.8-1.4,1.6-1.1l7.4,3c0.7,0.2,1.5,0.2,2.3,0l7.4-3.1c0.8-0.3,1.6,0.2,1.6,1.1v1.7
					c0,0.6-0.4,1.1-0.9,1.3l-8.1,3.4c-0.7,0.2-1.5,0.2-2.3,0l-8.1-3.2c-0.6-0.2-0.9-0.8-0.9-1.4V1301.4z"/>
				<path class="st0" d="M174.7,1324.3h-20.4V1301c0-0.9-0.6-1.5-1.5-1.5h-49.5c-0.9,0-1.5,0.6-1.5,1.5v24.8c0,0.9,0.6,1.5,1.5,1.5
					h49.5h21.9c0.9,0,1.5-0.6,1.5-1.5S175.6,1324.3,174.7,1324.3z M104.8,1302.4h46.6v21.9h-46.6V1302.4z"/>
				<circle class="st0" cx="123.7" cy="1284.9" r="1.5"/>
				<circle class="st0" cx="123.7" cy="1235.4" r="1.5"/>
				<circle class="st0" cx="104.8" cy="1260.2" r="1.5"/>
				<circle class="st0" cx="104.8" cy="1273.3" r="1.5"/>
				<circle class="st0" cx="142.7" cy="1260.2" r="1.5"/>
				<circle class="st0" cx="142.7" cy="1247.1" r="1.5"/>
				<circle class="st0" cx="104.8" cy="1247.1" r="1.5"/>
				<circle class="st0" cx="142.7" cy="1273.3" r="1.5"/>
				<path class="st1" d="M110.6,1258.7c0.3,0,0.4,0,0.7-0.1l24.8-14.6c0.7-0.4,0.9-1.3,0.6-2c-0.4-0.7-1.3-0.9-2-0.6l-24.8,14.6
					c-0.7,0.4-0.9,1.3-0.6,2C109.6,1258.4,110.2,1258.7,110.6,1258.7z"/>
				<path class="st0" d="M109.1,1279.1h29.1c0.9,0,1.5-0.6,1.5-1.5s-0.6-1.5-1.5-1.5h-1.5v-23.3c0-0.9-0.6-1.5-1.5-1.5
					c-0.9,0-1.5,0.6-1.5,1.5v23.3H131v-21.9c0-0.9-0.6-1.5-1.5-1.5s-1.5,0.6-1.5,1.5v21.9h-2.9v-18.9c0-0.9-0.6-1.5-1.5-1.5
					s-1.5,0.6-1.5,1.5v18.9h-2.9v-16c0-0.9-0.6-1.5-1.5-1.5c-0.9,0-1.5,0.6-1.5,1.5v16h-2.9v-11.7c0-0.9-0.6-1.5-1.5-1.5
					c-0.9,0-1.5,0.6-1.5,1.5v11.7h-1.5c-0.9,0-1.5,0.6-1.5,1.5S108.3,1279.1,109.1,1279.1z"/>
			</g>
		</g>
	</g>
	<g>
		<g>
			<path class="st1" d="M136,1241.4l-5.8-1.5c-0.7-0.3-1.6,0.3-1.7,1c-0.3,0.7,0.3,1.6,1,1.7l4.4,1.2l-1.2,4.4
				c-0.3,0.7,0.3,1.6,1,1.7c0,0,0.1,0,0.3,0c0.6,0,1.3-0.4,1.6-1l1.5-5.8C137.3,1242.4,136.7,1241.5,136,1241.4z"/>
		</g>
	</g>
	<path class="st2" d="M139,1229.7"/>
</g>
<g id="Network">
	<g id="video">
	</g>
	<g id="podcast">
	</g>
	<g id="article_1_">
	</g>
</g>
<g id="binders">
	<g>
		<g>
			<path d="M329,831.4c-3.6,0-6.5,2.9-6.5,6.5s2.9,6.5,6.5,6.5c3.6,0,6.5-2.9,6.5-6.5S332.5,831.4,329,831.4z"/>
		</g>
	</g>
	<g>
		<g>
			<path d="M333.8,789.3h-9.7c-1,0-1.6,0.6-1.6,1.6s0.6,1.6,1.6,1.6h9.7c1,0,1.6-0.6,1.6-1.6S334.8,789.3,333.8,789.3z"/>
		</g>
	</g>
	<g>
		<g>
			<path d="M333.8,782.8h-9.7c-1,0-1.6,0.6-1.6,1.6c0,1,0.6,1.6,1.6,1.6h9.7c1,0,1.6-0.6,1.6-1.6
				C335.4,783.4,334.8,782.8,333.8,782.8z"/>
		</g>
	</g>
	<g>
		<g>
			<path d="M333.8,776.3h-9.7c-1,0-1.6,0.6-1.6,1.6c0,1,0.6,1.6,1.6,1.6h9.7c1,0,1.6-0.6,1.6-1.6
				C335.4,776.9,334.8,776.3,333.8,776.3z"/>
		</g>
	</g>
	<g>
		<g>
			<path d="M351.7,834.6c-1.8,0-3.2,1.5-3.2,3.2s1.5,3.2,3.2,3.2c1.8,0,3.2-1.5,3.2-3.2S353.4,834.6,351.7,834.6z"/>
		</g>
	</g>
	<g>
		<g>
			<path d="M329,799c-1,0-1.6,0.6-1.6,1.6v22.7c0,1,0.6,1.6,1.6,1.6c1,0,1.6-0.6,1.6-1.6v-22.7C330.6,799.6,329.9,799,329,799z"/>
		</g>
	</g>
	<g>
		<g>
			<path d="M293.4,832.9c-0.2,0-0.3,0-0.6,0c-0.6,0-1.3,0.2-1.8,0.6c-0.6,0.5-1.1,1.3-1.3,2.1c-0.3,1.8,0.8,3.4,2.6,3.7
				c0.8,0.2,1.8,0,2.4-0.5s1.1-1.3,1.3-2.1C296.4,835,295.2,833.2,293.4,832.9z"/>
		</g>
	</g>
	<g>
		<g>
			<path d="M363,758.4h-22.7h-22.7c-1,0-1.6,0.6-1.6,1.6v2.1l-20.4-3.7c-0.5,0-0.8,0-1.1,0.3c-0.3,0.2-0.6,0.6-0.6,1l-16.5,90
				c-0.2,0.8,0.5,1.8,1.3,1.9l22.2,4.1c0.2,0,0.2,0,0.3,0c0.3,0,0.6-0.2,1-0.3c0.3-0.3,0.6-0.6,0.6-1L316,782v72.1
				c0,1,0.6,1.6,1.6,1.6h22.7H363c1,0,1.6-0.6,1.6-1.6v-94C364.6,759.1,364,758.4,363,758.4z M299.3,837.2c-0.3,1.8-1.3,3.2-2.8,4.2
				c-1.1,0.8-2.4,1.1-3.7,1.1c-0.3,0-0.8,0-1.1-0.2c-3.6-0.6-5.8-4.1-5.2-7.6c0.3-1.8,1.3-3.2,2.8-4.2c1.5-1,3.1-1.3,4.9-1
				C297.5,830.4,299.9,833.8,299.3,837.2z M300.4,802.2l-4.1,22.4c-0.2,0.8-0.8,1.3-1.6,1.3c-0.2,0-0.2,0-0.3,0
				c-0.8-0.2-1.5-1-1.3-1.9l4.1-22.4c0.2-0.8,1-1.5,1.9-1.3C299.9,800.4,300.6,801.2,300.4,802.2z M307.2,794.3
				c-0.2,0.6-1,1.3-1.6,1.3c-0.2,0-0.2,0-0.3,0l-9.6-1.8c-0.8-0.2-1.5-1-1.3-1.9c0.2-0.8,1-1.5,1.9-1.3l9.6,1.8
				C306.7,792.5,307.4,793.3,307.2,794.3z M308.4,788c-0.2,0.6-0.8,1.3-1.6,1.3c-0.2,0-0.2,0-0.3,0l-9.6-1.8c-0.8-0.2-1.5-1-1.3-1.9
				c0.2-0.8,1-1.5,1.9-1.3l9.6,1.8C307.9,786.2,308.5,787,308.4,788z M309.5,781.5c-0.2,0.8-0.8,1.3-1.6,1.3c-0.2,0-0.2,0-0.3,0
				L298,781c-0.8-0.2-1.5-1-1.3-1.9c0.2-0.8,1-1.5,1.9-1.3l9.6,1.8C309,779.7,309.7,780.5,309.5,781.5z M310.6,775.1
				c-0.2,0.6-0.8,1.3-1.6,1.3c-0.2,0-0.2,0-0.3,0l-9.4-1.8c-0.8-0.2-1.5-1-1.3-1.9c0-0.8,1-1.5,1.8-1.3l9.6,1.8
				C310.1,773.4,310.8,774.2,310.6,775.1z M338.7,852.5h-19.5v-90.8h19.5V852.5z M351.7,844.4c-3.6,0-6.5-2.9-6.5-6.5
				s2.9-6.5,6.5-6.5s6.5,2.9,6.5,6.5C358.1,841.5,355.2,844.4,351.7,844.4z M350,823.3v-22.7c0-1,0.6-1.6,1.6-1.6
				c1,0,1.6,0.6,1.6,1.6v22.7c0,1-0.6,1.6-1.6,1.6C350.7,824.9,350,824.3,350,823.3z M356.5,792.5h-9.7c-1,0-1.6-0.6-1.6-1.6
				c0-1,0.6-1.6,1.6-1.6h9.7c1,0,1.6,0.6,1.6,1.6C358.1,791.8,357.5,792.5,356.5,792.5z M356.5,786h-9.7c-1,0-1.6-0.6-1.6-1.6
				c0-1,0.6-1.6,1.6-1.6h9.7c1,0,1.6,0.6,1.6,1.6C358.1,785.4,357.5,786,356.5,786z M356.5,779.5h-9.7c-1,0-1.6-0.6-1.6-1.6
				c0-1,0.6-1.6,1.6-1.6h9.7c1,0,1.6,0.6,1.6,1.6C358.1,778.9,357.5,779.5,356.5,779.5z M356.5,773h-9.7c-1,0-1.6-0.6-1.6-1.6
				s0.6-1.6,1.6-1.6h9.7c1,0,1.6,0.6,1.6,1.6S357.5,773,356.5,773z"/>
		</g>
	</g>
	<g>
		<g>
			<path d="M394,837.9c0,3.6,2.9,6.5,6.5,6.5s6.5-2.9,6.5-6.5s-2.9-6.5-6.5-6.5S394,834.3,394,837.9z"/>
		</g>
	</g>
	<g>
		<g>
			<path d="M394,790.9c0,1,0.6,1.6,1.6,1.6h9.7c1,0,1.6-0.6,1.6-1.6s-0.6-1.6-1.6-1.6h-9.7C394.7,789.3,394,789.9,394,790.9z"/>
		</g>
	</g>
	<g>
		<g>
			<path d="M394,784.4c0,1,0.6,1.6,1.6,1.6h9.7c1,0,1.6-0.6,1.6-1.6c0-1-0.6-1.6-1.6-1.6h-9.7C394.7,782.8,394,783.4,394,784.4z"/>
		</g>
	</g>
	<g>
		<g>
			<path d="M394,777.9c0,1,0.6,1.6,1.6,1.6h9.7c1,0,1.6-0.6,1.6-1.6c0-1-0.6-1.6-1.6-1.6h-9.7C394.7,776.3,394,776.9,394,777.9z"/>
		</g>
	</g>
	<g>
		<g>
			<path d="M374.6,837.9c0,1.8,1.5,3.2,3.2,3.2c1.8,0,3.2-1.5,3.2-3.2s-1.5-3.2-3.2-3.2C376,834.6,374.6,836.1,374.6,837.9z"/>
		</g>
	</g>
	<g>
		<g>
			<path d="M398.9,800.6v22.7c0,1,0.6,1.6,1.6,1.6s1.6-0.6,1.6-1.6v-22.7c0-1-0.6-1.6-1.6-1.6S398.9,799.6,398.9,800.6z"/>
		</g>
	</g>
	<g>
		<g>
			<path d="M433.4,836.8c0.2,0.8,0.6,1.6,1.3,2.1s1.6,0.6,2.4,0.5c1.8-0.3,2.9-1.9,2.6-3.7c-0.2-0.8-0.6-1.6-1.3-2.1
				c-0.5-0.5-1.1-0.6-1.8-0.6c-0.3,0-0.5,0-0.6,0C434.2,833.2,433.1,835,433.4,836.8z"/>
		</g>
	</g>
	<g>
		<g>
			<path class="st3" d="M364.8,760.1v94c0,1,0.6,1.6,1.6,1.6h22.7h22.7c1,0,1.6-0.6,1.6-1.6V782l13.3,72.5c0,0.3,0.3,0.6,0.6,1
				c0.3,0.2,0.6,0.3,1,0.3c0.2,0,0.2,0,0.3,0l22.2-4.1c0.8-0.2,1.5-1.1,1.3-1.9l-16.5-90c0-0.3-0.3-0.8-0.6-1
				c-0.3-0.3-0.6-0.3-1.1-0.3l-20.4,3.7v-2.1c0-1-0.6-1.6-1.6-1.6h-22.7h-22.7C365.5,758.4,364.8,759.1,364.8,760.1z M435.4,829.6
				c1.8-0.3,3.4,0,4.9,1c1.5,1,2.4,2.4,2.8,4.2c0.6,3.6-1.6,7-5.2,7.6c-0.3,0.2-0.8,0.2-1.1,0.2c-1.3,0-2.6-0.3-3.7-1.1
				c-1.5-1-2.4-2.4-2.8-4.2C429.5,833.8,432,830.4,435.4,829.6z M430.3,800.3c1-0.2,1.8,0.5,1.9,1.3l4.1,22.4c0.2,1-0.5,1.8-1.3,1.9
				c-0.2,0-0.2,0-0.3,0c-0.8,0-1.5-0.5-1.6-1.3l-4.1-22.4C428.9,801.2,429.5,800.4,430.3,800.3z M423.5,792.3l9.6-1.8
				c1-0.2,1.8,0.5,1.9,1.3c0.2,1-0.5,1.8-1.3,1.9l-9.6,1.8c-0.2,0-0.2,0-0.3,0c-0.6,0-1.5-0.6-1.6-1.3
				C422.1,793.3,422.7,792.5,423.5,792.3z M422.4,786l9.6-1.8c1-0.2,1.8,0.5,1.9,1.3c0.2,1-0.5,1.8-1.3,1.9l-9.6,1.8
				c-0.2,0-0.2,0-0.3,0c-0.8,0-1.5-0.6-1.6-1.3C420.9,787,421.6,786.2,422.4,786z M421.3,779.5l9.6-1.8c1-0.2,1.8,0.5,1.9,1.3
				c0.2,1-0.5,1.8-1.3,1.9l-9.6,1.8c-0.2,0-0.2,0-0.3,0c-0.8,0-1.5-0.5-1.6-1.3C419.8,780.5,420.5,779.7,421.3,779.5z M420.1,773.2
				l9.6-1.8c0.8-0.2,1.8,0.5,1.8,1.3c0.2,1-0.5,1.8-1.3,1.9l-9.4,1.8c-0.2,0-0.2,0-0.3,0c-0.8,0-1.5-0.6-1.6-1.3
				C418.7,774.2,419.3,773.4,420.1,773.2z M390.8,761.7h19.5v90.8h-19.5V761.7z M371.3,837.9c0-3.6,2.9-6.5,6.5-6.5
				c3.6,0,6.5,2.9,6.5,6.5s-2.9,6.5-6.5,6.5C374.3,844.4,371.3,841.5,371.3,837.9z M377.8,824.9c-1,0-1.6-0.6-1.6-1.6v-22.7
				c0-1,0.6-1.6,1.6-1.6c1,0,1.6,0.6,1.6,1.6v22.7C379.4,824.3,378.8,824.9,377.8,824.9z M371.3,790.9c0-1,0.6-1.6,1.6-1.6h9.7
				c1,0,1.6,0.6,1.6,1.6c0,1-0.6,1.6-1.6,1.6H373C372,792.5,371.3,791.8,371.3,790.9z M371.3,784.4c0-1,0.6-1.6,1.6-1.6h9.7
				c1,0,1.6,0.6,1.6,1.6c0,1-0.6,1.6-1.6,1.6H373C372,786,371.3,785.4,371.3,784.4z M371.3,777.9c0-1,0.6-1.6,1.6-1.6h9.7
				c1,0,1.6,0.6,1.6,1.6c0,1-0.6,1.6-1.6,1.6H373C372,779.5,371.3,778.9,371.3,777.9z M371.3,771.4c0-1,0.6-1.6,1.6-1.6h9.7
				c1,0,1.6,0.6,1.6,1.6s-0.6,1.6-1.6,1.6H373C372,773,371.3,772.4,371.3,771.4z"/>
		</g>
	</g>
	<circle class="st4" cx="447.2" cy="773" r="15.3"/>
	<polyline class="st5" points="440.1,773.4 445.5,779.4 454,768.8 	"/>
</g>
<g id="cogs2">
	<g id="cog_4_">
		<path class="st6" d="M367.7,973.1h-2c-0.3-1.2-0.8-2.4-1.4-3.4l1.4-1.4c0.2-0.2,0.2-0.6,0-0.8l-3.3-3.3c-0.2-0.2-0.6-0.2-0.8,0
			l-1.4,1.4c-1.1-0.6-2.2-1.1-3.4-1.4v-2c0-0.3-0.3-0.6-0.6-0.6h-4.7c-0.3,0-0.6,0.3-0.6,0.6v2c-1.2,0.3-2.4,0.8-3.4,1.4l-1.4-1.4
			c-0.2-0.2-0.6-0.2-0.8,0l-3.3,3.3c-0.2,0.2-0.2,0.6,0,0.8l1.4,1.4c-0.6,1.1-1.1,2.2-1.4,3.4h-2c-0.3,0-0.6,0.3-0.6,0.6v4.7
			c0,0.3,0.3,0.6,0.6,0.6h2c0.3,1.2,0.8,2.4,1.4,3.4l-1.4,1.4c-0.1,0.1-0.2,0.2-0.2,0.4s0.1,0.3,0.2,0.4l3.3,3.3
			c0.2,0.2,0.6,0.2,0.8,0l1.4-1.4c1.1,0.6,2.2,1.1,3.4,1.4v2c0,0.3,0.3,0.6,0.6,0.6h4.7c0.3,0,0.6-0.3,0.6-0.6v-2
			c1.2-0.3,2.4-0.8,3.4-1.4l1.4,1.4c0.2,0.2,0.6,0.2,0.8,0l3.3-3.3c0.2-0.2,0.2-0.6,0-0.8l-1.4-1.4c0.6-1.1,1.1-2.2,1.4-3.4h2
			c0.3,0,0.6-0.3,0.6-0.6v-4.7C368.3,973.3,368.1,973.1,367.7,973.1z M367.2,977.8h-1.9c-0.3,0-0.5,0.2-0.5,0.4
			c-0.3,1.4-0.8,2.7-1.6,3.9c-0.1,0.2-0.1,0.5,0.1,0.7l1.3,1.3l-2.5,2.5l-1.3-1.3c-0.2-0.2-0.5-0.2-0.7-0.1
			c-1.2,0.8-2.5,1.3-3.9,1.6c-0.3,0.1-0.4,0.3-0.4,0.5v1.9h-3.6v-1.9c0-0.3-0.2-0.5-0.4-0.5c-1.4-0.3-2.7-0.8-3.9-1.6
			c-0.2-0.1-0.5-0.1-0.7,0.1l-1.3,1.3l-2.5-2.5l1.3-1.3c0.2-0.2,0.2-0.5,0.1-0.7c-0.8-1.2-1.3-2.5-1.6-3.9c-0.1-0.3-0.3-0.4-0.5-0.4
			h-1.9v-3.6h1.9c0.3,0,0.5-0.2,0.5-0.4c0.3-1.4,0.8-2.7,1.6-3.9c0.1-0.2,0.1-0.5-0.1-0.7l-1.3-1.3l2.5-2.5l1.3,1.3
			c0.2,0.2,0.5,0.2,0.7,0.1c1.2-0.8,2.5-1.3,3.9-1.6c0.3-0.1,0.4-0.3,0.4-0.5v-1.9h3.6v1.9c0,0.3,0.2,0.5,0.4,0.5
			c1.4,0.3,2.7,0.8,3.9,1.6c0.2,0.1,0.5,0.1,0.7-0.1l1.3-1.3l2.5,2.5l-1.3,1.3c-0.2,0.2-0.2,0.5-0.1,0.7c0.8,1.2,1.3,2.5,1.6,3.9
			c0.1,0.3,0.3,0.4,0.5,0.4h1.9V977.8z"/>
		<path class="st3" d="M348.7,976c0-2.9,2.4-5.3,5.3-5.3c0.7,0,1.4,0.1,2,0.4c0.3,0.1,0.6,0,0.7-0.3c0.1-0.3,0-0.6-0.3-0.7
			c-0.8-0.3-1.6-0.5-2.4-0.5c-3.5,0-6.4,2.9-6.4,6.4c0,0.8,0.1,1.6,0.4,2.3c0.1,0.2,0.3,0.4,0.5,0.4c0.1,0,0.1,0,0.2,0
			c0.3-0.1,0.4-0.4,0.3-0.7C348.8,977.3,348.7,976.6,348.7,976z"/>
		<path class="st6" d="M359.1,973.1c-0.3,0.1-0.4,0.5-0.3,0.7c0.3,0.7,0.4,1.4,0.4,2.1c0,2.9-2.4,5.3-5.3,5.3
			c-0.8,0-1.5-0.2-2.2-0.5c-0.3-0.1-0.6,0-0.7,0.3s0,0.6,0.3,0.7c0.8,0.4,1.7,0.6,2.7,0.6c3.5,0,6.4-2.9,6.4-6.4
			c0-0.9-0.2-1.8-0.5-2.6C359.7,973.1,359.4,973,359.1,973.1z"/>
		<path class="st3" d="M349.7,979.4c-0.3,0-0.6,0.3-0.6,0.6s0.3,0.6,0.6,0.6c0.3,0,0.6-0.3,0.6-0.6S350,979.4,349.7,979.4z"/>
		<path class="st6" d="M358,972.4c0.3,0,0.6-0.3,0.6-0.6c0-0.3-0.3-0.6-0.6-0.6c-0.3,0-0.6,0.3-0.6,0.6
			C357.5,972.1,357.7,972.4,358,972.4z"/>
	</g>
	<g id="cog_3_">
		<path class="st6" d="M392.4,985l-1.9,0.3c-0.5-1.1-1.1-2.2-1.9-3.2l1.2-1.6c0.2-0.2,0.1-0.6-0.1-0.8l-3.8-2.8
			c-0.2-0.2-0.6-0.1-0.8,0.1l-1.2,1.6c-1.1-0.5-2.4-0.8-3.6-0.9l-0.3-1.9c0-0.3-0.3-0.5-0.6-0.5l-4.6,0.7c-0.3,0-0.5,0.3-0.5,0.6
			l0.3,1.9c-1.1,0.5-2.2,1.1-3.2,1.9l-1.6-1.2c-0.2-0.2-0.6-0.1-0.8,0.1l-2.8,3.8c-0.2,0.2-0.1,0.6,0.1,0.8l1.6,1.2
			c-0.5,1.1-0.8,2.4-0.9,3.6l-1.9,0.3c-0.3,0-0.5,0.3-0.5,0.6l0.7,4.6c0,0.3,0.3,0.5,0.6,0.5l1.9-0.3c0.5,1.1,1.1,2.2,1.9,3.2
			l-1.2,1.6c-0.1,0.1-0.1,0.3-0.1,0.4s0.1,0.3,0.2,0.4l3.8,2.8c0.2,0.2,0.6,0.1,0.8-0.1l1.2-1.6c1.1,0.5,2.4,0.8,3.6,0.9l0.3,1.9
			c0,0.3,0.3,0.5,0.6,0.5l4.6-0.7c0.3,0,0.5-0.3,0.5-0.6l-0.3-1.9c1.1-0.5,2.2-1.1,3.2-1.9l1.6,1.2c0.2,0.2,0.6,0.1,0.8-0.1l2.8-3.8
			c0.2-0.2,0.1-0.6-0.1-0.8l-1.6-1.2c0.5-1.1,0.8-2.4,0.9-3.6l1.9-0.3c0.3,0,0.5-0.3,0.5-0.6l-0.7-4.6
			C393,985.2,392.7,985,392.4,985z M392.6,989.7l-1.8,0.3c-0.3,0-0.5,0.3-0.5,0.5c-0.1,1.4-0.4,2.8-1,4c-0.1,0.2,0,0.5,0.2,0.7
			l1.5,1.1l-2.1,2.9l-1.5-1.1c-0.2-0.2-0.5-0.1-0.7,0c-1,0.9-2.2,1.7-3.6,2.2c-0.3,0.1-0.4,0.3-0.4,0.6l0.3,1.8l-3.5,0.5l-0.3-1.8
			c0-0.3-0.3-0.5-0.5-0.5c-1.4-0.1-2.8-0.4-4-1c-0.2-0.1-0.5,0-0.7,0.2l-1.1,1.5l-2.9-2.1l1.1-1.5c0.2-0.2,0.1-0.5,0-0.7
			c-0.9-1-1.7-2.2-2.2-3.6c-0.1-0.3-0.3-0.4-0.6-0.4l-1.8,0.3l-0.5-3.5l1.8-0.3c0.3,0,0.5-0.3,0.5-0.5c0.1-1.4,0.4-2.8,1-4
			c0.1-0.2,0-0.5-0.2-0.7l-1.5-1.1l2.1-2.9l1.5,1.1c0.2,0.2,0.5,0.1,0.7,0c1-0.9,2.2-1.7,3.6-2.2c0.3-0.1,0.4-0.3,0.4-0.6l-0.3-1.8
			l3.5-0.5l0.3,1.8c0,0.3,0.3,0.5,0.5,0.5c1.4,0.1,2.8,0.4,4,1c0.2,0.1,0.5,0,0.7-0.2l1.1-1.5l2.9,2.1l-1.1,1.5
			c-0.2,0.2-0.1,0.5,0,0.7c0.9,1,1.7,2.2,2.2,3.6c0.1,0.3,0.3,0.4,0.6,0.4l1.8-0.3L392.6,989.7z"/>
		<path class="st6" d="M374,990.2c-0.1-2.5,1.6-4.7,4-5.3c0.8-0.2,1.7-0.2,2.5,0c0.3,0.1,0.6-0.1,0.7-0.4c0.1-0.3-0.1-0.6-0.4-0.7
			c-1-0.2-2-0.2-3.1,0c-2.9,0.7-5,3.5-4.8,6.4c0,1.1,0.3,2.1,0.8,2.9c0.1,0.2,0.3,0.3,0.6,0.3c0.1,0,0.1,0,0.2-0.1
			c0.3-0.2,0.4-0.5,0.2-0.8C374.2,991.9,374,991.1,374,990.2z"/>
		<path class="st3" d="M383.9,986.4c-0.3,0.2-0.3,0.5-0.2,0.8c0.4,0.6,0.7,1.3,0.8,2.1c0.4,2.8-1.6,5.5-4.4,6
			c-0.8,0.1-1.5,0.1-2.2-0.1c-0.3-0.1-0.6,0.1-0.7,0.4c-0.1,0.3,0.1,0.6,0.4,0.7c0.9,0.3,1.9,0.3,2.8,0.2c3.3-0.6,5.7-3.7,5.3-7.1
			c-0.1-1-0.4-1.8-0.9-2.6C384.5,986.3,384.1,986.2,383.9,986.4z"/>
		<path class="st6" d="M375.6,994c-0.3,0-0.5,0.3-0.5,0.6s0.3,0.5,0.6,0.5c0.3,0,0.5-0.3,0.5-0.6S375.9,994,375.6,994z"/>
		<path class="st3" d="M382.7,985.8c0.3,0,0.5-0.3,0.5-0.6c0-0.3-0.3-0.5-0.6-0.5c-0.3,0-0.5,0.3-0.5,0.6S382.4,985.8,382.7,985.8z"
			/>
	</g>
	<path class="st7" d="M339.8,965.7c1.3-3.8,4.8-5.8,7.8-6"/>
	<line class="st7" x1="349.9" y1="959.3" x2="350.8" y2="959.2"/>
	<path class="st7" d="M385.3,974.6c4,0.2,6.9,2.9,8,5.7"/>
	<line class="st7" x1="394.4" y1="982.3" x2="394.8" y2="983.1"/>
</g>
<g id="robot">
	<path class="st3" d="M428.6,956.3l2.7-2c0.4-0.3,0.6-0.7,0.7-1.1c0.1-0.4-0.1-0.9-0.3-1.3l-2.2-3c1.5-2.1,1.2-5-0.7-6.9
		c-1.9-1.8-4.8-2-6.9-0.5c-2.1,1.5-2.8,4.4-1.6,6.7c1.2,2.3,3.9,3.4,6.4,2.6l1.2,1.6l-5,3.7H428.6z"/>
	<g>
		<path class="st3" d="M433.6,973.3h-16.7c-0.9,0-1.7,0.8-1.7,1.7c0,0.9,0.8,1.7,1.7,1.7h16.7c0.5,0,0.9-0.2,1.2-0.5
			c0.3-0.3,0.5-0.8,0.5-1.2c0-0.5-0.2-0.9-0.5-1.2C434.5,973.5,434.1,973.3,433.6,973.3z"/>
		<path class="st3" d="M418.4,969.9c0.5,0,0.9-0.2,1.2-0.5c0.3-0.3,0.5-0.8,0.5-1.2v-3.4c0-0.9-0.8-1.7-1.7-1.7s-1.7,0.8-1.7,1.7
			v3.4c0,0.5,0.2,0.9,0.5,1.2C417.6,969.7,418,969.9,418.4,969.9z"/>
		<path class="st3" d="M432.1,969.9c0.5,0,0.9-0.2,1.2-0.5c0.3-0.3,0.5-0.8,0.5-1.2v-3.4c0-0.9-0.8-1.7-1.7-1.7
			c-0.9,0-1.7,0.8-1.7,1.7v3.4c0,0.5,0.2,0.9,0.5,1.2C431.2,969.7,431.6,969.9,432.1,969.9z"/>
		<path d="M413.3,956.3c-2.8,0-5.1,2.3-5.1,5.1v0.2c-4,0.8-6.8,4.3-6.8,8.3c0,4,2.8,7.5,6.8,8.3v0.2c0,2.8,2.3,5.1,5.1,5.1h5.1v6.8
			h-10.2c-3.8,0-6.8,3-6.8,6.8v17c0,1.9,1.5,3.4,3.4,3.4h3.9c0.6,1,1.7,1.7,2.9,1.7h27.2c1.9,0,3.4-1.5,3.4-3.4h3.4
			c1.9,0,3.4-1.5,3.4-3.4v-15.3c0-3.8-3-6.8-6.8-6.8h-10.2v-6.8h5.1c2.8,0,5.1-2.3,5.1-5.1v-0.2c4-0.8,6.8-4.3,6.8-8.3
			s-2.8-7.5-6.8-8.3v-0.2c0-2.8-2.3-5.1-5.1-5.1H413.3z M442.3,965.1c2,0.7,3.4,2.7,3.4,4.8c0,2.2-1.4,4.1-3.4,4.8V965.1z
			 M408.2,974.7c-2-0.7-3.4-2.7-3.4-4.8s1.4-4.1,3.4-4.8V974.7z M408.2,1014.2h-3.4v-17c0-1.9,1.5-3.4,3.4-3.4L408.2,1014.2
			L408.2,1014.2z M442.3,993.8c1.9,0,3.4,1.5,3.4,3.4v15.3h-3.4V993.8z M432.1,1015.9h-13.6v-15.3h13.6V1015.9z M438.9,993.8l0,20.4
			l0,0l0,0l0,1.7h-3.4v-15.3c0-1.9-1.5-3.4-3.4-3.4h-13.6c-1.9,0-3.4,1.5-3.4,3.4v15.3h-3.4v-22.1H438.9z M421.8,990.3v-6.8h6.8v6.8
			H421.8L421.8,990.3z M413.3,980.1c-0.9,0-1.7-0.8-1.7-1.7v-17c0-0.9,0.8-1.7,1.7-1.7h23.8c0.9,0,1.7,0.8,1.7,1.7v17
			c0,0.9-0.8,1.7-1.7,1.7H413.3z"/>
	</g>
	<circle class="st8" cx="425.2" cy="946" r="1.7"/>
</g>
<g id="professor">
	<g>
		<path class="st9" d="M322,961.6l2.5-0.9c1.1-0.4,1.9-1.4,1.9-2.6s-0.7-2.2-1.9-2.6l-22.5-7.7c-2.4-0.8-5.1-0.8-7.5,0l-22.5,7.7
			c-1.1,0.4-1.9,1.4-1.9,2.6s0.7,2.2,1.9,2.6l10.2,3.5v11.5c0,5.4,2.1,10.6,5.3,14.3l-3.5,4.6l-10.3,1.9c0,0-0.1,0-0.1,0
			c-2.4,0.7-4.5,2.2-6,4.4c-1.4,2-2.1,4.4-2.1,6.7v6.1c0,2.2,2,3.9,4.3,3.9h24.3c0,0,0,0,0,0c0,0,0,0,0,0h8.8c0,0,0,0,0,0
			c0,0,0,0,0,0h24.3c2.4,0,4.3-1.8,4.3-3.9v-6.1c0-2.4-0.7-4.8-2.1-6.7c-1.5-2.2-3.5-3.7-6-4.4c0,0-0.1,0-0.1,0l-10.3-1.9l-3.4-4.6
			c3.3-3.7,5.3-8.9,5.3-14.3v-11.9l4.5-1.6 M326.2,1000l-3.4,3.4c-1.9,1.9-2.9,4.3-2.9,7v5.2h-15.8l-0.4-1.9c0,0,0,0,0,0l-1.6-7.9
			c0.2-0.2,0.4-0.4,0.5-0.6l1,1.3c0,0,0,0.1,0.1,0.1c0.4,0.4,0.9,0.6,1.5,0.6c0.1,0,0.1,0,0.2,0c0.6-0.1,1.2-0.4,1.6-0.9l6.4-9.4
			l9.9,1.8C324.4,998.9,325.4,999.4,326.2,1000z M300.4,1015.6l-3.9-3.9l0.4-2.2l4.9,4.9l0.2,1.2H300.4z M296.6,990h4.6
			c0,1.9-0.3,6.2-2.3,9.4C296.9,996.2,296.6,991.9,296.6,990z M298.1,1001.8c0.2,0.2,0.5,0.4,0.8,0.4c0.3,0,0.6-0.1,0.8-0.4
			c0.1-0.1,0.1-0.2,0.2-0.3l1.3,1.6c0,0.1,0,0.1,0,0.2c0,0.6-0.5,1.2-1.2,1.2h-2.2c-0.6,0-1.2-0.5-1.2-1.2c0-0.1,0-0.1,0-0.2
			l1.3-1.6C298,1001.6,298,1001.7,298.1,1001.8z M297.8,1006.6h2.2c0.1,0,0.2,0,0.3,0l0.8,4.1l-3.6-3.6l0.1-0.5
			C297.6,1006.6,297.7,1006.6,297.8,1006.6z M296,1014.1l1.5,1.5h-1.8L296,1014.1z M305.4,1005C305.4,1005,305.4,1005,305.4,1005
			C305.3,1005,305.3,1005,305.4,1005l-4.3-5.2c0.8-1.5,1.3-3.2,1.7-4.8c2.2-0.7,4.1-1.8,5.9-3.4l3.1,4.1L305.4,1005z M305.5,970.3
			c-2,0-3.8,1.1-4.8,2.8c-0.5-0.4-1.2-0.6-1.9-0.6s-1.3,0.2-1.9,0.6c-0.9-1.7-2.7-2.8-4.8-2.8c-2.2,0-4.2,1.4-5,3.3h-2.8v-2
			c0-0.1,0-0.2,0-0.3c0-0.3,0.7-1.2,3.8-2.1c2.8-0.8,6.6-1.3,10.6-1.3s7.8,0.4,10.6,1.3c3.1,0.9,3.8,1.8,3.8,2.1c0,0.1,0,0.2,0,0.2
			v2h-2.8C309.7,971.6,307.8,970.3,305.5,970.3z M308.9,975.7c0,1.9-1.5,3.4-3.4,3.4s-3.4-1.5-3.4-3.4c0-1.9,1.5-3.4,3.4-3.4
			S308.9,973.9,308.9,975.7z M292.3,972.3c1.9,0,3.4,1.5,3.4,3.4c0,1.9-1.5,3.4-3.4,3.4s-3.4-1.5-3.4-3.4
			C288.9,973.9,290.4,972.3,292.3,972.3z M284.4,967.2c0-0.1,0-0.2,0-0.3c0-0.3,0.7-1.2,3.8-2.1c2.8-0.8,6.6-1.3,10.6-1.3
			s7.8,0.4,10.6,1.3c3.1,0.9,3.8,1.8,3.8,2.1c0,0.1,0,0.2,0,0.2v1.4c-0.8-0.5-1.9-0.9-3.2-1.3c-3-0.9-7-1.3-11.2-1.3
			s-8.2,0.5-11.2,1.3c-1.3,0.4-2.4,0.8-3.2,1.3V967.2L284.4,967.2z M313.3,962.9c0,0.1,0,0.3,0,0.5v0.7c-0.8-0.5-1.9-0.9-3.2-1.3
			c-3-0.9-7-1.3-11.2-1.3s-8.2,0.5-11.2,1.3c-1.3,0.4-2.4,0.8-3.2,1.3v-0.3c0.1-0.2,0.1-0.4,0-0.6v-3.8c0-0.1,0-0.2,0-0.3
			c0-0.3,0.7-1.2,3.8-2.1c2.8-0.8,6.6-1.3,10.6-1.3s7.8,0.4,10.6,1.3c3.1,0.9,3.8,1.8,3.8,2.1c0,0.1,0,0.2,0,0.2V962.9L313.3,962.9z
			 M272.8,958.7c-0.4-0.2-0.5-0.5-0.5-0.7c0-0.2,0-0.5,0.5-0.7l22.5-7.7c2-0.7,4.2-0.7,6.2,0l22.5,7.7c0.4,0.2,0.5,0.5,0.5,0.7
			c0,0.2,0,0.5-0.5,0.7l-8.5,2.9v-2.5c0-0.1,0-0.2,0-0.3c-0.2-1.6-2-2.9-5.3-3.8c-3-0.9-7-1.3-11.2-1.3s-8.2,0.5-11.2,1.3
			c-3.3,0.9-5,2.2-5.3,3.8c0,0.1-0.1,0.2-0.1,0.3v2.9L272.8,958.7z M284.4,975.7h2.4c0,0,0,0,0,0.1c0,3,2.4,5.5,5.5,5.5
			s5.5-2.4,5.5-5.5c0-0.6,0.5-1.2,1.2-1.2s1.2,0.5,1.2,1.2c0,3,2.4,5.5,5.5,5.5s5.5-2.4,5.5-5.5c0,0,0,0,0-0.1h2.4v0
			c0,3.9-1.2,7.8-3.3,11c-1.8,2.8-4.3,4.8-6.9,5.9c0.2-2.1,0.1-3.6,0.1-3.7c0-0.5-0.5-1-1-1h-6.6c-0.5,0-1,0.4-1,1
			c0,0.1-0.1,1.7,0.1,3.7c-2.7-1.1-5.1-3.1-6.9-5.9C285.6,983.5,284.4,979.6,284.4,975.7L284.4,975.7z M289.2,991.5
			c1.7,1.6,3.7,2.8,5.9,3.4c0.3,1.6,0.8,3.2,1.7,4.8l-4.2,5.3c0,0,0,0,0,0c0,0,0,0-0.1,0l-6.3-9.3L289.2,991.5z M274.4,998.6
			l9.9-1.8l6.4,9.4c0.4,0.5,0.9,0.9,1.6,0.9c0.1,0,0.1,0,0.2,0c0.6,0,1.1-0.2,1.5-0.6c0,0,0.1-0.1,0.1-0.1l1-1.3
			c0.2,0.2,0.3,0.5,0.5,0.6l-2,9.8h-15.8v-5.2c0-2.6-1-5.1-2.9-7l-3.4-3.4C272.4,999.4,273.3,998.9,274.4,998.6z M267.9,1013.7v-6.1
			c0-2.1,0.8-4.4,2.2-6.2l3.4,3.4c1.5,1.5,2.3,3.4,2.3,5.5v5.2h-5.6C268.9,1015.6,267.9,1014.7,267.9,1013.7z M329.9,1013.7
			c0,1-1,1.9-2.3,1.9H322v-5.2c0-2.1,0.8-4,2.3-5.5l3.4-3.4c1.5,1.8,2.2,4.1,2.2,6.2L329.9,1013.7L329.9,1013.7z"/>
		<path class="st1" d="M294.2,986c0.6,0,1.3-0.2,1.8-0.4c1.1-0.4,1.7-0.6,2.3-0.2c0,0,0,0,0,0c0,0,0,0,0.1,0c0,0,0,0,0,0
			c0,0,0,0,0.1,0c0,0,0,0,0,0c0,0,0,0,0,0c0,0,0,0,0.1,0c0,0,0,0,0,0c0,0,0,0,0.1,0c0,0,0,0,0,0c0,0,0,0,0.1,0c0,0,0,0,0,0
			c0,0,0,0,0,0c0,0,0,0,0.1,0c0,0,0,0,0,0c0,0,0,0,0.1,0c0,0,0,0,0,0c0,0,0,0,0.1,0c0,0,0,0,0,0c0,0,0,0,0.1,0c0,0,0,0,0,0
			c0,0,0,0,0,0c0,0,0,0,0,0c0,0,0,0,0,0c0,0,0,0,0.1,0c0,0,0,0,0,0c0.5-0.4,1.2-0.2,2.3,0.2c0.5,0.2,1.2,0.4,1.8,0.4
			c0.6,0,1.2-0.2,1.6-0.8c0.4-0.4,0.3-1.1-0.2-1.5c-0.4-0.4-1.1-0.3-1.5,0.1c-0.2,0-0.8-0.2-1.2-0.3c-1-0.3-2.3-0.8-3.6-0.2
			c-1.3-0.5-2.6-0.1-3.6,0.2c-0.4,0.1-1,0.3-1.2,0.3c-0.4-0.4-1-0.5-1.5-0.1c-0.4,0.4-0.5,1-0.2,1.5C293,985.8,293.6,986,294.2,986z
			"/>
		<path class="st1" d="M292.3,977.9c1.2,0,2.1-1,2.1-2.1c0-0.6-0.5-1-1-1s-1,0.5-1,1c0,0,0,0.1-0.1,0.1c-0.6,0-1,0.5-1,1
			S291.7,977.9,292.3,977.9z"/>
		<path class="st1" d="M304.5,976.8c0,0.6,0.5,1,1,1c1.2,0,2.1-1,2.1-2.1c0-0.6-0.5-1-1-1s-1,0.5-1,1c0,0,0,0.1-0.1,0.1
			C304.9,975.8,304.5,976.3,304.5,976.8z"/>
	</g>
	<path class="st1" d="M319.9,962.3v11.5c-1.3,0.4-2.2,1.6-2.2,3.1v3.9c0,0.6,0.5,1,1,1h4.4c0.6,0,1-0.5,1-1v-3.9
		c0-1.4-0.9-2.6-2.2-3.1v-12.2"/>
	<path class="st10" d="M322.2,979.8h-2.3v-2.9c0-0.6,0.5-1.2,1.2-1.2c0.6,0,1.2,0.5,1.2,1.2V979.8z"/>
</g>
<g id="path">
	<path class="st2" d="M347.6,1229"/>
	<path class="st11" d="M369.8,1010.5"/>
	<g>
		<g>
			<path class="st12" d="M470.3,1019.3c66.1,0,98.9,56.1,99.1,105.6"/>
			<g>
				<path class="st13" d="M555.2,1104.2c0.7-0.4,1.6-0.2,2.1,0.5l12.2,19.5l12.5-19.3c0.5-0.7,1.4-0.9,2.1-0.4
					c0.7,0.5,0.9,1.4,0.4,2.1l-13.8,21.2c-0.3,0.4-0.8,0.7-1.3,0.7s-1-0.3-1.3-0.7l-13.4-21.4c-0.2-0.3-0.2-0.5-0.2-0.8
					C554.5,1105,554.7,1104.5,555.2,1104.2z"/>
			</g>
		</g>
	</g>
	<g>
		<g>
			<path class="st12" d="M254.3,1019.3c-66.1,0-98.9,56.1-99.1,105.6"/>
			<g>
				<path class="st13" d="M140.7,1104.5c0.7-0.5,1.6-0.3,2.1,0.4l12.5,19.3l12.2-19.5c0.4-0.7,1.4-0.9,2.1-0.5
					c0.7,0.4,0.9,1.4,0.5,2.1l-13.4,21.4c-0.3,0.4-0.7,0.7-1.3,0.7s-1-0.3-1.3-0.7l-13.8-21.2c-0.2-0.2-0.2-0.5-0.2-0.8
					C140,1105.2,140.2,1104.8,140.7,1104.5z"/>
			</g>
		</g>
	</g>
	<g>
		<g>
			<path class="st12" d="M363.2,1026.1c0,22.6-1.3,52.6-0.1,100.7"/>
			<g>
				<path class="st13" d="M348.4,1106.6c0.7-0.5,1.6-0.3,2.1,0.4l12.7,19.1l12-19.6c0.4-0.7,1.4-0.9,2.1-0.5
					c0.7,0.4,0.9,1.4,0.5,2.1l-13.2,21.6c-0.3,0.4-0.7,0.7-1.3,0.7c-0.5,0-1-0.2-1.3-0.7l-14-21.1c-0.2-0.2-0.2-0.5-0.2-0.8
					C347.7,1107.4,348,1106.9,348.4,1106.6z"/>
			</g>
		</g>
	</g>
	<path class="st2" d="M284.4,866.7c0,21.8,82.8,32.2,82.8,82.5"/>
	<path class="st2" d="M451.6,859.7c0,21.8-82.8,32.2-82.8,82.5"/>
</g>
<g id="stack">
	<path class="st3" d="M131.8,1159.6c2,0,3.6-1.6,3.6-3.6s-1.6-3.6-3.6-3.6c-2,0-3.6,1.6-3.6,3.6S129.9,1159.6,131.8,1159.6z
		 M131.8,1154.8c0.7,0,1.2,0.5,1.2,1.2c0,0.7-0.5,1.2-1.2,1.2c-0.7,0-1.2-0.5-1.2-1.2C130.6,1155.3,131.2,1154.8,131.8,1154.8z"/>
	<path class="st14" d="M171.6,1169.2h-6v-6c0-0.7-0.5-1.2-1.2-1.2h-6v-6c0-0.7-0.5-1.2-1.2-1.2h-6v-6c0-0.7-0.5-1.2-1.2-1.2h-28
		c-5.6,0-8.7-0.2-9.3,0.5c-0.3,0.4-0.1,3.2-0.1,8.9v28c0,0.7,0.5,1.2,1.2,1.2h6v6c0,0.7,0.5,1.2,1.2,1.2h6v6c0,0.7,0.5,1.2,1.2,1.2
		h6v6c0,0.7,0.5,1.2,1.2,1.2h36.2c0.7,0,1.2-0.5,1.2-1.2v-36.2C172.8,1169.8,172.3,1169.2,171.6,1169.2z M127.4,1171.6H117l5.2-4.4
		L127.4,1171.6z M126.6,1167.8l2.9-2.9l3.3,3.3l-2.7,2.5L126.6,1167.8z M142.7,1162.5l6.1,6.1v3.1h-16.2L142.7,1162.5z
		 M121.2,1149.9h27.5v15.2l-5.2-5.2c-0.5-0.5-1.2-0.5-1.7,0l-7.4,6.7l-4.2-4.2c-0.5-0.5-1.2-0.5-1.7,0l-3.8,3.8l-1.7-1.5
		c-0.4-0.4-1.1-0.4-1.6,0l-6.5,5.5v-14.1c0-2.2-0.1-4.8,0.6-5.5C116.3,1150,118.8,1149.9,121.2,1149.9z M115,1174.1h33.8v9.6H115
		V1174.1z M122.2,1186.1h27.7c0.7,0,1.2-0.5,1.2-1.2v-27.7h4.8v33.8h-33.8V1186.1z M129.4,1193.3h27.7c0.7,0,1.2-0.5,1.2-1.2v-27.7
		h4.8v33.8h-33.8V1193.3z M170.4,1205.4h-33.8v-4.8h27.7c0.7,0,1.2-0.5,1.2-1.2v-27.7h4.8V1205.4z"/>
</g>
<g id="stack1">
	<path class="st14" d="M328.1,1171.6v36.2c0,0.7,0.5,1.2,1.2,1.2h36.2c0.7,0,1.2-0.5,1.2-1.2v-6h6c0.7,0,1.2-0.5,1.2-1.2v-6h6
		c0.7,0,1.2-0.5,1.2-1.2v-6h6c0.7,0,1.2-0.5,1.2-1.2v-28c0-5.7,0.3-8.5-0.1-8.9c-0.6-0.7-3.7-0.5-9.3-0.5h-28
		c-0.7,0-1.2,0.5-1.2,1.2v6h-6c-0.7,0-1.2,0.5-1.2,1.2v6h-6c-0.7,0-1.2,0.5-1.2,1.2v6h-6C328.6,1170.4,328.1,1171,328.1,1171.6z
		 M378.7,1168.4l5.2,4.4h-10.4L378.7,1168.4z M371,1171.9l-2.7-2.5l3.3-3.3l2.9,2.9L371,1171.9z M368.4,1172.9h-16.2v-3.1l6.1-6.1
		L368.4,1172.9z M385.3,1151.9c0.8,0.7,0.6,3.3,0.6,5.5v14.1l-6.5-5.5c-0.4-0.4-1.1-0.4-1.6,0l-1.7,1.5l-3.8-3.8
		c-0.5-0.5-1.2-0.5-1.7,0l-4.2,4.2l-7.4-6.7c-0.5-0.4-1.2-0.4-1.7,0l-5.2,5.2v-15.2h27.5C382.1,1151.1,384.6,1151.3,385.3,1151.9z
		 M386,1184.9h-33.8v-9.6H386V1184.9z M378.7,1192.1H345v-33.8h4.8v27.7c0,0.7,0.5,1.2,1.2,1.2h27.7V1192.1z M371.5,1199.4h-33.8
		v-33.8h4.8v27.7c0,0.7,0.5,1.2,1.2,1.2h27.7V1199.4z M330.5,1172.9h4.8v27.7c0,0.7,0.5,1.2,1.2,1.2h27.7v4.8h-33.8V1172.9z"/>
	<text transform="matrix(1 0 0 1 180.5579 1195.8495)" class="st3 st15 st16">1</text>
</g>
<g id="stack2">
	<path class="st14" d="M600.4,1170.4h-6v-6c0-0.7-0.5-1.2-1.2-1.2h-6v-6c0-0.7-0.5-1.2-1.2-1.2h-6v-6c0-0.7-0.5-1.2-1.2-1.2h-28
		c-5.6,0-8.7-0.2-9.3,0.5c-0.3,0.4-0.1,3.2-0.1,8.9v28c0,0.7,0.5,1.2,1.2,1.2h6v6c0,0.7,0.5,1.2,1.2,1.2h6v6c0,0.7,0.5,1.2,1.2,1.2
		h6v6c0,0.7,0.5,1.2,1.2,1.2h36.2c0.7,0,1.2-0.5,1.2-1.2v-36.2C601.6,1171,601.1,1170.4,600.4,1170.4z M556.2,1172.9h-10.4l5.2-4.4
		L556.2,1172.9z M555.3,1169l2.9-2.9l3.3,3.3l-2.7,2.5L555.3,1169z M571.4,1163.7l6.1,6.1v3.1h-16.2L571.4,1163.7z M550,1151.1h27.5
		v15.2l-5.2-5.2c-0.5-0.5-1.2-0.5-1.7,0l-7.4,6.7l-4.2-4.2c-0.5-0.5-1.2-0.5-1.7,0l-3.8,3.8l-1.7-1.5c-0.4-0.4-1.1-0.4-1.6,0
		l-6.5,5.5v-14.1c0-2.2-0.1-4.8,0.6-5.5C545.1,1151.3,547.6,1151.1,550,1151.1z M543.7,1175.3h33.8v9.6h-33.8V1175.3z M551,1187.3
		h27.7c0.7,0,1.2-0.5,1.2-1.2v-27.7h4.8v33.8H551V1187.3z M558.2,1194.6h27.7c0.7,0,1.2-0.5,1.2-1.2v-27.7h4.8v33.8h-33.8V1194.6z
		 M599.2,1206.6h-33.8v-4.8h27.7c0.7,0,1.2-0.5,1.2-1.2v-27.7h4.8V1206.6z"/>
	<text transform="matrix(1 0 0 1 394.9102 1174.8495)" class="st3 st15 st16">2</text>
	<text transform="matrix(1 0 0 1 607.9464 1198.5208)" class="st3 st15 st16">3</text>
</g>
<g id="bubbles" class="st17">
	<circle class="st18" cx="467.1" cy="996.9" r="4.6"/>
	<circle class="st18" cx="449.4" cy="972.1" r="13.1"/>
	<circle class="st18" cx="258.5" cy="1002.2" r="4.6"/>
	<circle class="st18" cx="276.9" cy="972.9" r="13.1"/>
	<ellipse class="st18" cx="361.4" cy="929.5" rx="71.4" ry="58.6"/>
</g>
<g id="processor" class="st17">
	<g class="st19">
		<g>
			<path class="st20" d="M390.9,932l-15.6-0.2l0-2.2l4.2,0.1c0.5,0,1-0.4,1-1c0-0.5-0.4-1-1-1l-4.2-0.1l0-2.2l2.9,0
				c1.1,0,2.1-0.4,2.9-1.2l6.5-6.3c0.4,0.2,0.9,0.3,1.3,0.3c0.8,0,1.6-0.3,2.2-0.9c0.6-0.6,0.9-1.3,0.9-2.1c0-0.8-0.3-1.6-0.9-2.2
				c-0.6-0.6-1.3-0.9-2.1-0.9s-1.6,0.3-2.2,0.9c-0.6,0.6-0.9,1.3-0.9,2.1c0,0.5,0.1,0.9,0.3,1.4l-6.5,6.3c-0.4,0.4-0.9,0.6-1.5,0.6
				l-2.9,0l0-2.1c0-2.8-2.2-5.1-5-5.2l-2.1,0l0.1-8.6c1.2-0.4,2.1-1.5,2.1-2.9c0-1.7-1.3-3.1-3-3.1c-1.7,0-3.1,1.3-3.1,3
				c0,1.3,0.8,2.5,2,2.9l-0.1,8.6l-2.2,0l0.1-4.2c0-0.5-0.4-1-1-1c-0.5,0-1,0.4-1,1l-0.1,4.2l-2.2,0l0.2-15.6c0-0.5-0.4-1-1-1
				c-0.5,0-1,0.4-1,1L358,916l-2.2,0l0.1-4.2c0-0.5-0.4-1-1-1s-1,0.4-1,1l-0.1,4.2l-2.2,0l0-2.9c0-1.1-0.4-2.1-1.2-2.9l-6.3-6.5
				c0.6-1.1,0.4-2.6-0.5-3.5c-1.2-1.2-3.1-1.2-4.3-0.1c-1.2,1.2-1.2,3.1-0.1,4.3c0.6,0.6,1.4,0.9,2.1,0.9c0.5,0,0.9-0.1,1.4-0.3
				l6.3,6.5c0.4,0.4,0.6,0.9,0.6,1.5l0,2.9l-2.1,0c-0.4,0-0.9,0-1.3,0.1c-0.5,0.1-0.8,0.7-0.7,1.2c0.1,0.5,0.7,0.8,1.2,0.7
				c0.3-0.1,0.5-0.1,0.8-0.1l22.8,0.3c1.7,0,3.2,1.5,3.1,3.2l-0.3,22.8c0,0.3,0,0.5-0.1,0.8c-0.1,0.5,0.2,1,0.7,1.2
				c0.1,0,0.2,0,0.2,0c0.4,0,0.8-0.3,0.9-0.7c0.1-0.4,0.2-0.8,0.2-1.3l0-2.1l8.6,0.1c0.4,1.2,1.5,2.1,2.9,2.1c1.7,0,3.1-1.3,3.1-3
				s-1.3-3.1-3-3.1c-1.3,0-2.5,0.8-2.9,2l-8.6-0.1l0-2.2l4.2,0.1c0.5,0,1-0.4,1-1c0-0.5-0.4-1-1-1l-4.2-0.1l0-2.2l15.6,0.2
				c0.5,0,1-0.4,1-1C391.9,932.4,391.4,932,390.9,932z M388.3,914.5c0.2-0.2,0.5-0.3,0.8-0.3c0.3,0,0.6,0.1,0.8,0.3
				c0.2,0.2,0.3,0.5,0.3,0.8s-0.1,0.6-0.3,0.8s-0.5,0.3-0.8,0.3c-0.3,0-0.6-0.1-0.8-0.3s-0.3-0.5-0.3-0.8S388.1,914.7,388.3,914.5z
				 M342.3,903.1c-0.4,0.4-1.1,0.4-1.6,0c-0.4-0.4-0.4-1.1,0-1.6c0.2-0.2,0.5-0.3,0.8-0.3c0.3,0,0.6,0.1,0.8,0.3
				C342.8,901.9,342.8,902.6,342.3,903.1z M367.4,905.8c-0.6,0-1.1-0.5-1.1-1.1c0-0.6,0.5-1.1,1.1-1.1c0.6,0,1.1,0.5,1.1,1.1
				S368,905.8,367.4,905.8z M386.7,940.1c0.6,0,1.1,0.5,1.1,1.1c0,0.6-0.5,1.1-1.1,1.1c-0.6,0-1.1-0.5-1.1-1.1
				C385.5,940.5,386,940.1,386.7,940.1z"/>
		</g>
	</g>
	<g class="st19">
		<g>
			<path class="st21" d="M378.1,960.7c-0.9-1-2.3-1.2-3.5-0.6l-6.3-6.5c-0.4-0.4-0.6-0.9-0.6-1.5l0-2.9l2.1,0c0.4,0,0.9,0,1.3-0.1
				c0.5-0.1,0.8-0.7,0.7-1.2c-0.1-0.5-0.7-0.8-1.2-0.7c-0.3,0.1-0.5,0.1-0.8,0.1l-22.8-0.3c-1.7,0-3.2-1.5-3.1-3.2l0.3-22.8
				c0-0.3,0-0.5,0.1-0.8c0.1-0.5-0.2-1-0.7-1.2c-0.5-0.1-1,0.2-1.2,0.7c-0.1,0.4-0.2,0.8-0.2,1.3l0,2.1l-8.6-0.1
				c-0.4-1.2-1.5-2.1-2.9-2.1c-1.7,0-3.1,1.3-3.1,3c0,1.7,1.3,3.1,3,3.1c1.3,0,2.5-0.8,2.9-2l8.6,0.1l0,2.2l-4.2-0.1
				c-0.5,0-1,0.4-1,1c0,0.5,0.4,1,1,1l4.2,0.1l0,2.2l-15.6-0.2c-0.5,0-1,0.4-1,1c0,0.5,0.4,1,1,1l15.6,0.2l0,2.2l-4.2-0.1
				c-0.5,0-1,0.4-1,1c0,0.5,0.4,1,1,1l4.2,0.1l0,2.2l-2.9,0c-1.1,0-2.1,0.4-2.9,1.2l-6.5,6.3c-0.4-0.2-0.9-0.3-1.3-0.3
				c-0.8,0-1.6,0.3-2.2,0.9c-0.6,0.6-0.9,1.3-0.9,2.1c0,0.8,0.3,1.6,0.9,2.2c0.6,0.6,1.3,0.9,2.1,0.9c0.8,0,1.6-0.3,2.2-0.9
				c0.6-0.6,0.9-1.3,0.9-2.1c0-0.5-0.1-0.9-0.3-1.4l6.5-6.3c0.4-0.4,0.9-0.6,1.5-0.6l2.9,0l0,2.1c0,2.8,2.2,5.1,5,5.2l2.1,0
				l-0.1,8.6c-1.2,0.4-2.1,1.5-2.1,2.9c0,1.7,1.3,3.1,3,3.1s3.1-1.3,3.1-3c0-1.3-0.8-2.5-2-2.9l0.1-8.6l2.2,0l-0.1,4.2
				c0,0.5,0.4,1,1,1c0.5,0,1-0.4,1-1l0.1-4.2l2.2,0l-0.2,15.6c0,0.5,0.4,1,1,1c0.5,0,1-0.4,1-1l0.2-15.6l2.2,0l-0.1,4.2
				c0,0.5,0.4,1,1,1c0.5,0,1-0.4,1-1l0.1-4.2l2.2,0l0,2.9c0,1.1,0.4,2.1,1.2,2.9l6.3,6.5c-0.6,1.1-0.4,2.5,0.5,3.5
				c0.6,0.6,1.4,0.9,2.1,0.9c0.8,0,1.6-0.3,2.2-0.9C379.3,963.8,379.3,961.9,378.1,960.7z M330.9,925c-0.6,0-1.1-0.5-1.1-1.1
				c0-0.6,0.5-1.1,1.1-1.1s1.1,0.5,1.1,1.1C332,924.5,331.5,925,330.9,925z M329.3,950.5c-0.2,0.2-0.5,0.3-0.8,0.3
				c-0.3,0-0.6-0.1-0.8-0.3s-0.3-0.5-0.3-0.8s0.1-0.6,0.3-0.8s0.5-0.3,0.8-0.3s0.6,0.1,0.8,0.3c0.2,0.2,0.3,0.5,0.3,0.8
				S329.5,950.3,329.3,950.5z M351.2,960.4c0,0.6-0.5,1.1-1.1,1.1c-0.6,0-1.1-0.5-1.1-1.1c0-0.6,0.5-1.1,1.1-1.1
				C350.7,959.3,351.2,959.8,351.2,960.4z M376.7,963.6c-0.4,0.4-1.1,0.4-1.6,0c-0.4-0.4-0.4-1.1,0-1.6c0.2-0.2,0.5-0.3,0.8-0.3
				s0.6,0.1,0.8,0.3C377.2,962.5,377.2,963.2,376.7,963.6z"/>
		</g>
	</g>
	<g class="st19">
		<g>
			<path class="st3" d="M369.1,930.1c0-2.1-1.5-3.8-3.5-4.4c0.1-0.3,0.1-0.5,0.1-0.8c0-2-1.7-3.6-3.8-3.6c-1.2,0-2.2,0.4-2.9,1.2
				c-0.7-0.8-1.7-1.2-2.9-1.2c-2.1,0-3.9,1.5-3.9,3.5c0,0.3,0,0.5,0.1,0.8c-2.1,0.5-3.6,2.3-3.7,4.3c0,1,0.3,2,1,2.8
				c-0.7,0.8-1,1.8-1.1,2.9c0,1.6,0.8,3.2,2.3,4.2c0,0,0,0,0,0c0,2.2,1.9,4.1,4.4,4.1c1.4,0,2.7-0.6,3.5-1.5c0.8,1,2.1,1.6,3.5,1.6
				c2.4,0,4.3-1.6,4.5-3.8c1.5-0.8,2.4-2.3,2.4-3.8c0-1.2-0.5-2.3-1.3-3.1C368.6,932.3,369.1,931.2,369.1,930.1z M365.6,934
				c0.9,0.5,1.5,1.4,1.5,2.3c0,0.7-0.3,1.3-0.9,1.8c-0.5-1-1.4-1.7-2.5-2.1c-0.5-0.2-1.1,0.1-1.2,0.6c-0.2,0.5,0.1,1.1,0.6,1.2
				c1,0.3,1.6,1.1,1.6,2c0,1.2-1.2,2.1-2.6,2.1c-1.4,0-2.5-1-2.5-2.2l0.1-6.2c0-1.2,1.2-2.1,2.6-2.1c0.5,0,1-0.4,1-1s-0.4-1-1-1
				c-0.9,0-1.8,0.2-2.5,0.7l0-1.2c0-0.5-0.4-1-1-1s-1,0.4-1,1l-0.1,5.4c-0.3-0.2-0.7-0.4-1.1-0.5c-0.5-0.2-1.1,0.1-1.2,0.6
				c-0.2,0.5,0.1,1.1,0.6,1.2c1,0.3,1.6,1.1,1.6,2l0,2.1c0,1.2-1.2,2.1-2.6,2.1c-1.4,0-2.5-1-2.5-2.2c0-0.5,0.2-1,0.6-1.4
				c0.4-0.4,0.4-1,0-1.4c-0.4-0.4-1-0.4-1.4,0c-0.2,0.2-0.4,0.5-0.6,0.7c-0.6-0.6-1-1.4-0.9-2.1c0-1.4,1.2-2.7,2.8-3
				c0.5-0.1,0.9-0.6,0.7-1.2c-0.1-0.5-0.6-0.9-1.2-0.7c-0.7,0.1-1.3,0.4-1.8,0.7c-0.3-0.4-0.5-0.9-0.5-1.5c0-1.5,1.4-2.6,3.1-2.6
				c0,0,0,0,0,0c0.2,0,0.4-0.1,0.6-0.2c0.4-0.3,0.5-0.8,0.2-1.2c0,0,0,0,0,0c0,0,0,0,0,0c0,0,0,0,0-0.1c0,0,0,0,0,0
				c-0.2-0.2-0.3-0.5-0.3-0.9c0-0.9,0.9-1.6,2-1.6c1.1,0,1.9,0.8,1.9,1.6c0,0.5,0.4,1,1,1s1-0.4,1-1c0-0.9,0.9-1.6,2-1.6
				c1.1,0,1.9,0.8,1.9,1.6c0,0.2-0.1,0.4-0.2,0.6c-0.6,0-1.1,0.2-1.6,0.4c-0.5,0.2-0.7,0.8-0.5,1.3c0.2,0.5,0.8,0.7,1.3,0.5
				c0.4-0.2,0.9-0.3,1.3-0.3c0,0,0,0,0,0c0,0,0,0,0,0c1.7,0,3.1,1.2,3,2.7c0,0.9-0.6,1.7-1.5,2.2c-0.3,0.2-0.5,0.5-0.5,0.8
				S365.3,933.8,365.6,934z"/>
		</g>
	</g>
</g>
<g id="square-content">
	<path class="st22" d="M578,301.3l-3.4,6.8c-0.3,0.6-1,0.8-1.5,0.5l-6.8-3.4c-0.6-0.3-0.8-1-0.5-1.5l3.4-6.8c0.3-0.6,1-0.8,1.5-0.5
		l6.8,3.4C578,300.1,578.3,300.8,578,301.3z"/>
	<path class="st22" d="M649.8,285.9l-7.1,2.7c-0.6,0.2-1.3-0.1-1.5-0.7l-2.7-7.1c-0.2-0.6,0.1-1.3,0.7-1.5l7.1-2.7
		c0.6-0.2,1.3,0.1,1.5,0.7l2.7,7.1C650.6,285,650.3,285.7,649.8,285.9z"/>
	<path class="st23" d="M680.4,291.5h-7.6c-0.6,0-1.1-0.5-1.1-1.1v-7.6c0-0.6,0.5-1.1,1.1-1.1h7.6c0.6,0,1.1,0.5,1.1,1.1v7.6
		C681.5,291,681,291.5,680.4,291.5z"/>
	<path class="st22" d="M575.2,337.7h-7.6c-0.6,0-1.1-0.5-1.1-1.1V329c0-0.6,0.5-1.1,1.1-1.1h7.6c0.6,0,1.1,0.5,1.1,1.1v7.6
		C576.4,337.2,575.9,337.7,575.2,337.7z"/>
	<path class="st22" d="M614.6,312.6l-6.9-3.1c-0.6-0.3-0.8-0.9-0.6-1.5l3.1-6.9c0.3-0.6,0.9-0.8,1.5-0.6l6.9,3.1
		c0.6,0.3,0.8,0.9,0.6,1.5l-3.1,6.9C615.9,312.6,615.2,312.8,614.6,312.6z"/>
	<path class="st22" d="M630.7,332.1l-6.8,3.4c-0.6,0.3-1.3,0.1-1.5-0.5l-3.4-6.8c-0.3-0.6-0.1-1.3,0.5-1.5l6.8-3.4
		c0.6-0.3,1.3-0.1,1.5,0.5l3.4,6.8C631.5,331.1,631.3,331.8,630.7,332.1z"/>
	<path class="st22" d="M439.2,326.7h-7.6c-0.6,0-1.1-0.5-1.1-1.1V318c0-0.6,0.5-1.1,1.1-1.1h7.6c0.6,0,1.1,0.5,1.1,1.1v7.6
		C440.3,326.2,439.8,326.7,439.2,326.7z"/>
	<path class="st22" d="M460.9,356.9h-7.6c-0.6,0-1.1-0.5-1.1-1.1v-7.6c0-0.6,0.5-1.1,1.1-1.1h7.6c0.6,0,1.1,0.5,1.1,1.1v7.6
		C462.1,356.4,461.6,356.9,460.9,356.9z"/>
	<path class="st22" d="M462.3,386.6h-7.6c-0.6,0-1.1-0.5-1.1-1.1v-7.6c0-0.6,0.5-1.1,1.1-1.1h7.6c0.6,0,1.1,0.5,1.1,1.1v7.6
		C463.4,386.1,462.9,386.6,462.3,386.6z"/>
	<path class="st22" d="M429.3,371.7h-7.6c-0.6,0-1.1-0.5-1.1-1.1V363c0-0.6,0.5-1.1,1.1-1.1h7.6c0.6,0,1.1,0.5,1.1,1.1v7.6
		C430.5,371.2,430,371.7,429.3,371.7z"/>
	<path class="st22" d="M431.7,397.1l-7.4,1.6c-0.6,0.1-1.2-0.3-1.4-0.9l-1.6-7.4c-0.1-0.6,0.3-1.2,0.9-1.4l7.4-1.6
		c0.6-0.1,1.2,0.3,1.4,0.9l1.6,7.4C432.7,396.4,432.3,397,431.7,397.1z"/>
	<path class="st22" d="M448,402h-7.6c-0.6,0-1.1-0.5-1.1-1.1v-7.6c0-0.6,0.5-1.1,1.1-1.1h7.6c0.6,0,1.1,0.5,1.1,1.1v7.6
		C449.1,401.5,448.6,402,448,402z"/>
	<path class="st22" d="M389.9,495.4l-5-5.7c-0.4-0.5-0.4-1.2,0.1-1.6l5.7-5c0.5-0.4,1.2-0.4,1.6,0.1l5,5.7c0.4,0.5,0.4,1.2-0.1,1.6
		l-5.7,5C391,496,390.3,495.9,389.9,495.4z"/>
	<path class="st22" d="M407.6,503.3l-2.6-7.1c-0.2-0.6,0.1-1.3,0.7-1.5l7.1-2.6c0.6-0.2,1.3,0.1,1.5,0.7l2.6,7.1
		c0.2,0.6-0.1,1.3-0.7,1.5l-7.1,2.6C408.5,504.2,407.8,503.9,407.6,503.3z"/>
	<path class="st22" d="M347.8,539.7h-7.6c-0.6,0-1.1-0.5-1.1-1.1V531c0-0.6,0.5-1.1,1.1-1.1h7.6c0.6,0,1.1,0.5,1.1,1.1v7.6
		C349,539.2,348.5,539.7,347.8,539.7z"/>
	<path class="st23" d="M396.7,514.5h-7.6c-0.6,0-1.1-0.5-1.1-1.1v-7.6c0-0.6,0.5-1.1,1.1-1.1h7.6c0.6,0,1.1,0.5,1.1,1.1v7.6
		C397.8,514,397.3,514.5,396.7,514.5z"/>
	<path class="st22" d="M380.3,519.1l-6.6,3.8c-0.5,0.3-1.3,0.1-1.6-0.4l-3.8-6.6c-0.3-0.5-0.1-1.3,0.4-1.6l6.6-3.8
		c0.5-0.3,1.3-0.1,1.6,0.4l3.8,6.6C381.1,518,380.9,518.7,380.3,519.1z"/>
	<path class="st22" d="M363.6,545.8l-5-5.7c-0.4-0.5-0.4-1.2,0.1-1.6l5.7-5c0.5-0.4,1.2-0.4,1.6,0.1l5,5.7c0.4,0.5,0.4,1.2-0.1,1.6
		l-5.7,5C364.8,546.3,364.1,546.3,363.6,545.8z"/>
	<path class="st22" d="M255.8,333.6h-7.6c-0.6,0-1.1-0.5-1.1-1.1v-7.6c0-0.6,0.5-1.1,1.1-1.1h7.6c0.6,0,1.1,0.5,1.1,1.1v7.6
		C257,333.1,256.5,333.6,255.8,333.6z"/>
	<path class="st22" d="M269.6,348.8l-7.2,2.2c-0.6,0.2-1.2-0.2-1.4-0.8l-2.2-7.2c-0.2-0.6,0.2-1.2,0.8-1.4l7.2-2.2
		c0.6-0.2,1.2,0.2,1.4,0.8l2.2,7.2C270.6,347.9,270.2,348.6,269.6,348.8z"/>
	<path class="st22" d="M319.6,356.9H312c-0.6,0-1.1-0.5-1.1-1.1v-7.6c0-0.6,0.5-1.1,1.1-1.1h7.6c0.6,0,1.1,0.5,1.1,1.1v7.6
		C320.7,356.4,320.2,356.9,319.6,356.9z"/>
	<path class="st22" d="M208.4,341.5l-1.6-7.4c-0.1-0.6,0.3-1.2,0.9-1.4l7.4-1.6c0.6-0.1,1.2,0.3,1.4,0.9l1.6,7.4
		c0.1,0.6-0.3,1.2-0.9,1.4l-7.4,1.6C209.2,342.5,208.6,342.1,208.4,341.5z"/>
	<path class="st23" d="M241.3,355.2l-6.6-3.8c-0.5-0.3-0.7-1-0.4-1.6l3.8-6.6c0.3-0.5,1-0.7,1.6-0.4l6.6,3.8c0.5,0.3,0.7,1,0.4,1.6
		l-3.8,6.6C242.6,355.3,241.8,355.5,241.3,355.2z"/>
	<path class="st22" d="M287.8,360.1l-6.2-4.4c-0.5-0.4-0.6-1.1-0.3-1.6l4.4-6.2c0.4-0.5,1.1-0.6,1.6-0.3l6.2,4.4
		c0.5,0.4,0.6,1.1,0.3,1.6l-4.4,6.2C289.1,360.4,288.3,360.5,287.8,360.1z"/>
	<path class="st23" d="M365.1,735.9l-6.2-4.4c-0.5-0.4-0.6-1.1-0.3-1.6l4.4-6.2c0.4-0.5,1.1-0.6,1.6-0.3l6.2,4.4
		c0.5,0.4,0.6,1.1,0.3,1.6l-4.4,6.2C366.3,736.2,365.6,736.3,365.1,735.9z"/>
	<path class="st22" d="M387.6,362.4l-6.9-3.1c-0.6-0.3-0.8-0.9-0.6-1.5l3.1-6.9c0.3-0.6,0.9-0.8,1.5-0.6l6.9,3.1
		c0.6,0.3,0.8,0.9,0.6,1.5l-3.1,6.9C388.8,362.4,388.2,362.7,387.6,362.4z"/>
	<path class="st23" d="M405.5,370l-6-4.6c-0.5-0.4-0.6-1.1-0.2-1.6l4.6-6c0.4-0.5,1.1-0.6,1.6-0.2l6,4.6c0.5,0.4,0.6,1.1,0.2,1.6
		l-4.6,6C406.7,370.3,406,370.4,405.5,370z"/>
	<path class="st22" d="M413.5,391.6H406c-0.6,0-1.1-0.5-1.1-1.1v-7.6c0-0.6,0.5-1.1,1.1-1.1h7.6c0.6,0,1.1,0.5,1.1,1.1v7.6
		C414.7,391,414.2,391.6,413.5,391.6z"/>
	<path class="st22" d="M391.8,381.6h-7.6c-0.6,0-1.1-0.5-1.1-1.1v-7.6c0-0.6,0.5-1.1,1.1-1.1h7.6c0.6,0,1.1,0.5,1.1,1.1v7.6
		C392.9,381.1,392.4,381.6,391.8,381.6z"/>
	<path class="st22" d="M398.3,399.8h-7.6c-0.6,0-1.1-0.5-1.1-1.1v-7.6c0-0.6,0.5-1.1,1.1-1.1h7.6c0.6,0,1.1,0.5,1.1,1.1v7.6
		C399.5,399.3,399,399.8,398.3,399.8z"/>
	<path class="st22" d="M475.2,326.7h-7.6c-0.6,0-1.1-0.5-1.1-1.1V318c0-0.6,0.5-1.1,1.1-1.1h7.6c0.6,0,1.1,0.5,1.1,1.1v7.6
		C476.3,326.2,475.8,326.7,475.2,326.7z"/>
	<path class="st22" d="M548.8,324.5h-7.6c-0.6,0-1.1-0.5-1.1-1.1v-7.6c0-0.6,0.5-1.1,1.1-1.1h7.6c0.6,0,1.1,0.5,1.1,1.1v7.6
		C550,323.9,549.5,324.5,548.8,324.5z"/>
	<path class="st23" d="M534.7,352h-7.6c-0.6,0-1.1-0.5-1.1-1.1v-7.6c0-0.6,0.5-1.1,1.1-1.1h7.6c0.6,0,1.1,0.5,1.1,1.1v7.6
		C535.8,351.5,535.3,352,534.7,352z"/>
	<path class="st22" d="M494.5,346.6h-7.6c-0.6,0-1.1-0.5-1.1-1.1v-7.6c0-0.6,0.5-1.1,1.1-1.1h7.6c0.6,0,1.1,0.5,1.1,1.1v7.6
		C495.6,346.1,495.1,346.6,494.5,346.6z"/>
	<path class="st22" d="M512.9,323.6l-7.4,1.6c-0.6,0.1-1.2-0.3-1.4-0.9l-1.6-7.4c-0.1-0.6,0.3-1.2,0.9-1.4l7.4-1.6
		c0.6-0.1,1.2,0.3,1.4,0.9l1.6,7.4C514,322.8,513.6,323.4,512.9,323.6z"/>
	<path class="st22" d="M513.1,376.9h-7.6c-0.6,0-1.1-0.5-1.1-1.1v-7.6c0-0.6,0.5-1.1,1.1-1.1h7.6c0.6,0,1.1,0.5,1.1,1.1v7.6
		C514.3,376.4,513.8,376.9,513.1,376.9z"/>
	<path class="st22" d="M154.9,315.7h-7.6c-0.6,0-1.1-0.5-1.1-1.1V307c0-0.6,0.5-1.1,1.1-1.1h7.6c0.6,0,1.1,0.5,1.1,1.1v7.6
		C156.1,315.2,155.6,315.7,154.9,315.7z"/>
	<path class="st22" d="M183.5,328.7h-7.6c-0.6,0-1.1-0.5-1.1-1.1v-7.6c0-0.6,0.5-1.1,1.1-1.1h7.6c0.6,0,1.1,0.5,1.1,1.1v7.6
		C184.6,328.1,184.1,328.7,183.5,328.7z"/>
	<path class="st22" d="M192.7,357.9l-7.4,1.6c-0.6,0.1-1.2-0.3-1.4-0.9l-1.6-7.4c-0.1-0.6,0.3-1.2,0.9-1.4l7.4-1.6
		c0.6-0.1,1.2,0.3,1.4,0.9l1.6,7.4C193.7,357.2,193.3,357.8,192.7,357.9z"/>
	<path class="st22" d="M120.5,320.7H113c-0.6,0-1.1-0.5-1.1-1.1V312c0-0.6,0.5-1.1,1.1-1.1h7.6c0.6,0,1.1,0.5,1.1,1.1v7.6
		C121.7,320.2,121.2,320.7,120.5,320.7z"/>
	<path class="st23" d="M146,337l-4.1-6.3c-0.3-0.5-0.2-1.2,0.3-1.6l6.3-4.1c0.5-0.3,1.2-0.2,1.6,0.3l4.1,6.3
		c0.3,0.5,0.2,1.2-0.3,1.6l-6.3,4.1C147,337.6,146.3,337.5,146,337z"/>
	<path class="st22" d="M269.3,374.9l-7,2.9c-0.6,0.2-1.3,0-1.5-0.6l-2.9-7c-0.2-0.6,0-1.3,0.6-1.5l7-2.9c0.6-0.2,1.3,0,1.5,0.6
		l2.9,7C270.1,373.9,269.8,374.6,269.3,374.9z"/>
	<path class="st22" d="M340.6,556.3l-6.9-3.1c-0.6-0.3-0.8-0.9-0.6-1.5l3.1-6.9c0.3-0.6,0.9-0.8,1.5-0.6l6.9,3.1
		c0.6,0.3,0.8,0.9,0.6,1.5l-3.1,6.9C341.9,556.3,341.2,556.5,340.6,556.3z"/>
	<path class="st22" d="M327.8,539.7h-7.6c-0.6,0-1.1-0.5-1.1-1.1V531c0-0.6,0.5-1.1,1.1-1.1h7.6c0.6,0,1.1,0.5,1.1,1.1v7.6
		C329,539.2,328.5,539.7,327.8,539.7z"/>
	<path class="st22" d="M383.5,555.1h-7.6c-0.6,0-1.1-0.5-1.1-1.1v-7.6c0-0.6,0.5-1.1,1.1-1.1h7.6c0.6,0,1.1,0.5,1.1,1.1v7.6
		C384.7,554.6,384.2,555.1,383.5,555.1z"/>
	<path class="st22" d="M310.5,457.9h-7.6c-0.6,0-1.1-0.5-1.1-1.1v-7.6c0-0.6,0.5-1.1,1.1-1.1h7.6c0.6,0,1.1,0.5,1.1,1.1v7.6
		C311.6,457.4,311.1,457.9,310.5,457.9z"/>
	<path class="st22" d="M357.2,354.7l-6.8,3.4c-0.6,0.3-1.3,0.1-1.5-0.5l-3.4-6.8c-0.3-0.6-0.1-1.3,0.5-1.5l6.8-3.4
		c0.6-0.3,1.3-0.1,1.5,0.5l3.4,6.8C358,353.7,357.7,354.4,357.2,354.7z"/>
	<circle class="st24" cx="372.1" cy="727.8" r="2.8"/>
	<polyline class="st25" points="370.8,727.9 371.8,729 373.3,727.1 	"/>
</g>
<g id="funnel">
	<g id="cog_1_">
		<path class="st6" d="M378.3,395.2h-5.6c-0.8-3.4-2.2-6.7-4-9.7l3.9-3.9c0.6-0.6,0.6-1.6,0-2.2l-9.4-9.4c-0.6-0.6-1.6-0.6-2.3,0
			l-3.9,3.9c-3-1.8-6.3-3.2-9.7-4v-5.6c0-0.9-0.7-1.6-1.6-1.6h-13.3c-0.9,0-1.6,0.7-1.6,1.6v5.6c-3.4,0.8-6.7,2.2-9.7,4l-3.9-3.9
			c-0.6-0.6-1.6-0.6-2.2,0l-9.4,9.4c-0.6,0.6-0.6,1.6,0,2.2l3.9,3.9c-1.8,3-3.2,6.3-4,9.7h-5.6c-0.9,0-1.6,0.7-1.6,1.6V410
			c0,0.9,0.7,1.6,1.6,1.6h5.6c0.8,3.4,2.2,6.7,4,9.7l-3.9,3.9c-0.3,0.3-0.5,0.7-0.5,1.1c0,0.4,0.2,0.8,0.5,1.1l9.4,9.4
			c0.6,0.6,1.6,0.6,2.2,0l3.9-3.9c3,1.8,6.3,3.2,9.7,4v5.6c0,0.9,0.7,1.6,1.6,1.6h13.3c0.9,0,1.6-0.7,1.6-1.6v-5.6
			c3.4-0.8,6.7-2.2,9.7-4l3.9,3.9c0.6,0.6,1.6,0.6,2.2,0l9.4-9.4c0.6-0.6,0.6-1.6,0-2.2l-3.9-3.9c1.8-3,3.2-6.3,4-9.7h5.6
			c0.9,0,1.6-0.7,1.6-1.6v-13.3C379.9,395.9,379.2,395.2,378.3,395.2z M376.7,408.4h-5.3c-0.8,0-1.4,0.5-1.6,1.3
			c-0.8,3.9-2.3,7.6-4.5,10.9c-0.4,0.6-0.3,1.5,0.2,2l3.7,3.7l-7.1,7.1l-3.7-3.7c-0.5-0.5-1.4-0.6-2-0.2c-3.3,2.2-7,3.7-10.9,4.5
			c-0.7,0.2-1.3,0.8-1.3,1.6v5.3h-10.1v-5.3c0-0.8-0.5-1.4-1.3-1.6c-3.9-0.8-7.6-2.3-10.9-4.5c-0.6-0.4-1.5-0.3-2,0.2l-3.7,3.7
			l-7.1-7.1l3.7-3.7c0.5-0.5,0.6-1.4,0.2-2c-2.2-3.3-3.7-7-4.5-10.9c-0.2-0.7-0.8-1.3-1.6-1.3h-5.3v-10.1h5.3c0.8,0,1.4-0.5,1.6-1.3
			c0.8-3.9,2.3-7.6,4.5-10.9c0.4-0.6,0.3-1.5-0.2-2l-3.7-3.7l7.1-7.1l3.7,3.7c0.5,0.5,1.4,0.6,2,0.2c3.3-2.2,7-3.7,10.9-4.5
			c0.7-0.2,1.3-0.8,1.3-1.6v-5.3h10.1v5.3c0,0.8,0.5,1.4,1.3,1.6c3.9,0.8,7.6,2.3,10.9,4.5c0.6,0.4,1.5,0.3,2-0.2l3.7-3.7l7.1,7.1
			l-3.7,3.7c-0.5,0.5-0.6,1.4-0.2,2c2.2,3.3,3.7,7,4.5,10.9c0.2,0.7,0.8,1.3,1.6,1.3h5.3V408.4z"/>
		<path class="st3" d="M324.2,403.4c0-8.3,6.7-15,15-15c1.9,0,3.8,0.4,5.6,1.1c0.8,0.3,1.7-0.1,2.1-0.9c0.3-0.8-0.1-1.7-0.9-2.1
			c-2.2-0.9-4.5-1.3-6.8-1.3c-10,0-18.2,8.1-18.2,18.2c0,2.3,0.4,4.5,1.2,6.6c0.2,0.6,0.8,1,1.5,1c0.2,0,0.4,0,0.6-0.1
			c0.8-0.3,1.2-1.2,0.9-2.1C324.6,407.1,324.2,405.3,324.2,403.4z"/>
		<path class="st6" d="M353.7,395.3c-0.8,0.4-1.2,1.3-0.8,2.1c0.8,1.9,1.3,3.9,1.3,6c0,8.3-6.7,15-15,15c-2.2,0-4.3-0.5-6.2-1.3
			c-0.8-0.4-1.7,0-2.1,0.8c-0.4,0.8,0,1.7,0.8,2.1c2.4,1.1,4.9,1.6,7.5,1.6c10,0,18.2-8.1,18.2-18.2c0-2.5-0.5-5-1.5-7.3
			C355.5,395.3,354.5,394.9,353.7,395.3z"/>
		<path class="st3" d="M327.2,413.2c-0.9,0-1.6,0.7-1.6,1.6c0,0.9,0.7,1.6,1.6,1.6c0.9,0,1.6-0.7,1.6-1.6
			C328.7,413.9,328,413.2,327.2,413.2z"/>
		<path class="st6" d="M350.8,393.1c0.9,0,1.6-0.7,1.6-1.6s-0.7-1.6-1.6-1.6s-1.6,0.7-1.6,1.6S349.9,393.1,350.8,393.1z"/>
	</g>
	<g id="cog">
		<path class="st6" d="M448.4,429.1l-5.5,0.8c-1.3-3.3-3.2-6.3-5.4-9l3.3-4.5c0.5-0.7,0.4-1.7-0.3-2.2l-10.7-7.9
			c-0.7-0.5-1.7-0.4-2.2,0.3l-3.3,4.5c-3.3-1.4-6.7-2.2-10.2-2.5l-0.8-5.5c-0.1-0.9-0.9-1.5-1.8-1.3l-13.1,2
			c-0.9,0.1-1.5,0.9-1.3,1.8l0.8,5.5c-3.3,1.3-6.3,3.2-9,5.4l-4.5-3.3c-0.7-0.5-1.7-0.4-2.2,0.3l-7.9,10.7c-0.5,0.7-0.4,1.7,0.3,2.2
			l4.5,3.3c-1.4,3.3-2.2,6.7-2.5,10.2l-5.5,0.8c-0.9,0.1-1.5,0.9-1.3,1.8l2,13.1c0.1,0.9,0.9,1.5,1.8,1.3l5.5-0.8
			c1.3,3.3,3.2,6.3,5.4,9l-3.3,4.5c-0.2,0.3-0.4,0.8-0.3,1.2s0.3,0.8,0.6,1l10.7,7.9c0.7,0.5,1.7,0.4,2.2-0.3l3.3-4.5
			c3.3,1.4,6.7,2.2,10.2,2.5l0.8,5.5c0.1,0.9,0.9,1.5,1.8,1.3l13.1-2c0.9-0.1,1.5-0.9,1.3-1.8l-0.8-5.5c3.3-1.3,6.3-3.2,9-5.4
			l4.5,3.3c0.7,0.5,1.7,0.4,2.2-0.3l7.9-10.7c0.5-0.7,0.4-1.7-0.3-2.2l-4.5-3.3c1.4-3.3,2.2-6.7,2.5-10.2l5.5-0.8
			c0.9-0.1,1.5-0.9,1.3-1.8l-2-13.1C450.1,429.5,449.2,428.9,448.4,429.1z M448.8,442.4l-5.2,0.8c-0.8,0.1-1.3,0.8-1.4,1.5
			c-0.2,4-1.2,7.8-2.8,11.4c-0.3,0.7-0.1,1.5,0.5,2l4.2,3.1l-6,8.1l-4.2-3.1c-0.6-0.5-1.5-0.4-2,0.1c-3,2.7-6.4,4.7-10.1,6.1
			c-0.7,0.3-1.2,1-1.1,1.7l0.8,5.2l-10,1.5l-0.8-5.2c-0.1-0.8-0.8-1.3-1.5-1.4c-4-0.2-7.8-1.2-11.4-2.8c-0.7-0.3-1.5-0.1-2,0.5
			l-3.1,4.2l-8.1-6l3.1-4.2c0.5-0.6,0.4-1.5-0.1-2c-2.7-3-4.7-6.4-6.1-10.1c-0.3-0.7-1-1.2-1.7-1.1l-5.2,0.8l-1.5-10l5.2-0.8
			c0.8-0.1,1.3-0.8,1.4-1.5c0.2-4,1.2-7.8,2.8-11.4c0.3-0.7,0.1-1.5-0.5-2l-4.2-3.1l6-8.1l4.2,3.1c0.6,0.5,1.5,0.4,2-0.1
			c3-2.7,6.4-4.7,10.1-6.1c0.7-0.3,1.2-1,1.1-1.7l-0.8-5.2l10-1.5l0.8,5.2c0.1,0.8,0.8,1.3,1.5,1.4c4,0.2,7.8,1.2,11.4,2.8
			c0.7,0.3,1.5,0.1,2-0.5l3.1-4.2l8.1,6l-3.1,4.2c-0.5,0.6-0.4,1.5,0.1,2c2.7,3,4.7,6.4,6.1,10.1c0.3,0.7,1,1.2,1.7,1.1l5.2-0.8
			L448.8,442.4z"/>
		<path class="st6" d="M396,443.7c-0.3-7,4.5-13.4,11.3-15.1c2.4-0.6,4.8-0.6,7.1-0.1c0.9,0.2,1.7-0.3,1.9-1.2
			c0.2-0.9-0.3-1.7-1.2-1.9c-2.8-0.7-5.8-0.7-8.7,0.1c-8.2,2-14.1,9.8-13.7,18.3c0.1,3,0.9,5.8,2.4,8.4c0.3,0.6,1,0.9,1.6,0.8
			c0.2,0,0.4-0.1,0.6-0.2c0.8-0.4,1-1.4,0.6-2.2C396.7,448.5,396.1,446.2,396,443.7z"/>
		<path class="st3" d="M424.1,432.9c-0.7,0.5-1,1.5-0.5,2.2c1.1,1.8,1.9,3.8,2.2,5.9c1.1,8-4.6,15.7-12.6,16.9
			c-2.1,0.3-4.3,0.2-6.3-0.4c-0.8-0.2-1.7,0.3-2,1.1c-0.2,0.8,0.3,1.7,1.1,2c2.6,0.7,5.3,0.9,7.9,0.4c9.5-1.6,16.2-10.6,15.1-20.1
			c-0.3-2.7-1.2-5.2-2.7-7.5C425.8,432.7,424.8,432.4,424.1,432.9z"/>
		<path class="st6" d="M400.5,454.6c-0.9,0.1-1.5,0.9-1.3,1.8c0.1,0.9,0.9,1.5,1.8,1.3c0.9-0.1,1.5-0.9,1.3-1.8
			C402.2,455.1,401.4,454.5,400.5,454.6z"/>
		<path class="st3" d="M420.8,431.2c0.9-0.1,1.5-0.9,1.3-1.8c-0.1-0.9-0.9-1.5-1.8-1.3c-0.9,0.1-1.5,0.9-1.3,1.8
			C419.1,430.7,419.9,431.3,420.8,431.2z"/>
	</g>
	<g id="cog_2_">
		<path class="st6" d="M374.8,461.7l-5.1,2.2c-2.1-2.8-4.7-5.2-7.5-7.3l2-5.2c0.3-0.8-0.1-1.7-0.9-2.1l-12.3-4.9
			c-0.8-0.3-1.7,0.1-2.1,0.9l-2,5.2c-3.5-0.5-7-0.4-10.5,0.2l-2.2-5.1c-0.4-0.8-1.3-1.2-2.1-0.8l-12.2,5.3c-0.8,0.4-1.2,1.3-0.8,2.1
			l2.2,5.1c-2.8,2.1-5.2,4.7-7.3,7.5l-5.2-2c-0.8-0.3-1.7,0.1-2.1,0.9l-4.9,12.3c-0.3,0.8,0.1,1.7,0.9,2.1l5.2,2
			c-0.5,3.5-0.4,7,0.2,10.5l-5.1,2.2c-0.8,0.4-1.2,1.3-0.8,2.1l5.3,12.2c0.4,0.8,1.3,1.2,2.1,0.8l5.1-2.2c2.1,2.8,4.7,5.2,7.5,7.3
			l-2,5.2c-0.2,0.4-0.1,0.8,0,1.2c0.2,0.4,0.5,0.7,0.9,0.8l12.3,4.9c0.8,0.3,1.7-0.1,2.1-0.9l2-5.2c3.5,0.5,7,0.4,10.5-0.2l2.2,5.1
			c0.4,0.8,1.3,1.2,2.1,0.8l12.2-5.3c0.8-0.4,1.2-1.3,0.8-2.1l-2.2-5.1c2.8-2.1,5.2-4.7,7.3-7.5l5.2,2c0.8,0.3,1.7-0.1,2.1-0.9
			l4.9-12.3c0.3-0.8-0.1-1.7-0.9-2.1l-5.2-2c0.5-3.5,0.4-7-0.2-10.5l5.1-2.2c0.8-0.4,1.2-1.3,0.8-2.1l-5.3-12.2
			C376.6,461.7,375.6,461.3,374.8,461.7z M378.6,474.5l-4.8,2.1c-0.7,0.3-1.1,1.1-0.9,1.8c0.8,3.9,0.9,7.9,0.2,11.8
			c-0.1,0.8,0.3,1.5,1,1.8l4.9,1.9l-3.7,9.4l-4.9-1.9c-0.7-0.3-1.5,0-1.9,0.6c-2.2,3.3-4.9,6.2-8.2,8.5c-0.6,0.4-0.9,1.3-0.6,2
			l2.1,4.8l-9.2,4l-2.1-4.8c-0.3-0.7-1.1-1.1-1.8-0.9c-3.9,0.8-7.9,0.9-11.8,0.2c-0.8-0.1-1.5,0.3-1.8,1l-1.9,4.9l-9.4-3.7l1.9-4.9
			c0.3-0.7,0-1.5-0.6-1.9c-3.3-2.2-6.2-4.9-8.5-8.2c-0.4-0.6-1.3-0.9-2-0.6l-4.8,2.1l-4-9.2l4.8-2.1c0.7-0.3,1.1-1.1,0.9-1.8
			c-0.8-3.9-0.9-7.9-0.2-11.8c0.1-0.8-0.3-1.5-1-1.8l-4.9-1.9l3.7-9.4l4.9,1.9c0.7,0.3,1.5,0,1.9-0.6c2.2-3.3,4.9-6.2,8.2-8.5
			c0.6-0.4,0.9-1.3,0.6-2l-2.1-4.8l9.2-4l2.1,4.8c0.3,0.7,1.1,1.1,1.8,0.9c3.9-0.8,7.9-0.9,11.8-0.2c0.8,0.1,1.5-0.3,1.8-1l1.9-4.9
			l9.4,3.7l-1.9,4.9c-0.3,0.7,0,1.5,0.6,1.9c3.3,2.2,6.2,4.9,8.5,8.2c0.4,0.6,1.3,0.9,2,0.6l4.8-2.1L378.6,474.5z"/>
		<path class="st6" d="M327.9,489.2c-2.1-6.7,0.9-14.1,7.1-17.5c2.2-1.2,4.5-1.8,6.9-1.9c0.9,0,1.6-0.8,1.6-1.6
			c0-0.9-0.8-1.6-1.6-1.6c-2.9,0.1-5.7,0.8-8.4,2.3c-7.4,4.1-11.1,13.1-8.6,21.2c0.9,2.9,2.4,5.4,4.5,7.5c0.5,0.5,1.2,0.6,1.8,0.3
			c0.2-0.1,0.3-0.2,0.5-0.3c0.6-0.6,0.6-1.6,0-2.2C329.9,493.7,328.6,491.6,327.9,489.2z"/>
		<path class="st3" d="M352.3,471.6c-0.6,0.6-0.6,1.7,0.1,2.2c1.6,1.4,2.8,3.2,3.6,5.2c3.1,7.5-0.4,16.3-7.9,19.6
			c-2,0.9-4.1,1.3-6.2,1.2c-0.9,0-1.6,0.7-1.6,1.6s0.7,1.6,1.6,1.6c2.7,0,5.3-0.5,7.8-1.6c8.8-3.9,13-14.4,9.4-23.3
			c-1-2.5-2.5-4.7-4.5-6.6C353.9,470.9,352.9,471,352.3,471.6z"/>
		<path class="st6" d="M335,498.6c-0.8,0.3-1.2,1.3-0.8,2.1c0.3,0.8,1.3,1.2,2.1,0.8c0.8-0.3,1.2-1.3,0.8-2.1
			C336.8,498.6,335.9,498.3,335,498.6z"/>
		<path class="st6" d="M348.7,470.8c0.8-0.3,1.2-1.3,0.8-2.1c-0.3-0.8-1.3-1.2-2.1-0.8c-0.8,0.3-1.2,1.3-0.8,2.1
			C347,470.8,347.9,471.2,348.7,470.8z"/>
	</g>
	<g>
		<circle class="st3" cx="403.7" cy="595.7" r="1.2"/>
	</g>
	<g>
		<path class="st6" d="M351.9,707.1c-0.7,0-1.2-0.6-1.2-1.2V648l-51.2-64h-2.7c-7.1,0-12.9-5.8-12.9-12.9v-7.8
			c0-0.7,0.6-1.2,1.2-1.2h159.5c0.7,0,1.2,0.6,1.2,1.2v6.5c0,7.8-6.4,14.2-14.2,14.2h-1.3l-51.2,64v38.5c-0.1,1.2-3.3,8.4-9.8,13.6
			c-4.3,3.5-9.5,5.8-14.9,6.7l-2.2,0.4C352,707.1,351.9,707.1,351.9,707.1z M353.1,704.5l2.4-0.6c4.4-1,8.6-3,12.1-5.8
			c3.8-3.1,6.8-7,8.7-11.5l0.2-0.4v-37.4h-23.5V704.5z M352.5,646.3h24.7l49.9-62.4H302.6L352.5,646.3z M286.3,571.1
			c0,5.7,4.7,10.4,10.4,10.4h134.9c6.5,0,11.7-5.3,11.7-11.7v-5.2h-157V571.1z"/>
	</g>
	<g>
		<path class="st3" d="M371.6,635.8c-0.2,0-0.5,0-0.8-0.3c-0.5-0.4-0.6-1.2-0.2-1.7l23.5-29.3c0.2-0.3,0.6-0.5,1-0.5
			c0.2,0,0.5,0,0.8,0.3c0.3,0.2,0.4,0.5,0.5,0.8c0,0.3-0.1,0.7-0.3,0.9l-23.5,29.3C372.3,635.6,372,635.8,371.6,635.8L371.6,635.8z"
			/>
	</g>
</g>
<g id="cards">
	<g id="puzzle_1_">
		<g id="XMLID_29_">
			<rect id="XMLID_41_" x="588.7" y="108.6" class="st26" width="128.2" height="159.8"/>
			<path id="XMLID_40_" class="st26" d="M603,230.4v17.5c0,1,1.1,1.6,1.9,1l12.7-8.8c0.7-0.5,0.7-1.5,0-2l-12.7-8.7
				C604.1,228.9,603,229.4,603,230.4z"/>
			<path id="XMLID_39_" class="st26" d="M645.3,200H604c-0.7,0-1.3-0.6-1.3-1.3v-35.1c0-0.7,0.6-1.3,1.3-1.3h41.3
				c0.7,0,1.3,0.6,1.3,1.3v35.1C646.5,199.4,646,200,645.3,200z"/>
			<path id="XMLID_38_" class="st26" d="M684.9,144.2h-47.7c-2.2,0-4-1.8-4-4l0,0c0-2.2,1.8-4,4-4h47.7c2.2,0,4,1.8,4,4l0,0
				C688.9,142.4,687.1,144.2,684.9,144.2z"/>
			<path id="XMLID_37_" class="st26" d="M669.2,133.5h-32c-2.2,0-4-1.8-4-4l0,0c0-2.2,1.8-4,4-4h32c2.2,0,4,1.8,4,4l0,0
				C673.2,131.7,671.4,133.5,669.2,133.5z"/>
			<path id="XMLID_36_" class="st26" d="M619.1,144.2L619.1,144.2c-5.3,0-9.7-4.4-9.7-9.7l0,0c0-5.3,4.4-9.7,9.7-9.7l0,0
				c5.3,0,9.7,4.4,9.7,9.7l0,0C628.8,139.8,624.5,144.2,619.1,144.2z"/>
			<line id="XMLID_35_" class="st27" x1="630.8" y1="239.1" x2="699.5" y2="239.1"/>
			<circle id="XMLID_34_" class="st26" cx="650.4" cy="239.1" r="3.9"/>
			<path id="XMLID_33_" class="st26" d="M698.4,188h-41.6c-2.2,0-4-1.8-4-4l0,0c0-2.2,1.8-4,4-4h41.6c2.2,0,4,1.8,4,4l0,0
				C702.5,186.2,700.6,188,698.4,188z"/>
			<path id="XMLID_32_" class="st26" d="M698.4,200h-41.6c-2.2,0-4-1.8-4-4l0,0c0-2.2,1.8-4,4-4h41.6c2.2,0,4,1.8,4,4l0,0
				C702.5,198.2,700.6,200,698.4,200z"/>
			<path id="XMLID_31_" class="st26" d="M698.4,212.5h-90.3c-2.2,0-4-1.8-4-4l0,0c0-2.2,1.8-4,4-4h90.3c2.2,0,4,1.8,4,4l0,0
				C702.5,210.7,700.6,212.5,698.4,212.5z"/>
		</g>
		<g id="XMLID_7_">
			<rect id="XMLID_28_" x="588.7" y="108.6" class="st28" width="128.2" height="159.8"/>
			<path id="XMLID_23_" class="st26" d="M603,230.4v17.5c0,1,1.1,1.6,1.9,1l12.7-8.8c0.7-0.5,0.7-1.5,0-2l-12.7-8.7
				C604.1,228.9,603,229.4,603,230.4z"/>
			<path id="XMLID_22_" class="st29" d="M645.3,200H604c-0.7,0-1.3-0.6-1.3-1.3v-35.1c0-0.7,0.6-1.3,1.3-1.3h41.3
				c0.7,0,1.3,0.6,1.3,1.3v35.1C646.5,199.4,646,200,645.3,200z"/>
			<path id="XMLID_15_" class="st30" d="M684.9,144.2h-47.7c-2.2,0-4-1.8-4-4l0,0c0-2.2,1.8-4,4-4h47.7c2.2,0,4,1.8,4,4l0,0
				C688.9,142.4,687.1,144.2,684.9,144.2z"/>
			<path id="XMLID_14_" class="st31" d="M669.2,133.5h-32c-2.2,0-4-1.8-4-4l0,0c0-2.2,1.8-4,4-4h32c2.2,0,4,1.8,4,4l0,0
				C673.2,131.7,671.4,133.5,669.2,133.5z"/>
			<path id="XMLID_13_" class="st31" d="M619.1,144.2L619.1,144.2c-5.3,0-9.7-4.4-9.7-9.7l0,0c0-5.3,4.4-9.7,9.7-9.7l0,0
				c5.3,0,9.7,4.4,9.7,9.7l0,0C628.8,139.8,624.5,144.2,619.1,144.2z"/>
			<line id="XMLID_12_" class="st32" x1="630.8" y1="239.1" x2="699.5" y2="239.1"/>
			<circle id="XMLID_11_" class="st26" cx="650.4" cy="239.1" r="3.9"/>
			<path id="XMLID_10_" class="st30" d="M698.4,188h-41.6c-2.2,0-4-1.8-4-4l0,0c0-2.2,1.8-4,4-4h41.6c2.2,0,4,1.8,4,4l0,0
				C702.5,186.2,700.6,188,698.4,188z"/>
			<path id="XMLID_9_" class="st30" d="M698.4,200h-41.6c-2.2,0-4-1.8-4-4l0,0c0-2.2,1.8-4,4-4h41.6c2.2,0,4,1.8,4,4l0,0
				C702.5,198.2,700.6,200,698.4,200z"/>
			<path id="XMLID_8_" class="st30" d="M698.4,212.5h-90.3c-2.2,0-4-1.8-4-4l0,0c0-2.2,1.8-4,4-4h90.3c2.2,0,4,1.8,4,4l0,0
				C702.5,210.7,700.6,212.5,698.4,212.5z"/>
		</g>
	</g>
	<g id="videoCard2_1_">
		<rect id="XMLID_6_" x="89.2" y="129.3" class="st28" width="128.2" height="159.8"/>
		<path id="XMLID_5_" class="st31" d="M119.6,164.8L119.6,164.8c-5.3,0-9.7-4.4-9.7-9.7l0,0c0-5.3,4.4-9.7,9.7-9.7l0,0
			c5.3,0,9.7,4.4,9.7,9.7l0,0C129.3,160.5,124.9,164.8,119.6,164.8z"/>
		<path id="XMLID_4_" class="st31" d="M169.7,154.1h-32c-2.2,0-4-1.8-4-4l0,0c0-2.2,1.8-4,4-4h32c2.2,0,4,1.8,4,4l0,0
			C173.7,152.3,171.9,154.1,169.7,154.1z"/>
		<path id="XMLID_3_" class="st30" d="M185.4,164.8h-47.7c-2.2,0-4-1.8-4-4l0,0c0-2.2,1.8-4,4-4h47.7c2.2,0,4,1.8,4,4l0,0
			C189.4,163,187.6,164.8,185.4,164.8z"/>
		<rect id="XMLID_2_" x="89.2" y="183" class="st29" width="128.2" height="73.5"/>
		<path id="XMLID_1_" class="st8" d="M143.4,211.1v17.5c0,1,1.1,1.6,1.9,1l12.7-8.8c0.7-0.5,0.7-1.5,0-2l-12.7-8.7
			C144.5,209.5,143.4,210.1,143.4,211.1z"/>
	</g>
	<g id="quizcard">
		<rect id="XMLID_129_" x="496.9" y="126.8" class="st28" width="128.2" height="159.8"/>
		<path id="XMLID_128_" class="st30" d="M609.4,188.5h-93.9c-2.2,0-4-1.8-4-4l0,0c0-2.2,1.8-4,4-4h93.9c2.2,0,4,1.8,4,4l0,0
			C613.4,186.6,611.6,188.5,609.4,188.5z"/>
		<path id="XMLID_127_" class="st30" d="M556,221.1h-21.1c-2.2,0-4-1.8-4-4l0,0c0-2.2,1.8-4,4-4H556c2.2,0,4,1.8,4,4l0,0
			C560,219.3,558.2,221.1,556,221.1z"/>
		<path id="XMLID_126_" class="st30" d="M611.2,220.8h-19.7c-2.2,0-4-1.8-4-4l0,0c0-2.2,1.8-4,4-4h19.7c2.2,0,4,1.8,4,4l0,0
			C615.2,219,613.4,220.8,611.2,220.8z"/>
		<path id="XMLID_125_" class="st31" d="M527.3,162.4L527.3,162.4c-5.3,0-9.7-4.4-9.7-9.7l0,0c0-5.3,4.4-9.7,9.7-9.7l0,0
			c5.3,0,9.7,4.4,9.7,9.7l0,0C537,158,532.6,162.4,527.3,162.4z"/>
		<path id="XMLID_124_" class="st31" d="M577.4,151.7h-32c-2.2,0-4-1.8-4-4l0,0c0-2.2,1.8-4,4-4h32c2.2,0,4,1.8,4,4l0,0
			C581.4,149.9,579.6,151.7,577.4,151.7z"/>
		<path id="XMLID_123_" class="st30" d="M593.1,162.4h-47.7c-2.2,0-4-1.8-4-4l0,0c0-2.2,1.8-4,4-4h47.7c2.2,0,4,1.8,4,4l0,0
			C597.1,160.6,595.3,162.4,593.1,162.4z"/>
		<path id="XMLID_122_" class="st33" d="M579.4,223.6H569c-0.7,0-1.3-0.6-1.3-1.3v-10.4c0-0.7,0.6-1.3,1.3-1.3h10.4
			c0.7,0,1.3,0.6,1.3,1.3v10.4C580.7,223,580.1,223.6,579.4,223.6z"/>
		<path id="XMLID_115_" class="st33" d="M522.8,223.2h-10.4c-0.7,0-1.3-0.6-1.3-1.3v-10.4c0-0.7,0.6-1.3,1.3-1.3h10.4
			c0.7,0,1.3,0.6,1.3,1.3v10.4C524.1,222.6,523.5,223.2,522.8,223.2z"/>
		<path id="XMLID_114_" class="st31" d="M556.2,259.4h-21.1c-2.2,0-4-1.8-4-4l0,0c0-2.2,1.8-4,4-4h21.1c2.2,0,4,1.8,4,4l0,0
			C560.3,257.6,558.5,259.4,556.2,259.4z"/>
		<path id="XMLID_113_" class="st30" d="M611.4,259h-19.7c-2.2,0-4-1.8-4-4l0,0c0-2.2,1.8-4,4-4h19.7c2.2,0,4,1.8,4,4l0,0
			C615.5,257.2,613.7,259,611.4,259z"/>
		<path id="XMLID_112_" class="st33" d="M579.7,261.8h-10.4c-0.7,0-1.3-0.6-1.3-1.3v-10.4c0-0.7,0.6-1.3,1.3-1.3h10.4
			c0.7,0,1.3,0.6,1.3,1.3v10.4C580.9,261.2,580.4,261.8,579.7,261.8z"/>
		<path id="XMLID_111_" class="st31" d="M523.1,261.4h-10.4c-0.7,0-1.3-0.6-1.3-1.3v-10.4c0-0.7,0.6-1.3,1.3-1.3h10.4
			c0.7,0,1.3,0.6,1.3,1.3v10.4C524.4,260.8,523.8,261.4,523.1,261.4z"/>
	</g>
	<g id="podcastcard">
		<g id="XMLID_156_">
			<rect id="XMLID_167_" x="181.5" y="153" class="st26" width="128.2" height="159.8"/>
			<path id="XMLID_166_" class="st26" d="M195.8,274.8v17.5c0,1,1.1,1.6,1.9,1l12.7-8.8c0.7-0.5,0.7-1.5,0-2l-12.7-8.7
				C196.9,273.3,195.8,273.8,195.8,274.8z"/>
			<path id="XMLID_165_" class="st26" d="M238.1,244.4h-41.3c-0.7,0-1.3-0.6-1.3-1.3V208c0-0.7,0.6-1.3,1.3-1.3h41.3
				c0.7,0,1.3,0.6,1.3,1.3v35.1C239.3,243.8,238.8,244.4,238.1,244.4z"/>
			<path id="XMLID_164_" class="st26" d="M277.7,188.6H230c-2.2,0-4-1.8-4-4l0,0c0-2.2,1.8-4,4-4h47.7c2.2,0,4,1.8,4,4l0,0
				C281.7,186.8,279.9,188.6,277.7,188.6z"/>
			<path id="XMLID_163_" class="st26" d="M262,177.9h-32c-2.2,0-4-1.8-4-4l0,0c0-2.2,1.8-4,4-4h32c2.2,0,4,1.8,4,4l0,0
				C266,176.1,264.2,177.9,262,177.9z"/>
			<path id="XMLID_162_" class="st26" d="M211.9,188.6L211.9,188.6c-5.3,0-9.7-4.4-9.7-9.7l0,0c0-5.3,4.4-9.7,9.7-9.7l0,0
				c5.3,0,9.7,4.4,9.7,9.7l0,0C221.6,184.2,217.3,188.6,211.9,188.6z"/>
			<line id="XMLID_161_" class="st27" x1="223.6" y1="283.5" x2="292.3" y2="283.5"/>
			<circle id="XMLID_160_" class="st26" cx="243.2" cy="283.5" r="3.9"/>
			<path id="XMLID_159_" class="st26" d="M291.2,232.4h-41.6c-2.2,0-4-1.8-4-4l0,0c0-2.2,1.8-4,4-4h41.6c2.2,0,4,1.8,4,4l0,0
				C295.3,230.6,293.4,232.4,291.2,232.4z"/>
			<path id="XMLID_158_" class="st26" d="M291.2,244.4h-41.6c-2.2,0-4-1.8-4-4l0,0c0-2.2,1.8-4,4-4h41.6c2.2,0,4,1.8,4,4l0,0
				C295.3,242.6,293.4,244.4,291.2,244.4z"/>
			<path id="XMLID_157_" class="st26" d="M291.2,256.9h-90.3c-2.2,0-4-1.8-4-4l0,0c0-2.2,1.8-4,4-4h90.3c2.2,0,4,1.8,4,4l0,0
				C295.3,255.1,293.4,256.9,291.2,256.9z"/>
		</g>
		<g id="XMLID_144_">
			<rect id="XMLID_155_" x="181.5" y="153" class="st28" width="128.2" height="159.8"/>
			<path id="XMLID_154_" class="st26" d="M195.8,274.8v17.5c0,1,1.1,1.6,1.9,1l12.7-8.8c0.7-0.5,0.7-1.5,0-2l-12.7-8.7
				C196.9,273.3,195.8,273.8,195.8,274.8z"/>
			<path id="XMLID_153_" class="st29" d="M238.1,244.4h-41.3c-0.7,0-1.3-0.6-1.3-1.3V208c0-0.7,0.6-1.3,1.3-1.3h41.3
				c0.7,0,1.3,0.6,1.3,1.3v35.1C239.3,243.8,238.8,244.4,238.1,244.4z"/>
			<path id="XMLID_152_" class="st30" d="M277.7,188.6H230c-2.2,0-4-1.8-4-4l0,0c0-2.2,1.8-4,4-4h47.7c2.2,0,4,1.8,4,4l0,0
				C281.7,186.8,279.9,188.6,277.7,188.6z"/>
			<path id="XMLID_151_" class="st31" d="M262,177.9h-32c-2.2,0-4-1.8-4-4l0,0c0-2.2,1.8-4,4-4h32c2.2,0,4,1.8,4,4l0,0
				C266,176.1,264.2,177.9,262,177.9z"/>
			<path id="XMLID_150_" class="st31" d="M211.9,188.6L211.9,188.6c-5.3,0-9.7-4.4-9.7-9.7l0,0c0-5.3,4.4-9.7,9.7-9.7l0,0
				c5.3,0,9.7,4.4,9.7,9.7l0,0C221.6,184.2,217.3,188.6,211.9,188.6z"/>
			<line id="XMLID_149_" class="st32" x1="223.6" y1="283.5" x2="292.3" y2="283.5"/>
			<circle id="XMLID_148_" class="st26" cx="243.2" cy="283.5" r="3.9"/>
			<path id="XMLID_147_" class="st30" d="M291.2,232.4h-41.6c-2.2,0-4-1.8-4-4l0,0c0-2.2,1.8-4,4-4h41.6c2.2,0,4,1.8,4,4l0,0
				C295.3,230.6,293.4,232.4,291.2,232.4z"/>
			<path id="XMLID_146_" class="st30" d="M291.2,244.4h-41.6c-2.2,0-4-1.8-4-4l0,0c0-2.2,1.8-4,4-4h41.6c2.2,0,4,1.8,4,4l0,0
				C295.3,242.6,293.4,244.4,291.2,244.4z"/>
			<path id="XMLID_145_" class="st30" d="M291.2,256.9h-90.3c-2.2,0-4-1.8-4-4l0,0c0-2.2,1.8-4,4-4h90.3c2.2,0,4,1.8,4,4l0,0
				C295.3,255.1,293.4,256.9,291.2,256.9z"/>
		</g>
	</g>
	<g id="articlecard2">
		<rect id="XMLID_53_" x="287.5" y="177.7" class="st28" width="128.2" height="159.8"/>
		<path id="XMLID_52_" class="st30" d="M398.8,283.5h-93.9c-2.2,0-4-1.8-4-4l0,0c0-2.2,1.8-4,4-4h93.9c2.2,0,4,1.8,4,4l0,0
			C402.8,281.7,401,283.5,398.8,283.5z"/>
		<path id="XMLID_51_" class="st30" d="M326,270.7h-21.1c-2.2,0-4-1.8-4-4l0,0c0-2.2,1.8-4,4-4H326c2.2,0,4,1.8,4,4l0,0
			C330,268.9,328.2,270.7,326,270.7z"/>
		<path id="XMLID_50_" class="st30" d="M324.6,258.6h-19.7c-2.2,0-4-1.8-4-4l0,0c0-2.2,1.8-4,4-4h19.7c2.2,0,4,1.8,4,4l0,0
			C328.6,256.8,326.8,258.6,324.6,258.6z"/>
		<path id="XMLID_49_" class="st31" d="M318,213.2L318,213.2c-5.3,0-9.7-4.4-9.7-9.7l0,0c0-5.3,4.4-9.7,9.7-9.7l0,0
			c5.3,0,9.7,4.4,9.7,9.7l0,0C327.7,208.9,323.3,213.2,318,213.2z"/>
		<path id="XMLID_48_" class="st31" d="M368,202.5h-32c-2.2,0-4-1.8-4-4l0,0c0-2.2,1.8-4,4-4h32c2.2,0,4,1.8,4,4l0,0
			C372.1,200.7,370.2,202.5,368,202.5z"/>
		<path id="XMLID_30_" class="st30" d="M383.7,213.2H336c-2.2,0-4-1.8-4-4l0,0c0-2.2,1.8-4,4-4h47.7c2.2,0,4,1.8,4,4l0,0
			C387.8,211.4,386,213.2,383.7,213.2z"/>
		<path id="XMLID_27_" class="st29" d="M401.6,269.7h-66.3c-0.7,0-1.3-0.6-1.3-1.3v-46.2c0-0.7,0.6-1.3,1.3-1.3h66.3
			c0.7,0,1.3,0.6,1.3,1.3v46.2C402.8,269.1,402.3,269.7,401.6,269.7z"/>
		<path id="XMLID_26_" class="st30" d="M398.9,296.7H305c-2.2,0-4-1.8-4-4l0,0c0-2.2,1.8-4,4-4h93.9c2.2,0,4,1.8,4,4l0,0
			C403,294.9,401.2,296.7,398.9,296.7z"/>
		<path id="XMLID_25_" class="st30" d="M398.8,310.5h-93.9c-2.2,0-4-1.8-4-4l0,0c0-2.2,1.8-4,4-4h93.9c2.2,0,4,1.8,4,4l0,0
			C402.8,308.7,401,310.5,398.8,310.5z"/>
		<path id="XMLID_24_" class="st30" d="M398.8,323.5h-93.9c-2.2,0-4-1.8-4-4l0,0c0-2.2,1.8-4,4-4h93.9c2.2,0,4,1.8,4,4l0,0
			C402.8,321.7,401,323.5,398.8,323.5z"/>
	</g>
	<g id="videoCard2">
		<rect id="XMLID_21_" x="407.3" y="146.7" class="st28" width="128.2" height="159.8"/>
		<path id="XMLID_20_" class="st31" d="M437.7,182.2L437.7,182.2c-5.3,0-9.7-4.4-9.7-9.7l0,0c0-5.3,4.4-9.7,9.7-9.7l0,0
			c5.3,0,9.7,4.4,9.7,9.7l0,0C447.4,177.9,443,182.2,437.7,182.2z"/>
		<path id="XMLID_19_" class="st31" d="M487.8,171.5h-32c-2.2,0-4-1.8-4-4l0,0c0-2.2,1.8-4,4-4h32c2.2,0,4,1.8,4,4l0,0
			C491.8,169.7,490,171.5,487.8,171.5z"/>
		<path id="XMLID_18_" class="st30" d="M503.5,182.2h-47.7c-2.2,0-4-1.8-4-4l0,0c0-2.2,1.8-4,4-4h47.7c2.2,0,4,1.8,4,4l0,0
			C507.5,180.4,505.7,182.2,503.5,182.2z"/>
		<rect id="XMLID_17_" x="407.3" y="200.4" class="st29" width="128.2" height="73.5"/>
		<path id="XMLID_16_" class="st8" d="M461.5,228.5V246c0,1,1.1,1.6,1.9,1l12.7-8.8c0.7-0.5,0.7-1.5,0-2l-12.7-8.7
			C462.6,226.9,461.5,227.5,461.5,228.5z"/>
	</g>
</g>
<g id="mindmap">
	<path class="st3" d="M95.9,47.3l-1.5,1.5l1.3,1.3l1.5-1.5c0.5,0.3,1.1,0.6,1.7,0.7v2h1.9v-2c0.6-0.1,1.2-0.4,1.7-0.7l1.5,1.5
		l1.3-1.3l-1.5-1.5c0.3-0.5,0.6-1.1,0.7-1.7h2v-1.9h-2c-0.1-0.6-0.4-1.2-0.7-1.7l1.5-1.5l-1.3-1.3l-1.5,1.5
		c-0.5-0.3-1.1-0.6-1.7-0.7v-2h-1.9v2c-0.6,0.1-1.2,0.4-1.7,0.7l-1.5-1.5l-1.3,1.3l1.5,1.5c-0.3,0.5-0.6,1.1-0.7,1.7h-2v1.9h2
		C95.3,46.2,95.6,46.8,95.9,47.3z M99.9,41.8c1.6,0,2.8,1.3,2.8,2.8c0,1.6-1.3,2.8-2.8,2.8S97,46.2,97,44.7
		C97,43.1,98.3,41.8,99.9,41.8z"/>
	<path d="M126.3,57c-0.4,0-0.8,0.1-1.2,0.3l-3.2-3.2c0.4-0.5,0.7-1.1,0.7-1.8c0-0.8-0.3-1.5-0.8-2l4.3-10.3c0.1,0,0.2,0,0.3,0
		c1.6,0,2.8-1.3,2.8-2.8c0-1.6-1.3-2.8-2.8-2.8c-1.6,0-2.8,1.3-2.8,2.8c0,0.1,0,0.3,0,0.4l-5.7,3.2c-0.5-0.5-1.2-0.8-1.9-0.8
		c-1.2,0-2.3,0.8-2.7,1.9h-2.7c-0.6-1.8-1.7-3.4-3.1-4.7c-2.4-2.2-5.6-3.2-8.9-2.8c-4.3,0.5-7.9,3.5-9.4,7.5h-2.7
		C86,40.7,85,40,83.8,40c-0.8,0-1.4,0.3-1.9,0.8l-5.7-3.2c0-0.1,0-0.2,0-0.4c0-1.6-1.3-2.8-2.8-2.8c-1.6,0-2.8,1.3-2.8,2.8
		c0,1.6,1.3,2.8,2.8,2.8c0.1,0,0.2,0,0.3,0L78,50.3c-0.5,0.5-0.8,1.2-0.8,2c0,0.7,0.3,1.3,0.7,1.8l-3.2,3.2
		c-0.4-0.2-0.8-0.3-1.2-0.3c-1.6,0-2.8,1.3-2.8,2.8s1.3,2.8,2.8,2.8c1.6,0,2.8-1.3,2.8-2.8c0-0.4-0.1-0.8-0.3-1.2l3.6-3.6
		c0.2,0,0.3,0.1,0.5,0.1c0.7,0,1.4-0.3,1.9-0.7l5.4,3.9L82,69.8c-0.1,0.3-0.1,0.6,0.1,0.9c0.2,0.3,0.5,0.4,0.8,0.4h4.7v8.5
		c0,0.3,0.1,0.6,0.3,0.7c0.2,0.2,0.5,0.2,0.8,0.2l8.6-1.7l2.1,6.3L90,89.2c-0.3,0.1-0.6,0.5-0.6,0.9V92c0,0.5,0.4,0.9,0.9,0.9h26.5
		c0.5,0,0.9-0.4,0.9-0.9v-4.7c0-0.2-0.1-0.4-0.2-0.5l-4.7-6.6c-0.1-0.2-0.3-0.3-0.5-0.3l-1.1-2.8c5.1-9.5,1.8-16.4,0.3-18.7l6.2-3.9
		c0.5,0.5,1.2,0.8,1.9,0.8c0.2,0,0.3,0,0.5-0.1l3.6,3.6c-0.2,0.4-0.3,0.8-0.3,1.2c0,1.6,1.3,2.8,2.8,2.8c1.6,0,2.8-1.3,2.8-2.8
		S127.9,57,126.3,57z M119.4,49.4l-2.1-4.2c0.9-0.5,1.5-1.4,1.5-2.5c0-0.1,0-0.3,0-0.4l5.5-3.2L120,49.4c-0.1,0-0.2,0-0.3,0
		C119.6,49.4,119.5,49.4,119.4,49.4z M126.3,36.2c0.5,0,0.9,0.4,0.9,0.9s-0.4,0.9-0.9,0.9c-0.5,0-0.9-0.4-0.9-0.9
		S125.8,36.2,126.3,36.2z M115.9,41.8c0.5,0,0.9,0.4,0.9,0.9s-0.4,0.9-0.9,0.9s-0.9-0.4-0.9-0.9S115.4,41.8,115.9,41.8z M90.5,44.3
		c0.6-4.2,4-7.6,8.3-8.1c2.7-0.3,5.4,0.5,7.4,2.3c2,1.8,3.2,4.4,3.2,7.1c0,2.6-1.1,5.2-3.1,7c-1.9,1.7-3.1,3.9-3.4,6.3h-2v-5.7h-1.9
		v5.7h-2c-0.4-2.4-1.6-4.6-3.4-6.3C91.1,50.5,90.1,47.4,90.5,44.3z M98.9,64.5h1.9v0.9c0,0.5-0.4,0.9-0.9,0.9s-0.9-0.4-0.9-0.9V64.5
		z M97,62.7v-1.9h5.7v1.9H97z M83.8,41.8c0.5,0,0.9,0.4,0.9,0.9s-0.4,0.9-0.9,0.9s-0.9-0.4-0.9-0.9S83.3,41.8,83.8,41.8z M80.3,49.4
		c-0.1,0-0.2,0-0.3,0c-0.1,0-0.2,0-0.3,0l-4.2-10.2l5.5,3.2c0,0.1,0,0.2,0,0.4c0,1.1,0.6,2,1.5,2.5L80.3,49.4z M72.4,37.1
		c0-0.5,0.4-0.9,0.9-0.9s0.9,0.4,0.9,0.9s-0.4,0.9-0.9,0.9S72.4,37.6,72.4,37.1z M73.4,60.8c-0.5,0-0.9-0.4-0.9-0.9s0.4-0.9,0.9-0.9
		s0.9,0.4,0.9,0.9S73.9,60.8,73.4,60.8z M80,53.2c-0.5,0-0.9-0.4-0.9-0.9c0-0.5,0.4-0.9,0.9-0.9s0.9,0.4,0.9,0.9
		C80.9,52.8,80.5,53.2,80,53.2z M115.9,91H91.3v-0.3l20.5-8.9l4.1,5.8V91z M109.4,76.4c-0.1,0.2-0.2,0.5-0.1,0.8l1.2,3.1l-9.5,4.1
		l-2.3-6.9c-0.2-0.5-0.6-0.7-1.1-0.6l-8.3,1.7v-8.3c0-0.5-0.4-0.9-0.9-0.9h-4.2l4.8-10.4h2.2V57h-2.5l-6-4.3c0-0.1,0-0.3,0-0.4
		c0-0.8-0.3-1.5-0.8-2l2.4-4.7c1-0.2,1.7-0.9,2-1.8h2.2c0,0.1,0,0.2-0.1,0.3c-0.5,3.8,0.8,7.4,3.6,9.9c1.5,1.3,2.4,3.1,2.8,4.9h-1.7
		v1.9h1.9v2.8c0,0.5,0.4,0.9,0.9,0.9H97v0.9c0,1.6,1.3,2.8,2.8,2.8s2.8-1.3,2.8-2.8v-0.9h0.9c0.5,0,0.9-0.4,0.9-0.9v-2.8h1.9v-1.9
		h-1.7c0.3-1.8,1.3-3.5,2.8-4.9c2.3-2.1,3.7-5.2,3.7-8.4c0-0.6-0.1-1.3-0.2-1.9h2.2c0.3,0.9,1.1,1.6,2,1.8l2.4,4.7
		c-0.5,0.5-0.8,1.2-0.8,2c0,0.1,0,0.3,0,0.4L110,57h-1.6v1.9h1.4C110.9,60.4,114.7,67,109.4,76.4z M118.8,52.2
		c0-0.5,0.4-0.9,0.9-0.9s0.9,0.4,0.9,0.9c0,0.5-0.4,0.9-0.9,0.9S118.8,52.8,118.8,52.2z M126.3,60.8c-0.5,0-0.9-0.4-0.9-0.9
		s0.4-0.9,0.9-0.9c0.5,0,0.9,0.4,0.9,0.9S126.9,60.8,126.3,60.8z"/>
</g>
<g id="microphone">
	<path d="M271.9,111.4c5.9,0,10.6-4.8,10.6-10.6V81.3c0-5.9-4.8-10.6-10.6-10.6c-5.9,0-10.6,4.8-10.6,10.6v19.5
		C261.3,106.6,266,111.4,271.9,111.4z M271.9,72.9c4.6,0,8.4,3.8,8.4,8.4v9.3h-16.7v-9.3C263.5,76.7,267.3,72.9,271.9,72.9z
		 M263.5,92.9h16.7v7.9c0,4.6-3.8,8.4-8.4,8.4s-8.4-3.8-8.4-8.4V92.9z"/>
	<path d="M269.1,85.5h5.5c0.6,0,1.1-0.5,1.1-1.1s-0.5-1.1-1.1-1.1h-5.5c-0.6,0-1.1,0.5-1.1,1.1S268.5,85.5,269.1,85.5z"/>
	<path d="M269.1,81.3h5.5c0.6,0,1.1-0.5,1.1-1.1s-0.5-1.1-1.1-1.1h-5.5c-0.6,0-1.1,0.5-1.1,1.1S268.5,81.3,269.1,81.3z"/>
	<path class="st3" d="M286.3,99.6c-0.6,0-1.1,0.5-1.1,1.1c0,7.4-6,13.3-13.3,13.3c-7.4,0-13.3-6-13.3-13.3c0-0.6-0.5-1.1-1.1-1.1
		s-1.1,0.5-1.1,1.1c0,7.5,5.3,13.7,12.3,15.2v5.7h-0.1c-3.1,0-5.7,2.5-5.7,5.7c0,0.6,0.5,1.1,1.1,1.1h15.9c0.6,0,1.1-0.5,1.1-1.1
		c0-3.1-2.5-5.7-5.7-5.7h-0.1V116c7-1.5,12.3-7.8,12.3-15.2C287.5,100.1,287,99.6,286.3,99.6z M278.5,126.2h-13.2
		c0.5-1.3,1.7-2.3,3.2-2.3h6.8C276.8,124,278,124.9,278.5,126.2z M273,121.7h-2.1v-5.4c0.4,0,0.7,0,1.1,0c0.4,0,0.7,0,1.1,0V121.7z"
		/>
	<path class="st3" d="M248.6,81.2c-0.6,0-1.1,0.5-1.1,1.1v11c0,0.6,0.5,1.1,1.1,1.1c0.6,0,1.1-0.5,1.1-1.1v-11
		C249.7,81.7,249.2,81.2,248.6,81.2z"/>
	<path d="M257.6,91.7c0.6,0,1.1-0.5,1.1-1.1v-5.4c0-0.6-0.5-1.1-1.1-1.1s-1.1,0.5-1.1,1.1v5.4C256.5,91.2,257,91.7,257.6,91.7z"/>
	<path d="M244.1,76.8c-0.6,0-1.1,0.5-1.1,1.1v18.8c0,0.6,0.5,1.1,1.1,1.1s1.1-0.5,1.1-1.1V77.9C245.2,77.3,244.7,76.8,244.1,76.8z"
		/>
	<path d="M253.1,80.1c-0.6,0-1.1,0.5-1.1,1.1v15.3c0,0.6,0.5,1.1,1.1,1.1s1.1-0.5,1.1-1.1V81.2C254.3,80.6,253.7,80.1,253.1,80.1z"
		/>
	<path d="M295.2,81.2c-0.6,0-1.1,0.5-1.1,1.1v11c0,0.6,0.5,1.1,1.1,1.1s1.1-0.5,1.1-1.1v-11C296.3,81.7,295.8,81.2,295.2,81.2z"/>
	<path class="st3" d="M286.1,91.7c0.6,0,1.1-0.5,1.1-1.1v-5.4c0-0.6-0.5-1.1-1.1-1.1s-1.1,0.5-1.1,1.1v5.4
		C285,91.2,285.5,91.7,286.1,91.7z"/>
	<path d="M299.7,76.8c-0.6,0-1.1,0.5-1.1,1.1v18.8c0,0.6,0.5,1.1,1.1,1.1s1.1-0.5,1.1-1.1V77.9C300.8,77.3,300.3,76.8,299.7,76.8z"
		/>
	<path d="M290.6,95.3c-0.3,0-0.6,0.1-0.8,0.3c-0.2,0.2-0.3,0.5-0.3,0.8c0,0.3,0.1,0.6,0.3,0.8c0.2,0.2,0.5,0.3,0.8,0.3
		s0.6-0.1,0.8-0.3c0.2-0.2,0.3-0.5,0.3-0.8c0-0.3-0.1-0.6-0.3-0.8C291.2,95.5,290.9,95.3,290.6,95.3z"/>
	<path d="M290.6,80.1c-0.6,0-1.1,0.5-1.1,1.1v10.5c0,0.6,0.5,1.1,1.1,1.1s1.1-0.5,1.1-1.1V81.2C291.8,80.6,291.3,80.1,290.6,80.1z"
		/>
	<path class="st3" d="M271.9,106.6c3.2,0,5.9-2.6,5.9-5.9c0-0.6-0.5-1.1-1.1-1.1c-0.6,0-1.1,0.5-1.1,1.1c0,2-1.6,3.6-3.6,3.6
		c-0.6,0-1.1,0.5-1.1,1.1S271.3,106.6,271.9,106.6z"/>
	<path d="M276.6,98c0.3,0,0.6-0.1,0.8-0.3c0.2-0.2,0.3-0.5,0.3-0.8c0-0.3-0.1-0.6-0.3-0.8c-0.2-0.2-0.5-0.3-0.8-0.3
		c-0.3,0-0.6,0.1-0.8,0.3c-0.2,0.2-0.3,0.5-0.3,0.8c0,0.3,0.1,0.6,0.3,0.8C276,97.9,276.3,98,276.6,98z"/>
</g>
<g id="camera">
	<g>
		<g>
			<path d="M489.7,85.5c-0.4-0.3-0.9-0.3-1.4,0l-9,4.8v-4.1c0-0.8-0.6-1.4-1.4-1.4h-2.3c2.8-2.3,4.6-5.8,4.6-9.7
				c0-6.9-5.6-12.4-12.4-12.4c-5.9,0-10.8,4.1-12.1,9.5c-1.7-2.1-4.3-3.4-7.2-3.4c-5.2,0-9.4,4.2-9.4,9.4c0,2.6,1,4.9,2.7,6.6h-1.3
				c-0.8,0-1.4,0.6-1.4,1.4v6.3h-3.5c-0.8,0-1.4,0.6-1.4,1.4v5.5c0,0.8,0.6,1.4,1.4,1.4h3.5v6.3c0,0.8,0.6,1.4,1.4,1.4H457
				l-7.5,14.4c-0.4,0.7-0.1,1.5,0.6,1.9c0.2,0.1,0.4,0.2,0.6,0.2c0.5,0,1-0.3,1.2-0.7l7.3-14.1l7.3,14.1c0.2,0.5,0.7,0.7,1.2,0.7
				c0.2,0,0.4-0.1,0.6-0.2c0.7-0.4,0.9-1.2,0.6-1.9l-7.5-14.4h16.4c0.8,0,1.4-0.6,1.4-1.4v-4.1l9,4.8c0.2,0.1,0.4,0.2,0.7,0.2
				c0.2,0,0.5-0.1,0.7-0.2c0.4-0.3,0.7-0.7,0.7-1.2V86.7C490.3,86.2,490.1,85.8,489.7,85.5z M439.2,97.9h-2.1v-2.7h2.1V97.9z
				 M467.9,65.5c5.3,0,9.7,4.3,9.7,9.7s-4.3,9.7-9.7,9.7c-5.3,0-9.7-4.3-9.7-9.7C458.2,69.8,462.5,65.5,467.9,65.5z M457.3,81.6
				c0.7,1.2,1.7,2.3,2.8,3.2h-4.8C456.1,83.9,456.8,82.8,457.3,81.6z M448.5,71.6c3.6,0,6.6,3,6.6,6.6c0,3.6-3,6.6-6.6,6.6
				c-3.6,0-6.6-3-6.6-6.6C441.9,74.5,444.9,71.6,448.5,71.6z M476.6,92.6v7.9v5.1h-17.2c0,0,0,0,0,0h0c0,0,0,0,0,0H442v-6.3v-5.5
				v-6.3h34.5V92.6z M487.6,104.2l-8.2-4.4v-6.3l8.2-4.4V104.2z"/>
		</g>
	</g>
	<g>
		<g>
			<path d="M448.5,74c-2.3,0-4.2,1.9-4.2,4.2c0,2.3,1.9,4.2,4.2,4.2c2.3,0,4.2-1.9,4.2-4.2C452.8,75.9,450.9,74,448.5,74z
				 M448.5,79.9c-0.9,0-1.7-0.8-1.7-1.7s0.8-1.7,1.7-1.7s1.7,0.8,1.7,1.7S449.5,79.9,448.5,79.9z"/>
		</g>
	</g>
	<g>
		<g>
			<path class="st3" d="M467.9,69.1c-3.3,0-6.1,2.7-6.1,6.1c0,3.3,2.7,6.1,6.1,6.1c3.3,0,6.1-2.7,6.1-6.1
				C473.9,71.8,471.2,69.1,467.9,69.1z M467.9,78.4c-1.8,0-3.3-1.5-3.3-3.3c0-1.8,1.5-3.3,3.3-3.3c1.8,0,3.3,1.5,3.3,3.3
				C471.1,76.9,469.7,78.4,467.9,78.4z"/>
		</g>
	</g>
	<g>
		<g>
			<path class="st3" d="M463.4,91.6h-15.1c-0.7,0-1.3,0.6-1.3,1.3v7.3c0,0.7,0.6,1.3,1.3,1.3h15.1c0.7,0,1.3-0.6,1.3-1.3v-7.3
				C464.7,92.2,464.1,91.6,463.4,91.6z M462.1,99h-12.5v-4.7h12.5L462.1,99L462.1,99z"/>
		</g>
	</g>
	<g>
		<g>
			<circle cx="470.7" cy="94.3" r="1.4"/>
		</g>
	</g>
	<g>
		<g>
			<circle cx="470.7" cy="98.9" r="1.4"/>
		</g>
	</g>
</g>
<g id="puzzle">
	<g>
		<g>
			<path d="M651.6,70.9c-0.1-0.9-0.4-1.7-1.1-2.3L646,64c0.7-0.2,1.4-0.6,2-1.2l0.1-0.1c2-2,1.9-5.5-0.4-7.7
				c-1.1-1.1-2.4-1.7-3.8-1.8c-1.5-0.1-2.8,0.4-3.8,1.4l-0.1,0.1c-0.5,0.5-0.9,1.2-1.2,2l-4.6-4.6c-1.4-1.4-3.5-1.4-4.7-0.2
				l-4.2,4.2c-0.5,0.5-0.7,1.2-0.6,2c0.2,0.8,0.7,1.4,1.5,1.7c0.5,0.2,0.9,0.5,1.3,0.8l0.1,0.1c0.6,0.6,1,1.4,1.1,2.3
				c0,0.8-0.2,1.5-0.7,2s-1.2,0.8-2,0.7c-0.8-0.1-1.6-0.4-2.3-1.1l-0.1-0.1c-0.4-0.4-0.7-0.8-0.8-1.3c-0.3-0.8-0.9-1.3-1.7-1.5
				c-0.7-0.2-1.5,0.1-2,0.6l-4.1,4.1c-1.3,1.3-1.2,3.4,0.2,4.7l4.6,4.6c-0.7,0.2-1.4,0.6-2,1.2l-0.1,0.1c-2,2-1.9,5.5,0.4,7.7
				c1.2,1.2,2.7,1.8,4.2,1.8c1.3,0,2.6-0.5,3.5-1.4l0.1-0.1c0.5-0.5,0.9-1.2,1.2-2l4.6,4.6c0.6,0.6,1.5,1,2.3,1.1c0.1,0,0.1,0,0.2,0
				c0.8,0,1.6-0.3,2.2-0.9l4-4c0.3,0.7,0.8,1.4,1.3,2l0.1,0.1c2.2,2.2,5.7,2.4,7.7,0.4c2-2,1.9-5.5-0.4-7.7l-0.1-0.1
				c-0.6-0.6-1.3-1-2-1.3l4-4C651.3,72.7,651.7,71.8,651.6,70.9z M649,71.6l-4.2,4.2c-0.5,0.5-0.7,1.2-0.6,2
				c0.2,0.8,0.7,1.4,1.5,1.7c0.5,0.2,0.9,0.5,1.3,0.8l0.1,0.1c1.3,1.3,1.4,3.2,0.4,4.3c-1.1,1.1-3,0.9-4.3-0.4l-0.1-0.1
				c-0.4-0.4-0.7-0.8-0.8-1.3c-0.3-0.8-0.9-1.3-1.7-1.5c-0.7-0.2-1.5,0.1-2,0.6l-4.1,4.1c-0.2,0.2-0.4,0.2-0.5,0.2
				c-0.3,0-0.5-0.1-0.8-0.4l-1.8-1.8l4-4c0.5-0.5,0.5-1.2,0-1.7c-0.5-0.5-1.2-0.5-1.7,0l-4,4l-1.2-1.2c-0.5-0.5-1.1-0.7-1.7-0.7
				c-0.2,0-0.4,0-0.6,0.1c-0.7,0.2-1.3,0.8-1.4,1.6c-0.1,0.5-0.3,0.9-0.7,1.2l-0.1,0.1c-1.1,1.1-3,0.9-4.3-0.4
				c-1.3-1.3-1.4-3.2-0.4-4.3l0.1-0.1c0.3-0.3,0.7-0.5,1.2-0.7c0.8-0.2,1.3-0.7,1.6-1.4c0.2-0.8,0-1.7-0.6-2.3l-4.8-4.8
				c-0.2-0.2-0.3-0.5-0.4-0.8c0-0.2,0-0.4,0.2-0.5l4-4c0.3,0.7,0.8,1.4,1.3,2l0.1,0.1c2.2,2.2,5.7,2.4,7.7,0.4c2-2,1.9-5.5-0.4-7.7
				l-0.1-0.1c-0.6-0.6-1.3-1-2-1.3l4-4c0.3-0.3,0.9-0.2,1.3,0.2l4.8,4.8c0.6,0.6,1.5,0.8,2.3,0.6c0.7-0.2,1.3-0.8,1.4-1.6
				c0.1-0.5,0.3-0.9,0.7-1.2l0.1-0.1c0.5-0.5,1.2-0.8,2-0.7c0.8,0.1,1.6,0.4,2.3,1.1c1.3,1.3,1.4,3.2,0.4,4.3l-0.1,0.1
				c-0.3,0.3-0.7,0.5-1.2,0.7c-0.8,0.2-1.3,0.7-1.6,1.4c-0.2,0.8,0,1.7,0.6,2.3l4.8,4.8c0.2,0.2,0.3,0.5,0.4,0.8
				C649.2,71.2,649.2,71.4,649,71.6z"/>
		</g>
	</g>
	<g>
		<g>
			<path d="M638.4,75.3c-0.2-0.2-0.5-0.4-0.9-0.4s-0.6,0.1-0.9,0.4c-0.2,0.2-0.4,0.5-0.4,0.9s0.1,0.6,0.4,0.9
				c0.2,0.2,0.5,0.4,0.9,0.4c0.3,0,0.6-0.1,0.9-0.4c0.2-0.2,0.4-0.5,0.4-0.9S638.6,75.6,638.4,75.3z"/>
		</g>
	</g>
	<g>
		<g>
			<path d="M664,42.3c-0.2-0.2-0.5-0.4-0.9-0.4s-0.6,0.1-0.9,0.4c-0.2,0.2-0.4,0.5-0.4,0.9s0.1,0.6,0.4,0.9c0.2,0.2,0.5,0.4,0.9,0.4
				s0.6-0.1,0.9-0.4s0.4-0.5,0.4-0.9S664.3,42.5,664,42.3z"/>
		</g>
	</g>
	<g>
		<g>
			<path class="st3" d="M673.1,54.7c-0.7-0.7-1.4-1.2-2.3-1.5l4-4c0.6-0.6,0.9-1.5,0.9-2.4c-0.1-0.9-0.4-1.7-1.1-2.3l-4.5-4.5
				c0.6-0.2,1.2-0.6,1.7-1.1l0.1-0.1c2-2,1.9-5.5-0.4-7.7c-2.2-2.2-5.7-2.4-7.7-0.4l-0.1,0.1c-0.5,0.5-0.8,1.1-1.1,1.7l-4.5-4.5
				c-1.4-1.4-3.5-1.4-4.7-0.2l-4,4c-0.3-0.9-0.8-1.6-1.5-2.3l-0.1-0.1c-2.2-2.2-5.7-2.4-7.7-0.4c-2,2-1.9,5.5,0.4,7.7l0.1,0.1
				c0.7,0.7,1.4,1.2,2.3,1.5l-4,4c-1.3,1.3-1.2,3.4,0.2,4.7l4.8,4.8c0.6,0.6,1.5,0.8,2.3,0.6c0.7-0.2,1.3-0.8,1.4-1.6
				c0.1-0.5,0.3-0.9,0.7-1.2l0.1-0.1c0.5-0.5,1.2-0.8,2-0.7c0.8,0.1,1.6,0.4,2.3,1.1c0.6,0.6,1,1.4,1.1,2.3c0,0.8-0.2,1.5-0.7,2
				l-0.1,0.1c-0.3,0.3-0.7,0.5-1.2,0.7c-0.8,0.2-1.3,0.7-1.6,1.4c-0.2,0.8,0,1.7,0.6,2.3l4.8,4.8c0.7,0.7,1.6,1.1,2.5,1.1
				c0.8,0,1.6-0.3,2.2-0.9l4-4c0.3,0.9,0.8,1.6,1.5,2.3l0.1,0.1c2.2,2.2,5.7,2.4,7.7,0.4c2-2,1.9-5.5-0.4-7.7L673.1,54.7z
				 M671.9,60.8c-1.1,1.1-3,0.9-4.3-0.4l-0.1-0.1c-0.4-0.4-0.7-0.9-0.9-1.5c-0.3-0.8-0.9-1.4-1.7-1.6c-0.8-0.2-1.5,0-2,0.6l-4.2,4.2
				c-0.2,0.2-0.4,0.2-0.5,0.2c-0.3,0-0.5-0.1-0.8-0.4l-4.6-4.6c0.7-0.2,1.4-0.6,2-1.2l0.1-0.1c1-1,1.5-2.4,1.4-3.8
				c-0.1-1.4-0.7-2.8-1.8-3.8c-1.1-1.1-2.4-1.7-3.8-1.8c-1.5-0.1-2.8,0.4-3.8,1.4l-0.1,0.1c-0.5,0.5-0.9,1.2-1.2,2l-4.6-4.6
				c-0.2-0.2-0.3-0.5-0.4-0.8c0-0.2,0-0.4,0.2-0.5l4.2-4.2c0.5-0.5,0.7-1.3,0.6-2c-0.2-0.8-0.8-1.5-1.6-1.7c-0.5-0.2-1-0.5-1.5-0.9
				l-0.1-0.1c-1.3-1.3-1.4-3.2-0.4-4.3c1.1-1.1,3-0.9,4.3,0.4l0.1,0.1c0.4,0.4,0.7,0.9,0.9,1.5c0.3,0.8,0.9,1.4,1.7,1.6
				c0.8,0.2,1.5,0,2-0.6l4.2-4.2c0.3-0.3,0.9-0.2,1.3,0.2l4.7,4.7c0.6,0.6,1.4,0.8,2.2,0.6c0.7-0.2,1.3-0.7,1.5-1.4
				c0.1-0.4,0.3-0.8,0.6-1.1l0.1-0.1c1.1-1.1,3-0.9,4.3,0.4c1.3,1.3,1.4,3.2,0.4,4.3l-0.1,0.1c-0.3,0.3-0.6,0.5-1.1,0.6
				c-0.7,0.2-1.3,0.8-1.4,1.5c-0.2,0.8,0,1.6,0.6,2.2l4.7,4.7c0.2,0.2,0.3,0.5,0.4,0.8c0,0.2,0,0.4-0.2,0.5l-1.9,1.9l-4-4
				c-0.5-0.5-1.2-0.5-1.7,0c-0.5,0.5-0.5,1.2,0,1.7l4,4l-0.6,0.6c-0.5,0.5-0.7,1.3-0.6,2c0.2,0.8,0.8,1.5,1.6,1.7
				c0.5,0.2,1,0.5,1.5,0.9l0.1,0.1C672.8,57.8,672.9,59.8,671.9,60.8z"/>
		</g>
	</g>
</g>
<g id="quiz">
	<path class="st34" d="M546.7,66.3h-7.6c-0.6,0-1.1-0.5-1.1-1.1v-7.6c0-0.6,0.5-1.1,1.1-1.1h7.6c0.6,0,1.1,0.5,1.1,1.1v7.6
		C547.8,65.8,547.3,66.3,546.7,66.3z"/>
	<path class="st23" d="M546.7,81.2h-7.6c-0.6,0-1.1-0.5-1.1-1.1v-7.6c0-0.6,0.5-1.1,1.1-1.1h7.6c0.6,0,1.1,0.5,1.1,1.1V80
		C547.8,80.7,547.3,81.2,546.7,81.2z"/>
	<path class="st34" d="M546.7,96.2h-7.6c-0.6,0-1.1-0.5-1.1-1.1v-7.6c0-0.6,0.5-1.1,1.1-1.1h7.6c0.6,0,1.1,0.5,1.1,1.1v7.6
		C547.8,95.7,547.3,96.2,546.7,96.2z"/>
	<path class="st35" d="M547.8,72.6"/>
	<path class="st35" d="M539.2,75.7"/>
	<path d="M574.7,62.8H553c-0.6,0-1.1-0.5-1.1-1.1l0,0c0-0.6,0.5-1.1,1.1-1.1h21.7c0.6,0,1.1,0.5,1.1,1.1l0,0
		C575.8,62.3,575.3,62.8,574.7,62.8z"/>
	<path class="st3" d="M574.9,77.8h-21.7c-0.6,0-1.1-0.5-1.1-1.1l0,0c0-0.6,0.5-1.1,1.1-1.1h21.7c0.6,0,1.1,0.5,1.1,1.1l0,0
		C576,77.3,575.5,77.8,574.9,77.8z"/>
	<path d="M574.7,92H553c-0.6,0-1.1-0.5-1.1-1.1l0,0c0-0.6,0.5-1.1,1.1-1.1h21.7c0.6,0,1.1,0.5,1.1,1.1l0,0
		C575.8,91.5,575.3,92,574.7,92z"/>
	<polyline class="st35" points="540.9,61.7 542.3,63.6 544.9,59.9 	"/>
</g>
<g id="article">
	<path class="st3" d="M389.4,129.9c-0.5,0-0.9,0.4-0.9,0.9v2.1h-5.4v-5.3c0-0.5-0.4-0.9-0.9-0.9h-23.1c-0.5,0-0.9,0.4-0.9,0.9v5.3
		h-17.3V92.7c0-0.5-0.4-0.9-0.9-0.9c-0.5,0-0.9,0.4-0.9,0.9v41.1c0,0.5,0.4,0.9,0.9,0.9h49.4c0.5,0,0.9-0.4,0.9-0.9v-3
		C390.3,130.3,389.9,129.9,389.4,129.9z M360,132.9v-4.4h21.3v4.4H360z"/>
	<path d="M346.5,116.5H383c0.5,0,0.9-0.4,0.9-0.9c0-0.5-0.4-0.9-0.9-0.9h-36.5c-0.5,0-0.9,0.4-0.9,0.9
		C345.6,116.1,346,116.5,346.5,116.5z"/>
	<path class="st3" d="M346.5,120.8H383c0.5,0,0.9-0.4,0.9-0.9c0-0.5-0.4-0.9-0.9-0.9h-36.5c-0.5,0-0.9,0.4-0.9,0.9
		C345.6,120.4,346,120.8,346.5,120.8z"/>
	<path d="M346.5,125.1H383c0.5,0,0.9-0.4,0.9-0.9c0-0.5-0.4-0.9-0.9-0.9h-36.5c-0.5,0-0.9,0.4-0.9,0.9
		C345.6,124.7,346,125.1,346.5,125.1z"/>
	<path d="M346.5,129.4h9.3c0.5,0,0.9-0.4,0.9-0.9c0-0.5-0.4-0.9-0.9-0.9h-9.3c-0.5,0-0.9,0.4-0.9,0.9
		C345.6,129,346,129.4,346.5,129.4z"/>
	<path class="st3" d="M367.6,93.4c0,2.6,2.1,4.7,4.7,4.7c2.6,0,4.7-2.1,4.7-4.7s-2.1-4.7-4.7-4.7C369.7,88.7,367.6,90.8,367.6,93.4z
		 M372.3,90.5c1.6,0,2.9,1.3,2.9,2.9s-1.3,2.9-2.9,2.9s-2.9-1.3-2.9-2.9S370.7,90.5,372.3,90.5z"/>
	<path d="M395.2,82.2c0-4.7-3.8-8.5-8.5-8.5c-4.2,0-7.7,3.1-8.4,7.1H340c-0.5,0-0.9,0.4-0.9,0.9v7.3c0,0.5,0.4,0.9,0.9,0.9
		c0.5,0,0.9-0.4,0.9-0.9v-6.4h37.2c0,0.6,0.1,1.2,0.3,1.8h-3.6c-0.5,0-0.9,0.4-0.9,0.9c0,0.5,0.4,0.9,0.9,0.9h4.3
		c1.2,2.2,3.3,3.9,5.8,4.4v7.1l-11.9,7.5l-15.8-8.8c-0.3-0.2-0.6-0.1-0.9,0l-11.8,7.5V86.1H371c0.5,0,0.9-0.4,0.9-0.9
		c0-0.5-0.4-0.9-0.9-0.9h-27.4c-0.5,0-0.9,0.4-0.9,0.9V111c0,0.5,0.4,0.9,0.9,0.9h42.2c0.5,0,0.9-0.4,0.9-0.9V90.7
		c0.6,0,1.2-0.1,1.8-0.2v36.6c0,0.5,0.4,0.9,0.9,0.9s0.9-0.4,0.9-0.9V89.9C393.2,88.5,395.2,85.6,395.2,82.2z M344.5,110.1V106
		l12.4-7.9l21.5,11.9H344.5z M384.9,110.1H382l-7.2-4l10.1-6.4V110.1z M386.7,88.9c-3.7,0-6.7-3-6.7-6.7c0-3.7,3-6.7,6.7-6.7
		c3.7,0,6.7,3,6.7,6.7C393.4,85.9,390.4,88.9,386.7,88.9z"/>
	<path d="M391.1,78.9c-0.4-0.3-0.9-0.3-1.3,0.1l-4,4.5l-2.7-2.1c-0.4-0.3-0.9-0.2-1.3,0.1c-0.3,0.4-0.2,0.9,0.1,1.3l3.3,2.7
		c0.2,0.1,0.4,0.2,0.6,0.2c0.2,0,0.5-0.1,0.7-0.3l4.5-5.1C391.5,79.8,391.5,79.3,391.1,78.9z"/>
</g>
<g id="QA">
	<g>
		<g>
			<path d="M177.1,94.8l-3.3-7.9c-0.1-0.3-0.5-0.6-0.9-0.6s-0.7,0.2-0.9,0.6l-3.3,7.9c-0.2,0.5,0,1,0.5,1.2c0.5,0.2,1,0,1.2-0.5
				l0.5-1.1h4l0.5,1.1c0.2,0.4,0.5,0.6,0.9,0.6c0.1,0,0.2,0,0.4-0.1C177,95.8,177.3,95.3,177.1,94.8z M171.6,92.5l1.2-2.9l1.2,2.9
				H171.6z"/>
		</g>
	</g>
	<g>
		<g>
			<path d="M210.5,58h-46.4c-0.5,0-0.9,0.4-0.9,0.9v18.1c0,0.5,0.4,0.9,0.9,0.9h46.4c0.5,0,0.9-0.4,0.9-0.9V59
				C211.5,58.4,211.1,58,210.5,58z M180.6,76.1h-15.5V59.9h15.5V76.1z M209.6,76.1h-27.1V59.9h27.1V76.1z"/>
		</g>
	</g>
	<g>
		<g>
			<path d="M198,67.1h-10.6c-0.5,0-0.9,0.4-0.9,0.9s0.4,0.9,0.9,0.9H198c0.5,0,0.9-0.4,0.9-0.9S198.5,67.1,198,67.1z"/>
		</g>
	</g>
	<g>
		<g>
			<path d="M205.4,67.1H202c-0.5,0-0.9,0.4-0.9,0.9s0.4,0.9,0.9,0.9h3.4c0.5,0,0.9-0.4,0.9-0.9S205.9,67.1,205.4,67.1z"/>
		</g>
	</g>
	<g>
		<g>
			<path d="M202.6,62.9h-15.2c-0.5,0-0.9,0.4-0.9,0.9s0.4,0.9,0.9,0.9h15.2c0.5,0,0.9-0.4,0.9-0.9S203.1,62.9,202.6,62.9z"/>
		</g>
	</g>
	<g>
		<g>
			<path d="M206.1,63.2c-0.2-0.2-0.4-0.3-0.7-0.3s-0.5,0.1-0.7,0.3c-0.2,0.2-0.3,0.4-0.3,0.7s0.1,0.5,0.3,0.7
				c0.2,0.2,0.4,0.3,0.7,0.3s0.5-0.1,0.7-0.3c0.2-0.2,0.3-0.4,0.3-0.7S206.3,63.4,206.1,63.2z"/>
		</g>
	</g>
	<g>
		<g>
			<path d="M195.4,71.2h-8c-0.5,0-0.9,0.4-0.9,0.9s0.4,0.9,0.9,0.9h8c0.5,0,0.9-0.4,0.9-0.9S195.9,71.2,195.4,71.2z"/>
		</g>
	</g>
	<g>
		<g>
			<path d="M199.3,71.5c-0.2-0.2-0.4-0.3-0.7-0.3s-0.5,0.1-0.7,0.3c-0.2,0.2-0.3,0.4-0.3,0.7s0.1,0.5,0.3,0.7s0.4,0.3,0.7,0.3
				s0.5-0.1,0.7-0.3c0.2-0.2,0.3-0.4,0.3-0.7S199.4,71.7,199.3,71.5z"/>
		</g>
	</g>
	<g>
		<g>
			<path d="M202.7,71.5c-0.2-0.2-0.4-0.3-0.7-0.3s-0.5,0.1-0.7,0.3c-0.2,0.2-0.3,0.4-0.3,0.7s0.1,0.5,0.3,0.7s0.4,0.3,0.7,0.3
				s0.5-0.1,0.7-0.3c0.2-0.2,0.3-0.4,0.3-0.7S202.8,71.7,202.7,71.5z"/>
		</g>
	</g>
	<g>
		<g>
			<path d="M206.1,71.5c-0.2-0.2-0.4-0.3-0.7-0.3c-0.2,0-0.5,0.1-0.7,0.3c-0.2,0.2-0.3,0.4-0.3,0.7s0.1,0.5,0.3,0.7
				c0.2,0.2,0.4,0.3,0.7,0.3c0.2,0,0.5-0.1,0.7-0.3c0.2-0.2,0.3-0.4,0.3-0.7S206.3,71.7,206.1,71.5z"/>
		</g>
	</g>
	<g>
		<g>
			<path d="M210.5,81.2h-46.4c-0.5,0-0.9,0.4-0.9,0.9v18.1c0,0.5,0.4,0.9,0.9,0.9h46.4c0.5,0,0.9-0.4,0.9-0.9V82.1
				C211.5,81.6,211.1,81.2,210.5,81.2z M180.6,99.3h-15.5V83.1h15.5V99.3z M209.6,99.3h-27.1V83.1h27.1V99.3z"/>
		</g>
	</g>
	<g>
		<g>
			<path d="M198,90.2h-10.6c-0.5,0-0.9,0.4-0.9,0.9c0,0.5,0.4,0.9,0.9,0.9H198c0.5,0,0.9-0.4,0.9-0.9
				C198.9,90.7,198.5,90.2,198,90.2z"/>
		</g>
	</g>
	<g>
		<g>
			<path d="M205.4,90.2H202c-0.5,0-0.9,0.4-0.9,0.9c0,0.5,0.4,0.9,0.9,0.9h3.4c0.5,0,0.9-0.4,0.9-0.9
				C206.4,90.7,205.9,90.2,205.4,90.2z"/>
		</g>
	</g>
	<g>
		<g>
			<path d="M202.6,86.1h-15.2c-0.5,0-0.9,0.4-0.9,0.9c0,0.5,0.4,0.9,0.9,0.9h15.2c0.5,0,0.9-0.4,0.9-0.9
				C203.6,86.5,203.1,86.1,202.6,86.1z"/>
		</g>
	</g>
	<g>
		<g>
			<path d="M206.1,86.4c-0.2-0.2-0.4-0.3-0.7-0.3s-0.5,0.1-0.7,0.3c-0.2,0.2-0.3,0.4-0.3,0.7s0.1,0.5,0.3,0.7
				c0.2,0.2,0.4,0.3,0.7,0.3s0.5-0.1,0.7-0.3c0.2-0.2,0.3-0.4,0.3-0.7S206.3,86.5,206.1,86.4z"/>
		</g>
	</g>
	<g>
		<g>
			<path class="st3" d="M205.4,94.4h-18c-0.5,0-0.9,0.4-0.9,0.9s0.4,0.9,0.9,0.9h18c0.5,0,0.9-0.4,0.9-0.9S205.9,94.4,205.4,94.4z"
				/>
		</g>
	</g>
	<g>
		<g>
			<path class="st3" d="M177.5,70.8l-0.9-0.7c0.3-0.6,0.4-1.2,0.4-1.9v-1.5c0-2.4-1.9-4.3-4.3-4.3c-2.4,0-4.3,1.9-4.3,4.3v1.5
				c0,2.4,1.9,4.3,4.3,4.3c1,0,2-0.4,2.7-1l0.9,0.7c0.2,0.1,0.4,0.2,0.6,0.2c0.3,0,0.6-0.1,0.8-0.4C178,71.7,177.9,71.1,177.5,70.8z
				 M175.1,68.3c0,0.3,0,0.5-0.1,0.7l-1-0.7c-0.4-0.3-1-0.2-1.3,0.2c-0.3,0.4-0.2,1,0.2,1.3l0.9,0.7c-0.3,0.2-0.7,0.3-1.1,0.3
				c-1.4,0-2.4-1.1-2.4-2.4v-1.5c0-1.4,1.1-2.4,2.4-2.4s2.4,1.1,2.4,2.4V68.3z"/>
		</g>
	</g>
</g>
<g id="internet" class="st17">
	<g class="st19">
		<g>
			<g>
				<path class="st36" d="M376.7,28.7C223.2,28.7,98.3-96.2,98.3-249.7s124.9-278.4,278.4-278.4c153.5,0,278.4,124.9,278.4,278.4
					S530.2,28.7,376.7,28.7z M249.4-111.4c-3.5,0-6.9,1.6-9.2,4.3c-2.3,2.7-3.2,6.3-2.6,9.8l0.6,3.5c5.1,29.2,19.2,55.6,40.5,76.4
					C300.2,3.4,327,16.7,356.4,21l3.4,0.5c0.6,0.1,1.2,0.1,1.7,0.1c2.9,0,5.7-1,7.9-2.9c2.6-2.3,4.1-5.6,4.1-9.1V-99.4
					c0-6.6-5.4-12-12-12H249.4z M391.8-111.4c-6.6,0-12,5.4-12,12V9.6c0,3.5,1.5,6.8,4.1,9.1c2.2,1.9,5,2.9,7.9,2.9
					c0.6,0,1.1,0,1.7-0.1L397,21c29.4-4.3,56.3-17.5,77.7-38.3c21.4-20.8,35.4-47.2,40.5-76.4l0.6-3.5c0.6-3.5-0.3-7.1-2.6-9.8
					c-2.3-2.7-5.6-4.3-9.2-4.3H391.8z M219.5-107c-1.2,0-2.4,0.2-3.5,0.5l-3.3,1c-12.1,3.8-23.7,9.3-34.3,16.4l-2.9,1.9
					c-2.9,1.9-4.8,5.1-5.2,8.5c-0.4,3.5,0.7,7,3,9.5l2.4,2.6c16.5,18.1,35.4,33.9,56.1,47c2,1.2,4.2,1.9,6.4,1.9
					c3.1,0,6.2-1.2,8.5-3.5l4.1-4.1c4-4,4.7-10.1,1.7-14.9c-10.3-16.4-17.2-34.4-20.5-53.5l-0.6-3.4c-0.6-3.4-2.6-6.4-5.5-8.2
					C223.9-106.4,221.7-107,219.5-107z M533.9-107c-2.2,0-4.4,0.6-6.3,1.8c-2.9,1.8-5,4.8-5.5,8.2l-0.6,3.4
					c-3.2,19.1-10.1,37-20.5,53.5c-3,4.7-2.3,10.9,1.7,14.9l4.1,4.1c2.3,2.3,5.4,3.5,8.5,3.5c2.2,0,4.4-0.6,6.4-1.9
					c20.7-13.1,39.6-28.9,56.1-47l2.4-2.6c2.4-2.6,3.5-6.1,3-9.5c-0.4-3.5-2.3-6.6-5.2-8.5l-2.9-1.9c-10.6-7.1-22.2-12.6-34.3-16.4
					l-3.3-1C536.3-106.8,535.1-107,533.9-107z M535.6-246.6c-6.6,0-12,5.4-12,12v108.9c0,5.5,3.8,10.3,9.1,11.6l2.3,0.6
					c16.4,4.1,31.7,11,45.7,20.8l2.5,1.7c2,1.4,4.4,2.1,6.9,2.1c0.7,0,1.5-0.1,2.2-0.2c3.1-0.6,5.9-2.4,7.7-5l1.7-2.5
					c27.1-39.7,43.2-86.1,46.6-134l0.2-3.2c0.2-3.3-0.9-6.6-3.2-9s-5.4-3.8-8.8-3.8H535.6z M116.9-246.6c-3.3,0-6.5,1.4-8.8,3.8
					c-2.3,2.4-3.4,5.7-3.2,9l0.2,3.2c3.3,47.9,19.5,94.2,46.6,134l1.7,2.5c1.8,2.6,4.6,4.5,7.7,5c0.7,0.1,1.4,0.2,2.2,0.2
					c2.4,0,4.8-0.7,6.9-2.1l2.5-1.7c14-9.7,29.4-16.7,45.7-20.8l2.3-0.6c5.4-1.3,9.1-6.1,9.1-11.6v-108.9c0-6.6-5.4-12-12-12H116.9z
					 M391.8-246.6c-6.6,0-12,5.4-12,12v105c0,6.6,5.4,12,12,12h109.5c0,0,0.9,0,0.9,0c0,0,3.1,0,3.1,0c3.2,0,6.2-1.2,8.4-3.5
					c2.3-2.3,3.6-5.3,3.6-8.5v-105.1c0-6.6-5.4-12-12-12H391.8z M248.1-246.6c-6.6,0-12,5.4-12,12v105c0,3.2,1.3,6.3,3.5,8.5
					c2.2,2.2,5.3,3.5,8.5,3.5c0,0,3.1,0,3.1,0c0.1,0,1.1,0,1.1,0l109.4,0c6.6,0,12-5.4,12-12v-105c0-6.6-5.4-12-12-12H248.1z
					 M589.3-411.6c-2,0-4.1,0.5-6,1.6l-2.4,1.4c-14.1,8.1-29.3,13.7-45.2,16.7l-2.4,0.5c-5.7,1.1-9.8,6-9.8,11.8v114.9
					c0,6.6,5.4,12,12,12h100.9c3.3,0,6.5-1.4,8.8-3.8c2.3-2.4,3.4-5.7,3.2-9l-0.2-3.2c-3.4-48.5-19.8-95.2-47.5-135.3l-1.6-2.3
					C596.9-409.7,593.1-411.6,589.3-411.6z M391.8-389.3c-6.6,0-12,5.4-12,12v112.5c0,6.6,5.4,12,12,12h113.5c6.6,0,12-5.4,12-12
					v-112.5c0-6.6-5.4-12-12-12H391.8z M248.1-389.3c-6.6,0-12,5.4-12,12v112.5c0,6.6,5.4,12,12,12h113.5c6.6,0,12-5.4,12-12v-112.5
					c0-6.6-5.4-12-12-12H248.1z M164.1-411.6c-3.8,0-7.6,1.8-9.9,5.2l-1.6,2.3c-27.7,40-44.1,86.8-47.5,135.3l-0.2,3.2
					c-0.2,3.3,0.9,6.6,3.2,9c2.3,2.4,5.4,3.8,8.8,3.8h100.9c6.6,0,12-5.4,12-12v-114.9c0-5.8-4.1-10.7-9.8-11.8l-2.4-0.5
					c-15.9-3-31.1-8.6-45.2-16.7l-2.4-1.4C168.2-411.1,166.1-411.6,164.1-411.6z M391.8-521c-2.9,0-5.7,1-7.9,2.9
					c-2.6,2.3-4.1,5.6-4.1,9.1v101.4c0,6.6,5.4,12,12,12h110.8c3.7,0,7.1-1.7,9.4-4.6s3.1-6.7,2.2-10.2l-0.9-3.7
					c-6.6-27.3-21-51.7-41.8-70.8c-20.9-19.2-46.7-31.5-74.7-35.5l-3.4-0.5C393-520.9,392.4-521,391.8-521z M361.6-521
					c-0.6,0-1.1,0-1.7,0.1l-3.4,0.5c-27.9,4.1-53.8,16.3-74.7,35.5c-20.8,19.1-35.2,43.5-41.8,70.8l-0.9,3.7
					c-0.9,3.6,0,7.3,2.2,10.2s5.7,4.6,9.4,4.6h110.8c6.6,0,12-5.4,12-12V-509c0-3.5-1.5-6.8-4.1-9.1C367.3-520,364.5-521,361.6-521z
					 M515.3-481.8c-3.1,0-6.2,1.2-8.5,3.5l-4.1,4.1c-4,4-4.7,10.1-1.7,14.9c9.5,15,16.1,31.4,19.6,48.8l0.6,3
					c0.6,3.2,2.5,5.9,5.2,7.7c2,1.3,4.2,1.9,6.5,1.9c0.9,0,1.7-0.1,2.6-0.3l3-0.7c11.7-2.6,23-6.6,33.7-12.1l3.5-1.8
					c3.3-1.7,5.7-4.9,6.3-8.6c0.7-3.7-0.5-7.5-3-10.2l-2.7-2.9c-16.2-17.5-34.6-32.8-54.6-45.5C519.8-481.2,517.6-481.8,515.3-481.8
					z M238.1-481.8c-2.2,0-4.4,0.6-6.4,1.9c-20.1,12.7-38.5,28-54.6,45.5l-2.7,2.9c-2.6,2.8-3.7,6.5-3,10.2c0.7,3.7,3,6.9,6.3,8.6
					l3.5,1.8c10.6,5.5,22,9.5,33.7,12.1l3,0.7c0.9,0.2,1.7,0.3,2.6,0.3c2.3,0,4.6-0.7,6.5-1.9c2.7-1.8,4.6-4.5,5.2-7.7l0.6-3
					c3.5-17.3,10.1-33.7,19.6-48.8c3-4.7,2.3-10.9-1.7-14.9l-4.1-4.1C244.2-480.6,241.2-481.8,238.1-481.8z"/>
			</g>
		</g>
	</g>
</g>
</svg>
