<?xml version="1.0" encoding="utf-8"?>
<!-- Generator: Adobe Illustrator 19.2.0, SVG Export Plug-In . SVG Version: 6.00 Build 0)  -->
<svg version="1.1" xmlns="http://www.w3.org/2000/svg" xmlns:xlink="http://www.w3.org/1999/xlink" x="0px" y="0px"
	 viewBox="0 0 1033 509.4" style="enable-background:new 0 0 1033 509.4;" xml:space="preserve">
<style type="text/css">
	.st0{fill:#EFEFEF;stroke:#231F20;stroke-width:3;stroke-linejoin:round;stroke-miterlimit:10;}
	.st1{fill:#FFFFFF;stroke:#231F20;stroke-width:2;stroke-linejoin:round;stroke-miterlimit:10;}
	.st2{fill:none;stroke:#231F20;stroke-width:3;stroke-linejoin:round;stroke-miterlimit:10;}
	.st3{fill:#D3D3D3;}
	.st4{fill:none;stroke:#231F20;stroke-width:2;stroke-linecap:round;stroke-miterlimit:10;}
	.st5{fill:none;stroke:#231F20;stroke-width:2;stroke-linecap:round;stroke-linejoin:round;stroke-miterlimit:10;}
	.st6{fill:#7B00DB;}
</style>
<g id="laptop">
	<path id="XMLID_28_" class="st0" d="M905,467.6H119v-450c0-5.5,4.5-10,10-10h769c3.9,0,7,3.1,7,7V467.6z"/>
	<path id="XMLID_33_" class="st1" d="M896,467.6H128.5V21.1c0-3.9,3.1-7,7-7c0,0,265,0.6,287.8,0.6c0,7.9,3.7,15.4,11.2,15.4
		s113.5,0,121,0c16.8,0,18.5-5.5,18.5-15.1c20,0,313,0.6,313,0.6c5,0,9,4,9,9V467.6z"/>
	<path id="XMLID_29_" class="st0" d="M27,467.6c17.4,0,963.8,0,975,0c0,13.3-6,28-28,28s-898,0-915,0S27,483,27,467.6z"/>
	<path id="XMLID_32_" class="st2" d="M602.7,467.6c0,12-5.7,11-14.3,11c-8.7,0-138.3,0-149,0c-10.7,0-15.3-1.7-15.3-11
		C436.7,467.6,602.7,467.6,602.7,467.6z"/>
	<circle id="XMLID_34_" class="st3" cx="540.3" cy="20" r="4.7"/>
	<path id="XMLID_35_" class="st3" d="M457.9,23.6h55.2c2,0,3.6-1.6,3.6-3.6v0c0-2-1.6-3.6-3.6-3.6h-55.2c-2,0-3.6,1.6-3.6,3.6v0
		C454.2,22,455.9,23.6,457.9,23.6z"/>
	<path id="XMLID_36_" class="st4" d="M136.7,28.8c0-6.5,3.9-8.5,8.7-8.5"/>
	<line id="XMLID_37_" class="st5" x1="136.7" y1="33.5" x2="136.7" y2="31.9"/>
</g>
<g id="house_widget">
	<g id="house">
	</g>
	<g id="trees">
	</g>
	<g id="flow">
		<g id="F">
			<path class="st6" d="M159.8,66c0,0,0-15.9,0-19.2c0-4.6,3.7-8.7,8.2-8.7c3.4,0,7.1,0,7.1,0s0.1,5.9-4.9,5.9
				c-5.1,0-4.4,5.3-4.4,5.3h6.8c0,0,0.1,6-4.4,6c-2.1,0-2.5,0-2.5,0s0,5.5,0,6.7C165.7,63.2,163.5,66,159.8,66z"/>
		</g>
		<g id="L">
			<path class="st6" d="M178.6,38.1c0,0,0,17.5,0,18.6c0,6.2,5.1,9.3,10.1,9.3c4,0,2.5,0,3.3,0c0-4.8-2.4-6.1-4.3-6.1
				c-1.6,0-3.1-1.2-3.1-3.4c0-1.3,0-13.5,0-15C184.6,40.1,183.2,38.1,178.6,38.1z"/>
		</g>
		<g id="O">
			<path class="st6" d="M214.3,39.6c3.4,3.7-1.6,6-2.9,5.4c-1.1-0.5-2.3-0.9-3.6-0.9c-4.3,0-7.8,3.5-7.8,7.8s3.5,7.8,7.8,7.8
				c4.3,0,7.8-3.5,7.8-7.8c0-1.1-0.3-2.2-0.7-3.2c-1.4-4,3.3-5.8,5.5-3l0.1,0.1c0.5,0.7,1.4,2.2,1.4,6c0,7.8-6.3,14-14,14
				s-14-6.3-14-14s6.3-14,14-14c3,0,4.2,0.4,6.1,1.5L214.3,39.6z"/>
		</g>
		<g id="finger3">
			<path class="st6" d="M192.7,48.2c-0.4-6.5-0.5-9.9-0.8-14.6c-2,0.6-2.8,2.3-2.4,3.7C190.2,39.9,191.2,43.2,192.7,48.2z"/>
		</g>
		<g id="finger2">
			<path class="st6" d="M193.4,48.2c1.5-6.6,3.1-13.2,4.6-19.8c-0.8-1.2-2.2-1.7-3.6-1.3c-1.3,0.4-2.2,1.6-2.2,2.9
				C192.6,36.1,193,42.2,193.4,48.2z"/>
		</g>
		<g id="finger1">
			<path class="st6" d="M205.9,27.3c0.7-3.9-5.3-5.3-6.6-1.5c-1.5,6.1-3.6,15.5-4.8,20.1c1.9-3.5,4.7-6.6,8.6-7.7
				C203.6,36.3,204.9,31.4,205.9,27.3z"/>
		</g>
		<g id="play">
			<path class="st6" d="M205.5,56l6-3.5c0.5-0.3,0.5-1,0-1.3l-6-3.5c-0.5-0.3-1.1,0.1-1.1,0.7v6.9C204.4,55.9,205,56.2,205.5,56z"/>
		</g>
		<g id="W">
			<path class="st6" d="M242.1,48.4c0,0-3.9,14.7-4.4,15.8c-0.5,1.1-1.2,1.9-4,1.9c-2.6,0-3.5-0.9-3.9-2.1c-0.2-0.7-7-25-7-25
				s3,0,4.2,0c1.6,0,2.9,1.5,3.4,3.4c0.4,1.1,3.3,14.3,3.3,14.3s3.9-13.5,4-14.3c0.4-1.9,1-3.6,2.4-3.6c1,0,2.1,0,2.1,0h0.1
				c0,0,1.1,0,2.1,0c1.4,0,1.9,1.7,2.4,3.6c0.2,0.8,4,14.3,4,14.3s2.9-13.1,3.3-14.3c0.5-1.8,1.8-3.4,3.4-3.4c1.3,0,4.2,0,4.2,0
				s-6.8,24.3-7,25c-0.4,1.2-1.3,2.1-3.9,2.1c-2.8,0-3.6-0.8-4-1.9C246,63.1,242.1,48.4,242.1,48.4z"/>
		</g>
	</g>
</g>
</svg>
